<?xml version="1.0" encoding="utf-8"?>
<svg xmlns="http://www.w3.org/2000/svg" xmlns:xlink="http://www.w3.org/1999/xlink" width="1200" height="350" viewBox="0 0 4800 1400">
<defs>
  <clipPath id="clip570">
    <rect x="0" y="0" width="4800" height="1400"/>
  </clipPath>
</defs>
<path clip-path="url(#clip570)" d="M0 1400 L4800 1400 L4800 0 L0 0  Z" fill="#ffffff" fill-rule="evenodd" fill-opacity="1"/>
<defs>
  <clipPath id="clip571">
    <rect x="960" y="0" width="3361" height="1400"/>
  </clipPath>
</defs>
<path clip-path="url(#clip570)" d="M224.064 1273.23 L1552.76 1273.23 L1552.76 88.0695 L224.064 88.0695  Z" fill="#ffffff" fill-rule="evenodd" fill-opacity="1"/>
<defs>
  <clipPath id="clip572">
    <rect x="224" y="88" width="1330" height="1186"/>
  </clipPath>
</defs>
<polyline clip-path="url(#clip572)" style="stroke:#000000; stroke-linecap:round; stroke-linejoin:round; stroke-width:2; stroke-opacity:0.1; fill:none" points="395.688,1273.23 395.688,88.0695 "/>
<polyline clip-path="url(#clip572)" style="stroke:#000000; stroke-linecap:round; stroke-linejoin:round; stroke-width:2; stroke-opacity:0.1; fill:none" points="592.777,1273.23 592.777,88.0695 "/>
<polyline clip-path="url(#clip572)" style="stroke:#000000; stroke-linecap:round; stroke-linejoin:round; stroke-width:2; stroke-opacity:0.1; fill:none" points="789.866,1273.23 789.866,88.0695 "/>
<polyline clip-path="url(#clip572)" style="stroke:#000000; stroke-linecap:round; stroke-linejoin:round; stroke-width:2; stroke-opacity:0.1; fill:none" points="986.954,1273.23 986.954,88.0695 "/>
<polyline clip-path="url(#clip572)" style="stroke:#000000; stroke-linecap:round; stroke-linejoin:round; stroke-width:2; stroke-opacity:0.1; fill:none" points="1184.04,1273.23 1184.04,88.0695 "/>
<polyline clip-path="url(#clip572)" style="stroke:#000000; stroke-linecap:round; stroke-linejoin:round; stroke-width:2; stroke-opacity:0.1; fill:none" points="1381.13,1273.23 1381.13,88.0695 "/>
<polyline clip-path="url(#clip570)" style="stroke:#000000; stroke-linecap:round; stroke-linejoin:round; stroke-width:4; stroke-opacity:1; fill:none" points="224.064,1273.23 1552.76,1273.23 "/>
<polyline clip-path="url(#clip570)" style="stroke:#000000; stroke-linecap:round; stroke-linejoin:round; stroke-width:4; stroke-opacity:1; fill:none" points="395.688,1273.23 395.688,1254.33 "/>
<polyline clip-path="url(#clip570)" style="stroke:#000000; stroke-linecap:round; stroke-linejoin:round; stroke-width:4; stroke-opacity:1; fill:none" points="592.777,1273.23 592.777,1254.33 "/>
<polyline clip-path="url(#clip570)" style="stroke:#000000; stroke-linecap:round; stroke-linejoin:round; stroke-width:4; stroke-opacity:1; fill:none" points="789.866,1273.23 789.866,1254.33 "/>
<polyline clip-path="url(#clip570)" style="stroke:#000000; stroke-linecap:round; stroke-linejoin:round; stroke-width:4; stroke-opacity:1; fill:none" points="986.954,1273.23 986.954,1254.33 "/>
<polyline clip-path="url(#clip570)" style="stroke:#000000; stroke-linecap:round; stroke-linejoin:round; stroke-width:4; stroke-opacity:1; fill:none" points="1184.04,1273.23 1184.04,1254.33 "/>
<polyline clip-path="url(#clip570)" style="stroke:#000000; stroke-linecap:round; stroke-linejoin:round; stroke-width:4; stroke-opacity:1; fill:none" points="1381.13,1273.23 1381.13,1254.33 "/>
<g clip-path="url(#clip570)">
<text style="fill:#000000; fill-opacity:1; font-family:Century Gothic,CenturyGothic,AppleGothic,sans-serif; font-size:47px; text-anchor:middle;" transform="rotate(0, 395.688, 1353.69)" x="395.688" y="1353.69">0</text>
</g>
<g clip-path="url(#clip570)">
<text style="fill:#000000; fill-opacity:1; font-family:Century Gothic,CenturyGothic,AppleGothic,sans-serif; font-size:47px; text-anchor:middle;" transform="rotate(0, 592.777, 1353.69)" x="592.777" y="1353.69">1</text>
</g>
<g clip-path="url(#clip570)">
<text style="fill:#000000; fill-opacity:1; font-family:Century Gothic,CenturyGothic,AppleGothic,sans-serif; font-size:47px; text-anchor:middle;" transform="rotate(0, 789.866, 1353.69)" x="789.866" y="1353.69">2</text>
</g>
<g clip-path="url(#clip570)">
<text style="fill:#000000; fill-opacity:1; font-family:Century Gothic,CenturyGothic,AppleGothic,sans-serif; font-size:47px; text-anchor:middle;" transform="rotate(0, 986.954, 1353.69)" x="986.954" y="1353.69">3</text>
</g>
<g clip-path="url(#clip570)">
<text style="fill:#000000; fill-opacity:1; font-family:Century Gothic,CenturyGothic,AppleGothic,sans-serif; font-size:47px; text-anchor:middle;" transform="rotate(0, 1184.04, 1353.69)" x="1184.04" y="1353.69">4</text>
</g>
<g clip-path="url(#clip570)">
<text style="fill:#000000; fill-opacity:1; font-family:Century Gothic,CenturyGothic,AppleGothic,sans-serif; font-size:47px; text-anchor:middle;" transform="rotate(0, 1381.13, 1353.69)" x="1381.13" y="1353.69">5</text>
</g>
<g clip-path="url(#clip570)">
<text style="fill:#000000; fill-opacity:1; font-family:Century Gothic,CenturyGothic,AppleGothic,sans-serif; font-size:65px; text-anchor:middle;" transform="rotate(0, 888.41, 1452.31)" x="888.41" y="1452.31">中心推定の正解数</text>
</g>
<polyline clip-path="url(#clip572)" style="stroke:#000000; stroke-linecap:round; stroke-linejoin:round; stroke-width:2; stroke-opacity:0.1; fill:none" points="224.064,1273.23 1552.76,1273.23 "/>
<polyline clip-path="url(#clip572)" style="stroke:#000000; stroke-linecap:round; stroke-linejoin:round; stroke-width:2; stroke-opacity:0.1; fill:none" points="224.064,994.366 1552.76,994.366 "/>
<polyline clip-path="url(#clip572)" style="stroke:#000000; stroke-linecap:round; stroke-linejoin:round; stroke-width:2; stroke-opacity:0.1; fill:none" points="224.064,715.505 1552.76,715.505 "/>
<polyline clip-path="url(#clip572)" style="stroke:#000000; stroke-linecap:round; stroke-linejoin:round; stroke-width:2; stroke-opacity:0.1; fill:none" points="224.064,436.645 1552.76,436.645 "/>
<polyline clip-path="url(#clip572)" style="stroke:#000000; stroke-linecap:round; stroke-linejoin:round; stroke-width:2; stroke-opacity:0.1; fill:none" points="224.064,157.785 1552.76,157.785 "/>
<polyline clip-path="url(#clip570)" style="stroke:#000000; stroke-linecap:round; stroke-linejoin:round; stroke-width:4; stroke-opacity:1; fill:none" points="224.064,1273.23 224.064,88.0695 "/>
<polyline clip-path="url(#clip570)" style="stroke:#000000; stroke-linecap:round; stroke-linejoin:round; stroke-width:4; stroke-opacity:1; fill:none" points="224.064,1273.23 242.961,1273.23 "/>
<polyline clip-path="url(#clip570)" style="stroke:#000000; stroke-linecap:round; stroke-linejoin:round; stroke-width:4; stroke-opacity:1; fill:none" points="224.064,994.366 242.961,994.366 "/>
<polyline clip-path="url(#clip570)" style="stroke:#000000; stroke-linecap:round; stroke-linejoin:round; stroke-width:4; stroke-opacity:1; fill:none" points="224.064,715.505 242.961,715.505 "/>
<polyline clip-path="url(#clip570)" style="stroke:#000000; stroke-linecap:round; stroke-linejoin:round; stroke-width:4; stroke-opacity:1; fill:none" points="224.064,436.645 242.961,436.645 "/>
<polyline clip-path="url(#clip570)" style="stroke:#000000; stroke-linecap:round; stroke-linejoin:round; stroke-width:4; stroke-opacity:1; fill:none" points="224.064,157.785 242.961,157.785 "/>
<g clip-path="url(#clip570)">
<text style="fill:#000000; fill-opacity:1; font-family:Century Gothic,CenturyGothic,AppleGothic,sans-serif; font-size:47px; text-anchor:middle;" transform="rotate(0, 139.127, 1290.73)" x="139.127" y="1290.73">0</text>
</g>
<g clip-path="url(#clip570)">
<text style="fill:#000000; fill-opacity:1; font-family:Century Gothic,CenturyGothic,AppleGothic,sans-serif; font-size:47px; text-anchor:middle;" transform="rotate(0, 113.254, 1011.87)" x="113.254" y="1011.87">200</text>
</g>
<g clip-path="url(#clip570)">
<text style="fill:#000000; fill-opacity:1; font-family:Century Gothic,CenturyGothic,AppleGothic,sans-serif; font-size:47px; text-anchor:middle;" transform="rotate(0, 113.254, 733.005)" x="113.254" y="733.005">400</text>
</g>
<g clip-path="url(#clip570)">
<text style="fill:#000000; fill-opacity:1; font-family:Century Gothic,CenturyGothic,AppleGothic,sans-serif; font-size:47px; text-anchor:middle;" transform="rotate(0, 113.254, 454.145)" x="113.254" y="454.145">600</text>
</g>
<g clip-path="url(#clip570)">
<text style="fill:#000000; fill-opacity:1; font-family:Century Gothic,CenturyGothic,AppleGothic,sans-serif; font-size:47px; text-anchor:middle;" transform="rotate(0, 113.254, 175.285)" x="113.254" y="175.285">800</text>
</g>
<g clip-path="url(#clip570)">
<text style="fill:#000000; fill-opacity:1; font-family:Century Gothic,CenturyGothic,AppleGothic,sans-serif; font-size:65px; text-anchor:middle;" transform="rotate(-90, -7.51163, 680.648)" x="-7.51163" y="680.648">度数</text>
</g>
<g clip-path="url(#clip570)">
<text style="fill:#000000; fill-opacity:1; font-family:Century Gothic,CenturyGothic,AppleGothic,sans-serif; font-size:81px; text-anchor:middle;" transform="rotate(0, 888.41, 72)" x="888.41" y="72">Setting : E, Method : EV</text>
</g>
<path clip-path="url(#clip572)" d="M297.144 1273.23 L297.144 1273.23 L494.233 1273.23 L494.233 1273.23 L297.144 1273.23 L297.144 1273.23  Z" fill="#009af9" fill-rule="evenodd" fill-opacity="1"/>
<polyline clip-path="url(#clip572)" style="stroke:#000000; stroke-linecap:round; stroke-linejoin:round; stroke-width:4; stroke-opacity:1; fill:none" points="297.144,1273.23 297.144,1273.23 494.233,1273.23 297.144,1273.23 "/>
<path clip-path="url(#clip572)" d="M494.233 1273.23 L494.233 1273.23 L691.321 1273.23 L691.321 1273.23 L494.233 1273.23 L494.233 1273.23  Z" fill="#009af9" fill-rule="evenodd" fill-opacity="1"/>
<polyline clip-path="url(#clip572)" style="stroke:#000000; stroke-linecap:round; stroke-linejoin:round; stroke-width:4; stroke-opacity:1; fill:none" points="494.233,1273.23 494.233,1273.23 691.321,1273.23 494.233,1273.23 "/>
<path clip-path="url(#clip572)" d="M691.321 1269.04 L691.321 1273.23 L888.41 1273.23 L888.41 1269.04 L691.321 1269.04 L691.321 1269.04  Z" fill="#009af9" fill-rule="evenodd" fill-opacity="1"/>
<polyline clip-path="url(#clip572)" style="stroke:#000000; stroke-linecap:round; stroke-linejoin:round; stroke-width:4; stroke-opacity:1; fill:none" points="691.321,1269.04 691.321,1273.23 888.41,1273.23 888.41,1269.04 691.321,1269.04 "/>
<path clip-path="url(#clip572)" d="M888.41 1117.06 L888.41 1273.23 L1085.5 1273.23 L1085.5 1117.06 L888.41 1117.06 L888.41 1117.06  Z" fill="#009af9" fill-rule="evenodd" fill-opacity="1"/>
<polyline clip-path="url(#clip572)" style="stroke:#000000; stroke-linecap:round; stroke-linejoin:round; stroke-width:4; stroke-opacity:1; fill:none" points="888.41,1117.06 888.41,1273.23 1085.5,1273.23 1085.5,1117.06 888.41,1117.06 "/>
<path clip-path="url(#clip572)" d="M1085.5 732.237 L1085.5 1273.23 L1282.59 1273.23 L1282.59 732.237 L1085.5 732.237 L1085.5 732.237  Z" fill="#009af9" fill-rule="evenodd" fill-opacity="1"/>
<polyline clip-path="url(#clip572)" style="stroke:#000000; stroke-linecap:round; stroke-linejoin:round; stroke-width:4; stroke-opacity:1; fill:none" points="1085.5,732.237 1085.5,1273.23 1282.59,1273.23 1282.59,732.237 1085.5,732.237 "/>
<path clip-path="url(#clip572)" d="M1282.59 580.258 L1282.59 1273.23 L1479.68 1273.23 L1479.68 580.258 L1282.59 580.258 L1282.59 580.258  Z" fill="#009af9" fill-rule="evenodd" fill-opacity="1"/>
<polyline clip-path="url(#clip572)" style="stroke:#000000; stroke-linecap:round; stroke-linejoin:round; stroke-width:4; stroke-opacity:1; fill:none" points="1282.59,580.258 1282.59,1273.23 1479.68,1273.23 1479.68,580.258 1282.59,580.258 "/>
<circle clip-path="url(#clip572)" style="fill:#009af9; stroke:none; fill-opacity:0" cx="395.688" cy="1273.23" r="2"/>
<circle clip-path="url(#clip572)" style="fill:#009af9; stroke:none; fill-opacity:0" cx="592.777" cy="1273.23" r="2"/>
<circle clip-path="url(#clip572)" style="fill:#009af9; stroke:none; fill-opacity:0" cx="789.866" cy="1269.04" r="2"/>
<circle clip-path="url(#clip572)" style="fill:#009af9; stroke:none; fill-opacity:0" cx="986.954" cy="1117.06" r="2"/>
<circle clip-path="url(#clip572)" style="fill:#009af9; stroke:none; fill-opacity:0" cx="1184.04" cy="732.237" r="2"/>
<circle clip-path="url(#clip572)" style="fill:#009af9; stroke:none; fill-opacity:0" cx="1381.13" cy="580.258" r="2"/>
<path clip-path="url(#clip570)" d="M297.144 136.185 L305.854 136.185 L316.878 165.583 L327.96 136.185 L336.669 136.185 L336.669 179.385 L330.969 179.385 L330.969 141.451 L319.829 171.08 L313.955 171.08 L302.815 141.451 L302.815 179.385 L297.144 179.385 L297.144 136.185 Z" fill="#000000" fill-rule="nonzero" fill-opacity="1" /><path clip-path="url(#clip570)" d="M375.761 161.85 L375.761 164.454 L351.282 164.454 Q351.629 169.952 354.58 172.845 Q357.561 175.71 362.856 175.71 Q365.923 175.71 368.787 174.958 Q371.681 174.205 374.516 172.701 L374.516 177.735 Q371.652 178.951 368.643 179.587 Q365.633 180.224 362.537 180.224 Q354.783 180.224 350.24 175.71 Q345.726 171.196 345.726 163.499 Q345.726 155.542 350.008 150.884 Q354.32 146.196 361.611 146.196 Q368.151 146.196 371.941 150.421 Q375.761 154.616 375.761 161.85 M370.437 160.288 Q370.379 155.918 367.977 153.314 Q365.604 150.71 361.669 150.71 Q357.213 150.71 354.522 153.227 Q351.86 155.745 351.455 160.316 L370.437 160.288 Z" fill="#000000" fill-rule="nonzero" fill-opacity="1" /><path clip-path="url(#clip570)" d="M399.227 163.094 Q392.774 163.094 390.286 164.57 Q387.798 166.046 387.798 169.605 Q387.798 172.44 389.649 174.118 Q391.53 175.768 394.742 175.768 Q399.169 175.768 401.831 172.643 Q404.522 169.489 404.522 164.281 L404.522 163.094 L399.227 163.094 M409.846 160.895 L409.846 179.385 L404.522 179.385 L404.522 174.466 Q402.699 177.417 399.979 178.835 Q397.259 180.224 393.324 180.224 Q388.347 180.224 385.396 177.446 Q382.474 174.639 382.474 169.952 Q382.474 164.483 386.119 161.705 Q389.794 158.928 397.057 158.928 L404.522 158.928 L404.522 158.407 Q404.522 154.732 402.092 152.735 Q399.69 150.71 395.321 150.71 Q392.543 150.71 389.91 151.376 Q387.277 152.041 384.846 153.372 L384.846 148.453 Q387.769 147.325 390.518 146.775 Q393.266 146.196 395.87 146.196 Q402.902 146.196 406.374 149.842 Q409.846 153.488 409.846 160.895 Z" fill="#000000" fill-rule="nonzero" fill-opacity="1" /><path clip-path="url(#clip570)" d="M447.751 159.825 L447.751 179.385 L442.427 179.385 L442.427 159.998 Q442.427 155.397 440.633 153.112 Q438.839 150.826 435.251 150.826 Q430.94 150.826 428.451 153.575 Q425.963 156.323 425.963 161.069 L425.963 179.385 L420.61 179.385 L420.61 146.977 L425.963 146.977 L425.963 152.012 Q427.873 149.09 430.448 147.643 Q433.052 146.196 436.437 146.196 Q442.022 146.196 444.886 149.668 Q447.751 153.112 447.751 159.825 Z" fill="#000000" fill-rule="nonzero" fill-opacity="1" /><path clip-path="url(#clip570)" d="M477.901 152.475 L514.996 152.475 L514.996 157.336 L477.901 157.336 L477.901 152.475 M477.901 164.281 L514.996 164.281 L514.996 169.2 L477.901 169.2 L477.901 164.281 Z" fill="#000000" fill-rule="nonzero" fill-opacity="1" /><path clip-path="url(#clip570)" d="M562.507 141.277 L547.75 164.338 L562.507 164.338 L562.507 141.277 M560.974 136.185 L568.323 136.185 L568.323 164.338 L574.486 164.338 L574.486 169.2 L568.323 169.2 L568.323 179.385 L562.507 179.385 L562.507 169.2 L543.005 169.2 L543.005 163.557 L560.974 136.185 Z" fill="#000000" fill-rule="nonzero" fill-opacity="1" /><path clip-path="url(#clip570)" d="M584.151 172.035 L590.256 172.035 L590.256 179.385 L584.151 179.385 L584.151 172.035 Z" fill="#000000" fill-rule="nonzero" fill-opacity="1" /><path clip-path="url(#clip570)" d="M620.696 156.092 Q624.891 156.989 627.235 159.825 Q629.608 162.66 629.608 166.827 Q629.608 173.221 625.21 176.723 Q620.811 180.224 612.71 180.224 Q609.99 180.224 607.096 179.674 Q604.232 179.153 601.165 178.083 L601.165 172.44 Q603.595 173.858 606.489 174.581 Q609.382 175.305 612.536 175.305 Q618.034 175.305 620.898 173.135 Q623.792 170.965 623.792 166.827 Q623.792 163.007 621.101 160.866 Q618.439 158.696 613.664 158.696 L608.63 158.696 L608.63 153.893 L613.896 153.893 Q618.207 153.893 620.493 152.186 Q622.779 150.45 622.779 147.209 Q622.779 143.881 620.406 142.116 Q618.063 140.322 613.664 140.322 Q611.263 140.322 608.514 140.843 Q605.765 141.364 602.467 142.464 L602.467 137.255 Q605.794 136.329 608.688 135.866 Q611.61 135.403 614.185 135.403 Q620.84 135.403 624.718 138.442 Q628.595 141.451 628.595 146.601 Q628.595 150.189 626.541 152.678 Q624.486 155.137 620.696 156.092 Z" fill="#000000" fill-rule="nonzero" fill-opacity="1" /><path clip-path="url(#clip570)" d="M639.214 136.185 L666.992 136.185 L666.992 138.673 L651.309 179.385 L645.204 179.385 L659.961 141.104 L639.214 141.104 L639.214 136.185 Z" fill="#000000" fill-rule="nonzero" fill-opacity="1" /><path clip-path="url(#clip570)" d="M678.566 178.488 L678.566 173.164 Q680.765 174.205 683.022 174.755 Q685.279 175.305 687.449 175.305 Q693.236 175.305 696.274 171.427 Q699.341 167.521 699.775 159.593 Q698.097 162.081 695.522 163.412 Q692.946 164.744 689.821 164.744 Q683.34 164.744 679.55 160.837 Q675.788 156.902 675.788 150.102 Q675.788 143.447 679.723 139.425 Q683.658 135.403 690.198 135.403 Q697.692 135.403 701.627 141.161 Q705.591 146.891 705.591 157.828 Q705.591 168.042 700.73 174.147 Q695.898 180.224 687.709 180.224 Q685.51 180.224 683.253 179.79 Q680.996 179.356 678.566 178.488 M690.198 160.172 Q694.133 160.172 696.419 157.481 Q698.733 154.79 698.733 150.102 Q698.733 145.444 696.419 142.753 Q694.133 140.033 690.198 140.033 Q686.262 140.033 683.948 142.753 Q681.662 145.444 681.662 150.102 Q681.662 154.79 683.948 157.481 Q686.262 160.172 690.198 160.172 Z" fill="#000000" fill-rule="nonzero" fill-opacity="1" /><path clip-path="url(#clip570)" d="M302.989 210.703 L302.989 244.297 L310.049 244.297 Q318.99 244.297 323.128 240.246 Q327.294 236.195 327.294 227.456 Q327.294 218.776 323.128 214.754 Q318.99 210.703 310.049 210.703 L302.989 210.703 M297.144 205.9 L309.152 205.9 Q321.71 205.9 327.584 211.137 Q333.458 216.345 333.458 227.456 Q333.458 238.625 327.555 243.862 Q321.652 249.1 309.152 249.1 L297.144 249.1 L297.144 205.9 Z" fill="#000000" fill-rule="nonzero" fill-opacity="1" /><path clip-path="url(#clip570)" d="M342.543 216.692 L347.867 216.692 L347.867 249.1 L342.543 249.1 L342.543 216.692 M342.543 204.077 L347.867 204.077 L347.867 210.819 L342.543 210.819 L342.543 204.077 Z" fill="#000000" fill-rule="nonzero" fill-opacity="1" /><path clip-path="url(#clip570)" d="M379.667 217.647 L379.667 222.682 Q377.41 221.525 374.979 220.946 Q372.549 220.367 369.945 220.367 Q365.981 220.367 363.984 221.583 Q362.016 222.798 362.016 225.228 Q362.016 227.08 363.434 228.151 Q364.852 229.192 369.135 230.147 L370.957 230.552 Q376.629 231.768 379.001 233.996 Q381.403 236.195 381.403 240.159 Q381.403 244.673 377.815 247.306 Q374.256 249.939 368.006 249.939 Q365.402 249.939 362.566 249.418 Q359.76 248.926 356.635 247.913 L356.635 242.416 Q359.586 243.949 362.451 244.731 Q365.315 245.483 368.122 245.483 Q371.883 245.483 373.909 244.21 Q375.934 242.908 375.934 240.564 Q375.934 238.394 374.459 237.236 Q373.012 236.079 368.064 235.008 L366.212 234.574 Q361.264 233.533 359.065 231.391 Q356.866 229.221 356.866 225.46 Q356.866 220.888 360.107 218.4 Q363.348 215.911 369.308 215.911 Q372.259 215.911 374.864 216.345 Q377.468 216.779 379.667 217.647 Z" fill="#000000" fill-rule="nonzero" fill-opacity="1" /><path clip-path="url(#clip570)" d="M395.147 207.491 L395.147 216.692 L406.113 216.692 L406.113 220.83 L395.147 220.83 L395.147 238.423 Q395.147 242.387 396.218 243.515 Q397.317 244.644 400.645 244.644 L406.113 244.644 L406.113 249.1 L400.645 249.1 Q394.482 249.1 392.138 246.814 Q389.794 244.499 389.794 238.423 L389.794 220.83 L385.888 220.83 L385.888 216.692 L389.794 216.692 L389.794 207.491 L395.147 207.491 Z" fill="#000000" fill-rule="nonzero" fill-opacity="1" /><path clip-path="url(#clip570)" d="M432.647 222.19 L469.742 222.19 L469.742 227.051 L432.647 227.051 L432.647 222.19 M432.647 233.996 L469.742 233.996 L469.742 238.915 L432.647 238.915 L432.647 233.996 Z" fill="#000000" fill-rule="nonzero" fill-opacity="1" /><path clip-path="url(#clip570)" d="M513.694 209.748 Q509.18 209.748 506.894 214.204 Q504.637 218.631 504.637 227.543 Q504.637 236.426 506.894 240.882 Q509.18 245.309 513.694 245.309 Q518.237 245.309 520.494 240.882 Q522.78 236.426 522.78 227.543 Q522.78 218.631 520.494 214.204 Q518.237 209.748 513.694 209.748 M513.694 205.118 Q520.957 205.118 524.776 210.877 Q528.624 216.606 528.624 227.543 Q528.624 238.452 524.776 244.21 Q520.957 249.939 513.694 249.939 Q506.431 249.939 502.583 244.21 Q498.763 238.452 498.763 227.543 Q498.763 216.606 502.583 210.877 Q506.431 205.118 513.694 205.118 Z" fill="#000000" fill-rule="nonzero" fill-opacity="1" /><path clip-path="url(#clip570)" d="M538.896 241.75 L545.002 241.75 L545.002 249.1 L538.896 249.1 L538.896 241.75 Z" fill="#000000" fill-rule="nonzero" fill-opacity="1" /><path clip-path="url(#clip570)" d="M570.233 209.748 Q565.719 209.748 563.433 214.204 Q561.176 218.631 561.176 227.543 Q561.176 236.426 563.433 240.882 Q565.719 245.309 570.233 245.309 Q574.776 245.309 577.033 240.882 Q579.319 236.426 579.319 227.543 Q579.319 218.631 577.033 214.204 Q574.776 209.748 570.233 209.748 M570.233 205.118 Q577.496 205.118 581.315 210.877 Q585.163 216.606 585.163 227.543 Q585.163 238.452 581.315 244.21 Q577.496 249.939 570.233 249.939 Q562.97 249.939 559.122 244.21 Q555.302 238.452 555.302 227.543 Q555.302 216.606 559.122 210.877 Q562.97 205.118 570.233 205.118 Z" fill="#000000" fill-rule="nonzero" fill-opacity="1" /><path clip-path="url(#clip570)" d="M600.47 244.181 L620.869 244.181 L620.869 249.1 L593.439 249.1 L593.439 244.181 Q596.766 240.738 602.496 234.951 Q608.254 229.135 609.729 227.456 Q612.536 224.302 613.636 222.132 Q614.764 219.933 614.764 217.821 Q614.764 214.378 612.333 212.208 Q609.932 210.037 606.055 210.037 Q603.306 210.037 600.239 210.992 Q597.2 211.947 593.728 213.886 L593.728 207.983 Q597.258 206.565 600.325 205.842 Q603.393 205.118 605.939 205.118 Q612.652 205.118 616.645 208.475 Q620.638 211.831 620.638 217.445 Q620.638 220.107 619.625 222.508 Q618.641 224.881 616.008 228.122 Q615.285 228.961 611.408 232.983 Q607.53 236.976 600.47 244.181 Z" fill="#000000" fill-rule="nonzero" fill-opacity="1" /><path clip-path="url(#clip570)" d="M638.172 244.181 L658.572 244.181 L658.572 249.1 L631.141 249.1 L631.141 244.181 Q634.469 240.738 640.198 234.951 Q645.956 229.135 647.432 227.456 Q650.238 224.302 651.338 222.132 Q652.466 219.933 652.466 217.821 Q652.466 214.378 650.036 212.208 Q647.634 210.037 643.757 210.037 Q641.008 210.037 637.941 210.992 Q634.903 211.947 631.431 213.886 L631.431 207.983 Q634.961 206.565 638.028 205.842 Q641.095 205.118 643.641 205.118 Q650.354 205.118 654.347 208.475 Q658.34 211.831 658.34 217.445 Q658.34 220.107 657.327 222.508 Q656.344 224.881 653.711 228.122 Q652.987 228.961 649.11 232.983 Q645.233 236.976 638.172 244.181 Z" fill="#000000" fill-rule="nonzero" fill-opacity="1" /><path clip-path="url(#clip570)" d="M684.063 225.17 Q680.128 225.17 677.813 227.861 Q675.528 230.552 675.528 235.24 Q675.528 239.898 677.813 242.618 Q680.128 245.309 684.063 245.309 Q687.999 245.309 690.284 242.618 Q692.599 239.898 692.599 235.24 Q692.599 230.552 690.284 227.861 Q687.999 225.17 684.063 225.17 M695.666 206.855 L695.666 212.179 Q693.467 211.137 691.21 210.587 Q688.982 210.037 686.783 210.037 Q680.996 210.037 677.929 213.944 Q674.891 217.85 674.457 225.749 Q676.164 223.232 678.739 221.901 Q681.315 220.541 684.411 220.541 Q690.921 220.541 694.683 224.505 Q698.473 228.44 698.473 235.24 Q698.473 241.895 694.538 245.917 Q690.603 249.939 684.063 249.939 Q676.569 249.939 672.605 244.21 Q668.641 238.452 668.641 227.543 Q668.641 217.3 673.502 211.224 Q678.363 205.118 686.552 205.118 Q688.751 205.118 690.979 205.553 Q693.236 205.987 695.666 206.855 Z" fill="#000000" fill-rule="nonzero" fill-opacity="1" /><path clip-path="url(#clip570)" d="M724.601 210.992 L709.844 234.054 L724.601 234.054 L724.601 210.992 M723.068 205.9 L730.417 205.9 L730.417 234.054 L736.58 234.054 L736.58 238.915 L730.417 238.915 L730.417 249.1 L724.601 249.1 L724.601 238.915 L705.099 238.915 L705.099 233.272 L723.068 205.9 Z" fill="#000000" fill-rule="nonzero" fill-opacity="1" /><path clip-path="url(#clip570)" d="M1824.06 1273.23 L3152.76 1273.23 L3152.76 88.0695 L1824.06 88.0695  Z" fill="#ffffff" fill-rule="evenodd" fill-opacity="1"/>
<defs>
  <clipPath id="clip573">
    <rect x="1824" y="88" width="1330" height="1186"/>
  </clipPath>
</defs>
<polyline clip-path="url(#clip573)" style="stroke:#000000; stroke-linecap:round; stroke-linejoin:round; stroke-width:2; stroke-opacity:0.1; fill:none" points="1995.69,1273.23 1995.69,88.0695 "/>
<polyline clip-path="url(#clip573)" style="stroke:#000000; stroke-linecap:round; stroke-linejoin:round; stroke-width:2; stroke-opacity:0.1; fill:none" points="2192.78,1273.23 2192.78,88.0695 "/>
<polyline clip-path="url(#clip573)" style="stroke:#000000; stroke-linecap:round; stroke-linejoin:round; stroke-width:2; stroke-opacity:0.1; fill:none" points="2389.87,1273.23 2389.87,88.0695 "/>
<polyline clip-path="url(#clip573)" style="stroke:#000000; stroke-linecap:round; stroke-linejoin:round; stroke-width:2; stroke-opacity:0.1; fill:none" points="2586.95,1273.23 2586.95,88.0695 "/>
<polyline clip-path="url(#clip573)" style="stroke:#000000; stroke-linecap:round; stroke-linejoin:round; stroke-width:2; stroke-opacity:0.1; fill:none" points="2784.04,1273.23 2784.04,88.0695 "/>
<polyline clip-path="url(#clip573)" style="stroke:#000000; stroke-linecap:round; stroke-linejoin:round; stroke-width:2; stroke-opacity:0.1; fill:none" points="2981.13,1273.23 2981.13,88.0695 "/>
<polyline clip-path="url(#clip570)" style="stroke:#000000; stroke-linecap:round; stroke-linejoin:round; stroke-width:4; stroke-opacity:1; fill:none" points="1824.06,1273.23 3152.76,1273.23 "/>
<polyline clip-path="url(#clip570)" style="stroke:#000000; stroke-linecap:round; stroke-linejoin:round; stroke-width:4; stroke-opacity:1; fill:none" points="1995.69,1273.23 1995.69,1254.33 "/>
<polyline clip-path="url(#clip570)" style="stroke:#000000; stroke-linecap:round; stroke-linejoin:round; stroke-width:4; stroke-opacity:1; fill:none" points="2192.78,1273.23 2192.78,1254.33 "/>
<polyline clip-path="url(#clip570)" style="stroke:#000000; stroke-linecap:round; stroke-linejoin:round; stroke-width:4; stroke-opacity:1; fill:none" points="2389.87,1273.23 2389.87,1254.33 "/>
<polyline clip-path="url(#clip570)" style="stroke:#000000; stroke-linecap:round; stroke-linejoin:round; stroke-width:4; stroke-opacity:1; fill:none" points="2586.95,1273.23 2586.95,1254.33 "/>
<polyline clip-path="url(#clip570)" style="stroke:#000000; stroke-linecap:round; stroke-linejoin:round; stroke-width:4; stroke-opacity:1; fill:none" points="2784.04,1273.23 2784.04,1254.33 "/>
<polyline clip-path="url(#clip570)" style="stroke:#000000; stroke-linecap:round; stroke-linejoin:round; stroke-width:4; stroke-opacity:1; fill:none" points="2981.13,1273.23 2981.13,1254.33 "/>
<g clip-path="url(#clip570)">
<text style="fill:#000000; fill-opacity:1; font-family:Century Gothic,CenturyGothic,AppleGothic,sans-serif; font-size:47px; text-anchor:middle;" transform="rotate(0, 1995.69, 1353.69)" x="1995.69" y="1353.69">0</text>
</g>
<g clip-path="url(#clip570)">
<text style="fill:#000000; fill-opacity:1; font-family:Century Gothic,CenturyGothic,AppleGothic,sans-serif; font-size:47px; text-anchor:middle;" transform="rotate(0, 2192.78, 1353.69)" x="2192.78" y="1353.69">1</text>
</g>
<g clip-path="url(#clip570)">
<text style="fill:#000000; fill-opacity:1; font-family:Century Gothic,CenturyGothic,AppleGothic,sans-serif; font-size:47px; text-anchor:middle;" transform="rotate(0, 2389.87, 1353.69)" x="2389.87" y="1353.69">2</text>
</g>
<g clip-path="url(#clip570)">
<text style="fill:#000000; fill-opacity:1; font-family:Century Gothic,CenturyGothic,AppleGothic,sans-serif; font-size:47px; text-anchor:middle;" transform="rotate(0, 2586.95, 1353.69)" x="2586.95" y="1353.69">3</text>
</g>
<g clip-path="url(#clip570)">
<text style="fill:#000000; fill-opacity:1; font-family:Century Gothic,CenturyGothic,AppleGothic,sans-serif; font-size:47px; text-anchor:middle;" transform="rotate(0, 2784.04, 1353.69)" x="2784.04" y="1353.69">4</text>
</g>
<g clip-path="url(#clip570)">
<text style="fill:#000000; fill-opacity:1; font-family:Century Gothic,CenturyGothic,AppleGothic,sans-serif; font-size:47px; text-anchor:middle;" transform="rotate(0, 2981.13, 1353.69)" x="2981.13" y="1353.69">5</text>
</g>
<g clip-path="url(#clip570)">
<text style="fill:#000000; fill-opacity:1; font-family:Century Gothic,CenturyGothic,AppleGothic,sans-serif; font-size:65px; text-anchor:middle;" transform="rotate(0, 2488.41, 1452.31)" x="2488.41" y="1452.31">中心推定の正解数</text>
</g>
<polyline clip-path="url(#clip573)" style="stroke:#000000; stroke-linecap:round; stroke-linejoin:round; stroke-width:2; stroke-opacity:0.1; fill:none" points="1824.06,1273.23 3152.76,1273.23 "/>
<polyline clip-path="url(#clip573)" style="stroke:#000000; stroke-linecap:round; stroke-linejoin:round; stroke-width:2; stroke-opacity:0.1; fill:none" points="1824.06,994.366 3152.76,994.366 "/>
<polyline clip-path="url(#clip573)" style="stroke:#000000; stroke-linecap:round; stroke-linejoin:round; stroke-width:2; stroke-opacity:0.1; fill:none" points="1824.06,715.505 3152.76,715.505 "/>
<polyline clip-path="url(#clip573)" style="stroke:#000000; stroke-linecap:round; stroke-linejoin:round; stroke-width:2; stroke-opacity:0.1; fill:none" points="1824.06,436.645 3152.76,436.645 "/>
<polyline clip-path="url(#clip573)" style="stroke:#000000; stroke-linecap:round; stroke-linejoin:round; stroke-width:2; stroke-opacity:0.1; fill:none" points="1824.06,157.785 3152.76,157.785 "/>
<polyline clip-path="url(#clip570)" style="stroke:#000000; stroke-linecap:round; stroke-linejoin:round; stroke-width:4; stroke-opacity:1; fill:none" points="1824.06,1273.23 1824.06,88.0695 "/>
<polyline clip-path="url(#clip570)" style="stroke:#000000; stroke-linecap:round; stroke-linejoin:round; stroke-width:4; stroke-opacity:1; fill:none" points="1824.06,1273.23 1842.96,1273.23 "/>
<polyline clip-path="url(#clip570)" style="stroke:#000000; stroke-linecap:round; stroke-linejoin:round; stroke-width:4; stroke-opacity:1; fill:none" points="1824.06,994.366 1842.96,994.366 "/>
<polyline clip-path="url(#clip570)" style="stroke:#000000; stroke-linecap:round; stroke-linejoin:round; stroke-width:4; stroke-opacity:1; fill:none" points="1824.06,715.505 1842.96,715.505 "/>
<polyline clip-path="url(#clip570)" style="stroke:#000000; stroke-linecap:round; stroke-linejoin:round; stroke-width:4; stroke-opacity:1; fill:none" points="1824.06,436.645 1842.96,436.645 "/>
<polyline clip-path="url(#clip570)" style="stroke:#000000; stroke-linecap:round; stroke-linejoin:round; stroke-width:4; stroke-opacity:1; fill:none" points="1824.06,157.785 1842.96,157.785 "/>
<g clip-path="url(#clip570)">
<text style="fill:#000000; fill-opacity:1; font-family:Century Gothic,CenturyGothic,AppleGothic,sans-serif; font-size:47px; text-anchor:middle;" transform="rotate(0, 1739.13, 1290.73)" x="1739.13" y="1290.73">0</text>
</g>
<g clip-path="url(#clip570)">
<text style="fill:#000000; fill-opacity:1; font-family:Century Gothic,CenturyGothic,AppleGothic,sans-serif; font-size:47px; text-anchor:middle;" transform="rotate(0, 1713.25, 1011.87)" x="1713.25" y="1011.87">200</text>
</g>
<g clip-path="url(#clip570)">
<text style="fill:#000000; fill-opacity:1; font-family:Century Gothic,CenturyGothic,AppleGothic,sans-serif; font-size:47px; text-anchor:middle;" transform="rotate(0, 1713.25, 733.005)" x="1713.25" y="733.005">400</text>
</g>
<g clip-path="url(#clip570)">
<text style="fill:#000000; fill-opacity:1; font-family:Century Gothic,CenturyGothic,AppleGothic,sans-serif; font-size:47px; text-anchor:middle;" transform="rotate(0, 1713.25, 454.145)" x="1713.25" y="454.145">600</text>
</g>
<g clip-path="url(#clip570)">
<text style="fill:#000000; fill-opacity:1; font-family:Century Gothic,CenturyGothic,AppleGothic,sans-serif; font-size:47px; text-anchor:middle;" transform="rotate(0, 1713.25, 175.285)" x="1713.25" y="175.285">800</text>
</g>
<g clip-path="url(#clip570)">
<text style="fill:#000000; fill-opacity:1; font-family:Century Gothic,CenturyGothic,AppleGothic,sans-serif; font-size:65px; text-anchor:middle;" transform="rotate(-90, 1592.49, 680.648)" x="1592.49" y="680.648">度数</text>
</g>
<g clip-path="url(#clip570)">
<text style="fill:#000000; fill-opacity:1; font-family:Century Gothic,CenturyGothic,AppleGothic,sans-serif; font-size:81px; text-anchor:middle;" transform="rotate(0, 2488.41, 72)" x="2488.41" y="72">Setting : E, Method : GM</text>
</g>
<path clip-path="url(#clip573)" d="M1897.14 1273.23 L1897.14 1273.23 L2094.23 1273.23 L2094.23 1273.23 L1897.14 1273.23 L1897.14 1273.23  Z" fill="#009af9" fill-rule="evenodd" fill-opacity="1"/>
<polyline clip-path="url(#clip573)" style="stroke:#000000; stroke-linecap:round; stroke-linejoin:round; stroke-width:4; stroke-opacity:1; fill:none" points="1897.14,1273.23 1897.14,1273.23 2094.23,1273.23 1897.14,1273.23 "/>
<path clip-path="url(#clip573)" d="M2094.23 1273.23 L2094.23 1273.23 L2291.32 1273.23 L2291.32 1273.23 L2094.23 1273.23 L2094.23 1273.23  Z" fill="#009af9" fill-rule="evenodd" fill-opacity="1"/>
<polyline clip-path="url(#clip573)" style="stroke:#000000; stroke-linecap:round; stroke-linejoin:round; stroke-width:4; stroke-opacity:1; fill:none" points="2094.23,1273.23 2094.23,1273.23 2291.32,1273.23 2094.23,1273.23 "/>
<path clip-path="url(#clip573)" d="M2291.32 1269.04 L2291.32 1273.23 L2488.41 1273.23 L2488.41 1269.04 L2291.32 1269.04 L2291.32 1269.04  Z" fill="#009af9" fill-rule="evenodd" fill-opacity="1"/>
<polyline clip-path="url(#clip573)" style="stroke:#000000; stroke-linecap:round; stroke-linejoin:round; stroke-width:4; stroke-opacity:1; fill:none" points="2291.32,1269.04 2291.32,1273.23 2488.41,1273.23 2488.41,1269.04 2291.32,1269.04 "/>
<path clip-path="url(#clip573)" d="M2488.41 1117.06 L2488.41 1273.23 L2685.5 1273.23 L2685.5 1117.06 L2488.41 1117.06 L2488.41 1117.06  Z" fill="#009af9" fill-rule="evenodd" fill-opacity="1"/>
<polyline clip-path="url(#clip573)" style="stroke:#000000; stroke-linecap:round; stroke-linejoin:round; stroke-width:4; stroke-opacity:1; fill:none" points="2488.41,1117.06 2488.41,1273.23 2685.5,1273.23 2685.5,1117.06 2488.41,1117.06 "/>
<path clip-path="url(#clip573)" d="M2685.5 740.603 L2685.5 1273.23 L2882.59 1273.23 L2882.59 740.603 L2685.5 740.603 L2685.5 740.603  Z" fill="#009af9" fill-rule="evenodd" fill-opacity="1"/>
<polyline clip-path="url(#clip573)" style="stroke:#000000; stroke-linecap:round; stroke-linejoin:round; stroke-width:4; stroke-opacity:1; fill:none" points="2685.5,740.603 2685.5,1273.23 2882.59,1273.23 2882.59,740.603 2685.5,740.603 "/>
<path clip-path="url(#clip573)" d="M2882.59 571.892 L2882.59 1273.23 L3079.68 1273.23 L3079.68 571.892 L2882.59 571.892 L2882.59 571.892  Z" fill="#009af9" fill-rule="evenodd" fill-opacity="1"/>
<polyline clip-path="url(#clip573)" style="stroke:#000000; stroke-linecap:round; stroke-linejoin:round; stroke-width:4; stroke-opacity:1; fill:none" points="2882.59,571.892 2882.59,1273.23 3079.68,1273.23 3079.68,571.892 2882.59,571.892 "/>
<circle clip-path="url(#clip573)" style="fill:#009af9; stroke:none; fill-opacity:0" cx="1995.69" cy="1273.23" r="2"/>
<circle clip-path="url(#clip573)" style="fill:#009af9; stroke:none; fill-opacity:0" cx="2192.78" cy="1273.23" r="2"/>
<circle clip-path="url(#clip573)" style="fill:#009af9; stroke:none; fill-opacity:0" cx="2389.87" cy="1269.04" r="2"/>
<circle clip-path="url(#clip573)" style="fill:#009af9; stroke:none; fill-opacity:0" cx="2586.95" cy="1117.06" r="2"/>
<circle clip-path="url(#clip573)" style="fill:#009af9; stroke:none; fill-opacity:0" cx="2784.04" cy="740.603" r="2"/>
<circle clip-path="url(#clip573)" style="fill:#009af9; stroke:none; fill-opacity:0" cx="2981.13" cy="571.892" r="2"/>
<path clip-path="url(#clip570)" d="M1897.14 136.185 L1905.85 136.185 L1916.88 165.583 L1927.96 136.185 L1936.67 136.185 L1936.67 179.385 L1930.97 179.385 L1930.97 141.451 L1919.83 171.08 L1913.96 171.08 L1902.82 141.451 L1902.82 179.385 L1897.14 179.385 L1897.14 136.185 Z" fill="#000000" fill-rule="nonzero" fill-opacity="1" /><path clip-path="url(#clip570)" d="M1975.76 161.85 L1975.76 164.454 L1951.28 164.454 Q1951.63 169.952 1954.58 172.845 Q1957.56 175.71 1962.86 175.71 Q1965.92 175.71 1968.79 174.958 Q1971.68 174.205 1974.52 172.701 L1974.52 177.735 Q1971.65 178.951 1968.64 179.587 Q1965.63 180.224 1962.54 180.224 Q1954.78 180.224 1950.24 175.71 Q1945.73 171.196 1945.73 163.499 Q1945.73 155.542 1950.01 150.884 Q1954.32 146.196 1961.61 146.196 Q1968.15 146.196 1971.94 150.421 Q1975.76 154.616 1975.76 161.85 M1970.44 160.288 Q1970.38 155.918 1967.98 153.314 Q1965.6 150.71 1961.67 150.71 Q1957.21 150.71 1954.52 153.227 Q1951.86 155.745 1951.46 160.316 L1970.44 160.288 Z" fill="#000000" fill-rule="nonzero" fill-opacity="1" /><path clip-path="url(#clip570)" d="M1999.23 163.094 Q1992.77 163.094 1990.29 164.57 Q1987.8 166.046 1987.8 169.605 Q1987.8 172.44 1989.65 174.118 Q1991.53 175.768 1994.74 175.768 Q1999.17 175.768 2001.83 172.643 Q2004.52 169.489 2004.52 164.281 L2004.52 163.094 L1999.23 163.094 M2009.85 160.895 L2009.85 179.385 L2004.52 179.385 L2004.52 174.466 Q2002.7 177.417 1999.98 178.835 Q1997.26 180.224 1993.32 180.224 Q1988.35 180.224 1985.4 177.446 Q1982.47 174.639 1982.47 169.952 Q1982.47 164.483 1986.12 161.705 Q1989.79 158.928 1997.06 158.928 L2004.52 158.928 L2004.52 158.407 Q2004.52 154.732 2002.09 152.735 Q1999.69 150.71 1995.32 150.71 Q1992.54 150.71 1989.91 151.376 Q1987.28 152.041 1984.85 153.372 L1984.85 148.453 Q1987.77 147.325 1990.52 146.775 Q1993.27 146.196 1995.87 146.196 Q2002.9 146.196 2006.37 149.842 Q2009.85 153.488 2009.85 160.895 Z" fill="#000000" fill-rule="nonzero" fill-opacity="1" /><path clip-path="url(#clip570)" d="M2047.75 159.825 L2047.75 179.385 L2042.43 179.385 L2042.43 159.998 Q2042.43 155.397 2040.63 153.112 Q2038.84 150.826 2035.25 150.826 Q2030.94 150.826 2028.45 153.575 Q2025.96 156.323 2025.96 161.069 L2025.96 179.385 L2020.61 179.385 L2020.61 146.977 L2025.96 146.977 L2025.96 152.012 Q2027.87 149.09 2030.45 147.643 Q2033.05 146.196 2036.44 146.196 Q2042.02 146.196 2044.89 149.668 Q2047.75 153.112 2047.75 159.825 Z" fill="#000000" fill-rule="nonzero" fill-opacity="1" /><path clip-path="url(#clip570)" d="M2077.9 152.475 L2115 152.475 L2115 157.336 L2077.9 157.336 L2077.9 152.475 M2077.9 164.281 L2115 164.281 L2115 169.2 L2077.9 169.2 L2077.9 164.281 Z" fill="#000000" fill-rule="nonzero" fill-opacity="1" /><path clip-path="url(#clip570)" d="M2162.51 141.277 L2147.75 164.338 L2162.51 164.338 L2162.51 141.277 M2160.97 136.185 L2168.32 136.185 L2168.32 164.338 L2174.49 164.338 L2174.49 169.2 L2168.32 169.2 L2168.32 179.385 L2162.51 179.385 L2162.51 169.2 L2143.01 169.2 L2143.01 163.557 L2160.97 136.185 Z" fill="#000000" fill-rule="nonzero" fill-opacity="1" /><path clip-path="url(#clip570)" d="M2184.15 172.035 L2190.26 172.035 L2190.26 179.385 L2184.15 179.385 L2184.15 172.035 Z" fill="#000000" fill-rule="nonzero" fill-opacity="1" /><path clip-path="url(#clip570)" d="M2220.7 156.092 Q2224.89 156.989 2227.23 159.825 Q2229.61 162.66 2229.61 166.827 Q2229.61 173.221 2225.21 176.723 Q2220.81 180.224 2212.71 180.224 Q2209.99 180.224 2207.1 179.674 Q2204.23 179.153 2201.16 178.083 L2201.16 172.44 Q2203.6 173.858 2206.49 174.581 Q2209.38 175.305 2212.54 175.305 Q2218.03 175.305 2220.9 173.135 Q2223.79 170.965 2223.79 166.827 Q2223.79 163.007 2221.1 160.866 Q2218.44 158.696 2213.66 158.696 L2208.63 158.696 L2208.63 153.893 L2213.9 153.893 Q2218.21 153.893 2220.49 152.186 Q2222.78 150.45 2222.78 147.209 Q2222.78 143.881 2220.41 142.116 Q2218.06 140.322 2213.66 140.322 Q2211.26 140.322 2208.51 140.843 Q2205.77 141.364 2202.47 142.464 L2202.47 137.255 Q2205.79 136.329 2208.69 135.866 Q2211.61 135.403 2214.19 135.403 Q2220.84 135.403 2224.72 138.442 Q2228.59 141.451 2228.59 146.601 Q2228.59 150.189 2226.54 152.678 Q2224.49 155.137 2220.7 156.092 Z" fill="#000000" fill-rule="nonzero" fill-opacity="1" /><path clip-path="url(#clip570)" d="M2253.19 158.87 Q2249.02 158.87 2246.62 161.098 Q2244.25 163.326 2244.25 167.232 Q2244.25 171.138 2246.62 173.366 Q2249.02 175.594 2253.19 175.594 Q2257.36 175.594 2259.76 173.366 Q2262.16 171.109 2262.16 167.232 Q2262.16 163.326 2259.76 161.098 Q2257.39 158.87 2253.19 158.87 M2247.34 156.381 Q2243.58 155.455 2241.47 152.88 Q2239.39 150.305 2239.39 146.601 Q2239.39 141.422 2243.06 138.413 Q2246.77 135.403 2253.19 135.403 Q2259.64 135.403 2263.32 138.413 Q2266.99 141.422 2266.99 146.601 Q2266.99 150.305 2264.88 152.88 Q2262.8 155.455 2259.06 156.381 Q2263.29 157.365 2265.63 160.23 Q2268 163.094 2268 167.232 Q2268 173.511 2264.16 176.867 Q2260.34 180.224 2253.19 180.224 Q2246.04 180.224 2242.19 176.867 Q2238.37 173.511 2238.37 167.232 Q2238.37 163.094 2240.75 160.23 Q2243.12 157.365 2247.34 156.381 M2245.2 147.151 Q2245.2 150.507 2247.29 152.388 Q2249.4 154.269 2253.19 154.269 Q2256.95 154.269 2259.06 152.388 Q2261.2 150.507 2261.2 147.151 Q2261.2 143.795 2259.06 141.914 Q2256.95 140.033 2253.19 140.033 Q2249.4 140.033 2247.29 141.914 Q2245.2 143.795 2245.2 147.151 Z" fill="#000000" fill-rule="nonzero" fill-opacity="1" /><path clip-path="url(#clip570)" d="M2278.45 136.185 L2301.4 136.185 L2301.4 141.104 L2283.8 141.104 L2283.8 151.694 Q2285.08 151.26 2286.35 151.057 Q2287.62 150.826 2288.9 150.826 Q2296.13 150.826 2300.35 154.79 Q2304.58 158.754 2304.58 165.525 Q2304.58 172.498 2300.24 176.375 Q2295.9 180.224 2288 180.224 Q2285.28 180.224 2282.44 179.761 Q2279.64 179.298 2276.63 178.372 L2276.63 172.498 Q2279.23 173.916 2282.01 174.61 Q2284.79 175.305 2287.88 175.305 Q2292.89 175.305 2295.81 172.672 Q2298.73 170.039 2298.73 165.525 Q2298.73 161.011 2295.81 158.378 Q2292.89 155.745 2287.88 155.745 Q2285.54 155.745 2283.2 156.266 Q2280.88 156.786 2278.45 157.886 L2278.45 136.185 Z" fill="#000000" fill-rule="nonzero" fill-opacity="1" /><path clip-path="url(#clip570)" d="M1902.99 210.703 L1902.99 244.297 L1910.05 244.297 Q1918.99 244.297 1923.13 240.246 Q1927.29 236.195 1927.29 227.456 Q1927.29 218.776 1923.13 214.754 Q1918.99 210.703 1910.05 210.703 L1902.99 210.703 M1897.14 205.9 L1909.15 205.9 Q1921.71 205.9 1927.58 211.137 Q1933.46 216.345 1933.46 227.456 Q1933.46 238.625 1927.55 243.862 Q1921.65 249.1 1909.15 249.1 L1897.14 249.1 L1897.14 205.9 Z" fill="#000000" fill-rule="nonzero" fill-opacity="1" /><path clip-path="url(#clip570)" d="M1942.54 216.692 L1947.87 216.692 L1947.87 249.1 L1942.54 249.1 L1942.54 216.692 M1942.54 204.077 L1947.87 204.077 L1947.87 210.819 L1942.54 210.819 L1942.54 204.077 Z" fill="#000000" fill-rule="nonzero" fill-opacity="1" /><path clip-path="url(#clip570)" d="M1979.67 217.647 L1979.67 222.682 Q1977.41 221.525 1974.98 220.946 Q1972.55 220.367 1969.94 220.367 Q1965.98 220.367 1963.98 221.583 Q1962.02 222.798 1962.02 225.228 Q1962.02 227.08 1963.43 228.151 Q1964.85 229.192 1969.13 230.147 L1970.96 230.552 Q1976.63 231.768 1979 233.996 Q1981.4 236.195 1981.4 240.159 Q1981.4 244.673 1977.82 247.306 Q1974.26 249.939 1968.01 249.939 Q1965.4 249.939 1962.57 249.418 Q1959.76 248.926 1956.63 247.913 L1956.63 242.416 Q1959.59 243.949 1962.45 244.731 Q1965.32 245.483 1968.12 245.483 Q1971.88 245.483 1973.91 244.21 Q1975.93 242.908 1975.93 240.564 Q1975.93 238.394 1974.46 237.236 Q1973.01 236.079 1968.06 235.008 L1966.21 234.574 Q1961.26 233.533 1959.07 231.391 Q1956.87 229.221 1956.87 225.46 Q1956.87 220.888 1960.11 218.4 Q1963.35 215.911 1969.31 215.911 Q1972.26 215.911 1974.86 216.345 Q1977.47 216.779 1979.67 217.647 Z" fill="#000000" fill-rule="nonzero" fill-opacity="1" /><path clip-path="url(#clip570)" d="M1995.15 207.491 L1995.15 216.692 L2006.11 216.692 L2006.11 220.83 L1995.15 220.83 L1995.15 238.423 Q1995.15 242.387 1996.22 243.515 Q1997.32 244.644 2000.64 244.644 L2006.11 244.644 L2006.11 249.1 L2000.64 249.1 Q1994.48 249.1 1992.14 246.814 Q1989.79 244.499 1989.79 238.423 L1989.79 220.83 L1985.89 220.83 L1985.89 216.692 L1989.79 216.692 L1989.79 207.491 L1995.15 207.491 Z" fill="#000000" fill-rule="nonzero" fill-opacity="1" /><path clip-path="url(#clip570)" d="M2032.65 222.19 L2069.74 222.19 L2069.74 227.051 L2032.65 227.051 L2032.65 222.19 M2032.65 233.996 L2069.74 233.996 L2069.74 238.915 L2032.65 238.915 L2032.65 233.996 Z" fill="#000000" fill-rule="nonzero" fill-opacity="1" /><path clip-path="url(#clip570)" d="M2113.69 209.748 Q2109.18 209.748 2106.89 214.204 Q2104.64 218.631 2104.64 227.543 Q2104.64 236.426 2106.89 240.882 Q2109.18 245.309 2113.69 245.309 Q2118.24 245.309 2120.49 240.882 Q2122.78 236.426 2122.78 227.543 Q2122.78 218.631 2120.49 214.204 Q2118.24 209.748 2113.69 209.748 M2113.69 205.118 Q2120.96 205.118 2124.78 210.877 Q2128.62 216.606 2128.62 227.543 Q2128.62 238.452 2124.78 244.21 Q2120.96 249.939 2113.69 249.939 Q2106.43 249.939 2102.58 244.21 Q2098.76 238.452 2098.76 227.543 Q2098.76 216.606 2102.58 210.877 Q2106.43 205.118 2113.69 205.118 Z" fill="#000000" fill-rule="nonzero" fill-opacity="1" /><path clip-path="url(#clip570)" d="M2138.9 241.75 L2145 241.75 L2145 249.1 L2138.9 249.1 L2138.9 241.75 Z" fill="#000000" fill-rule="nonzero" fill-opacity="1" /><path clip-path="url(#clip570)" d="M2170.23 209.748 Q2165.72 209.748 2163.43 214.204 Q2161.18 218.631 2161.18 227.543 Q2161.18 236.426 2163.43 240.882 Q2165.72 245.309 2170.23 245.309 Q2174.78 245.309 2177.03 240.882 Q2179.32 236.426 2179.32 227.543 Q2179.32 218.631 2177.03 214.204 Q2174.78 209.748 2170.23 209.748 M2170.23 205.118 Q2177.5 205.118 2181.32 210.877 Q2185.16 216.606 2185.16 227.543 Q2185.16 238.452 2181.32 244.21 Q2177.5 249.939 2170.23 249.939 Q2162.97 249.939 2159.12 244.21 Q2155.3 238.452 2155.3 227.543 Q2155.3 216.606 2159.12 210.877 Q2162.97 205.118 2170.23 205.118 Z" fill="#000000" fill-rule="nonzero" fill-opacity="1" /><path clip-path="url(#clip570)" d="M2200.47 244.181 L2220.87 244.181 L2220.87 249.1 L2193.44 249.1 L2193.44 244.181 Q2196.77 240.738 2202.5 234.951 Q2208.25 229.135 2209.73 227.456 Q2212.54 224.302 2213.64 222.132 Q2214.76 219.933 2214.76 217.821 Q2214.76 214.378 2212.33 212.208 Q2209.93 210.037 2206.05 210.037 Q2203.31 210.037 2200.24 210.992 Q2197.2 211.947 2193.73 213.886 L2193.73 207.983 Q2197.26 206.565 2200.33 205.842 Q2203.39 205.118 2205.94 205.118 Q2212.65 205.118 2216.64 208.475 Q2220.64 211.831 2220.64 217.445 Q2220.64 220.107 2219.63 222.508 Q2218.64 224.881 2216.01 228.122 Q2215.28 228.961 2211.41 232.983 Q2207.53 236.976 2200.47 244.181 Z" fill="#000000" fill-rule="nonzero" fill-opacity="1" /><path clip-path="url(#clip570)" d="M2238.17 244.181 L2258.57 244.181 L2258.57 249.1 L2231.14 249.1 L2231.14 244.181 Q2234.47 240.738 2240.2 234.951 Q2245.96 229.135 2247.43 227.456 Q2250.24 224.302 2251.34 222.132 Q2252.47 219.933 2252.47 217.821 Q2252.47 214.378 2250.04 212.208 Q2247.63 210.037 2243.76 210.037 Q2241.01 210.037 2237.94 210.992 Q2234.9 211.947 2231.43 213.886 L2231.43 207.983 Q2234.96 206.565 2238.03 205.842 Q2241.09 205.118 2243.64 205.118 Q2250.35 205.118 2254.35 208.475 Q2258.34 211.831 2258.34 217.445 Q2258.34 220.107 2257.33 222.508 Q2256.34 224.881 2253.71 228.122 Q2252.99 228.961 2249.11 232.983 Q2245.23 236.976 2238.17 244.181 Z" fill="#000000" fill-rule="nonzero" fill-opacity="1" /><path clip-path="url(#clip570)" d="M2283.34 228.585 Q2279.17 228.585 2276.77 230.813 Q2274.4 233.041 2274.4 236.947 Q2274.4 240.853 2276.77 243.081 Q2279.17 245.309 2283.34 245.309 Q2287.51 245.309 2289.91 243.081 Q2292.31 240.824 2292.31 236.947 Q2292.31 233.041 2289.91 230.813 Q2287.54 228.585 2283.34 228.585 M2277.5 226.096 Q2273.73 225.17 2271.62 222.595 Q2269.54 220.02 2269.54 216.316 Q2269.54 211.137 2273.21 208.128 Q2276.92 205.118 2283.34 205.118 Q2289.79 205.118 2293.47 208.128 Q2297.14 211.137 2297.14 216.316 Q2297.14 220.02 2295.03 222.595 Q2292.95 225.17 2289.21 226.096 Q2293.44 227.08 2295.78 229.945 Q2298.15 232.809 2298.15 236.947 Q2298.15 243.226 2294.31 246.582 Q2290.49 249.939 2283.34 249.939 Q2276.19 249.939 2272.34 246.582 Q2268.53 243.226 2268.53 236.947 Q2268.53 232.809 2270.9 229.945 Q2273.27 227.08 2277.5 226.096 M2275.35 216.866 Q2275.35 220.223 2277.44 222.103 Q2279.55 223.984 2283.34 223.984 Q2287.1 223.984 2289.21 222.103 Q2291.36 220.223 2291.36 216.866 Q2291.36 213.51 2289.21 211.629 Q2287.1 209.748 2283.34 209.748 Q2279.55 209.748 2277.44 211.629 Q2275.35 213.51 2275.35 216.866 Z" fill="#000000" fill-rule="nonzero" fill-opacity="1" /><path clip-path="url(#clip570)" d="M2307.07 205.9 L2334.84 205.9 L2334.84 208.388 L2319.16 249.1 L2313.06 249.1 L2327.81 210.819 L2307.07 210.819 L2307.07 205.9 Z" fill="#000000" fill-rule="nonzero" fill-opacity="1" /><path clip-path="url(#clip570)" d="M3424.06 1273.23 L4752.76 1273.23 L4752.76 88.0695 L3424.06 88.0695  Z" fill="#ffffff" fill-rule="evenodd" fill-opacity="1"/>
<defs>
  <clipPath id="clip574">
    <rect x="3424" y="88" width="1330" height="1186"/>
  </clipPath>
</defs>
<polyline clip-path="url(#clip574)" style="stroke:#000000; stroke-linecap:round; stroke-linejoin:round; stroke-width:2; stroke-opacity:0.1; fill:none" points="3595.69,1273.23 3595.69,88.0695 "/>
<polyline clip-path="url(#clip574)" style="stroke:#000000; stroke-linecap:round; stroke-linejoin:round; stroke-width:2; stroke-opacity:0.1; fill:none" points="3792.78,1273.23 3792.78,88.0695 "/>
<polyline clip-path="url(#clip574)" style="stroke:#000000; stroke-linecap:round; stroke-linejoin:round; stroke-width:2; stroke-opacity:0.1; fill:none" points="3989.87,1273.23 3989.87,88.0695 "/>
<polyline clip-path="url(#clip574)" style="stroke:#000000; stroke-linecap:round; stroke-linejoin:round; stroke-width:2; stroke-opacity:0.1; fill:none" points="4186.95,1273.23 4186.95,88.0695 "/>
<polyline clip-path="url(#clip574)" style="stroke:#000000; stroke-linecap:round; stroke-linejoin:round; stroke-width:2; stroke-opacity:0.1; fill:none" points="4384.04,1273.23 4384.04,88.0695 "/>
<polyline clip-path="url(#clip574)" style="stroke:#000000; stroke-linecap:round; stroke-linejoin:round; stroke-width:2; stroke-opacity:0.1; fill:none" points="4581.13,1273.23 4581.13,88.0695 "/>
<polyline clip-path="url(#clip570)" style="stroke:#000000; stroke-linecap:round; stroke-linejoin:round; stroke-width:4; stroke-opacity:1; fill:none" points="3424.06,1273.23 4752.76,1273.23 "/>
<polyline clip-path="url(#clip570)" style="stroke:#000000; stroke-linecap:round; stroke-linejoin:round; stroke-width:4; stroke-opacity:1; fill:none" points="3595.69,1273.23 3595.69,1254.33 "/>
<polyline clip-path="url(#clip570)" style="stroke:#000000; stroke-linecap:round; stroke-linejoin:round; stroke-width:4; stroke-opacity:1; fill:none" points="3792.78,1273.23 3792.78,1254.33 "/>
<polyline clip-path="url(#clip570)" style="stroke:#000000; stroke-linecap:round; stroke-linejoin:round; stroke-width:4; stroke-opacity:1; fill:none" points="3989.87,1273.23 3989.87,1254.33 "/>
<polyline clip-path="url(#clip570)" style="stroke:#000000; stroke-linecap:round; stroke-linejoin:round; stroke-width:4; stroke-opacity:1; fill:none" points="4186.95,1273.23 4186.95,1254.33 "/>
<polyline clip-path="url(#clip570)" style="stroke:#000000; stroke-linecap:round; stroke-linejoin:round; stroke-width:4; stroke-opacity:1; fill:none" points="4384.04,1273.23 4384.04,1254.33 "/>
<polyline clip-path="url(#clip570)" style="stroke:#000000; stroke-linecap:round; stroke-linejoin:round; stroke-width:4; stroke-opacity:1; fill:none" points="4581.13,1273.23 4581.13,1254.33 "/>
<g clip-path="url(#clip570)">
<text style="fill:#000000; fill-opacity:1; font-family:Century Gothic,CenturyGothic,AppleGothic,sans-serif; font-size:47px; text-anchor:middle;" transform="rotate(0, 3595.69, 1353.69)" x="3595.69" y="1353.69">0</text>
</g>
<g clip-path="url(#clip570)">
<text style="fill:#000000; fill-opacity:1; font-family:Century Gothic,CenturyGothic,AppleGothic,sans-serif; font-size:47px; text-anchor:middle;" transform="rotate(0, 3792.78, 1353.69)" x="3792.78" y="1353.69">1</text>
</g>
<g clip-path="url(#clip570)">
<text style="fill:#000000; fill-opacity:1; font-family:Century Gothic,CenturyGothic,AppleGothic,sans-serif; font-size:47px; text-anchor:middle;" transform="rotate(0, 3989.87, 1353.69)" x="3989.87" y="1353.69">2</text>
</g>
<g clip-path="url(#clip570)">
<text style="fill:#000000; fill-opacity:1; font-family:Century Gothic,CenturyGothic,AppleGothic,sans-serif; font-size:47px; text-anchor:middle;" transform="rotate(0, 4186.95, 1353.69)" x="4186.95" y="1353.69">3</text>
</g>
<g clip-path="url(#clip570)">
<text style="fill:#000000; fill-opacity:1; font-family:Century Gothic,CenturyGothic,AppleGothic,sans-serif; font-size:47px; text-anchor:middle;" transform="rotate(0, 4384.04, 1353.69)" x="4384.04" y="1353.69">4</text>
</g>
<g clip-path="url(#clip570)">
<text style="fill:#000000; fill-opacity:1; font-family:Century Gothic,CenturyGothic,AppleGothic,sans-serif; font-size:47px; text-anchor:middle;" transform="rotate(0, 4581.13, 1353.69)" x="4581.13" y="1353.69">5</text>
</g>
<g clip-path="url(#clip570)">
<text style="fill:#000000; fill-opacity:1; font-family:Century Gothic,CenturyGothic,AppleGothic,sans-serif; font-size:65px; text-anchor:middle;" transform="rotate(0, 4088.41, 1452.31)" x="4088.41" y="1452.31">中心推定の正解数</text>
</g>
<polyline clip-path="url(#clip574)" style="stroke:#000000; stroke-linecap:round; stroke-linejoin:round; stroke-width:2; stroke-opacity:0.1; fill:none" points="3424.06,1273.23 4752.76,1273.23 "/>
<polyline clip-path="url(#clip574)" style="stroke:#000000; stroke-linecap:round; stroke-linejoin:round; stroke-width:2; stroke-opacity:0.1; fill:none" points="3424.06,994.366 4752.76,994.366 "/>
<polyline clip-path="url(#clip574)" style="stroke:#000000; stroke-linecap:round; stroke-linejoin:round; stroke-width:2; stroke-opacity:0.1; fill:none" points="3424.06,715.505 4752.76,715.505 "/>
<polyline clip-path="url(#clip574)" style="stroke:#000000; stroke-linecap:round; stroke-linejoin:round; stroke-width:2; stroke-opacity:0.1; fill:none" points="3424.06,436.645 4752.76,436.645 "/>
<polyline clip-path="url(#clip574)" style="stroke:#000000; stroke-linecap:round; stroke-linejoin:round; stroke-width:2; stroke-opacity:0.1; fill:none" points="3424.06,157.785 4752.76,157.785 "/>
<polyline clip-path="url(#clip570)" style="stroke:#000000; stroke-linecap:round; stroke-linejoin:round; stroke-width:4; stroke-opacity:1; fill:none" points="3424.06,1273.23 3424.06,88.0695 "/>
<polyline clip-path="url(#clip570)" style="stroke:#000000; stroke-linecap:round; stroke-linejoin:round; stroke-width:4; stroke-opacity:1; fill:none" points="3424.06,1273.23 3442.96,1273.23 "/>
<polyline clip-path="url(#clip570)" style="stroke:#000000; stroke-linecap:round; stroke-linejoin:round; stroke-width:4; stroke-opacity:1; fill:none" points="3424.06,994.366 3442.96,994.366 "/>
<polyline clip-path="url(#clip570)" style="stroke:#000000; stroke-linecap:round; stroke-linejoin:round; stroke-width:4; stroke-opacity:1; fill:none" points="3424.06,715.505 3442.96,715.505 "/>
<polyline clip-path="url(#clip570)" style="stroke:#000000; stroke-linecap:round; stroke-linejoin:round; stroke-width:4; stroke-opacity:1; fill:none" points="3424.06,436.645 3442.96,436.645 "/>
<polyline clip-path="url(#clip570)" style="stroke:#000000; stroke-linecap:round; stroke-linejoin:round; stroke-width:4; stroke-opacity:1; fill:none" points="3424.06,157.785 3442.96,157.785 "/>
<g clip-path="url(#clip570)">
<text style="fill:#000000; fill-opacity:1; font-family:Century Gothic,CenturyGothic,AppleGothic,sans-serif; font-size:47px; text-anchor:middle;" transform="rotate(0, 3339.13, 1290.73)" x="3339.13" y="1290.73">0</text>
</g>
<g clip-path="url(#clip570)">
<text style="fill:#000000; fill-opacity:1; font-family:Century Gothic,CenturyGothic,AppleGothic,sans-serif; font-size:47px; text-anchor:middle;" transform="rotate(0, 3313.25, 1011.87)" x="3313.25" y="1011.87">200</text>
</g>
<g clip-path="url(#clip570)">
<text style="fill:#000000; fill-opacity:1; font-family:Century Gothic,CenturyGothic,AppleGothic,sans-serif; font-size:47px; text-anchor:middle;" transform="rotate(0, 3313.25, 733.005)" x="3313.25" y="733.005">400</text>
</g>
<g clip-path="url(#clip570)">
<text style="fill:#000000; fill-opacity:1; font-family:Century Gothic,CenturyGothic,AppleGothic,sans-serif; font-size:47px; text-anchor:middle;" transform="rotate(0, 3313.25, 454.145)" x="3313.25" y="454.145">600</text>
</g>
<g clip-path="url(#clip570)">
<text style="fill:#000000; fill-opacity:1; font-family:Century Gothic,CenturyGothic,AppleGothic,sans-serif; font-size:47px; text-anchor:middle;" transform="rotate(0, 3313.25, 175.285)" x="3313.25" y="175.285">800</text>
</g>
<g clip-path="url(#clip570)">
<text style="fill:#000000; fill-opacity:1; font-family:Century Gothic,CenturyGothic,AppleGothic,sans-serif; font-size:65px; text-anchor:middle;" transform="rotate(-90, 3192.49, 680.648)" x="3192.49" y="680.648">度数</text>
</g>
<g clip-path="url(#clip570)">
<text style="fill:#000000; fill-opacity:1; font-family:Century Gothic,CenturyGothic,AppleGothic,sans-serif; font-size:81px; text-anchor:middle;" transform="rotate(0, 4088.41, 72)" x="4088.41" y="72">Setting : E, Method : LM</text>
</g>
<path clip-path="url(#clip574)" d="M3497.14 1273.23 L3497.14 1273.23 L3694.23 1273.23 L3694.23 1273.23 L3497.14 1273.23 L3497.14 1273.23  Z" fill="#009af9" fill-rule="evenodd" fill-opacity="1"/>
<polyline clip-path="url(#clip574)" style="stroke:#000000; stroke-linecap:round; stroke-linejoin:round; stroke-width:4; stroke-opacity:1; fill:none" points="3497.14,1273.23 3497.14,1273.23 3694.23,1273.23 3497.14,1273.23 "/>
<path clip-path="url(#clip574)" d="M3694.23 1273.23 L3694.23 1273.23 L3891.32 1273.23 L3891.32 1273.23 L3694.23 1273.23 L3694.23 1273.23  Z" fill="#009af9" fill-rule="evenodd" fill-opacity="1"/>
<polyline clip-path="url(#clip574)" style="stroke:#000000; stroke-linecap:round; stroke-linejoin:round; stroke-width:4; stroke-opacity:1; fill:none" points="3694.23,1273.23 3694.23,1273.23 3891.32,1273.23 3694.23,1273.23 "/>
<path clip-path="url(#clip574)" d="M3891.32 1195.15 L3891.32 1273.23 L4088.41 1273.23 L4088.41 1195.15 L3891.32 1195.15 L3891.32 1195.15  Z" fill="#009af9" fill-rule="evenodd" fill-opacity="1"/>
<polyline clip-path="url(#clip574)" style="stroke:#000000; stroke-linecap:round; stroke-linejoin:round; stroke-width:4; stroke-opacity:1; fill:none" points="3891.32,1195.15 3891.32,1273.23 4088.41,1273.23 4088.41,1195.15 3891.32,1195.15 "/>
<path clip-path="url(#clip574)" d="M4088.41 810.318 L4088.41 1273.23 L4285.5 1273.23 L4285.5 810.318 L4088.41 810.318 L4088.41 810.318  Z" fill="#009af9" fill-rule="evenodd" fill-opacity="1"/>
<polyline clip-path="url(#clip574)" style="stroke:#000000; stroke-linecap:round; stroke-linejoin:round; stroke-width:4; stroke-opacity:1; fill:none" points="4088.41,810.318 4088.41,1273.23 4285.5,1273.23 4285.5,810.318 4088.41,810.318 "/>
<path clip-path="url(#clip574)" d="M4285.5 590.018 L4285.5 1273.23 L4482.59 1273.23 L4482.59 590.018 L4285.5 590.018 L4285.5 590.018  Z" fill="#009af9" fill-rule="evenodd" fill-opacity="1"/>
<polyline clip-path="url(#clip574)" style="stroke:#000000; stroke-linecap:round; stroke-linejoin:round; stroke-width:4; stroke-opacity:1; fill:none" points="4285.5,590.018 4285.5,1273.23 4482.59,1273.23 4482.59,590.018 4285.5,590.018 "/>
<path clip-path="url(#clip574)" d="M4482.59 1103.12 L4482.59 1273.23 L4679.68 1273.23 L4679.68 1103.12 L4482.59 1103.12 L4482.59 1103.12  Z" fill="#009af9" fill-rule="evenodd" fill-opacity="1"/>
<polyline clip-path="url(#clip574)" style="stroke:#000000; stroke-linecap:round; stroke-linejoin:round; stroke-width:4; stroke-opacity:1; fill:none" points="4482.59,1103.12 4482.59,1273.23 4679.68,1273.23 4679.68,1103.12 4482.59,1103.12 "/>
<circle clip-path="url(#clip574)" style="fill:#009af9; stroke:none; fill-opacity:0" cx="3595.69" cy="1273.23" r="2"/>
<circle clip-path="url(#clip574)" style="fill:#009af9; stroke:none; fill-opacity:0" cx="3792.78" cy="1273.23" r="2"/>
<circle clip-path="url(#clip574)" style="fill:#009af9; stroke:none; fill-opacity:0" cx="3989.87" cy="1195.15" r="2"/>
<circle clip-path="url(#clip574)" style="fill:#009af9; stroke:none; fill-opacity:0" cx="4186.95" cy="810.318" r="2"/>
<circle clip-path="url(#clip574)" style="fill:#009af9; stroke:none; fill-opacity:0" cx="4384.04" cy="590.018" r="2"/>
<circle clip-path="url(#clip574)" style="fill:#009af9; stroke:none; fill-opacity:0" cx="4581.13" cy="1103.12" r="2"/>
<path clip-path="url(#clip570)" d="M3497.14 136.185 L3505.85 136.185 L3516.88 165.583 L3527.96 136.185 L3536.67 136.185 L3536.67 179.385 L3530.97 179.385 L3530.97 141.451 L3519.83 171.08 L3513.96 171.08 L3502.82 141.451 L3502.82 179.385 L3497.14 179.385 L3497.14 136.185 Z" fill="#000000" fill-rule="nonzero" fill-opacity="1" /><path clip-path="url(#clip570)" d="M3575.76 161.85 L3575.76 164.454 L3551.28 164.454 Q3551.63 169.952 3554.58 172.845 Q3557.56 175.71 3562.86 175.71 Q3565.92 175.71 3568.79 174.958 Q3571.68 174.205 3574.52 172.701 L3574.52 177.735 Q3571.65 178.951 3568.64 179.587 Q3565.63 180.224 3562.54 180.224 Q3554.78 180.224 3550.24 175.71 Q3545.73 171.196 3545.73 163.499 Q3545.73 155.542 3550.01 150.884 Q3554.32 146.196 3561.61 146.196 Q3568.15 146.196 3571.94 150.421 Q3575.76 154.616 3575.76 161.85 M3570.44 160.288 Q3570.38 155.918 3567.98 153.314 Q3565.6 150.71 3561.67 150.71 Q3557.21 150.71 3554.52 153.227 Q3551.86 155.745 3551.46 160.316 L3570.44 160.288 Z" fill="#000000" fill-rule="nonzero" fill-opacity="1" /><path clip-path="url(#clip570)" d="M3599.23 163.094 Q3592.77 163.094 3590.29 164.57 Q3587.8 166.046 3587.8 169.605 Q3587.8 172.44 3589.65 174.118 Q3591.53 175.768 3594.74 175.768 Q3599.17 175.768 3601.83 172.643 Q3604.52 169.489 3604.52 164.281 L3604.52 163.094 L3599.23 163.094 M3609.85 160.895 L3609.85 179.385 L3604.52 179.385 L3604.52 174.466 Q3602.7 177.417 3599.98 178.835 Q3597.26 180.224 3593.32 180.224 Q3588.35 180.224 3585.4 177.446 Q3582.47 174.639 3582.47 169.952 Q3582.47 164.483 3586.12 161.705 Q3589.79 158.928 3597.06 158.928 L3604.52 158.928 L3604.52 158.407 Q3604.52 154.732 3602.09 152.735 Q3599.69 150.71 3595.32 150.71 Q3592.54 150.71 3589.91 151.376 Q3587.28 152.041 3584.85 153.372 L3584.85 148.453 Q3587.77 147.325 3590.52 146.775 Q3593.27 146.196 3595.87 146.196 Q3602.9 146.196 3606.37 149.842 Q3609.85 153.488 3609.85 160.895 Z" fill="#000000" fill-rule="nonzero" fill-opacity="1" /><path clip-path="url(#clip570)" d="M3647.75 159.825 L3647.75 179.385 L3642.43 179.385 L3642.43 159.998 Q3642.43 155.397 3640.63 153.112 Q3638.84 150.826 3635.25 150.826 Q3630.94 150.826 3628.45 153.575 Q3625.96 156.323 3625.96 161.069 L3625.96 179.385 L3620.61 179.385 L3620.61 146.977 L3625.96 146.977 L3625.96 152.012 Q3627.87 149.09 3630.45 147.643 Q3633.05 146.196 3636.44 146.196 Q3642.02 146.196 3644.89 149.668 Q3647.75 153.112 3647.75 159.825 Z" fill="#000000" fill-rule="nonzero" fill-opacity="1" /><path clip-path="url(#clip570)" d="M3677.9 152.475 L3715 152.475 L3715 157.336 L3677.9 157.336 L3677.9 152.475 M3677.9 164.281 L3715 164.281 L3715 169.2 L3677.9 169.2 L3677.9 164.281 Z" fill="#000000" fill-rule="nonzero" fill-opacity="1" /><path clip-path="url(#clip570)" d="M3764.16 156.092 Q3768.35 156.989 3770.7 159.825 Q3773.07 162.66 3773.07 166.827 Q3773.07 173.221 3768.67 176.723 Q3764.27 180.224 3756.17 180.224 Q3753.45 180.224 3750.56 179.674 Q3747.69 179.153 3744.63 178.083 L3744.63 172.44 Q3747.06 173.858 3749.95 174.581 Q3752.84 175.305 3756 175.305 Q3761.49 175.305 3764.36 173.135 Q3767.25 170.965 3767.25 166.827 Q3767.25 163.007 3764.56 160.866 Q3761.9 158.696 3757.13 158.696 L3752.09 158.696 L3752.09 153.893 L3757.36 153.893 Q3761.67 153.893 3763.95 152.186 Q3766.24 150.45 3766.24 147.209 Q3766.24 143.881 3763.87 142.116 Q3761.52 140.322 3757.13 140.322 Q3754.72 140.322 3751.97 140.843 Q3749.23 141.364 3745.93 142.464 L3745.93 137.255 Q3749.26 136.329 3752.15 135.866 Q3755.07 135.403 3757.65 135.403 Q3764.3 135.403 3768.18 138.442 Q3772.06 141.451 3772.06 146.601 Q3772.06 150.189 3770 152.678 Q3767.95 155.137 3764.16 156.092 Z" fill="#000000" fill-rule="nonzero" fill-opacity="1" /><path clip-path="url(#clip570)" d="M3784.15 172.035 L3790.26 172.035 L3790.26 179.385 L3784.15 179.385 L3784.15 172.035 Z" fill="#000000" fill-rule="nonzero" fill-opacity="1" /><path clip-path="url(#clip570)" d="M3816.21 155.455 Q3812.28 155.455 3809.96 158.146 Q3807.67 160.837 3807.67 165.525 Q3807.67 170.183 3809.96 172.903 Q3812.28 175.594 3816.21 175.594 Q3820.15 175.594 3822.43 172.903 Q3824.75 170.183 3824.75 165.525 Q3824.75 160.837 3822.43 158.146 Q3820.15 155.455 3816.21 155.455 M3827.81 137.139 L3827.81 142.464 Q3825.61 141.422 3823.36 140.872 Q3821.13 140.322 3818.93 140.322 Q3813.14 140.322 3810.08 144.229 Q3807.04 148.135 3806.6 156.034 Q3808.31 153.517 3810.89 152.186 Q3813.46 150.826 3816.56 150.826 Q3823.07 150.826 3826.83 154.79 Q3830.62 158.725 3830.62 165.525 Q3830.62 172.18 3826.69 176.202 Q3822.75 180.224 3816.21 180.224 Q3808.72 180.224 3804.75 174.495 Q3800.79 168.737 3800.79 157.828 Q3800.79 147.585 3805.65 141.509 Q3810.51 135.403 3818.7 135.403 Q3820.9 135.403 3823.13 135.837 Q3825.38 136.271 3827.81 137.139 Z" fill="#000000" fill-rule="nonzero" fill-opacity="1" /><path clip-path="url(#clip570)" d="M3839.21 136.185 L3866.99 136.185 L3866.99 138.673 L3851.31 179.385 L3845.2 179.385 L3859.96 141.104 L3839.21 141.104 L3839.21 136.185 Z" fill="#000000" fill-rule="nonzero" fill-opacity="1" /><path clip-path="url(#clip570)" d="M3890.89 158.87 Q3886.73 158.87 3884.32 161.098 Q3881.95 163.326 3881.95 167.232 Q3881.95 171.138 3884.32 173.366 Q3886.73 175.594 3890.89 175.594 Q3895.06 175.594 3897.46 173.366 Q3899.86 171.109 3899.86 167.232 Q3899.86 163.326 3897.46 161.098 Q3895.09 158.87 3890.89 158.87 M3885.05 156.381 Q3881.29 155.455 3879.17 152.88 Q3877.09 150.305 3877.09 146.601 Q3877.09 141.422 3880.76 138.413 Q3884.47 135.403 3890.89 135.403 Q3897.34 135.403 3901.02 138.413 Q3904.69 141.422 3904.69 146.601 Q3904.69 150.305 3902.58 152.88 Q3900.5 155.455 3896.77 156.381 Q3900.99 157.365 3903.33 160.23 Q3905.71 163.094 3905.71 167.232 Q3905.71 173.511 3901.86 176.867 Q3898.04 180.224 3890.89 180.224 Q3883.75 180.224 3879.9 176.867 Q3876.08 173.511 3876.08 167.232 Q3876.08 163.094 3878.45 160.23 Q3880.82 157.365 3885.05 156.381 M3882.91 147.151 Q3882.91 150.507 3884.99 152.388 Q3887.1 154.269 3890.89 154.269 Q3894.65 154.269 3896.77 152.388 Q3898.91 150.507 3898.91 147.151 Q3898.91 143.795 3896.77 141.914 Q3894.65 140.033 3890.89 140.033 Q3887.1 140.033 3884.99 141.914 Q3882.91 143.795 3882.91 147.151 Z" fill="#000000" fill-rule="nonzero" fill-opacity="1" /><path clip-path="url(#clip570)" d="M3502.99 210.703 L3502.99 244.297 L3510.05 244.297 Q3518.99 244.297 3523.13 240.246 Q3527.29 236.195 3527.29 227.456 Q3527.29 218.776 3523.13 214.754 Q3518.99 210.703 3510.05 210.703 L3502.99 210.703 M3497.14 205.9 L3509.15 205.9 Q3521.71 205.9 3527.58 211.137 Q3533.46 216.345 3533.46 227.456 Q3533.46 238.625 3527.55 243.862 Q3521.65 249.1 3509.15 249.1 L3497.14 249.1 L3497.14 205.9 Z" fill="#000000" fill-rule="nonzero" fill-opacity="1" /><path clip-path="url(#clip570)" d="M3542.54 216.692 L3547.87 216.692 L3547.87 249.1 L3542.54 249.1 L3542.54 216.692 M3542.54 204.077 L3547.87 204.077 L3547.87 210.819 L3542.54 210.819 L3542.54 204.077 Z" fill="#000000" fill-rule="nonzero" fill-opacity="1" /><path clip-path="url(#clip570)" d="M3579.67 217.647 L3579.67 222.682 Q3577.41 221.525 3574.98 220.946 Q3572.55 220.367 3569.94 220.367 Q3565.98 220.367 3563.98 221.583 Q3562.02 222.798 3562.02 225.228 Q3562.02 227.08 3563.43 228.151 Q3564.85 229.192 3569.13 230.147 L3570.96 230.552 Q3576.63 231.768 3579 233.996 Q3581.4 236.195 3581.4 240.159 Q3581.4 244.673 3577.82 247.306 Q3574.26 249.939 3568.01 249.939 Q3565.4 249.939 3562.57 249.418 Q3559.76 248.926 3556.63 247.913 L3556.63 242.416 Q3559.59 243.949 3562.45 244.731 Q3565.32 245.483 3568.12 245.483 Q3571.88 245.483 3573.91 244.21 Q3575.93 242.908 3575.93 240.564 Q3575.93 238.394 3574.46 237.236 Q3573.01 236.079 3568.06 235.008 L3566.21 234.574 Q3561.26 233.533 3559.07 231.391 Q3556.87 229.221 3556.87 225.46 Q3556.87 220.888 3560.11 218.4 Q3563.35 215.911 3569.31 215.911 Q3572.26 215.911 3574.86 216.345 Q3577.47 216.779 3579.67 217.647 Z" fill="#000000" fill-rule="nonzero" fill-opacity="1" /><path clip-path="url(#clip570)" d="M3595.15 207.491 L3595.15 216.692 L3606.11 216.692 L3606.11 220.83 L3595.15 220.83 L3595.15 238.423 Q3595.15 242.387 3596.22 243.515 Q3597.32 244.644 3600.64 244.644 L3606.11 244.644 L3606.11 249.1 L3600.64 249.1 Q3594.48 249.1 3592.14 246.814 Q3589.79 244.499 3589.79 238.423 L3589.79 220.83 L3585.89 220.83 L3585.89 216.692 L3589.79 216.692 L3589.79 207.491 L3595.15 207.491 Z" fill="#000000" fill-rule="nonzero" fill-opacity="1" /><path clip-path="url(#clip570)" d="M3632.65 222.19 L3669.74 222.19 L3669.74 227.051 L3632.65 227.051 L3632.65 222.19 M3632.65 233.996 L3669.74 233.996 L3669.74 238.915 L3632.65 238.915 L3632.65 233.996 Z" fill="#000000" fill-rule="nonzero" fill-opacity="1" /><path clip-path="url(#clip570)" d="M3713.69 209.748 Q3709.18 209.748 3706.89 214.204 Q3704.64 218.631 3704.64 227.543 Q3704.64 236.426 3706.89 240.882 Q3709.18 245.309 3713.69 245.309 Q3718.24 245.309 3720.49 240.882 Q3722.78 236.426 3722.78 227.543 Q3722.78 218.631 3720.49 214.204 Q3718.24 209.748 3713.69 209.748 M3713.69 205.118 Q3720.96 205.118 3724.78 210.877 Q3728.62 216.606 3728.62 227.543 Q3728.62 238.452 3724.78 244.21 Q3720.96 249.939 3713.69 249.939 Q3706.43 249.939 3702.58 244.21 Q3698.76 238.452 3698.76 227.543 Q3698.76 216.606 3702.58 210.877 Q3706.43 205.118 3713.69 205.118 Z" fill="#000000" fill-rule="nonzero" fill-opacity="1" /><path clip-path="url(#clip570)" d="M3738.9 241.75 L3745 241.75 L3745 249.1 L3738.9 249.1 L3738.9 241.75 Z" fill="#000000" fill-rule="nonzero" fill-opacity="1" /><path clip-path="url(#clip570)" d="M3770.23 209.748 Q3765.72 209.748 3763.43 214.204 Q3761.18 218.631 3761.18 227.543 Q3761.18 236.426 3763.43 240.882 Q3765.72 245.309 3770.23 245.309 Q3774.78 245.309 3777.03 240.882 Q3779.32 236.426 3779.32 227.543 Q3779.32 218.631 3777.03 214.204 Q3774.78 209.748 3770.23 209.748 M3770.23 205.118 Q3777.5 205.118 3781.32 210.877 Q3785.16 216.606 3785.16 227.543 Q3785.16 238.452 3781.32 244.21 Q3777.5 249.939 3770.23 249.939 Q3762.97 249.939 3759.12 244.21 Q3755.3 238.452 3755.3 227.543 Q3755.3 216.606 3759.12 210.877 Q3762.97 205.118 3770.23 205.118 Z" fill="#000000" fill-rule="nonzero" fill-opacity="1" /><path clip-path="url(#clip570)" d="M3813.14 225.807 Q3817.34 226.704 3819.68 229.54 Q3822.06 232.375 3822.06 236.542 Q3822.06 242.937 3817.66 246.438 Q3813.26 249.939 3805.16 249.939 Q3802.44 249.939 3799.54 249.389 Q3796.68 248.868 3793.61 247.798 L3793.61 242.155 Q3796.04 243.573 3798.94 244.297 Q3801.83 245.02 3804.98 245.02 Q3810.48 245.02 3813.35 242.85 Q3816.24 240.68 3816.24 236.542 Q3816.24 232.723 3813.55 230.581 Q3810.89 228.411 3806.11 228.411 L3801.08 228.411 L3801.08 223.608 L3806.34 223.608 Q3810.66 223.608 3812.94 221.901 Q3815.23 220.165 3815.23 216.924 Q3815.23 213.596 3812.85 211.831 Q3810.51 210.037 3806.11 210.037 Q3803.71 210.037 3800.96 210.558 Q3798.21 211.079 3794.91 212.179 L3794.91 206.97 Q3798.24 206.044 3801.14 205.581 Q3804.06 205.118 3806.63 205.118 Q3813.29 205.118 3817.17 208.157 Q3821.04 211.166 3821.04 216.316 Q3821.04 219.904 3818.99 222.393 Q3816.93 224.852 3813.14 225.807 Z" fill="#000000" fill-rule="nonzero" fill-opacity="1" /><path clip-path="url(#clip570)" d="M3850.85 225.807 Q3855.04 226.704 3857.39 229.54 Q3859.76 232.375 3859.76 236.542 Q3859.76 242.937 3855.36 246.438 Q3850.96 249.939 3842.86 249.939 Q3840.14 249.939 3837.25 249.389 Q3834.38 248.868 3831.31 247.798 L3831.31 242.155 Q3833.75 243.573 3836.64 244.297 Q3839.53 245.02 3842.69 245.02 Q3848.18 245.02 3851.05 242.85 Q3853.94 240.68 3853.94 236.542 Q3853.94 232.723 3851.25 230.581 Q3848.59 228.411 3843.81 228.411 L3838.78 228.411 L3838.78 223.608 L3844.05 223.608 Q3848.36 223.608 3850.64 221.901 Q3852.93 220.165 3852.93 216.924 Q3852.93 213.596 3850.56 211.831 Q3848.21 210.037 3843.81 210.037 Q3841.41 210.037 3838.66 210.558 Q3835.92 211.079 3832.62 212.179 L3832.62 206.97 Q3835.94 206.044 3838.84 205.581 Q3841.76 205.118 3844.34 205.118 Q3850.99 205.118 3854.87 208.157 Q3858.75 211.166 3858.75 216.316 Q3858.75 219.904 3856.69 222.393 Q3854.64 224.852 3850.85 225.807 Z" fill="#000000" fill-rule="nonzero" fill-opacity="1" /><path clip-path="url(#clip570)" d="M3869.36 205.9 L3897.14 205.9 L3897.14 208.388 L3881.46 249.1 L3875.35 249.1 L3890.11 210.819 L3869.36 210.819 L3869.36 205.9 Z" fill="#000000" fill-rule="nonzero" fill-opacity="1" /><path clip-path="url(#clip570)" d="M3921.77 225.17 Q3917.83 225.17 3915.52 227.861 Q3913.23 230.552 3913.23 235.24 Q3913.23 239.898 3915.52 242.618 Q3917.83 245.309 3921.77 245.309 Q3925.7 245.309 3927.99 242.618 Q3930.3 239.898 3930.3 235.24 Q3930.3 230.552 3927.99 227.861 Q3925.7 225.17 3921.77 225.17 M3933.37 206.855 L3933.37 212.179 Q3931.17 211.137 3928.91 210.587 Q3926.68 210.037 3924.49 210.037 Q3918.7 210.037 3915.63 213.944 Q3912.59 217.85 3912.16 225.749 Q3913.87 223.232 3916.44 221.901 Q3919.02 220.541 3922.11 220.541 Q3928.62 220.541 3932.38 224.505 Q3936.18 228.44 3936.18 235.24 Q3936.18 241.895 3932.24 245.917 Q3928.31 249.939 3921.77 249.939 Q3914.27 249.939 3910.31 244.21 Q3906.34 238.452 3906.34 227.543 Q3906.34 217.3 3911.2 211.224 Q3916.07 205.118 3924.25 205.118 Q3926.45 205.118 3928.68 205.553 Q3930.94 205.987 3933.37 206.855 Z" fill="#000000" fill-rule="nonzero" fill-opacity="1" /></svg>
