<?xml version="1.0" encoding="utf-8"?>
<svg xmlns="http://www.w3.org/2000/svg" xmlns:xlink="http://www.w3.org/1999/xlink" width="1200" height="350" viewBox="0 0 4800 1400">
<defs>
  <clipPath id="clip050">
    <rect x="0" y="0" width="4800" height="1400"/>
  </clipPath>
</defs>
<path clip-path="url(#clip050)" d="M0 1400 L4800 1400 L4800 0 L0 0  Z" fill="#ffffff" fill-rule="evenodd" fill-opacity="1"/>
<defs>
  <clipPath id="clip051">
    <rect x="960" y="0" width="3361" height="1400"/>
  </clipPath>
</defs>
<path clip-path="url(#clip050)" d="M224.064 1273.23 L1552.76 1273.23 L1552.76 88.0695 L224.064 88.0695  Z" fill="#ffffff" fill-rule="evenodd" fill-opacity="1"/>
<defs>
  <clipPath id="clip052">
    <rect x="224" y="88" width="1330" height="1186"/>
  </clipPath>
</defs>
<polyline clip-path="url(#clip052)" style="stroke:#000000; stroke-linecap:round; stroke-linejoin:round; stroke-width:2; stroke-opacity:0.1; fill:none" points="395.688,1273.23 395.688,88.0695 "/>
<polyline clip-path="url(#clip052)" style="stroke:#000000; stroke-linecap:round; stroke-linejoin:round; stroke-width:2; stroke-opacity:0.1; fill:none" points="592.777,1273.23 592.777,88.0695 "/>
<polyline clip-path="url(#clip052)" style="stroke:#000000; stroke-linecap:round; stroke-linejoin:round; stroke-width:2; stroke-opacity:0.1; fill:none" points="789.866,1273.23 789.866,88.0695 "/>
<polyline clip-path="url(#clip052)" style="stroke:#000000; stroke-linecap:round; stroke-linejoin:round; stroke-width:2; stroke-opacity:0.1; fill:none" points="986.954,1273.23 986.954,88.0695 "/>
<polyline clip-path="url(#clip052)" style="stroke:#000000; stroke-linecap:round; stroke-linejoin:round; stroke-width:2; stroke-opacity:0.1; fill:none" points="1184.04,1273.23 1184.04,88.0695 "/>
<polyline clip-path="url(#clip052)" style="stroke:#000000; stroke-linecap:round; stroke-linejoin:round; stroke-width:2; stroke-opacity:0.1; fill:none" points="1381.13,1273.23 1381.13,88.0695 "/>
<polyline clip-path="url(#clip050)" style="stroke:#000000; stroke-linecap:round; stroke-linejoin:round; stroke-width:4; stroke-opacity:1; fill:none" points="224.064,1273.23 1552.76,1273.23 "/>
<polyline clip-path="url(#clip050)" style="stroke:#000000; stroke-linecap:round; stroke-linejoin:round; stroke-width:4; stroke-opacity:1; fill:none" points="395.688,1273.23 395.688,1254.33 "/>
<polyline clip-path="url(#clip050)" style="stroke:#000000; stroke-linecap:round; stroke-linejoin:round; stroke-width:4; stroke-opacity:1; fill:none" points="592.777,1273.23 592.777,1254.33 "/>
<polyline clip-path="url(#clip050)" style="stroke:#000000; stroke-linecap:round; stroke-linejoin:round; stroke-width:4; stroke-opacity:1; fill:none" points="789.866,1273.23 789.866,1254.33 "/>
<polyline clip-path="url(#clip050)" style="stroke:#000000; stroke-linecap:round; stroke-linejoin:round; stroke-width:4; stroke-opacity:1; fill:none" points="986.954,1273.23 986.954,1254.33 "/>
<polyline clip-path="url(#clip050)" style="stroke:#000000; stroke-linecap:round; stroke-linejoin:round; stroke-width:4; stroke-opacity:1; fill:none" points="1184.04,1273.23 1184.04,1254.33 "/>
<polyline clip-path="url(#clip050)" style="stroke:#000000; stroke-linecap:round; stroke-linejoin:round; stroke-width:4; stroke-opacity:1; fill:none" points="1381.13,1273.23 1381.13,1254.33 "/>
<g clip-path="url(#clip050)">
<text style="fill:#000000; fill-opacity:1; font-family:Century Gothic,CenturyGothic,AppleGothic,sans-serif; font-size:47px; text-anchor:middle;" transform="rotate(0, 395.688, 1353.69)" x="395.688" y="1353.69">0</text>
</g>
<g clip-path="url(#clip050)">
<text style="fill:#000000; fill-opacity:1; font-family:Century Gothic,CenturyGothic,AppleGothic,sans-serif; font-size:47px; text-anchor:middle;" transform="rotate(0, 592.777, 1353.69)" x="592.777" y="1353.69">1</text>
</g>
<g clip-path="url(#clip050)">
<text style="fill:#000000; fill-opacity:1; font-family:Century Gothic,CenturyGothic,AppleGothic,sans-serif; font-size:47px; text-anchor:middle;" transform="rotate(0, 789.866, 1353.69)" x="789.866" y="1353.69">2</text>
</g>
<g clip-path="url(#clip050)">
<text style="fill:#000000; fill-opacity:1; font-family:Century Gothic,CenturyGothic,AppleGothic,sans-serif; font-size:47px; text-anchor:middle;" transform="rotate(0, 986.954, 1353.69)" x="986.954" y="1353.69">3</text>
</g>
<g clip-path="url(#clip050)">
<text style="fill:#000000; fill-opacity:1; font-family:Century Gothic,CenturyGothic,AppleGothic,sans-serif; font-size:47px; text-anchor:middle;" transform="rotate(0, 1184.04, 1353.69)" x="1184.04" y="1353.69">4</text>
</g>
<g clip-path="url(#clip050)">
<text style="fill:#000000; fill-opacity:1; font-family:Century Gothic,CenturyGothic,AppleGothic,sans-serif; font-size:47px; text-anchor:middle;" transform="rotate(0, 1381.13, 1353.69)" x="1381.13" y="1353.69">5</text>
</g>
<g clip-path="url(#clip050)">
<text style="fill:#000000; fill-opacity:1; font-family:Century Gothic,CenturyGothic,AppleGothic,sans-serif; font-size:65px; text-anchor:middle;" transform="rotate(0, 888.41, 1452.31)" x="888.41" y="1452.31">中心推定の正解数</text>
</g>
<polyline clip-path="url(#clip052)" style="stroke:#000000; stroke-linecap:round; stroke-linejoin:round; stroke-width:2; stroke-opacity:0.1; fill:none" points="224.064,1273.23 1552.76,1273.23 "/>
<polyline clip-path="url(#clip052)" style="stroke:#000000; stroke-linecap:round; stroke-linejoin:round; stroke-width:2; stroke-opacity:0.1; fill:none" points="224.064,994.366 1552.76,994.366 "/>
<polyline clip-path="url(#clip052)" style="stroke:#000000; stroke-linecap:round; stroke-linejoin:round; stroke-width:2; stroke-opacity:0.1; fill:none" points="224.064,715.505 1552.76,715.505 "/>
<polyline clip-path="url(#clip052)" style="stroke:#000000; stroke-linecap:round; stroke-linejoin:round; stroke-width:2; stroke-opacity:0.1; fill:none" points="224.064,436.645 1552.76,436.645 "/>
<polyline clip-path="url(#clip052)" style="stroke:#000000; stroke-linecap:round; stroke-linejoin:round; stroke-width:2; stroke-opacity:0.1; fill:none" points="224.064,157.785 1552.76,157.785 "/>
<polyline clip-path="url(#clip050)" style="stroke:#000000; stroke-linecap:round; stroke-linejoin:round; stroke-width:4; stroke-opacity:1; fill:none" points="224.064,1273.23 224.064,88.0695 "/>
<polyline clip-path="url(#clip050)" style="stroke:#000000; stroke-linecap:round; stroke-linejoin:round; stroke-width:4; stroke-opacity:1; fill:none" points="224.064,1273.23 242.961,1273.23 "/>
<polyline clip-path="url(#clip050)" style="stroke:#000000; stroke-linecap:round; stroke-linejoin:round; stroke-width:4; stroke-opacity:1; fill:none" points="224.064,994.366 242.961,994.366 "/>
<polyline clip-path="url(#clip050)" style="stroke:#000000; stroke-linecap:round; stroke-linejoin:round; stroke-width:4; stroke-opacity:1; fill:none" points="224.064,715.505 242.961,715.505 "/>
<polyline clip-path="url(#clip050)" style="stroke:#000000; stroke-linecap:round; stroke-linejoin:round; stroke-width:4; stroke-opacity:1; fill:none" points="224.064,436.645 242.961,436.645 "/>
<polyline clip-path="url(#clip050)" style="stroke:#000000; stroke-linecap:round; stroke-linejoin:round; stroke-width:4; stroke-opacity:1; fill:none" points="224.064,157.785 242.961,157.785 "/>
<g clip-path="url(#clip050)">
<text style="fill:#000000; fill-opacity:1; font-family:Century Gothic,CenturyGothic,AppleGothic,sans-serif; font-size:47px; text-anchor:middle;" transform="rotate(0, 139.127, 1290.73)" x="139.127" y="1290.73">0</text>
</g>
<g clip-path="url(#clip050)">
<text style="fill:#000000; fill-opacity:1; font-family:Century Gothic,CenturyGothic,AppleGothic,sans-serif; font-size:47px; text-anchor:middle;" transform="rotate(0, 113.254, 1011.87)" x="113.254" y="1011.87">200</text>
</g>
<g clip-path="url(#clip050)">
<text style="fill:#000000; fill-opacity:1; font-family:Century Gothic,CenturyGothic,AppleGothic,sans-serif; font-size:47px; text-anchor:middle;" transform="rotate(0, 113.254, 733.005)" x="113.254" y="733.005">400</text>
</g>
<g clip-path="url(#clip050)">
<text style="fill:#000000; fill-opacity:1; font-family:Century Gothic,CenturyGothic,AppleGothic,sans-serif; font-size:47px; text-anchor:middle;" transform="rotate(0, 113.254, 454.145)" x="113.254" y="454.145">600</text>
</g>
<g clip-path="url(#clip050)">
<text style="fill:#000000; fill-opacity:1; font-family:Century Gothic,CenturyGothic,AppleGothic,sans-serif; font-size:47px; text-anchor:middle;" transform="rotate(0, 113.254, 175.285)" x="113.254" y="175.285">800</text>
</g>
<g clip-path="url(#clip050)">
<text style="fill:#000000; fill-opacity:1; font-family:Century Gothic,CenturyGothic,AppleGothic,sans-serif; font-size:65px; text-anchor:middle;" transform="rotate(-90, -7.51163, 680.648)" x="-7.51163" y="680.648">度数</text>
</g>
<g clip-path="url(#clip050)">
<text style="fill:#000000; fill-opacity:1; font-family:Century Gothic,CenturyGothic,AppleGothic,sans-serif; font-size:81px; text-anchor:middle;" transform="rotate(0, 888.41, 72)" x="888.41" y="72">Setting : A, Method : EV</text>
</g>
<path clip-path="url(#clip052)" d="M297.144 1273.23 L297.144 1273.23 L494.233 1273.23 L494.233 1273.23 L297.144 1273.23 L297.144 1273.23  Z" fill="#009af9" fill-rule="evenodd" fill-opacity="1"/>
<polyline clip-path="url(#clip052)" style="stroke:#000000; stroke-linecap:round; stroke-linejoin:round; stroke-width:4; stroke-opacity:1; fill:none" points="297.144,1273.23 297.144,1273.23 494.233,1273.23 297.144,1273.23 "/>
<path clip-path="url(#clip052)" d="M494.233 1273.23 L494.233 1273.23 L691.321 1273.23 L691.321 1273.23 L494.233 1273.23 L494.233 1273.23  Z" fill="#009af9" fill-rule="evenodd" fill-opacity="1"/>
<polyline clip-path="url(#clip052)" style="stroke:#000000; stroke-linecap:round; stroke-linejoin:round; stroke-width:4; stroke-opacity:1; fill:none" points="494.233,1273.23 494.233,1273.23 691.321,1273.23 494.233,1273.23 "/>
<path clip-path="url(#clip052)" d="M691.321 1228.61 L691.321 1273.23 L888.41 1273.23 L888.41 1228.61 L691.321 1228.61 L691.321 1228.61  Z" fill="#009af9" fill-rule="evenodd" fill-opacity="1"/>
<polyline clip-path="url(#clip052)" style="stroke:#000000; stroke-linecap:round; stroke-linejoin:round; stroke-width:4; stroke-opacity:1; fill:none" points="691.321,1228.61 691.321,1273.23 888.41,1273.23 888.41,1228.61 691.321,1228.61 "/>
<path clip-path="url(#clip052)" d="M888.41 903.736 L888.41 1273.23 L1085.5 1273.23 L1085.5 903.736 L888.41 903.736 L888.41 903.736  Z" fill="#009af9" fill-rule="evenodd" fill-opacity="1"/>
<polyline clip-path="url(#clip052)" style="stroke:#000000; stroke-linecap:round; stroke-linejoin:round; stroke-width:4; stroke-opacity:1; fill:none" points="888.41,903.736 888.41,1273.23 1085.5,1273.23 1085.5,903.736 888.41,903.736 "/>
<path clip-path="url(#clip052)" d="M1085.5 677.859 L1085.5 1273.23 L1282.59 1273.23 L1282.59 677.859 L1085.5 677.859 L1085.5 677.859  Z" fill="#009af9" fill-rule="evenodd" fill-opacity="1"/>
<polyline clip-path="url(#clip052)" style="stroke:#000000; stroke-linecap:round; stroke-linejoin:round; stroke-width:4; stroke-opacity:1; fill:none" points="1085.5,677.859 1085.5,1273.23 1282.59,1273.23 1282.59,677.859 1085.5,677.859 "/>
<path clip-path="url(#clip052)" d="M1282.59 888.399 L1282.59 1273.23 L1479.68 1273.23 L1479.68 888.399 L1282.59 888.399 L1282.59 888.399  Z" fill="#009af9" fill-rule="evenodd" fill-opacity="1"/>
<polyline clip-path="url(#clip052)" style="stroke:#000000; stroke-linecap:round; stroke-linejoin:round; stroke-width:4; stroke-opacity:1; fill:none" points="1282.59,888.399 1282.59,1273.23 1479.68,1273.23 1479.68,888.399 1282.59,888.399 "/>
<circle clip-path="url(#clip052)" style="fill:#009af9; stroke:none; fill-opacity:0" cx="395.688" cy="1273.23" r="2"/>
<circle clip-path="url(#clip052)" style="fill:#009af9; stroke:none; fill-opacity:0" cx="592.777" cy="1273.23" r="2"/>
<circle clip-path="url(#clip052)" style="fill:#009af9; stroke:none; fill-opacity:0" cx="789.866" cy="1228.61" r="2"/>
<circle clip-path="url(#clip052)" style="fill:#009af9; stroke:none; fill-opacity:0" cx="986.954" cy="903.736" r="2"/>
<circle clip-path="url(#clip052)" style="fill:#009af9; stroke:none; fill-opacity:0" cx="1184.04" cy="677.859" r="2"/>
<circle clip-path="url(#clip052)" style="fill:#009af9; stroke:none; fill-opacity:0" cx="1381.13" cy="888.399" r="2"/>
<path clip-path="url(#clip050)" d="M297.144 136.185 L305.854 136.185 L316.878 165.583 L327.96 136.185 L336.669 136.185 L336.669 179.385 L330.969 179.385 L330.969 141.451 L319.829 171.08 L313.955 171.08 L302.815 141.451 L302.815 179.385 L297.144 179.385 L297.144 136.185 Z" fill="#000000" fill-rule="nonzero" fill-opacity="1" /><path clip-path="url(#clip050)" d="M375.761 161.85 L375.761 164.454 L351.282 164.454 Q351.629 169.952 354.58 172.845 Q357.561 175.71 362.856 175.71 Q365.923 175.71 368.787 174.958 Q371.681 174.205 374.516 172.701 L374.516 177.735 Q371.652 178.951 368.643 179.587 Q365.633 180.224 362.537 180.224 Q354.783 180.224 350.24 175.71 Q345.726 171.196 345.726 163.499 Q345.726 155.542 350.008 150.884 Q354.32 146.196 361.611 146.196 Q368.151 146.196 371.941 150.421 Q375.761 154.616 375.761 161.85 M370.437 160.288 Q370.379 155.918 367.977 153.314 Q365.604 150.71 361.669 150.71 Q357.213 150.71 354.522 153.227 Q351.86 155.745 351.455 160.316 L370.437 160.288 Z" fill="#000000" fill-rule="nonzero" fill-opacity="1" /><path clip-path="url(#clip050)" d="M399.227 163.094 Q392.774 163.094 390.286 164.57 Q387.798 166.046 387.798 169.605 Q387.798 172.44 389.649 174.118 Q391.53 175.768 394.742 175.768 Q399.169 175.768 401.831 172.643 Q404.522 169.489 404.522 164.281 L404.522 163.094 L399.227 163.094 M409.846 160.895 L409.846 179.385 L404.522 179.385 L404.522 174.466 Q402.699 177.417 399.979 178.835 Q397.259 180.224 393.324 180.224 Q388.347 180.224 385.396 177.446 Q382.474 174.639 382.474 169.952 Q382.474 164.483 386.119 161.705 Q389.794 158.928 397.057 158.928 L404.522 158.928 L404.522 158.407 Q404.522 154.732 402.092 152.735 Q399.69 150.71 395.321 150.71 Q392.543 150.71 389.91 151.376 Q387.277 152.041 384.846 153.372 L384.846 148.453 Q387.769 147.325 390.518 146.775 Q393.266 146.196 395.87 146.196 Q402.902 146.196 406.374 149.842 Q409.846 153.488 409.846 160.895 Z" fill="#000000" fill-rule="nonzero" fill-opacity="1" /><path clip-path="url(#clip050)" d="M447.751 159.825 L447.751 179.385 L442.427 179.385 L442.427 159.998 Q442.427 155.397 440.633 153.112 Q438.839 150.826 435.251 150.826 Q430.94 150.826 428.451 153.575 Q425.963 156.323 425.963 161.069 L425.963 179.385 L420.61 179.385 L420.61 146.977 L425.963 146.977 L425.963 152.012 Q427.873 149.09 430.448 147.643 Q433.052 146.196 436.437 146.196 Q442.022 146.196 444.886 149.668 Q447.751 153.112 447.751 159.825 Z" fill="#000000" fill-rule="nonzero" fill-opacity="1" /><path clip-path="url(#clip050)" d="M477.901 152.475 L514.996 152.475 L514.996 157.336 L477.901 157.336 L477.901 152.475 M477.901 164.281 L514.996 164.281 L514.996 169.2 L477.901 169.2 L477.901 164.281 Z" fill="#000000" fill-rule="nonzero" fill-opacity="1" /><path clip-path="url(#clip050)" d="M564.157 156.092 Q568.352 156.989 570.696 159.825 Q573.069 162.66 573.069 166.827 Q573.069 173.221 568.67 176.723 Q564.272 180.224 556.171 180.224 Q553.451 180.224 550.557 179.674 Q547.693 179.153 544.625 178.083 L544.625 172.44 Q547.056 173.858 549.95 174.581 Q552.843 175.305 555.997 175.305 Q561.495 175.305 564.359 173.135 Q567.253 170.965 567.253 166.827 Q567.253 163.007 564.562 160.866 Q561.9 158.696 557.125 158.696 L552.091 158.696 L552.091 153.893 L557.357 153.893 Q561.668 153.893 563.954 152.186 Q566.24 150.45 566.24 147.209 Q566.24 143.881 563.867 142.116 Q561.524 140.322 557.125 140.322 Q554.724 140.322 551.975 140.843 Q549.226 141.364 545.928 142.464 L545.928 137.255 Q549.255 136.329 552.149 135.866 Q555.071 135.403 557.646 135.403 Q564.301 135.403 568.179 138.442 Q572.056 141.451 572.056 146.601 Q572.056 150.189 570.001 152.678 Q567.947 155.137 564.157 156.092 Z" fill="#000000" fill-rule="nonzero" fill-opacity="1" /><path clip-path="url(#clip050)" d="M584.151 172.035 L590.256 172.035 L590.256 179.385 L584.151 179.385 L584.151 172.035 Z" fill="#000000" fill-rule="nonzero" fill-opacity="1" /><path clip-path="url(#clip050)" d="M603.161 178.488 L603.161 173.164 Q605.36 174.205 607.617 174.755 Q609.874 175.305 612.044 175.305 Q617.831 175.305 620.869 171.427 Q623.936 167.521 624.37 159.593 Q622.692 162.081 620.117 163.412 Q617.542 164.744 614.417 164.744 Q607.935 164.744 604.145 160.837 Q600.383 156.902 600.383 150.102 Q600.383 143.447 604.318 139.425 Q608.254 135.403 614.793 135.403 Q622.287 135.403 626.222 141.161 Q630.186 146.891 630.186 157.828 Q630.186 168.042 625.325 174.147 Q620.493 180.224 612.305 180.224 Q610.105 180.224 607.849 179.79 Q605.592 179.356 603.161 178.488 M614.793 160.172 Q618.728 160.172 621.014 157.481 Q623.329 154.79 623.329 150.102 Q623.329 145.444 621.014 142.753 Q618.728 140.033 614.793 140.033 Q610.858 140.033 608.543 142.753 Q606.257 145.444 606.257 150.102 Q606.257 154.79 608.543 157.481 Q610.858 160.172 614.793 160.172 Z" fill="#000000" fill-rule="nonzero" fill-opacity="1" /><path clip-path="url(#clip050)" d="M656.749 141.277 L641.992 164.338 L656.749 164.338 L656.749 141.277 M655.215 136.185 L662.565 136.185 L662.565 164.338 L668.728 164.338 L668.728 169.2 L662.565 169.2 L662.565 179.385 L656.749 179.385 L656.749 169.2 L637.247 169.2 L637.247 163.557 L655.215 136.185 Z" fill="#000000" fill-rule="nonzero" fill-opacity="1" /><path clip-path="url(#clip050)" d="M676.916 136.185 L704.694 136.185 L704.694 138.673 L689.011 179.385 L682.906 179.385 L697.663 141.104 L676.916 141.104 L676.916 136.185 Z" fill="#000000" fill-rule="nonzero" fill-opacity="1" /><path clip-path="url(#clip050)" d="M302.989 210.703 L302.989 244.297 L310.049 244.297 Q318.99 244.297 323.128 240.246 Q327.294 236.195 327.294 227.456 Q327.294 218.776 323.128 214.754 Q318.99 210.703 310.049 210.703 L302.989 210.703 M297.144 205.9 L309.152 205.9 Q321.71 205.9 327.584 211.137 Q333.458 216.345 333.458 227.456 Q333.458 238.625 327.555 243.862 Q321.652 249.1 309.152 249.1 L297.144 249.1 L297.144 205.9 Z" fill="#000000" fill-rule="nonzero" fill-opacity="1" /><path clip-path="url(#clip050)" d="M342.543 216.692 L347.867 216.692 L347.867 249.1 L342.543 249.1 L342.543 216.692 M342.543 204.077 L347.867 204.077 L347.867 210.819 L342.543 210.819 L342.543 204.077 Z" fill="#000000" fill-rule="nonzero" fill-opacity="1" /><path clip-path="url(#clip050)" d="M379.667 217.647 L379.667 222.682 Q377.41 221.525 374.979 220.946 Q372.549 220.367 369.945 220.367 Q365.981 220.367 363.984 221.583 Q362.016 222.798 362.016 225.228 Q362.016 227.08 363.434 228.151 Q364.852 229.192 369.135 230.147 L370.957 230.552 Q376.629 231.768 379.001 233.996 Q381.403 236.195 381.403 240.159 Q381.403 244.673 377.815 247.306 Q374.256 249.939 368.006 249.939 Q365.402 249.939 362.566 249.418 Q359.76 248.926 356.635 247.913 L356.635 242.416 Q359.586 243.949 362.451 244.731 Q365.315 245.483 368.122 245.483 Q371.883 245.483 373.909 244.21 Q375.934 242.908 375.934 240.564 Q375.934 238.394 374.459 237.236 Q373.012 236.079 368.064 235.008 L366.212 234.574 Q361.264 233.533 359.065 231.391 Q356.866 229.221 356.866 225.46 Q356.866 220.888 360.107 218.4 Q363.348 215.911 369.308 215.911 Q372.259 215.911 374.864 216.345 Q377.468 216.779 379.667 217.647 Z" fill="#000000" fill-rule="nonzero" fill-opacity="1" /><path clip-path="url(#clip050)" d="M395.147 207.491 L395.147 216.692 L406.113 216.692 L406.113 220.83 L395.147 220.83 L395.147 238.423 Q395.147 242.387 396.218 243.515 Q397.317 244.644 400.645 244.644 L406.113 244.644 L406.113 249.1 L400.645 249.1 Q394.482 249.1 392.138 246.814 Q389.794 244.499 389.794 238.423 L389.794 220.83 L385.888 220.83 L385.888 216.692 L389.794 216.692 L389.794 207.491 L395.147 207.491 Z" fill="#000000" fill-rule="nonzero" fill-opacity="1" /><path clip-path="url(#clip050)" d="M432.647 222.19 L469.742 222.19 L469.742 227.051 L432.647 227.051 L432.647 222.19 M432.647 233.996 L469.742 233.996 L469.742 238.915 L432.647 238.915 L432.647 233.996 Z" fill="#000000" fill-rule="nonzero" fill-opacity="1" /><path clip-path="url(#clip050)" d="M513.694 209.748 Q509.18 209.748 506.894 214.204 Q504.637 218.631 504.637 227.543 Q504.637 236.426 506.894 240.882 Q509.18 245.309 513.694 245.309 Q518.237 245.309 520.494 240.882 Q522.78 236.426 522.78 227.543 Q522.78 218.631 520.494 214.204 Q518.237 209.748 513.694 209.748 M513.694 205.118 Q520.957 205.118 524.776 210.877 Q528.624 216.606 528.624 227.543 Q528.624 238.452 524.776 244.21 Q520.957 249.939 513.694 249.939 Q506.431 249.939 502.583 244.21 Q498.763 238.452 498.763 227.543 Q498.763 216.606 502.583 210.877 Q506.431 205.118 513.694 205.118 Z" fill="#000000" fill-rule="nonzero" fill-opacity="1" /><path clip-path="url(#clip050)" d="M538.896 241.75 L545.002 241.75 L545.002 249.1 L538.896 249.1 L538.896 241.75 Z" fill="#000000" fill-rule="nonzero" fill-opacity="1" /><path clip-path="url(#clip050)" d="M570.233 209.748 Q565.719 209.748 563.433 214.204 Q561.176 218.631 561.176 227.543 Q561.176 236.426 563.433 240.882 Q565.719 245.309 570.233 245.309 Q574.776 245.309 577.033 240.882 Q579.319 236.426 579.319 227.543 Q579.319 218.631 577.033 214.204 Q574.776 209.748 570.233 209.748 M570.233 205.118 Q577.496 205.118 581.315 210.877 Q585.163 216.606 585.163 227.543 Q585.163 238.452 581.315 244.21 Q577.496 249.939 570.233 249.939 Q562.97 249.939 559.122 244.21 Q555.302 238.452 555.302 227.543 Q555.302 216.606 559.122 210.877 Q562.97 205.118 570.233 205.118 Z" fill="#000000" fill-rule="nonzero" fill-opacity="1" /><path clip-path="url(#clip050)" d="M613.144 225.807 Q617.339 226.704 619.683 229.54 Q622.056 232.375 622.056 236.542 Q622.056 242.937 617.657 246.438 Q613.259 249.939 605.158 249.939 Q602.438 249.939 599.544 249.389 Q596.68 248.868 593.612 247.798 L593.612 242.155 Q596.043 243.573 598.937 244.297 Q601.83 245.02 604.984 245.02 Q610.482 245.02 613.346 242.85 Q616.24 240.68 616.24 236.542 Q616.24 232.723 613.549 230.581 Q610.887 228.411 606.112 228.411 L601.078 228.411 L601.078 223.608 L606.344 223.608 Q610.655 223.608 612.941 221.901 Q615.227 220.165 615.227 216.924 Q615.227 213.596 612.854 211.831 Q610.511 210.037 606.112 210.037 Q603.711 210.037 600.962 210.558 Q598.213 211.079 594.915 212.179 L594.915 206.97 Q598.242 206.044 601.136 205.581 Q604.058 205.118 606.633 205.118 Q613.288 205.118 617.166 208.157 Q621.043 211.166 621.043 216.316 Q621.043 219.904 618.989 222.393 Q616.934 224.852 613.144 225.807 Z" fill="#000000" fill-rule="nonzero" fill-opacity="1" /><path clip-path="url(#clip050)" d="M645.638 209.748 Q641.124 209.748 638.838 214.204 Q636.581 218.631 636.581 227.543 Q636.581 236.426 638.838 240.882 Q641.124 245.309 645.638 245.309 Q650.18 245.309 652.437 240.882 Q654.723 236.426 654.723 227.543 Q654.723 218.631 652.437 214.204 Q650.18 209.748 645.638 209.748 M645.638 205.118 Q652.9 205.118 656.72 210.877 Q660.568 216.606 660.568 227.543 Q660.568 238.452 656.72 244.21 Q652.9 249.939 645.638 249.939 Q638.375 249.939 634.527 244.21 Q630.707 238.452 630.707 227.543 Q630.707 216.606 634.527 210.877 Q638.375 205.118 645.638 205.118 Z" fill="#000000" fill-rule="nonzero" fill-opacity="1" /><path clip-path="url(#clip050)" d="M671.853 244.181 L681.401 244.181 L681.401 211.224 L671.014 213.307 L671.014 207.983 L681.343 205.9 L687.188 205.9 L687.188 244.181 L696.737 244.181 L696.737 249.1 L671.853 249.1 L671.853 244.181 Z" fill="#000000" fill-rule="nonzero" fill-opacity="1" /><path clip-path="url(#clip050)" d="M721.042 228.585 Q716.876 228.585 714.474 230.813 Q712.101 233.041 712.101 236.947 Q712.101 240.853 714.474 243.081 Q716.876 245.309 721.042 245.309 Q725.209 245.309 727.611 243.081 Q730.012 240.824 730.012 236.947 Q730.012 233.041 727.611 230.813 Q725.238 228.585 721.042 228.585 M715.197 226.096 Q711.436 225.17 709.324 222.595 Q707.24 220.02 707.24 216.316 Q707.24 211.137 710.915 208.128 Q714.619 205.118 721.042 205.118 Q727.495 205.118 731.17 208.128 Q734.844 211.137 734.844 216.316 Q734.844 220.02 732.732 222.595 Q730.649 225.17 726.916 226.096 Q731.141 227.08 733.484 229.945 Q735.857 232.809 735.857 236.947 Q735.857 243.226 732.009 246.582 Q728.189 249.939 721.042 249.939 Q713.895 249.939 710.047 246.582 Q706.228 243.226 706.228 236.947 Q706.228 232.809 708.6 229.945 Q710.973 227.08 715.197 226.096 M713.056 216.866 Q713.056 220.223 715.14 222.103 Q717.252 223.984 721.042 223.984 Q724.804 223.984 726.916 222.103 Q729.057 220.223 729.057 216.866 Q729.057 213.51 726.916 211.629 Q724.804 209.748 721.042 209.748 Q717.252 209.748 715.14 211.629 Q713.056 213.51 713.056 216.866 Z" fill="#000000" fill-rule="nonzero" fill-opacity="1" /><path clip-path="url(#clip050)" d="M1824.06 1273.23 L3152.76 1273.23 L3152.76 88.0695 L1824.06 88.0695  Z" fill="#ffffff" fill-rule="evenodd" fill-opacity="1"/>
<defs>
  <clipPath id="clip053">
    <rect x="1824" y="88" width="1330" height="1186"/>
  </clipPath>
</defs>
<polyline clip-path="url(#clip053)" style="stroke:#000000; stroke-linecap:round; stroke-linejoin:round; stroke-width:2; stroke-opacity:0.1; fill:none" points="1995.69,1273.23 1995.69,88.0695 "/>
<polyline clip-path="url(#clip053)" style="stroke:#000000; stroke-linecap:round; stroke-linejoin:round; stroke-width:2; stroke-opacity:0.1; fill:none" points="2192.78,1273.23 2192.78,88.0695 "/>
<polyline clip-path="url(#clip053)" style="stroke:#000000; stroke-linecap:round; stroke-linejoin:round; stroke-width:2; stroke-opacity:0.1; fill:none" points="2389.87,1273.23 2389.87,88.0695 "/>
<polyline clip-path="url(#clip053)" style="stroke:#000000; stroke-linecap:round; stroke-linejoin:round; stroke-width:2; stroke-opacity:0.1; fill:none" points="2586.95,1273.23 2586.95,88.0695 "/>
<polyline clip-path="url(#clip053)" style="stroke:#000000; stroke-linecap:round; stroke-linejoin:round; stroke-width:2; stroke-opacity:0.1; fill:none" points="2784.04,1273.23 2784.04,88.0695 "/>
<polyline clip-path="url(#clip053)" style="stroke:#000000; stroke-linecap:round; stroke-linejoin:round; stroke-width:2; stroke-opacity:0.1; fill:none" points="2981.13,1273.23 2981.13,88.0695 "/>
<polyline clip-path="url(#clip050)" style="stroke:#000000; stroke-linecap:round; stroke-linejoin:round; stroke-width:4; stroke-opacity:1; fill:none" points="1824.06,1273.23 3152.76,1273.23 "/>
<polyline clip-path="url(#clip050)" style="stroke:#000000; stroke-linecap:round; stroke-linejoin:round; stroke-width:4; stroke-opacity:1; fill:none" points="1995.69,1273.23 1995.69,1254.33 "/>
<polyline clip-path="url(#clip050)" style="stroke:#000000; stroke-linecap:round; stroke-linejoin:round; stroke-width:4; stroke-opacity:1; fill:none" points="2192.78,1273.23 2192.78,1254.33 "/>
<polyline clip-path="url(#clip050)" style="stroke:#000000; stroke-linecap:round; stroke-linejoin:round; stroke-width:4; stroke-opacity:1; fill:none" points="2389.87,1273.23 2389.87,1254.33 "/>
<polyline clip-path="url(#clip050)" style="stroke:#000000; stroke-linecap:round; stroke-linejoin:round; stroke-width:4; stroke-opacity:1; fill:none" points="2586.95,1273.23 2586.95,1254.33 "/>
<polyline clip-path="url(#clip050)" style="stroke:#000000; stroke-linecap:round; stroke-linejoin:round; stroke-width:4; stroke-opacity:1; fill:none" points="2784.04,1273.23 2784.04,1254.33 "/>
<polyline clip-path="url(#clip050)" style="stroke:#000000; stroke-linecap:round; stroke-linejoin:round; stroke-width:4; stroke-opacity:1; fill:none" points="2981.13,1273.23 2981.13,1254.33 "/>
<g clip-path="url(#clip050)">
<text style="fill:#000000; fill-opacity:1; font-family:Century Gothic,CenturyGothic,AppleGothic,sans-serif; font-size:47px; text-anchor:middle;" transform="rotate(0, 1995.69, 1353.69)" x="1995.69" y="1353.69">0</text>
</g>
<g clip-path="url(#clip050)">
<text style="fill:#000000; fill-opacity:1; font-family:Century Gothic,CenturyGothic,AppleGothic,sans-serif; font-size:47px; text-anchor:middle;" transform="rotate(0, 2192.78, 1353.69)" x="2192.78" y="1353.69">1</text>
</g>
<g clip-path="url(#clip050)">
<text style="fill:#000000; fill-opacity:1; font-family:Century Gothic,CenturyGothic,AppleGothic,sans-serif; font-size:47px; text-anchor:middle;" transform="rotate(0, 2389.87, 1353.69)" x="2389.87" y="1353.69">2</text>
</g>
<g clip-path="url(#clip050)">
<text style="fill:#000000; fill-opacity:1; font-family:Century Gothic,CenturyGothic,AppleGothic,sans-serif; font-size:47px; text-anchor:middle;" transform="rotate(0, 2586.95, 1353.69)" x="2586.95" y="1353.69">3</text>
</g>
<g clip-path="url(#clip050)">
<text style="fill:#000000; fill-opacity:1; font-family:Century Gothic,CenturyGothic,AppleGothic,sans-serif; font-size:47px; text-anchor:middle;" transform="rotate(0, 2784.04, 1353.69)" x="2784.04" y="1353.69">4</text>
</g>
<g clip-path="url(#clip050)">
<text style="fill:#000000; fill-opacity:1; font-family:Century Gothic,CenturyGothic,AppleGothic,sans-serif; font-size:47px; text-anchor:middle;" transform="rotate(0, 2981.13, 1353.69)" x="2981.13" y="1353.69">5</text>
</g>
<g clip-path="url(#clip050)">
<text style="fill:#000000; fill-opacity:1; font-family:Century Gothic,CenturyGothic,AppleGothic,sans-serif; font-size:65px; text-anchor:middle;" transform="rotate(0, 2488.41, 1452.31)" x="2488.41" y="1452.31">中心推定の正解数</text>
</g>
<polyline clip-path="url(#clip053)" style="stroke:#000000; stroke-linecap:round; stroke-linejoin:round; stroke-width:2; stroke-opacity:0.1; fill:none" points="1824.06,1273.23 3152.76,1273.23 "/>
<polyline clip-path="url(#clip053)" style="stroke:#000000; stroke-linecap:round; stroke-linejoin:round; stroke-width:2; stroke-opacity:0.1; fill:none" points="1824.06,994.366 3152.76,994.366 "/>
<polyline clip-path="url(#clip053)" style="stroke:#000000; stroke-linecap:round; stroke-linejoin:round; stroke-width:2; stroke-opacity:0.1; fill:none" points="1824.06,715.505 3152.76,715.505 "/>
<polyline clip-path="url(#clip053)" style="stroke:#000000; stroke-linecap:round; stroke-linejoin:round; stroke-width:2; stroke-opacity:0.1; fill:none" points="1824.06,436.645 3152.76,436.645 "/>
<polyline clip-path="url(#clip053)" style="stroke:#000000; stroke-linecap:round; stroke-linejoin:round; stroke-width:2; stroke-opacity:0.1; fill:none" points="1824.06,157.785 3152.76,157.785 "/>
<polyline clip-path="url(#clip050)" style="stroke:#000000; stroke-linecap:round; stroke-linejoin:round; stroke-width:4; stroke-opacity:1; fill:none" points="1824.06,1273.23 1824.06,88.0695 "/>
<polyline clip-path="url(#clip050)" style="stroke:#000000; stroke-linecap:round; stroke-linejoin:round; stroke-width:4; stroke-opacity:1; fill:none" points="1824.06,1273.23 1842.96,1273.23 "/>
<polyline clip-path="url(#clip050)" style="stroke:#000000; stroke-linecap:round; stroke-linejoin:round; stroke-width:4; stroke-opacity:1; fill:none" points="1824.06,994.366 1842.96,994.366 "/>
<polyline clip-path="url(#clip050)" style="stroke:#000000; stroke-linecap:round; stroke-linejoin:round; stroke-width:4; stroke-opacity:1; fill:none" points="1824.06,715.505 1842.96,715.505 "/>
<polyline clip-path="url(#clip050)" style="stroke:#000000; stroke-linecap:round; stroke-linejoin:round; stroke-width:4; stroke-opacity:1; fill:none" points="1824.06,436.645 1842.96,436.645 "/>
<polyline clip-path="url(#clip050)" style="stroke:#000000; stroke-linecap:round; stroke-linejoin:round; stroke-width:4; stroke-opacity:1; fill:none" points="1824.06,157.785 1842.96,157.785 "/>
<g clip-path="url(#clip050)">
<text style="fill:#000000; fill-opacity:1; font-family:Century Gothic,CenturyGothic,AppleGothic,sans-serif; font-size:47px; text-anchor:middle;" transform="rotate(0, 1739.13, 1290.73)" x="1739.13" y="1290.73">0</text>
</g>
<g clip-path="url(#clip050)">
<text style="fill:#000000; fill-opacity:1; font-family:Century Gothic,CenturyGothic,AppleGothic,sans-serif; font-size:47px; text-anchor:middle;" transform="rotate(0, 1713.25, 1011.87)" x="1713.25" y="1011.87">200</text>
</g>
<g clip-path="url(#clip050)">
<text style="fill:#000000; fill-opacity:1; font-family:Century Gothic,CenturyGothic,AppleGothic,sans-serif; font-size:47px; text-anchor:middle;" transform="rotate(0, 1713.25, 733.005)" x="1713.25" y="733.005">400</text>
</g>
<g clip-path="url(#clip050)">
<text style="fill:#000000; fill-opacity:1; font-family:Century Gothic,CenturyGothic,AppleGothic,sans-serif; font-size:47px; text-anchor:middle;" transform="rotate(0, 1713.25, 454.145)" x="1713.25" y="454.145">600</text>
</g>
<g clip-path="url(#clip050)">
<text style="fill:#000000; fill-opacity:1; font-family:Century Gothic,CenturyGothic,AppleGothic,sans-serif; font-size:47px; text-anchor:middle;" transform="rotate(0, 1713.25, 175.285)" x="1713.25" y="175.285">800</text>
</g>
<g clip-path="url(#clip050)">
<text style="fill:#000000; fill-opacity:1; font-family:Century Gothic,CenturyGothic,AppleGothic,sans-serif; font-size:65px; text-anchor:middle;" transform="rotate(-90, 1592.49, 680.648)" x="1592.49" y="680.648">度数</text>
</g>
<g clip-path="url(#clip050)">
<text style="fill:#000000; fill-opacity:1; font-family:Century Gothic,CenturyGothic,AppleGothic,sans-serif; font-size:81px; text-anchor:middle;" transform="rotate(0, 2488.41, 72)" x="2488.41" y="72">Setting : A, Method : GM</text>
</g>
<path clip-path="url(#clip053)" d="M1897.14 1273.23 L1897.14 1273.23 L2094.23 1273.23 L2094.23 1273.23 L1897.14 1273.23 L1897.14 1273.23  Z" fill="#009af9" fill-rule="evenodd" fill-opacity="1"/>
<polyline clip-path="url(#clip053)" style="stroke:#000000; stroke-linecap:round; stroke-linejoin:round; stroke-width:4; stroke-opacity:1; fill:none" points="1897.14,1273.23 1897.14,1273.23 2094.23,1273.23 1897.14,1273.23 "/>
<path clip-path="url(#clip053)" d="M2094.23 1273.23 L2094.23 1273.23 L2291.32 1273.23 L2291.32 1273.23 L2094.23 1273.23 L2094.23 1273.23  Z" fill="#009af9" fill-rule="evenodd" fill-opacity="1"/>
<polyline clip-path="url(#clip053)" style="stroke:#000000; stroke-linecap:round; stroke-linejoin:round; stroke-width:4; stroke-opacity:1; fill:none" points="2094.23,1273.23 2094.23,1273.23 2291.32,1273.23 2094.23,1273.23 "/>
<path clip-path="url(#clip053)" d="M2291.32 1225.82 L2291.32 1273.23 L2488.41 1273.23 L2488.41 1225.82 L2291.32 1225.82 L2291.32 1225.82  Z" fill="#009af9" fill-rule="evenodd" fill-opacity="1"/>
<polyline clip-path="url(#clip053)" style="stroke:#000000; stroke-linecap:round; stroke-linejoin:round; stroke-width:4; stroke-opacity:1; fill:none" points="2291.32,1225.82 2291.32,1273.23 2488.41,1273.23 2488.41,1225.82 2291.32,1225.82 "/>
<path clip-path="url(#clip053)" d="M2488.41 920.468 L2488.41 1273.23 L2685.5 1273.23 L2685.5 920.468 L2488.41 920.468 L2488.41 920.468  Z" fill="#009af9" fill-rule="evenodd" fill-opacity="1"/>
<polyline clip-path="url(#clip053)" style="stroke:#000000; stroke-linecap:round; stroke-linejoin:round; stroke-width:4; stroke-opacity:1; fill:none" points="2488.41,920.468 2488.41,1273.23 2685.5,1273.23 2685.5,920.468 2488.41,920.468 "/>
<path clip-path="url(#clip053)" d="M2685.5 665.311 L2685.5 1273.23 L2882.59 1273.23 L2882.59 665.311 L2685.5 665.311 L2685.5 665.311  Z" fill="#009af9" fill-rule="evenodd" fill-opacity="1"/>
<polyline clip-path="url(#clip053)" style="stroke:#000000; stroke-linecap:round; stroke-linejoin:round; stroke-width:4; stroke-opacity:1; fill:none" points="2685.5,665.311 2685.5,1273.23 2882.59,1273.23 2882.59,665.311 2685.5,665.311 "/>
<path clip-path="url(#clip053)" d="M2882.59 887.005 L2882.59 1273.23 L3079.68 1273.23 L3079.68 887.005 L2882.59 887.005 L2882.59 887.005  Z" fill="#009af9" fill-rule="evenodd" fill-opacity="1"/>
<polyline clip-path="url(#clip053)" style="stroke:#000000; stroke-linecap:round; stroke-linejoin:round; stroke-width:4; stroke-opacity:1; fill:none" points="2882.59,887.005 2882.59,1273.23 3079.68,1273.23 3079.68,887.005 2882.59,887.005 "/>
<circle clip-path="url(#clip053)" style="fill:#009af9; stroke:none; fill-opacity:0" cx="1995.69" cy="1273.23" r="2"/>
<circle clip-path="url(#clip053)" style="fill:#009af9; stroke:none; fill-opacity:0" cx="2192.78" cy="1273.23" r="2"/>
<circle clip-path="url(#clip053)" style="fill:#009af9; stroke:none; fill-opacity:0" cx="2389.87" cy="1225.82" r="2"/>
<circle clip-path="url(#clip053)" style="fill:#009af9; stroke:none; fill-opacity:0" cx="2586.95" cy="920.468" r="2"/>
<circle clip-path="url(#clip053)" style="fill:#009af9; stroke:none; fill-opacity:0" cx="2784.04" cy="665.311" r="2"/>
<circle clip-path="url(#clip053)" style="fill:#009af9; stroke:none; fill-opacity:0" cx="2981.13" cy="887.005" r="2"/>
<path clip-path="url(#clip050)" d="M1897.14 136.185 L1905.85 136.185 L1916.88 165.583 L1927.96 136.185 L1936.67 136.185 L1936.67 179.385 L1930.97 179.385 L1930.97 141.451 L1919.83 171.08 L1913.96 171.08 L1902.82 141.451 L1902.82 179.385 L1897.14 179.385 L1897.14 136.185 Z" fill="#000000" fill-rule="nonzero" fill-opacity="1" /><path clip-path="url(#clip050)" d="M1975.76 161.85 L1975.76 164.454 L1951.28 164.454 Q1951.63 169.952 1954.58 172.845 Q1957.56 175.71 1962.86 175.71 Q1965.92 175.71 1968.79 174.958 Q1971.68 174.205 1974.52 172.701 L1974.52 177.735 Q1971.65 178.951 1968.64 179.587 Q1965.63 180.224 1962.54 180.224 Q1954.78 180.224 1950.24 175.71 Q1945.73 171.196 1945.73 163.499 Q1945.73 155.542 1950.01 150.884 Q1954.32 146.196 1961.61 146.196 Q1968.15 146.196 1971.94 150.421 Q1975.76 154.616 1975.76 161.85 M1970.44 160.288 Q1970.38 155.918 1967.98 153.314 Q1965.6 150.71 1961.67 150.71 Q1957.21 150.71 1954.52 153.227 Q1951.86 155.745 1951.46 160.316 L1970.44 160.288 Z" fill="#000000" fill-rule="nonzero" fill-opacity="1" /><path clip-path="url(#clip050)" d="M1999.23 163.094 Q1992.77 163.094 1990.29 164.57 Q1987.8 166.046 1987.8 169.605 Q1987.8 172.44 1989.65 174.118 Q1991.53 175.768 1994.74 175.768 Q1999.17 175.768 2001.83 172.643 Q2004.52 169.489 2004.52 164.281 L2004.52 163.094 L1999.23 163.094 M2009.85 160.895 L2009.85 179.385 L2004.52 179.385 L2004.52 174.466 Q2002.7 177.417 1999.98 178.835 Q1997.26 180.224 1993.32 180.224 Q1988.35 180.224 1985.4 177.446 Q1982.47 174.639 1982.47 169.952 Q1982.47 164.483 1986.12 161.705 Q1989.79 158.928 1997.06 158.928 L2004.52 158.928 L2004.52 158.407 Q2004.52 154.732 2002.09 152.735 Q1999.69 150.71 1995.32 150.71 Q1992.54 150.71 1989.91 151.376 Q1987.28 152.041 1984.85 153.372 L1984.85 148.453 Q1987.77 147.325 1990.52 146.775 Q1993.27 146.196 1995.87 146.196 Q2002.9 146.196 2006.37 149.842 Q2009.85 153.488 2009.85 160.895 Z" fill="#000000" fill-rule="nonzero" fill-opacity="1" /><path clip-path="url(#clip050)" d="M2047.75 159.825 L2047.75 179.385 L2042.43 179.385 L2042.43 159.998 Q2042.43 155.397 2040.63 153.112 Q2038.84 150.826 2035.25 150.826 Q2030.94 150.826 2028.45 153.575 Q2025.96 156.323 2025.96 161.069 L2025.96 179.385 L2020.61 179.385 L2020.61 146.977 L2025.96 146.977 L2025.96 152.012 Q2027.87 149.09 2030.45 147.643 Q2033.05 146.196 2036.44 146.196 Q2042.02 146.196 2044.89 149.668 Q2047.75 153.112 2047.75 159.825 Z" fill="#000000" fill-rule="nonzero" fill-opacity="1" /><path clip-path="url(#clip050)" d="M2077.9 152.475 L2115 152.475 L2115 157.336 L2077.9 157.336 L2077.9 152.475 M2077.9 164.281 L2115 164.281 L2115 169.2 L2077.9 169.2 L2077.9 164.281 Z" fill="#000000" fill-rule="nonzero" fill-opacity="1" /><path clip-path="url(#clip050)" d="M2164.16 156.092 Q2168.35 156.989 2170.7 159.825 Q2173.07 162.66 2173.07 166.827 Q2173.07 173.221 2168.67 176.723 Q2164.27 180.224 2156.17 180.224 Q2153.45 180.224 2150.56 179.674 Q2147.69 179.153 2144.63 178.083 L2144.63 172.44 Q2147.06 173.858 2149.95 174.581 Q2152.84 175.305 2156 175.305 Q2161.49 175.305 2164.36 173.135 Q2167.25 170.965 2167.25 166.827 Q2167.25 163.007 2164.56 160.866 Q2161.9 158.696 2157.13 158.696 L2152.09 158.696 L2152.09 153.893 L2157.36 153.893 Q2161.67 153.893 2163.95 152.186 Q2166.24 150.45 2166.24 147.209 Q2166.24 143.881 2163.87 142.116 Q2161.52 140.322 2157.13 140.322 Q2154.72 140.322 2151.97 140.843 Q2149.23 141.364 2145.93 142.464 L2145.93 137.255 Q2149.26 136.329 2152.15 135.866 Q2155.07 135.403 2157.65 135.403 Q2164.3 135.403 2168.18 138.442 Q2172.06 141.451 2172.06 146.601 Q2172.06 150.189 2170 152.678 Q2167.95 155.137 2164.16 156.092 Z" fill="#000000" fill-rule="nonzero" fill-opacity="1" /><path clip-path="url(#clip050)" d="M2184.15 172.035 L2190.26 172.035 L2190.26 179.385 L2184.15 179.385 L2184.15 172.035 Z" fill="#000000" fill-rule="nonzero" fill-opacity="1" /><path clip-path="url(#clip050)" d="M2203.16 178.488 L2203.16 173.164 Q2205.36 174.205 2207.62 174.755 Q2209.87 175.305 2212.04 175.305 Q2217.83 175.305 2220.87 171.427 Q2223.94 167.521 2224.37 159.593 Q2222.69 162.081 2220.12 163.412 Q2217.54 164.744 2214.42 164.744 Q2207.94 164.744 2204.14 160.837 Q2200.38 156.902 2200.38 150.102 Q2200.38 143.447 2204.32 139.425 Q2208.25 135.403 2214.79 135.403 Q2222.29 135.403 2226.22 141.161 Q2230.19 146.891 2230.19 157.828 Q2230.19 168.042 2225.33 174.147 Q2220.49 180.224 2212.3 180.224 Q2210.11 180.224 2207.85 179.79 Q2205.59 179.356 2203.16 178.488 M2214.79 160.172 Q2218.73 160.172 2221.01 157.481 Q2223.33 154.79 2223.33 150.102 Q2223.33 145.444 2221.01 142.753 Q2218.73 140.033 2214.79 140.033 Q2210.86 140.033 2208.54 142.753 Q2206.26 145.444 2206.26 150.102 Q2206.26 154.79 2208.54 157.481 Q2210.86 160.172 2214.79 160.172 Z" fill="#000000" fill-rule="nonzero" fill-opacity="1" /><path clip-path="url(#clip050)" d="M2240.75 136.185 L2263.69 136.185 L2263.69 141.104 L2246.1 141.104 L2246.1 151.694 Q2247.37 151.26 2248.65 151.057 Q2249.92 150.826 2251.19 150.826 Q2258.43 150.826 2262.65 154.79 Q2266.88 158.754 2266.88 165.525 Q2266.88 172.498 2262.54 176.375 Q2258.2 180.224 2250.3 180.224 Q2247.58 180.224 2244.74 179.761 Q2241.93 179.298 2238.92 178.372 L2238.92 172.498 Q2241.53 173.916 2244.31 174.61 Q2247.08 175.305 2250.18 175.305 Q2255.19 175.305 2258.11 172.672 Q2261.03 170.039 2261.03 165.525 Q2261.03 161.011 2258.11 158.378 Q2255.19 155.745 2250.18 155.745 Q2247.84 155.745 2245.49 156.266 Q2243.18 156.786 2240.75 157.886 L2240.75 136.185 Z" fill="#000000" fill-rule="nonzero" fill-opacity="1" /><path clip-path="url(#clip050)" d="M2291.62 155.455 Q2287.68 155.455 2285.37 158.146 Q2283.08 160.837 2283.08 165.525 Q2283.08 170.183 2285.37 172.903 Q2287.68 175.594 2291.62 175.594 Q2295.55 175.594 2297.84 172.903 Q2300.15 170.183 2300.15 165.525 Q2300.15 160.837 2297.84 158.146 Q2295.55 155.455 2291.62 155.455 M2303.22 137.139 L2303.22 142.464 Q2301.02 141.422 2298.76 140.872 Q2296.53 140.322 2294.34 140.322 Q2288.55 140.322 2285.48 144.229 Q2282.44 148.135 2282.01 156.034 Q2283.72 153.517 2286.29 152.186 Q2288.87 150.826 2291.96 150.826 Q2298.47 150.826 2302.23 154.79 Q2306.03 158.725 2306.03 165.525 Q2306.03 172.18 2302.09 176.202 Q2298.15 180.224 2291.62 180.224 Q2284.12 180.224 2280.16 174.495 Q2276.19 168.737 2276.19 157.828 Q2276.19 147.585 2281.05 141.509 Q2285.92 135.403 2294.1 135.403 Q2296.3 135.403 2298.53 135.837 Q2300.79 136.271 2303.22 137.139 Z" fill="#000000" fill-rule="nonzero" fill-opacity="1" /><path clip-path="url(#clip050)" d="M1902.99 210.703 L1902.99 244.297 L1910.05 244.297 Q1918.99 244.297 1923.13 240.246 Q1927.29 236.195 1927.29 227.456 Q1927.29 218.776 1923.13 214.754 Q1918.99 210.703 1910.05 210.703 L1902.99 210.703 M1897.14 205.9 L1909.15 205.9 Q1921.71 205.9 1927.58 211.137 Q1933.46 216.345 1933.46 227.456 Q1933.46 238.625 1927.55 243.862 Q1921.65 249.1 1909.15 249.1 L1897.14 249.1 L1897.14 205.9 Z" fill="#000000" fill-rule="nonzero" fill-opacity="1" /><path clip-path="url(#clip050)" d="M1942.54 216.692 L1947.87 216.692 L1947.87 249.1 L1942.54 249.1 L1942.54 216.692 M1942.54 204.077 L1947.87 204.077 L1947.87 210.819 L1942.54 210.819 L1942.54 204.077 Z" fill="#000000" fill-rule="nonzero" fill-opacity="1" /><path clip-path="url(#clip050)" d="M1979.67 217.647 L1979.67 222.682 Q1977.41 221.525 1974.98 220.946 Q1972.55 220.367 1969.94 220.367 Q1965.98 220.367 1963.98 221.583 Q1962.02 222.798 1962.02 225.228 Q1962.02 227.08 1963.43 228.151 Q1964.85 229.192 1969.13 230.147 L1970.96 230.552 Q1976.63 231.768 1979 233.996 Q1981.4 236.195 1981.4 240.159 Q1981.4 244.673 1977.82 247.306 Q1974.26 249.939 1968.01 249.939 Q1965.4 249.939 1962.57 249.418 Q1959.76 248.926 1956.63 247.913 L1956.63 242.416 Q1959.59 243.949 1962.45 244.731 Q1965.32 245.483 1968.12 245.483 Q1971.88 245.483 1973.91 244.21 Q1975.93 242.908 1975.93 240.564 Q1975.93 238.394 1974.46 237.236 Q1973.01 236.079 1968.06 235.008 L1966.21 234.574 Q1961.26 233.533 1959.07 231.391 Q1956.87 229.221 1956.87 225.46 Q1956.87 220.888 1960.11 218.4 Q1963.35 215.911 1969.31 215.911 Q1972.26 215.911 1974.86 216.345 Q1977.47 216.779 1979.67 217.647 Z" fill="#000000" fill-rule="nonzero" fill-opacity="1" /><path clip-path="url(#clip050)" d="M1995.15 207.491 L1995.15 216.692 L2006.11 216.692 L2006.11 220.83 L1995.15 220.83 L1995.15 238.423 Q1995.15 242.387 1996.22 243.515 Q1997.32 244.644 2000.64 244.644 L2006.11 244.644 L2006.11 249.1 L2000.64 249.1 Q1994.48 249.1 1992.14 246.814 Q1989.79 244.499 1989.79 238.423 L1989.79 220.83 L1985.89 220.83 L1985.89 216.692 L1989.79 216.692 L1989.79 207.491 L1995.15 207.491 Z" fill="#000000" fill-rule="nonzero" fill-opacity="1" /><path clip-path="url(#clip050)" d="M2032.65 222.19 L2069.74 222.19 L2069.74 227.051 L2032.65 227.051 L2032.65 222.19 M2032.65 233.996 L2069.74 233.996 L2069.74 238.915 L2032.65 238.915 L2032.65 233.996 Z" fill="#000000" fill-rule="nonzero" fill-opacity="1" /><path clip-path="url(#clip050)" d="M2113.69 209.748 Q2109.18 209.748 2106.89 214.204 Q2104.64 218.631 2104.64 227.543 Q2104.64 236.426 2106.89 240.882 Q2109.18 245.309 2113.69 245.309 Q2118.24 245.309 2120.49 240.882 Q2122.78 236.426 2122.78 227.543 Q2122.78 218.631 2120.49 214.204 Q2118.24 209.748 2113.69 209.748 M2113.69 205.118 Q2120.96 205.118 2124.78 210.877 Q2128.62 216.606 2128.62 227.543 Q2128.62 238.452 2124.78 244.21 Q2120.96 249.939 2113.69 249.939 Q2106.43 249.939 2102.58 244.21 Q2098.76 238.452 2098.76 227.543 Q2098.76 216.606 2102.58 210.877 Q2106.43 205.118 2113.69 205.118 Z" fill="#000000" fill-rule="nonzero" fill-opacity="1" /><path clip-path="url(#clip050)" d="M2138.9 241.75 L2145 241.75 L2145 249.1 L2138.9 249.1 L2138.9 241.75 Z" fill="#000000" fill-rule="nonzero" fill-opacity="1" /><path clip-path="url(#clip050)" d="M2170.23 209.748 Q2165.72 209.748 2163.43 214.204 Q2161.18 218.631 2161.18 227.543 Q2161.18 236.426 2163.43 240.882 Q2165.72 245.309 2170.23 245.309 Q2174.78 245.309 2177.03 240.882 Q2179.32 236.426 2179.32 227.543 Q2179.32 218.631 2177.03 214.204 Q2174.78 209.748 2170.23 209.748 M2170.23 205.118 Q2177.5 205.118 2181.32 210.877 Q2185.16 216.606 2185.16 227.543 Q2185.16 238.452 2181.32 244.21 Q2177.5 249.939 2170.23 249.939 Q2162.97 249.939 2159.12 244.21 Q2155.3 238.452 2155.3 227.543 Q2155.3 216.606 2159.12 210.877 Q2162.97 205.118 2170.23 205.118 Z" fill="#000000" fill-rule="nonzero" fill-opacity="1" /><path clip-path="url(#clip050)" d="M2213.14 225.807 Q2217.34 226.704 2219.68 229.54 Q2222.06 232.375 2222.06 236.542 Q2222.06 242.937 2217.66 246.438 Q2213.26 249.939 2205.16 249.939 Q2202.44 249.939 2199.54 249.389 Q2196.68 248.868 2193.61 247.798 L2193.61 242.155 Q2196.04 243.573 2198.94 244.297 Q2201.83 245.02 2204.98 245.02 Q2210.48 245.02 2213.35 242.85 Q2216.24 240.68 2216.24 236.542 Q2216.24 232.723 2213.55 230.581 Q2210.89 228.411 2206.11 228.411 L2201.08 228.411 L2201.08 223.608 L2206.34 223.608 Q2210.66 223.608 2212.94 221.901 Q2215.23 220.165 2215.23 216.924 Q2215.23 213.596 2212.85 211.831 Q2210.51 210.037 2206.11 210.037 Q2203.71 210.037 2200.96 210.558 Q2198.21 211.079 2194.91 212.179 L2194.91 206.97 Q2198.24 206.044 2201.14 205.581 Q2204.06 205.118 2206.63 205.118 Q2213.29 205.118 2217.17 208.157 Q2221.04 211.166 2221.04 216.316 Q2221.04 219.904 2218.99 222.393 Q2216.93 224.852 2213.14 225.807 Z" fill="#000000" fill-rule="nonzero" fill-opacity="1" /><path clip-path="url(#clip050)" d="M2245.64 209.748 Q2241.12 209.748 2238.84 214.204 Q2236.58 218.631 2236.58 227.543 Q2236.58 236.426 2238.84 240.882 Q2241.12 245.309 2245.64 245.309 Q2250.18 245.309 2252.44 240.882 Q2254.72 236.426 2254.72 227.543 Q2254.72 218.631 2252.44 214.204 Q2250.18 209.748 2245.64 209.748 M2245.64 205.118 Q2252.9 205.118 2256.72 210.877 Q2260.57 216.606 2260.57 227.543 Q2260.57 238.452 2256.72 244.21 Q2252.9 249.939 2245.64 249.939 Q2238.37 249.939 2234.53 244.21 Q2230.71 238.452 2230.71 227.543 Q2230.71 216.606 2234.53 210.877 Q2238.37 205.118 2245.64 205.118 Z" fill="#000000" fill-rule="nonzero" fill-opacity="1" /><path clip-path="url(#clip050)" d="M2275.87 244.181 L2296.27 244.181 L2296.27 249.1 L2268.84 249.1 L2268.84 244.181 Q2272.17 240.738 2277.9 234.951 Q2283.66 229.135 2285.13 227.456 Q2287.94 224.302 2289.04 222.132 Q2290.17 219.933 2290.17 217.821 Q2290.17 214.378 2287.74 212.208 Q2285.34 210.037 2281.46 210.037 Q2278.71 210.037 2275.64 210.992 Q2272.61 211.947 2269.13 213.886 L2269.13 207.983 Q2272.66 206.565 2275.73 205.842 Q2278.8 205.118 2281.34 205.118 Q2288.06 205.118 2292.05 208.475 Q2296.04 211.831 2296.04 217.445 Q2296.04 220.107 2295.03 222.508 Q2294.05 224.881 2291.41 228.122 Q2290.69 228.961 2286.81 232.983 Q2282.93 236.976 2275.87 244.181 Z" fill="#000000" fill-rule="nonzero" fill-opacity="1" /><path clip-path="url(#clip050)" d="M2313.58 244.181 L2333.98 244.181 L2333.98 249.1 L2306.55 249.1 L2306.55 244.181 Q2309.87 240.738 2315.6 234.951 Q2321.36 229.135 2322.84 227.456 Q2325.64 224.302 2326.74 222.132 Q2327.87 219.933 2327.87 217.821 Q2327.87 214.378 2325.44 212.208 Q2323.04 210.037 2319.16 210.037 Q2316.41 210.037 2313.35 210.992 Q2310.31 211.947 2306.84 213.886 L2306.84 207.983 Q2310.37 206.565 2313.43 205.842 Q2316.5 205.118 2319.05 205.118 Q2325.76 205.118 2329.75 208.475 Q2333.74 211.831 2333.74 217.445 Q2333.74 220.107 2332.73 222.508 Q2331.75 224.881 2329.12 228.122 Q2328.39 228.961 2324.51 232.983 Q2320.64 236.976 2313.58 244.181 Z" fill="#000000" fill-rule="nonzero" fill-opacity="1" /><path clip-path="url(#clip050)" d="M3424.06 1273.23 L4752.76 1273.23 L4752.76 88.0695 L3424.06 88.0695  Z" fill="#ffffff" fill-rule="evenodd" fill-opacity="1"/>
<defs>
  <clipPath id="clip054">
    <rect x="3424" y="88" width="1330" height="1186"/>
  </clipPath>
</defs>
<polyline clip-path="url(#clip054)" style="stroke:#000000; stroke-linecap:round; stroke-linejoin:round; stroke-width:2; stroke-opacity:0.1; fill:none" points="3595.69,1273.23 3595.69,88.0695 "/>
<polyline clip-path="url(#clip054)" style="stroke:#000000; stroke-linecap:round; stroke-linejoin:round; stroke-width:2; stroke-opacity:0.1; fill:none" points="3792.78,1273.23 3792.78,88.0695 "/>
<polyline clip-path="url(#clip054)" style="stroke:#000000; stroke-linecap:round; stroke-linejoin:round; stroke-width:2; stroke-opacity:0.1; fill:none" points="3989.87,1273.23 3989.87,88.0695 "/>
<polyline clip-path="url(#clip054)" style="stroke:#000000; stroke-linecap:round; stroke-linejoin:round; stroke-width:2; stroke-opacity:0.1; fill:none" points="4186.95,1273.23 4186.95,88.0695 "/>
<polyline clip-path="url(#clip054)" style="stroke:#000000; stroke-linecap:round; stroke-linejoin:round; stroke-width:2; stroke-opacity:0.1; fill:none" points="4384.04,1273.23 4384.04,88.0695 "/>
<polyline clip-path="url(#clip054)" style="stroke:#000000; stroke-linecap:round; stroke-linejoin:round; stroke-width:2; stroke-opacity:0.1; fill:none" points="4581.13,1273.23 4581.13,88.0695 "/>
<polyline clip-path="url(#clip050)" style="stroke:#000000; stroke-linecap:round; stroke-linejoin:round; stroke-width:4; stroke-opacity:1; fill:none" points="3424.06,1273.23 4752.76,1273.23 "/>
<polyline clip-path="url(#clip050)" style="stroke:#000000; stroke-linecap:round; stroke-linejoin:round; stroke-width:4; stroke-opacity:1; fill:none" points="3595.69,1273.23 3595.69,1254.33 "/>
<polyline clip-path="url(#clip050)" style="stroke:#000000; stroke-linecap:round; stroke-linejoin:round; stroke-width:4; stroke-opacity:1; fill:none" points="3792.78,1273.23 3792.78,1254.33 "/>
<polyline clip-path="url(#clip050)" style="stroke:#000000; stroke-linecap:round; stroke-linejoin:round; stroke-width:4; stroke-opacity:1; fill:none" points="3989.87,1273.23 3989.87,1254.33 "/>
<polyline clip-path="url(#clip050)" style="stroke:#000000; stroke-linecap:round; stroke-linejoin:round; stroke-width:4; stroke-opacity:1; fill:none" points="4186.95,1273.23 4186.95,1254.33 "/>
<polyline clip-path="url(#clip050)" style="stroke:#000000; stroke-linecap:round; stroke-linejoin:round; stroke-width:4; stroke-opacity:1; fill:none" points="4384.04,1273.23 4384.04,1254.33 "/>
<polyline clip-path="url(#clip050)" style="stroke:#000000; stroke-linecap:round; stroke-linejoin:round; stroke-width:4; stroke-opacity:1; fill:none" points="4581.13,1273.23 4581.13,1254.33 "/>
<g clip-path="url(#clip050)">
<text style="fill:#000000; fill-opacity:1; font-family:Century Gothic,CenturyGothic,AppleGothic,sans-serif; font-size:47px; text-anchor:middle;" transform="rotate(0, 3595.69, 1353.69)" x="3595.69" y="1353.69">0</text>
</g>
<g clip-path="url(#clip050)">
<text style="fill:#000000; fill-opacity:1; font-family:Century Gothic,CenturyGothic,AppleGothic,sans-serif; font-size:47px; text-anchor:middle;" transform="rotate(0, 3792.78, 1353.69)" x="3792.78" y="1353.69">1</text>
</g>
<g clip-path="url(#clip050)">
<text style="fill:#000000; fill-opacity:1; font-family:Century Gothic,CenturyGothic,AppleGothic,sans-serif; font-size:47px; text-anchor:middle;" transform="rotate(0, 3989.87, 1353.69)" x="3989.87" y="1353.69">2</text>
</g>
<g clip-path="url(#clip050)">
<text style="fill:#000000; fill-opacity:1; font-family:Century Gothic,CenturyGothic,AppleGothic,sans-serif; font-size:47px; text-anchor:middle;" transform="rotate(0, 4186.95, 1353.69)" x="4186.95" y="1353.69">3</text>
</g>
<g clip-path="url(#clip050)">
<text style="fill:#000000; fill-opacity:1; font-family:Century Gothic,CenturyGothic,AppleGothic,sans-serif; font-size:47px; text-anchor:middle;" transform="rotate(0, 4384.04, 1353.69)" x="4384.04" y="1353.69">4</text>
</g>
<g clip-path="url(#clip050)">
<text style="fill:#000000; fill-opacity:1; font-family:Century Gothic,CenturyGothic,AppleGothic,sans-serif; font-size:47px; text-anchor:middle;" transform="rotate(0, 4581.13, 1353.69)" x="4581.13" y="1353.69">5</text>
</g>
<g clip-path="url(#clip050)">
<text style="fill:#000000; fill-opacity:1; font-family:Century Gothic,CenturyGothic,AppleGothic,sans-serif; font-size:65px; text-anchor:middle;" transform="rotate(0, 4088.41, 1452.31)" x="4088.41" y="1452.31">中心推定の正解数</text>
</g>
<polyline clip-path="url(#clip054)" style="stroke:#000000; stroke-linecap:round; stroke-linejoin:round; stroke-width:2; stroke-opacity:0.1; fill:none" points="3424.06,1273.23 4752.76,1273.23 "/>
<polyline clip-path="url(#clip054)" style="stroke:#000000; stroke-linecap:round; stroke-linejoin:round; stroke-width:2; stroke-opacity:0.1; fill:none" points="3424.06,994.366 4752.76,994.366 "/>
<polyline clip-path="url(#clip054)" style="stroke:#000000; stroke-linecap:round; stroke-linejoin:round; stroke-width:2; stroke-opacity:0.1; fill:none" points="3424.06,715.505 4752.76,715.505 "/>
<polyline clip-path="url(#clip054)" style="stroke:#000000; stroke-linecap:round; stroke-linejoin:round; stroke-width:2; stroke-opacity:0.1; fill:none" points="3424.06,436.645 4752.76,436.645 "/>
<polyline clip-path="url(#clip054)" style="stroke:#000000; stroke-linecap:round; stroke-linejoin:round; stroke-width:2; stroke-opacity:0.1; fill:none" points="3424.06,157.785 4752.76,157.785 "/>
<polyline clip-path="url(#clip050)" style="stroke:#000000; stroke-linecap:round; stroke-linejoin:round; stroke-width:4; stroke-opacity:1; fill:none" points="3424.06,1273.23 3424.06,88.0695 "/>
<polyline clip-path="url(#clip050)" style="stroke:#000000; stroke-linecap:round; stroke-linejoin:round; stroke-width:4; stroke-opacity:1; fill:none" points="3424.06,1273.23 3442.96,1273.23 "/>
<polyline clip-path="url(#clip050)" style="stroke:#000000; stroke-linecap:round; stroke-linejoin:round; stroke-width:4; stroke-opacity:1; fill:none" points="3424.06,994.366 3442.96,994.366 "/>
<polyline clip-path="url(#clip050)" style="stroke:#000000; stroke-linecap:round; stroke-linejoin:round; stroke-width:4; stroke-opacity:1; fill:none" points="3424.06,715.505 3442.96,715.505 "/>
<polyline clip-path="url(#clip050)" style="stroke:#000000; stroke-linecap:round; stroke-linejoin:round; stroke-width:4; stroke-opacity:1; fill:none" points="3424.06,436.645 3442.96,436.645 "/>
<polyline clip-path="url(#clip050)" style="stroke:#000000; stroke-linecap:round; stroke-linejoin:round; stroke-width:4; stroke-opacity:1; fill:none" points="3424.06,157.785 3442.96,157.785 "/>
<g clip-path="url(#clip050)">
<text style="fill:#000000; fill-opacity:1; font-family:Century Gothic,CenturyGothic,AppleGothic,sans-serif; font-size:47px; text-anchor:middle;" transform="rotate(0, 3339.13, 1290.73)" x="3339.13" y="1290.73">0</text>
</g>
<g clip-path="url(#clip050)">
<text style="fill:#000000; fill-opacity:1; font-family:Century Gothic,CenturyGothic,AppleGothic,sans-serif; font-size:47px; text-anchor:middle;" transform="rotate(0, 3313.25, 1011.87)" x="3313.25" y="1011.87">200</text>
</g>
<g clip-path="url(#clip050)">
<text style="fill:#000000; fill-opacity:1; font-family:Century Gothic,CenturyGothic,AppleGothic,sans-serif; font-size:47px; text-anchor:middle;" transform="rotate(0, 3313.25, 733.005)" x="3313.25" y="733.005">400</text>
</g>
<g clip-path="url(#clip050)">
<text style="fill:#000000; fill-opacity:1; font-family:Century Gothic,CenturyGothic,AppleGothic,sans-serif; font-size:47px; text-anchor:middle;" transform="rotate(0, 3313.25, 454.145)" x="3313.25" y="454.145">600</text>
</g>
<g clip-path="url(#clip050)">
<text style="fill:#000000; fill-opacity:1; font-family:Century Gothic,CenturyGothic,AppleGothic,sans-serif; font-size:47px; text-anchor:middle;" transform="rotate(0, 3313.25, 175.285)" x="3313.25" y="175.285">800</text>
</g>
<g clip-path="url(#clip050)">
<text style="fill:#000000; fill-opacity:1; font-family:Century Gothic,CenturyGothic,AppleGothic,sans-serif; font-size:65px; text-anchor:middle;" transform="rotate(-90, 3192.49, 680.648)" x="3192.49" y="680.648">度数</text>
</g>
<g clip-path="url(#clip050)">
<text style="fill:#000000; fill-opacity:1; font-family:Century Gothic,CenturyGothic,AppleGothic,sans-serif; font-size:81px; text-anchor:middle;" transform="rotate(0, 4088.41, 72)" x="4088.41" y="72">Setting : A, Method : LM</text>
</g>
<path clip-path="url(#clip054)" d="M3497.14 1273.23 L3497.14 1273.23 L3694.23 1273.23 L3694.23 1273.23 L3497.14 1273.23 L3497.14 1273.23  Z" fill="#009af9" fill-rule="evenodd" fill-opacity="1"/>
<polyline clip-path="url(#clip054)" style="stroke:#000000; stroke-linecap:round; stroke-linejoin:round; stroke-width:4; stroke-opacity:1; fill:none" points="3497.14,1273.23 3497.14,1273.23 3694.23,1273.23 3497.14,1273.23 "/>
<path clip-path="url(#clip054)" d="M3694.23 1270.44 L3694.23 1273.23 L3891.32 1273.23 L3891.32 1270.44 L3694.23 1270.44 L3694.23 1270.44  Z" fill="#009af9" fill-rule="evenodd" fill-opacity="1"/>
<polyline clip-path="url(#clip054)" style="stroke:#000000; stroke-linecap:round; stroke-linejoin:round; stroke-width:4; stroke-opacity:1; fill:none" points="3694.23,1270.44 3694.23,1273.23 3891.32,1273.23 3891.32,1270.44 3694.23,1270.44 "/>
<path clip-path="url(#clip054)" d="M3891.32 1129.61 L3891.32 1273.23 L4088.41 1273.23 L4088.41 1129.61 L3891.32 1129.61 L3891.32 1129.61  Z" fill="#009af9" fill-rule="evenodd" fill-opacity="1"/>
<polyline clip-path="url(#clip054)" style="stroke:#000000; stroke-linecap:round; stroke-linejoin:round; stroke-width:4; stroke-opacity:1; fill:none" points="3891.32,1129.61 3891.32,1273.23 4088.41,1273.23 4088.41,1129.61 3891.32,1129.61 "/>
<path clip-path="url(#clip054)" d="M4088.41 603.961 L4088.41 1273.23 L4285.5 1273.23 L4285.5 603.961 L4088.41 603.961 L4088.41 603.961  Z" fill="#009af9" fill-rule="evenodd" fill-opacity="1"/>
<polyline clip-path="url(#clip054)" style="stroke:#000000; stroke-linecap:round; stroke-linejoin:round; stroke-width:4; stroke-opacity:1; fill:none" points="4088.41,603.961 4088.41,1273.23 4285.5,1273.23 4285.5,603.961 4088.41,603.961 "/>
<path clip-path="url(#clip054)" d="M4285.5 718.294 L4285.5 1273.23 L4482.59 1273.23 L4482.59 718.294 L4285.5 718.294 L4285.5 718.294  Z" fill="#009af9" fill-rule="evenodd" fill-opacity="1"/>
<polyline clip-path="url(#clip054)" style="stroke:#000000; stroke-linecap:round; stroke-linejoin:round; stroke-width:4; stroke-opacity:1; fill:none" points="4285.5,718.294 4285.5,1273.23 4482.59,1273.23 4482.59,718.294 4285.5,718.294 "/>
<path clip-path="url(#clip054)" d="M4482.59 1249.52 L4482.59 1273.23 L4679.68 1273.23 L4679.68 1249.52 L4482.59 1249.52 L4482.59 1249.52  Z" fill="#009af9" fill-rule="evenodd" fill-opacity="1"/>
<polyline clip-path="url(#clip054)" style="stroke:#000000; stroke-linecap:round; stroke-linejoin:round; stroke-width:4; stroke-opacity:1; fill:none" points="4482.59,1249.52 4482.59,1273.23 4679.68,1273.23 4679.68,1249.52 4482.59,1249.52 "/>
<circle clip-path="url(#clip054)" style="fill:#009af9; stroke:none; fill-opacity:0" cx="3595.69" cy="1273.23" r="2"/>
<circle clip-path="url(#clip054)" style="fill:#009af9; stroke:none; fill-opacity:0" cx="3792.78" cy="1270.44" r="2"/>
<circle clip-path="url(#clip054)" style="fill:#009af9; stroke:none; fill-opacity:0" cx="3989.87" cy="1129.61" r="2"/>
<circle clip-path="url(#clip054)" style="fill:#009af9; stroke:none; fill-opacity:0" cx="4186.95" cy="603.961" r="2"/>
<circle clip-path="url(#clip054)" style="fill:#009af9; stroke:none; fill-opacity:0" cx="4384.04" cy="718.294" r="2"/>
<circle clip-path="url(#clip054)" style="fill:#009af9; stroke:none; fill-opacity:0" cx="4581.13" cy="1249.52" r="2"/>
<path clip-path="url(#clip050)" d="M3497.14 136.185 L3505.85 136.185 L3516.88 165.583 L3527.96 136.185 L3536.67 136.185 L3536.67 179.385 L3530.97 179.385 L3530.97 141.451 L3519.83 171.08 L3513.96 171.08 L3502.82 141.451 L3502.82 179.385 L3497.14 179.385 L3497.14 136.185 Z" fill="#000000" fill-rule="nonzero" fill-opacity="1" /><path clip-path="url(#clip050)" d="M3575.76 161.85 L3575.76 164.454 L3551.28 164.454 Q3551.63 169.952 3554.58 172.845 Q3557.56 175.71 3562.86 175.71 Q3565.92 175.71 3568.79 174.958 Q3571.68 174.205 3574.52 172.701 L3574.52 177.735 Q3571.65 178.951 3568.64 179.587 Q3565.63 180.224 3562.54 180.224 Q3554.78 180.224 3550.24 175.71 Q3545.73 171.196 3545.73 163.499 Q3545.73 155.542 3550.01 150.884 Q3554.32 146.196 3561.61 146.196 Q3568.15 146.196 3571.94 150.421 Q3575.76 154.616 3575.76 161.85 M3570.44 160.288 Q3570.38 155.918 3567.98 153.314 Q3565.6 150.71 3561.67 150.71 Q3557.21 150.71 3554.52 153.227 Q3551.86 155.745 3551.46 160.316 L3570.44 160.288 Z" fill="#000000" fill-rule="nonzero" fill-opacity="1" /><path clip-path="url(#clip050)" d="M3599.23 163.094 Q3592.77 163.094 3590.29 164.57 Q3587.8 166.046 3587.8 169.605 Q3587.8 172.44 3589.65 174.118 Q3591.53 175.768 3594.74 175.768 Q3599.17 175.768 3601.83 172.643 Q3604.52 169.489 3604.52 164.281 L3604.52 163.094 L3599.23 163.094 M3609.85 160.895 L3609.85 179.385 L3604.52 179.385 L3604.52 174.466 Q3602.7 177.417 3599.98 178.835 Q3597.26 180.224 3593.32 180.224 Q3588.35 180.224 3585.4 177.446 Q3582.47 174.639 3582.47 169.952 Q3582.47 164.483 3586.12 161.705 Q3589.79 158.928 3597.06 158.928 L3604.52 158.928 L3604.52 158.407 Q3604.52 154.732 3602.09 152.735 Q3599.69 150.71 3595.32 150.71 Q3592.54 150.71 3589.91 151.376 Q3587.28 152.041 3584.85 153.372 L3584.85 148.453 Q3587.77 147.325 3590.52 146.775 Q3593.27 146.196 3595.87 146.196 Q3602.9 146.196 3606.37 149.842 Q3609.85 153.488 3609.85 160.895 Z" fill="#000000" fill-rule="nonzero" fill-opacity="1" /><path clip-path="url(#clip050)" d="M3647.75 159.825 L3647.75 179.385 L3642.43 179.385 L3642.43 159.998 Q3642.43 155.397 3640.63 153.112 Q3638.84 150.826 3635.25 150.826 Q3630.94 150.826 3628.45 153.575 Q3625.96 156.323 3625.96 161.069 L3625.96 179.385 L3620.61 179.385 L3620.61 146.977 L3625.96 146.977 L3625.96 152.012 Q3627.87 149.09 3630.45 147.643 Q3633.05 146.196 3636.44 146.196 Q3642.02 146.196 3644.89 149.668 Q3647.75 153.112 3647.75 159.825 Z" fill="#000000" fill-rule="nonzero" fill-opacity="1" /><path clip-path="url(#clip050)" d="M3677.9 152.475 L3715 152.475 L3715 157.336 L3677.9 157.336 L3677.9 152.475 M3677.9 164.281 L3715 164.281 L3715 169.2 L3677.9 169.2 L3677.9 164.281 Z" fill="#000000" fill-rule="nonzero" fill-opacity="1" /><path clip-path="url(#clip050)" d="M3764.16 156.092 Q3768.35 156.989 3770.7 159.825 Q3773.07 162.66 3773.07 166.827 Q3773.07 173.221 3768.67 176.723 Q3764.27 180.224 3756.17 180.224 Q3753.45 180.224 3750.56 179.674 Q3747.69 179.153 3744.63 178.083 L3744.63 172.44 Q3747.06 173.858 3749.95 174.581 Q3752.84 175.305 3756 175.305 Q3761.49 175.305 3764.36 173.135 Q3767.25 170.965 3767.25 166.827 Q3767.25 163.007 3764.56 160.866 Q3761.9 158.696 3757.13 158.696 L3752.09 158.696 L3752.09 153.893 L3757.36 153.893 Q3761.67 153.893 3763.95 152.186 Q3766.24 150.45 3766.24 147.209 Q3766.24 143.881 3763.87 142.116 Q3761.52 140.322 3757.13 140.322 Q3754.72 140.322 3751.97 140.843 Q3749.23 141.364 3745.93 142.464 L3745.93 137.255 Q3749.26 136.329 3752.15 135.866 Q3755.07 135.403 3757.65 135.403 Q3764.3 135.403 3768.18 138.442 Q3772.06 141.451 3772.06 146.601 Q3772.06 150.189 3770 152.678 Q3767.95 155.137 3764.16 156.092 Z" fill="#000000" fill-rule="nonzero" fill-opacity="1" /><path clip-path="url(#clip050)" d="M3784.15 172.035 L3790.26 172.035 L3790.26 179.385 L3784.15 179.385 L3784.15 172.035 Z" fill="#000000" fill-rule="nonzero" fill-opacity="1" /><path clip-path="url(#clip050)" d="M3820.7 156.092 Q3824.89 156.989 3827.23 159.825 Q3829.61 162.66 3829.61 166.827 Q3829.61 173.221 3825.21 176.723 Q3820.81 180.224 3812.71 180.224 Q3809.99 180.224 3807.1 179.674 Q3804.23 179.153 3801.16 178.083 L3801.16 172.44 Q3803.6 173.858 3806.49 174.581 Q3809.38 175.305 3812.54 175.305 Q3818.03 175.305 3820.9 173.135 Q3823.79 170.965 3823.79 166.827 Q3823.79 163.007 3821.1 160.866 Q3818.44 158.696 3813.66 158.696 L3808.63 158.696 L3808.63 153.893 L3813.9 153.893 Q3818.21 153.893 3820.49 152.186 Q3822.78 150.45 3822.78 147.209 Q3822.78 143.881 3820.41 142.116 Q3818.06 140.322 3813.66 140.322 Q3811.26 140.322 3808.51 140.843 Q3805.77 141.364 3802.47 142.464 L3802.47 137.255 Q3805.79 136.329 3808.69 135.866 Q3811.61 135.403 3814.19 135.403 Q3820.84 135.403 3824.72 138.442 Q3828.59 141.451 3828.59 146.601 Q3828.59 150.189 3826.54 152.678 Q3824.49 155.137 3820.7 156.092 Z" fill="#000000" fill-rule="nonzero" fill-opacity="1" /><path clip-path="url(#clip050)" d="M3845.72 174.466 L3866.12 174.466 L3866.12 179.385 L3838.69 179.385 L3838.69 174.466 Q3842.02 171.022 3847.75 165.235 Q3853.51 159.419 3854.98 157.741 Q3857.79 154.587 3858.89 152.417 Q3860.02 150.218 3860.02 148.106 Q3860.02 144.663 3857.59 142.492 Q3855.19 140.322 3851.31 140.322 Q3848.56 140.322 3845.49 141.277 Q3842.45 142.232 3838.98 144.171 L3838.98 138.268 Q3842.51 136.85 3845.58 136.127 Q3848.65 135.403 3851.19 135.403 Q3857.91 135.403 3861.9 138.76 Q3865.89 142.116 3865.89 147.73 Q3865.89 150.392 3864.88 152.793 Q3863.9 155.166 3861.26 158.407 Q3860.54 159.246 3856.66 163.268 Q3852.78 167.261 3845.72 174.466 Z" fill="#000000" fill-rule="nonzero" fill-opacity="1" /><path clip-path="url(#clip050)" d="M3878.45 136.185 L3901.4 136.185 L3901.4 141.104 L3883.8 141.104 L3883.8 151.694 Q3885.08 151.26 3886.35 151.057 Q3887.62 150.826 3888.9 150.826 Q3896.13 150.826 3900.35 154.79 Q3904.58 158.754 3904.58 165.525 Q3904.58 172.498 3900.24 176.375 Q3895.9 180.224 3888 180.224 Q3885.28 180.224 3882.44 179.761 Q3879.64 179.298 3876.63 178.372 L3876.63 172.498 Q3879.23 173.916 3882.01 174.61 Q3884.79 175.305 3887.88 175.305 Q3892.89 175.305 3895.81 172.672 Q3898.73 170.039 3898.73 165.525 Q3898.73 161.011 3895.81 158.378 Q3892.89 155.745 3887.88 155.745 Q3885.54 155.745 3883.2 156.266 Q3880.88 156.786 3878.45 157.886 L3878.45 136.185 Z" fill="#000000" fill-rule="nonzero" fill-opacity="1" /><path clip-path="url(#clip050)" d="M3502.99 210.703 L3502.99 244.297 L3510.05 244.297 Q3518.99 244.297 3523.13 240.246 Q3527.29 236.195 3527.29 227.456 Q3527.29 218.776 3523.13 214.754 Q3518.99 210.703 3510.05 210.703 L3502.99 210.703 M3497.14 205.9 L3509.15 205.9 Q3521.71 205.9 3527.58 211.137 Q3533.46 216.345 3533.46 227.456 Q3533.46 238.625 3527.55 243.862 Q3521.65 249.1 3509.15 249.1 L3497.14 249.1 L3497.14 205.9 Z" fill="#000000" fill-rule="nonzero" fill-opacity="1" /><path clip-path="url(#clip050)" d="M3542.54 216.692 L3547.87 216.692 L3547.87 249.1 L3542.54 249.1 L3542.54 216.692 M3542.54 204.077 L3547.87 204.077 L3547.87 210.819 L3542.54 210.819 L3542.54 204.077 Z" fill="#000000" fill-rule="nonzero" fill-opacity="1" /><path clip-path="url(#clip050)" d="M3579.67 217.647 L3579.67 222.682 Q3577.41 221.525 3574.98 220.946 Q3572.55 220.367 3569.94 220.367 Q3565.98 220.367 3563.98 221.583 Q3562.02 222.798 3562.02 225.228 Q3562.02 227.08 3563.43 228.151 Q3564.85 229.192 3569.13 230.147 L3570.96 230.552 Q3576.63 231.768 3579 233.996 Q3581.4 236.195 3581.4 240.159 Q3581.4 244.673 3577.82 247.306 Q3574.26 249.939 3568.01 249.939 Q3565.4 249.939 3562.57 249.418 Q3559.76 248.926 3556.63 247.913 L3556.63 242.416 Q3559.59 243.949 3562.45 244.731 Q3565.32 245.483 3568.12 245.483 Q3571.88 245.483 3573.91 244.21 Q3575.93 242.908 3575.93 240.564 Q3575.93 238.394 3574.46 237.236 Q3573.01 236.079 3568.06 235.008 L3566.21 234.574 Q3561.26 233.533 3559.07 231.391 Q3556.87 229.221 3556.87 225.46 Q3556.87 220.888 3560.11 218.4 Q3563.35 215.911 3569.31 215.911 Q3572.26 215.911 3574.86 216.345 Q3577.47 216.779 3579.67 217.647 Z" fill="#000000" fill-rule="nonzero" fill-opacity="1" /><path clip-path="url(#clip050)" d="M3595.15 207.491 L3595.15 216.692 L3606.11 216.692 L3606.11 220.83 L3595.15 220.83 L3595.15 238.423 Q3595.15 242.387 3596.22 243.515 Q3597.32 244.644 3600.64 244.644 L3606.11 244.644 L3606.11 249.1 L3600.64 249.1 Q3594.48 249.1 3592.14 246.814 Q3589.79 244.499 3589.79 238.423 L3589.79 220.83 L3585.89 220.83 L3585.89 216.692 L3589.79 216.692 L3589.79 207.491 L3595.15 207.491 Z" fill="#000000" fill-rule="nonzero" fill-opacity="1" /><path clip-path="url(#clip050)" d="M3632.65 222.19 L3669.74 222.19 L3669.74 227.051 L3632.65 227.051 L3632.65 222.19 M3632.65 233.996 L3669.74 233.996 L3669.74 238.915 L3632.65 238.915 L3632.65 233.996 Z" fill="#000000" fill-rule="nonzero" fill-opacity="1" /><path clip-path="url(#clip050)" d="M3713.69 209.748 Q3709.18 209.748 3706.89 214.204 Q3704.64 218.631 3704.64 227.543 Q3704.64 236.426 3706.89 240.882 Q3709.18 245.309 3713.69 245.309 Q3718.24 245.309 3720.49 240.882 Q3722.78 236.426 3722.78 227.543 Q3722.78 218.631 3720.49 214.204 Q3718.24 209.748 3713.69 209.748 M3713.69 205.118 Q3720.96 205.118 3724.78 210.877 Q3728.62 216.606 3728.62 227.543 Q3728.62 238.452 3724.78 244.21 Q3720.96 249.939 3713.69 249.939 Q3706.43 249.939 3702.58 244.21 Q3698.76 238.452 3698.76 227.543 Q3698.76 216.606 3702.58 210.877 Q3706.43 205.118 3713.69 205.118 Z" fill="#000000" fill-rule="nonzero" fill-opacity="1" /><path clip-path="url(#clip050)" d="M3738.9 241.75 L3745 241.75 L3745 249.1 L3738.9 249.1 L3738.9 241.75 Z" fill="#000000" fill-rule="nonzero" fill-opacity="1" /><path clip-path="url(#clip050)" d="M3770.23 209.748 Q3765.72 209.748 3763.43 214.204 Q3761.18 218.631 3761.18 227.543 Q3761.18 236.426 3763.43 240.882 Q3765.72 245.309 3770.23 245.309 Q3774.78 245.309 3777.03 240.882 Q3779.32 236.426 3779.32 227.543 Q3779.32 218.631 3777.03 214.204 Q3774.78 209.748 3770.23 209.748 M3770.23 205.118 Q3777.5 205.118 3781.32 210.877 Q3785.16 216.606 3785.16 227.543 Q3785.16 238.452 3781.32 244.21 Q3777.5 249.939 3770.23 249.939 Q3762.97 249.939 3759.12 244.21 Q3755.3 238.452 3755.3 227.543 Q3755.3 216.606 3759.12 210.877 Q3762.97 205.118 3770.23 205.118 Z" fill="#000000" fill-rule="nonzero" fill-opacity="1" /><path clip-path="url(#clip050)" d="M3811.49 210.992 L3796.74 234.054 L3811.49 234.054 L3811.49 210.992 M3809.96 205.9 L3817.31 205.9 L3817.31 234.054 L3823.47 234.054 L3823.47 238.915 L3817.31 238.915 L3817.31 249.1 L3811.49 249.1 L3811.49 238.915 L3791.99 238.915 L3791.99 233.272 L3809.96 205.9 Z" fill="#000000" fill-rule="nonzero" fill-opacity="1" /><path clip-path="url(#clip050)" d="M3845.64 209.748 Q3841.12 209.748 3838.84 214.204 Q3836.58 218.631 3836.58 227.543 Q3836.58 236.426 3838.84 240.882 Q3841.12 245.309 3845.64 245.309 Q3850.18 245.309 3852.44 240.882 Q3854.72 236.426 3854.72 227.543 Q3854.72 218.631 3852.44 214.204 Q3850.18 209.748 3845.64 209.748 M3845.64 205.118 Q3852.9 205.118 3856.72 210.877 Q3860.57 216.606 3860.57 227.543 Q3860.57 238.452 3856.72 244.21 Q3852.9 249.939 3845.64 249.939 Q3838.37 249.939 3834.53 244.21 Q3830.71 238.452 3830.71 227.543 Q3830.71 216.606 3834.53 210.877 Q3838.37 205.118 3845.64 205.118 Z" fill="#000000" fill-rule="nonzero" fill-opacity="1" /><path clip-path="url(#clip050)" d="M3871.01 248.203 L3871.01 242.879 Q3873.21 243.92 3875.47 244.47 Q3877.73 245.02 3879.9 245.02 Q3885.68 245.02 3888.72 241.143 Q3891.79 237.236 3892.22 229.308 Q3890.54 231.797 3887.97 233.128 Q3885.39 234.459 3882.27 234.459 Q3875.79 234.459 3872 230.552 Q3868.24 226.617 3868.24 219.817 Q3868.24 213.162 3872.17 209.14 Q3876.11 205.118 3882.65 205.118 Q3890.14 205.118 3894.07 210.877 Q3898.04 216.606 3898.04 227.543 Q3898.04 237.757 3893.18 243.862 Q3888.35 249.939 3880.16 249.939 Q3877.96 249.939 3875.7 249.505 Q3873.44 249.071 3871.01 248.203 M3882.65 229.887 Q3886.58 229.887 3888.87 227.196 Q3891.18 224.505 3891.18 219.817 Q3891.18 215.159 3888.87 212.468 Q3886.58 209.748 3882.65 209.748 Q3878.71 209.748 3876.4 212.468 Q3874.11 215.159 3874.11 219.817 Q3874.11 224.505 3876.4 227.196 Q3878.71 229.887 3882.65 229.887 Z" fill="#000000" fill-rule="nonzero" fill-opacity="1" /><path clip-path="url(#clip050)" d="M3909.56 244.181 L3919.1 244.181 L3919.1 211.224 L3908.72 213.307 L3908.72 207.983 L3919.05 205.9 L3924.89 205.9 L3924.89 244.181 L3934.44 244.181 L3934.44 249.1 L3909.56 249.1 L3909.56 244.181 Z" fill="#000000" fill-rule="nonzero" fill-opacity="1" /></svg>
