<?xml version="1.0" encoding="utf-8"?>
<svg xmlns="http://www.w3.org/2000/svg" xmlns:xlink="http://www.w3.org/1999/xlink" width="1200" height="350" viewBox="0 0 4800 1400">
<defs>
  <clipPath id="clip530">
    <rect x="0" y="0" width="4800" height="1400"/>
  </clipPath>
</defs>
<path clip-path="url(#clip530)" d="M0 1400 L4800 1400 L4800 0 L0 0  Z" fill="#ffffff" fill-rule="evenodd" fill-opacity="1"/>
<defs>
  <clipPath id="clip531">
    <rect x="960" y="0" width="3361" height="1400"/>
  </clipPath>
</defs>
<path clip-path="url(#clip530)" d="M224.064 1273.23 L1552.76 1273.23 L1552.76 88.0695 L224.064 88.0695  Z" fill="#ffffff" fill-rule="evenodd" fill-opacity="1"/>
<defs>
  <clipPath id="clip532">
    <rect x="224" y="88" width="1330" height="1186"/>
  </clipPath>
</defs>
<polyline clip-path="url(#clip532)" style="stroke:#000000; stroke-linecap:round; stroke-linejoin:round; stroke-width:2; stroke-opacity:0.1; fill:none" points="415.397,1273.23 415.397,88.0695 "/>
<polyline clip-path="url(#clip532)" style="stroke:#000000; stroke-linecap:round; stroke-linejoin:round; stroke-width:2; stroke-opacity:0.1; fill:none" points="651.904,1273.23 651.904,88.0695 "/>
<polyline clip-path="url(#clip532)" style="stroke:#000000; stroke-linecap:round; stroke-linejoin:round; stroke-width:2; stroke-opacity:0.1; fill:none" points="888.41,1273.23 888.41,88.0695 "/>
<polyline clip-path="url(#clip532)" style="stroke:#000000; stroke-linecap:round; stroke-linejoin:round; stroke-width:2; stroke-opacity:0.1; fill:none" points="1124.92,1273.23 1124.92,88.0695 "/>
<polyline clip-path="url(#clip532)" style="stroke:#000000; stroke-linecap:round; stroke-linejoin:round; stroke-width:2; stroke-opacity:0.1; fill:none" points="1361.42,1273.23 1361.42,88.0695 "/>
<polyline clip-path="url(#clip530)" style="stroke:#000000; stroke-linecap:round; stroke-linejoin:round; stroke-width:4; stroke-opacity:1; fill:none" points="224.064,1273.23 1552.76,1273.23 "/>
<polyline clip-path="url(#clip530)" style="stroke:#000000; stroke-linecap:round; stroke-linejoin:round; stroke-width:4; stroke-opacity:1; fill:none" points="415.397,1273.23 415.397,1254.33 "/>
<polyline clip-path="url(#clip530)" style="stroke:#000000; stroke-linecap:round; stroke-linejoin:round; stroke-width:4; stroke-opacity:1; fill:none" points="651.904,1273.23 651.904,1254.33 "/>
<polyline clip-path="url(#clip530)" style="stroke:#000000; stroke-linecap:round; stroke-linejoin:round; stroke-width:4; stroke-opacity:1; fill:none" points="888.41,1273.23 888.41,1254.33 "/>
<polyline clip-path="url(#clip530)" style="stroke:#000000; stroke-linecap:round; stroke-linejoin:round; stroke-width:4; stroke-opacity:1; fill:none" points="1124.92,1273.23 1124.92,1254.33 "/>
<polyline clip-path="url(#clip530)" style="stroke:#000000; stroke-linecap:round; stroke-linejoin:round; stroke-width:4; stroke-opacity:1; fill:none" points="1361.42,1273.23 1361.42,1254.33 "/>
<g clip-path="url(#clip530)">
<text style="fill:#000000; fill-opacity:1; font-family:Century Gothic,CenturyGothic,AppleGothic,sans-serif; font-size:47px; text-anchor:middle;" transform="rotate(0, 415.397, 1353.69)" x="415.397" y="1353.69">0</text>
</g>
<g clip-path="url(#clip530)">
<text style="fill:#000000; fill-opacity:1; font-family:Century Gothic,CenturyGothic,AppleGothic,sans-serif; font-size:47px; text-anchor:middle;" transform="rotate(0, 651.904, 1353.69)" x="651.904" y="1353.69">1</text>
</g>
<g clip-path="url(#clip530)">
<text style="fill:#000000; fill-opacity:1; font-family:Century Gothic,CenturyGothic,AppleGothic,sans-serif; font-size:47px; text-anchor:middle;" transform="rotate(0, 888.41, 1353.69)" x="888.41" y="1353.69">2</text>
</g>
<g clip-path="url(#clip530)">
<text style="fill:#000000; fill-opacity:1; font-family:Century Gothic,CenturyGothic,AppleGothic,sans-serif; font-size:47px; text-anchor:middle;" transform="rotate(0, 1124.92, 1353.69)" x="1124.92" y="1353.69">3</text>
</g>
<g clip-path="url(#clip530)">
<text style="fill:#000000; fill-opacity:1; font-family:Century Gothic,CenturyGothic,AppleGothic,sans-serif; font-size:47px; text-anchor:middle;" transform="rotate(0, 1361.42, 1353.69)" x="1361.42" y="1353.69">4</text>
</g>
<g clip-path="url(#clip530)">
<text style="fill:#000000; fill-opacity:1; font-family:Century Gothic,CenturyGothic,AppleGothic,sans-serif; font-size:65px; text-anchor:middle;" transform="rotate(0, 888.41, 1452.31)" x="888.41" y="1452.31">中心推定の正解数</text>
</g>
<polyline clip-path="url(#clip532)" style="stroke:#000000; stroke-linecap:round; stroke-linejoin:round; stroke-width:2; stroke-opacity:0.1; fill:none" points="224.064,1273.23 1552.76,1273.23 "/>
<polyline clip-path="url(#clip532)" style="stroke:#000000; stroke-linecap:round; stroke-linejoin:round; stroke-width:2; stroke-opacity:0.1; fill:none" points="224.064,994.366 1552.76,994.366 "/>
<polyline clip-path="url(#clip532)" style="stroke:#000000; stroke-linecap:round; stroke-linejoin:round; stroke-width:2; stroke-opacity:0.1; fill:none" points="224.064,715.505 1552.76,715.505 "/>
<polyline clip-path="url(#clip532)" style="stroke:#000000; stroke-linecap:round; stroke-linejoin:round; stroke-width:2; stroke-opacity:0.1; fill:none" points="224.064,436.645 1552.76,436.645 "/>
<polyline clip-path="url(#clip532)" style="stroke:#000000; stroke-linecap:round; stroke-linejoin:round; stroke-width:2; stroke-opacity:0.1; fill:none" points="224.064,157.785 1552.76,157.785 "/>
<polyline clip-path="url(#clip530)" style="stroke:#000000; stroke-linecap:round; stroke-linejoin:round; stroke-width:4; stroke-opacity:1; fill:none" points="224.064,1273.23 224.064,88.0695 "/>
<polyline clip-path="url(#clip530)" style="stroke:#000000; stroke-linecap:round; stroke-linejoin:round; stroke-width:4; stroke-opacity:1; fill:none" points="224.064,1273.23 242.961,1273.23 "/>
<polyline clip-path="url(#clip530)" style="stroke:#000000; stroke-linecap:round; stroke-linejoin:round; stroke-width:4; stroke-opacity:1; fill:none" points="224.064,994.366 242.961,994.366 "/>
<polyline clip-path="url(#clip530)" style="stroke:#000000; stroke-linecap:round; stroke-linejoin:round; stroke-width:4; stroke-opacity:1; fill:none" points="224.064,715.505 242.961,715.505 "/>
<polyline clip-path="url(#clip530)" style="stroke:#000000; stroke-linecap:round; stroke-linejoin:round; stroke-width:4; stroke-opacity:1; fill:none" points="224.064,436.645 242.961,436.645 "/>
<polyline clip-path="url(#clip530)" style="stroke:#000000; stroke-linecap:round; stroke-linejoin:round; stroke-width:4; stroke-opacity:1; fill:none" points="224.064,157.785 242.961,157.785 "/>
<g clip-path="url(#clip530)">
<text style="fill:#000000; fill-opacity:1; font-family:Century Gothic,CenturyGothic,AppleGothic,sans-serif; font-size:47px; text-anchor:middle;" transform="rotate(0, 139.127, 1290.73)" x="139.127" y="1290.73">0</text>
</g>
<g clip-path="url(#clip530)">
<text style="fill:#000000; fill-opacity:1; font-family:Century Gothic,CenturyGothic,AppleGothic,sans-serif; font-size:47px; text-anchor:middle;" transform="rotate(0, 113.254, 1011.87)" x="113.254" y="1011.87">200</text>
</g>
<g clip-path="url(#clip530)">
<text style="fill:#000000; fill-opacity:1; font-family:Century Gothic,CenturyGothic,AppleGothic,sans-serif; font-size:47px; text-anchor:middle;" transform="rotate(0, 113.254, 733.005)" x="113.254" y="733.005">400</text>
</g>
<g clip-path="url(#clip530)">
<text style="fill:#000000; fill-opacity:1; font-family:Century Gothic,CenturyGothic,AppleGothic,sans-serif; font-size:47px; text-anchor:middle;" transform="rotate(0, 113.254, 454.145)" x="113.254" y="454.145">600</text>
</g>
<g clip-path="url(#clip530)">
<text style="fill:#000000; fill-opacity:1; font-family:Century Gothic,CenturyGothic,AppleGothic,sans-serif; font-size:47px; text-anchor:middle;" transform="rotate(0, 113.254, 175.285)" x="113.254" y="175.285">800</text>
</g>
<g clip-path="url(#clip530)">
<text style="fill:#000000; fill-opacity:1; font-family:Century Gothic,CenturyGothic,AppleGothic,sans-serif; font-size:65px; text-anchor:middle;" transform="rotate(-90, -7.51163, 680.648)" x="-7.51163" y="680.648">度数</text>
</g>
<g clip-path="url(#clip530)">
<text style="fill:#000000; fill-opacity:1; font-family:Century Gothic,CenturyGothic,AppleGothic,sans-serif; font-size:81px; text-anchor:middle;" transform="rotate(0, 888.41, 72)" x="888.41" y="72">Setting : B, Method : EV</text>
</g>
<path clip-path="url(#clip532)" d="M297.144 1273.23 L297.144 1273.23 L533.65 1273.23 L533.65 1273.23 L297.144 1273.23 L297.144 1273.23  Z" fill="#009af9" fill-rule="evenodd" fill-opacity="1"/>
<polyline clip-path="url(#clip532)" style="stroke:#000000; stroke-linecap:round; stroke-linejoin:round; stroke-width:4; stroke-opacity:1; fill:none" points="297.144,1273.23 297.144,1273.23 533.65,1273.23 297.144,1273.23 "/>
<path clip-path="url(#clip532)" d="M533.65 1273.23 L533.65 1273.23 L770.157 1273.23 L770.157 1273.23 L533.65 1273.23 L533.65 1273.23  Z" fill="#009af9" fill-rule="evenodd" fill-opacity="1"/>
<polyline clip-path="url(#clip532)" style="stroke:#000000; stroke-linecap:round; stroke-linejoin:round; stroke-width:4; stroke-opacity:1; fill:none" points="533.65,1273.23 533.65,1273.23 770.157,1273.23 533.65,1273.23 "/>
<path clip-path="url(#clip532)" d="M770.157 1131.01 L770.157 1273.23 L1006.66 1273.23 L1006.66 1131.01 L770.157 1131.01 L770.157 1131.01  Z" fill="#009af9" fill-rule="evenodd" fill-opacity="1"/>
<polyline clip-path="url(#clip532)" style="stroke:#000000; stroke-linecap:round; stroke-linejoin:round; stroke-width:4; stroke-opacity:1; fill:none" points="770.157,1131.01 770.157,1273.23 1006.66,1273.23 1006.66,1131.01 770.157,1131.01 "/>
<path clip-path="url(#clip532)" d="M1006.66 845.176 L1006.66 1273.23 L1243.17 1273.23 L1243.17 845.176 L1006.66 845.176 L1006.66 845.176  Z" fill="#009af9" fill-rule="evenodd" fill-opacity="1"/>
<polyline clip-path="url(#clip532)" style="stroke:#000000; stroke-linecap:round; stroke-linejoin:round; stroke-width:4; stroke-opacity:1; fill:none" points="1006.66,845.176 1006.66,1273.23 1243.17,1273.23 1243.17,845.176 1006.66,845.176 "/>
<path clip-path="url(#clip532)" d="M1243.17 449.194 L1243.17 1273.23 L1479.68 1273.23 L1479.68 449.194 L1243.17 449.194 L1243.17 449.194  Z" fill="#009af9" fill-rule="evenodd" fill-opacity="1"/>
<polyline clip-path="url(#clip532)" style="stroke:#000000; stroke-linecap:round; stroke-linejoin:round; stroke-width:4; stroke-opacity:1; fill:none" points="1243.17,449.194 1243.17,1273.23 1479.68,1273.23 1479.68,449.194 1243.17,449.194 "/>
<circle clip-path="url(#clip532)" style="fill:#009af9; stroke:none; fill-opacity:0" cx="415.397" cy="1273.23" r="2"/>
<circle clip-path="url(#clip532)" style="fill:#009af9; stroke:none; fill-opacity:0" cx="651.904" cy="1273.23" r="2"/>
<circle clip-path="url(#clip532)" style="fill:#009af9; stroke:none; fill-opacity:0" cx="888.41" cy="1131.01" r="2"/>
<circle clip-path="url(#clip532)" style="fill:#009af9; stroke:none; fill-opacity:0" cx="1124.92" cy="845.176" r="2"/>
<circle clip-path="url(#clip532)" style="fill:#009af9; stroke:none; fill-opacity:0" cx="1361.42" cy="449.194" r="2"/>
<path clip-path="url(#clip530)" d="M297.144 136.185 L305.854 136.185 L316.878 165.583 L327.96 136.185 L336.669 136.185 L336.669 179.385 L330.969 179.385 L330.969 141.451 L319.829 171.08 L313.955 171.08 L302.815 141.451 L302.815 179.385 L297.144 179.385 L297.144 136.185 Z" fill="#000000" fill-rule="nonzero" fill-opacity="1" /><path clip-path="url(#clip530)" d="M375.761 161.85 L375.761 164.454 L351.282 164.454 Q351.629 169.952 354.58 172.845 Q357.561 175.71 362.856 175.71 Q365.923 175.71 368.787 174.958 Q371.681 174.205 374.516 172.701 L374.516 177.735 Q371.652 178.951 368.643 179.587 Q365.633 180.224 362.537 180.224 Q354.783 180.224 350.24 175.71 Q345.726 171.196 345.726 163.499 Q345.726 155.542 350.008 150.884 Q354.32 146.196 361.611 146.196 Q368.151 146.196 371.941 150.421 Q375.761 154.616 375.761 161.85 M370.437 160.288 Q370.379 155.918 367.977 153.314 Q365.604 150.71 361.669 150.71 Q357.213 150.71 354.522 153.227 Q351.86 155.745 351.455 160.316 L370.437 160.288 Z" fill="#000000" fill-rule="nonzero" fill-opacity="1" /><path clip-path="url(#clip530)" d="M399.227 163.094 Q392.774 163.094 390.286 164.57 Q387.798 166.046 387.798 169.605 Q387.798 172.44 389.649 174.118 Q391.53 175.768 394.742 175.768 Q399.169 175.768 401.831 172.643 Q404.522 169.489 404.522 164.281 L404.522 163.094 L399.227 163.094 M409.846 160.895 L409.846 179.385 L404.522 179.385 L404.522 174.466 Q402.699 177.417 399.979 178.835 Q397.259 180.224 393.324 180.224 Q388.347 180.224 385.396 177.446 Q382.474 174.639 382.474 169.952 Q382.474 164.483 386.119 161.705 Q389.794 158.928 397.057 158.928 L404.522 158.928 L404.522 158.407 Q404.522 154.732 402.092 152.735 Q399.69 150.71 395.321 150.71 Q392.543 150.71 389.91 151.376 Q387.277 152.041 384.846 153.372 L384.846 148.453 Q387.769 147.325 390.518 146.775 Q393.266 146.196 395.87 146.196 Q402.902 146.196 406.374 149.842 Q409.846 153.488 409.846 160.895 Z" fill="#000000" fill-rule="nonzero" fill-opacity="1" /><path clip-path="url(#clip530)" d="M447.751 159.825 L447.751 179.385 L442.427 179.385 L442.427 159.998 Q442.427 155.397 440.633 153.112 Q438.839 150.826 435.251 150.826 Q430.94 150.826 428.451 153.575 Q425.963 156.323 425.963 161.069 L425.963 179.385 L420.61 179.385 L420.61 146.977 L425.963 146.977 L425.963 152.012 Q427.873 149.09 430.448 147.643 Q433.052 146.196 436.437 146.196 Q442.022 146.196 444.886 149.668 Q447.751 153.112 447.751 159.825 Z" fill="#000000" fill-rule="nonzero" fill-opacity="1" /><path clip-path="url(#clip530)" d="M477.901 152.475 L514.996 152.475 L514.996 157.336 L477.901 157.336 L477.901 152.475 M477.901 164.281 L514.996 164.281 L514.996 169.2 L477.901 169.2 L477.901 164.281 Z" fill="#000000" fill-rule="nonzero" fill-opacity="1" /><path clip-path="url(#clip530)" d="M564.157 156.092 Q568.352 156.989 570.696 159.825 Q573.069 162.66 573.069 166.827 Q573.069 173.221 568.67 176.723 Q564.272 180.224 556.171 180.224 Q553.451 180.224 550.557 179.674 Q547.693 179.153 544.625 178.083 L544.625 172.44 Q547.056 173.858 549.95 174.581 Q552.843 175.305 555.997 175.305 Q561.495 175.305 564.359 173.135 Q567.253 170.965 567.253 166.827 Q567.253 163.007 564.562 160.866 Q561.9 158.696 557.125 158.696 L552.091 158.696 L552.091 153.893 L557.357 153.893 Q561.668 153.893 563.954 152.186 Q566.24 150.45 566.24 147.209 Q566.24 143.881 563.867 142.116 Q561.524 140.322 557.125 140.322 Q554.724 140.322 551.975 140.843 Q549.226 141.364 545.928 142.464 L545.928 137.255 Q549.255 136.329 552.149 135.866 Q555.071 135.403 557.646 135.403 Q564.301 135.403 568.179 138.442 Q572.056 141.451 572.056 146.601 Q572.056 150.189 570.001 152.678 Q567.947 155.137 564.157 156.092 Z" fill="#000000" fill-rule="nonzero" fill-opacity="1" /><path clip-path="url(#clip530)" d="M584.151 172.035 L590.256 172.035 L590.256 179.385 L584.151 179.385 L584.151 172.035 Z" fill="#000000" fill-rule="nonzero" fill-opacity="1" /><path clip-path="url(#clip530)" d="M619.046 141.277 L604.29 164.338 L619.046 164.338 L619.046 141.277 M617.513 136.185 L624.862 136.185 L624.862 164.338 L631.025 164.338 L631.025 169.2 L624.862 169.2 L624.862 179.385 L619.046 179.385 L619.046 169.2 L599.544 169.2 L599.544 163.557 L617.513 136.185 Z" fill="#000000" fill-rule="nonzero" fill-opacity="1" /><path clip-path="url(#clip530)" d="M653.19 158.87 Q649.023 158.87 646.621 161.098 Q644.249 163.326 644.249 167.232 Q644.249 171.138 646.621 173.366 Q649.023 175.594 653.19 175.594 Q657.356 175.594 659.758 173.366 Q662.16 171.109 662.16 167.232 Q662.16 163.326 659.758 161.098 Q657.385 158.87 653.19 158.87 M647.345 156.381 Q643.583 155.455 641.471 152.88 Q639.388 150.305 639.388 146.601 Q639.388 141.422 643.062 138.413 Q646.766 135.403 653.19 135.403 Q659.642 135.403 663.317 138.413 Q666.992 141.422 666.992 146.601 Q666.992 150.305 664.879 152.88 Q662.796 155.455 659.064 156.381 Q663.288 157.365 665.632 160.23 Q668.004 163.094 668.004 167.232 Q668.004 173.511 664.156 176.867 Q660.337 180.224 653.19 180.224 Q646.043 180.224 642.194 176.867 Q638.375 173.511 638.375 167.232 Q638.375 163.094 640.748 160.23 Q643.12 157.365 647.345 156.381 M645.204 147.151 Q645.204 150.507 647.287 152.388 Q649.399 154.269 653.19 154.269 Q656.951 154.269 659.064 152.388 Q661.205 150.507 661.205 147.151 Q661.205 143.795 659.064 141.914 Q656.951 140.033 653.19 140.033 Q649.399 140.033 647.287 141.914 Q645.204 143.795 645.204 147.151 Z" fill="#000000" fill-rule="nonzero" fill-opacity="1" /><path clip-path="url(#clip530)" d="M678.566 178.488 L678.566 173.164 Q680.765 174.205 683.022 174.755 Q685.279 175.305 687.449 175.305 Q693.236 175.305 696.274 171.427 Q699.341 167.521 699.775 159.593 Q698.097 162.081 695.522 163.412 Q692.946 164.744 689.821 164.744 Q683.34 164.744 679.55 160.837 Q675.788 156.902 675.788 150.102 Q675.788 143.447 679.723 139.425 Q683.658 135.403 690.198 135.403 Q697.692 135.403 701.627 141.161 Q705.591 146.891 705.591 157.828 Q705.591 168.042 700.73 174.147 Q695.898 180.224 687.709 180.224 Q685.51 180.224 683.253 179.79 Q680.996 179.356 678.566 178.488 M690.198 160.172 Q694.133 160.172 696.419 157.481 Q698.733 154.79 698.733 150.102 Q698.733 145.444 696.419 142.753 Q694.133 140.033 690.198 140.033 Q686.262 140.033 683.948 142.753 Q681.662 145.444 681.662 150.102 Q681.662 154.79 683.948 157.481 Q686.262 160.172 690.198 160.172 Z" fill="#000000" fill-rule="nonzero" fill-opacity="1" /><path clip-path="url(#clip530)" d="M302.989 210.703 L302.989 244.297 L310.049 244.297 Q318.99 244.297 323.128 240.246 Q327.294 236.195 327.294 227.456 Q327.294 218.776 323.128 214.754 Q318.99 210.703 310.049 210.703 L302.989 210.703 M297.144 205.9 L309.152 205.9 Q321.71 205.9 327.584 211.137 Q333.458 216.345 333.458 227.456 Q333.458 238.625 327.555 243.862 Q321.652 249.1 309.152 249.1 L297.144 249.1 L297.144 205.9 Z" fill="#000000" fill-rule="nonzero" fill-opacity="1" /><path clip-path="url(#clip530)" d="M342.543 216.692 L347.867 216.692 L347.867 249.1 L342.543 249.1 L342.543 216.692 M342.543 204.077 L347.867 204.077 L347.867 210.819 L342.543 210.819 L342.543 204.077 Z" fill="#000000" fill-rule="nonzero" fill-opacity="1" /><path clip-path="url(#clip530)" d="M379.667 217.647 L379.667 222.682 Q377.41 221.525 374.979 220.946 Q372.549 220.367 369.945 220.367 Q365.981 220.367 363.984 221.583 Q362.016 222.798 362.016 225.228 Q362.016 227.08 363.434 228.151 Q364.852 229.192 369.135 230.147 L370.957 230.552 Q376.629 231.768 379.001 233.996 Q381.403 236.195 381.403 240.159 Q381.403 244.673 377.815 247.306 Q374.256 249.939 368.006 249.939 Q365.402 249.939 362.566 249.418 Q359.76 248.926 356.635 247.913 L356.635 242.416 Q359.586 243.949 362.451 244.731 Q365.315 245.483 368.122 245.483 Q371.883 245.483 373.909 244.21 Q375.934 242.908 375.934 240.564 Q375.934 238.394 374.459 237.236 Q373.012 236.079 368.064 235.008 L366.212 234.574 Q361.264 233.533 359.065 231.391 Q356.866 229.221 356.866 225.46 Q356.866 220.888 360.107 218.4 Q363.348 215.911 369.308 215.911 Q372.259 215.911 374.864 216.345 Q377.468 216.779 379.667 217.647 Z" fill="#000000" fill-rule="nonzero" fill-opacity="1" /><path clip-path="url(#clip530)" d="M395.147 207.491 L395.147 216.692 L406.113 216.692 L406.113 220.83 L395.147 220.83 L395.147 238.423 Q395.147 242.387 396.218 243.515 Q397.317 244.644 400.645 244.644 L406.113 244.644 L406.113 249.1 L400.645 249.1 Q394.482 249.1 392.138 246.814 Q389.794 244.499 389.794 238.423 L389.794 220.83 L385.888 220.83 L385.888 216.692 L389.794 216.692 L389.794 207.491 L395.147 207.491 Z" fill="#000000" fill-rule="nonzero" fill-opacity="1" /><path clip-path="url(#clip530)" d="M432.647 222.19 L469.742 222.19 L469.742 227.051 L432.647 227.051 L432.647 222.19 M432.647 233.996 L469.742 233.996 L469.742 238.915 L432.647 238.915 L432.647 233.996 Z" fill="#000000" fill-rule="nonzero" fill-opacity="1" /><path clip-path="url(#clip530)" d="M513.694 209.748 Q509.18 209.748 506.894 214.204 Q504.637 218.631 504.637 227.543 Q504.637 236.426 506.894 240.882 Q509.18 245.309 513.694 245.309 Q518.237 245.309 520.494 240.882 Q522.78 236.426 522.78 227.543 Q522.78 218.631 520.494 214.204 Q518.237 209.748 513.694 209.748 M513.694 205.118 Q520.957 205.118 524.776 210.877 Q528.624 216.606 528.624 227.543 Q528.624 238.452 524.776 244.21 Q520.957 249.939 513.694 249.939 Q506.431 249.939 502.583 244.21 Q498.763 238.452 498.763 227.543 Q498.763 216.606 502.583 210.877 Q506.431 205.118 513.694 205.118 Z" fill="#000000" fill-rule="nonzero" fill-opacity="1" /><path clip-path="url(#clip530)" d="M538.896 241.75 L545.002 241.75 L545.002 249.1 L538.896 249.1 L538.896 241.75 Z" fill="#000000" fill-rule="nonzero" fill-opacity="1" /><path clip-path="url(#clip530)" d="M570.233 209.748 Q565.719 209.748 563.433 214.204 Q561.176 218.631 561.176 227.543 Q561.176 236.426 563.433 240.882 Q565.719 245.309 570.233 245.309 Q574.776 245.309 577.033 240.882 Q579.319 236.426 579.319 227.543 Q579.319 218.631 577.033 214.204 Q574.776 209.748 570.233 209.748 M570.233 205.118 Q577.496 205.118 581.315 210.877 Q585.163 216.606 585.163 227.543 Q585.163 238.452 581.315 244.21 Q577.496 249.939 570.233 249.939 Q562.97 249.939 559.122 244.21 Q555.302 238.452 555.302 227.543 Q555.302 216.606 559.122 210.877 Q562.97 205.118 570.233 205.118 Z" fill="#000000" fill-rule="nonzero" fill-opacity="1" /><path clip-path="url(#clip530)" d="M600.47 244.181 L620.869 244.181 L620.869 249.1 L593.439 249.1 L593.439 244.181 Q596.766 240.738 602.496 234.951 Q608.254 229.135 609.729 227.456 Q612.536 224.302 613.636 222.132 Q614.764 219.933 614.764 217.821 Q614.764 214.378 612.333 212.208 Q609.932 210.037 606.055 210.037 Q603.306 210.037 600.239 210.992 Q597.2 211.947 593.728 213.886 L593.728 207.983 Q597.258 206.565 600.325 205.842 Q603.393 205.118 605.939 205.118 Q612.652 205.118 616.645 208.475 Q620.638 211.831 620.638 217.445 Q620.638 220.107 619.625 222.508 Q618.641 224.881 616.008 228.122 Q615.285 228.961 611.408 232.983 Q607.53 236.976 600.47 244.181 Z" fill="#000000" fill-rule="nonzero" fill-opacity="1" /><path clip-path="url(#clip530)" d="M631.662 205.9 L659.44 205.9 L659.44 208.388 L643.757 249.1 L637.652 249.1 L652.408 210.819 L631.662 210.819 L631.662 205.9 Z" fill="#000000" fill-rule="nonzero" fill-opacity="1" /><path clip-path="url(#clip530)" d="M686.899 210.992 L672.142 234.054 L686.899 234.054 L686.899 210.992 M685.365 205.9 L692.715 205.9 L692.715 234.054 L698.878 234.054 L698.878 238.915 L692.715 238.915 L692.715 249.1 L686.899 249.1 L686.899 238.915 L667.397 238.915 L667.397 233.272 L685.365 205.9 Z" fill="#000000" fill-rule="nonzero" fill-opacity="1" /><path clip-path="url(#clip530)" d="M708.6 205.9 L731.546 205.9 L731.546 210.819 L713.953 210.819 L713.953 221.409 Q715.226 220.975 716.5 220.772 Q717.773 220.541 719.046 220.541 Q726.28 220.541 730.504 224.505 Q734.729 228.469 734.729 235.24 Q734.729 242.213 730.388 246.09 Q726.048 249.939 718.149 249.939 Q715.429 249.939 712.593 249.476 Q709.787 249.013 706.777 248.087 L706.777 242.213 Q709.382 243.631 712.159 244.325 Q714.937 245.02 718.033 245.02 Q723.039 245.02 725.961 242.387 Q728.884 239.754 728.884 235.24 Q728.884 230.726 725.961 228.093 Q723.039 225.46 718.033 225.46 Q715.689 225.46 713.346 225.981 Q711.031 226.501 708.6 227.601 L708.6 205.9 Z" fill="#000000" fill-rule="nonzero" fill-opacity="1" /><path clip-path="url(#clip530)" d="M1824.06 1273.23 L3152.76 1273.23 L3152.76 88.0695 L1824.06 88.0695  Z" fill="#ffffff" fill-rule="evenodd" fill-opacity="1"/>
<defs>
  <clipPath id="clip533">
    <rect x="1824" y="88" width="1330" height="1186"/>
  </clipPath>
</defs>
<polyline clip-path="url(#clip533)" style="stroke:#000000; stroke-linecap:round; stroke-linejoin:round; stroke-width:2; stroke-opacity:0.1; fill:none" points="2015.4,1273.23 2015.4,88.0695 "/>
<polyline clip-path="url(#clip533)" style="stroke:#000000; stroke-linecap:round; stroke-linejoin:round; stroke-width:2; stroke-opacity:0.1; fill:none" points="2251.9,1273.23 2251.9,88.0695 "/>
<polyline clip-path="url(#clip533)" style="stroke:#000000; stroke-linecap:round; stroke-linejoin:round; stroke-width:2; stroke-opacity:0.1; fill:none" points="2488.41,1273.23 2488.41,88.0695 "/>
<polyline clip-path="url(#clip533)" style="stroke:#000000; stroke-linecap:round; stroke-linejoin:round; stroke-width:2; stroke-opacity:0.1; fill:none" points="2724.92,1273.23 2724.92,88.0695 "/>
<polyline clip-path="url(#clip533)" style="stroke:#000000; stroke-linecap:round; stroke-linejoin:round; stroke-width:2; stroke-opacity:0.1; fill:none" points="2961.42,1273.23 2961.42,88.0695 "/>
<polyline clip-path="url(#clip530)" style="stroke:#000000; stroke-linecap:round; stroke-linejoin:round; stroke-width:4; stroke-opacity:1; fill:none" points="1824.06,1273.23 3152.76,1273.23 "/>
<polyline clip-path="url(#clip530)" style="stroke:#000000; stroke-linecap:round; stroke-linejoin:round; stroke-width:4; stroke-opacity:1; fill:none" points="2015.4,1273.23 2015.4,1254.33 "/>
<polyline clip-path="url(#clip530)" style="stroke:#000000; stroke-linecap:round; stroke-linejoin:round; stroke-width:4; stroke-opacity:1; fill:none" points="2251.9,1273.23 2251.9,1254.33 "/>
<polyline clip-path="url(#clip530)" style="stroke:#000000; stroke-linecap:round; stroke-linejoin:round; stroke-width:4; stroke-opacity:1; fill:none" points="2488.41,1273.23 2488.41,1254.33 "/>
<polyline clip-path="url(#clip530)" style="stroke:#000000; stroke-linecap:round; stroke-linejoin:round; stroke-width:4; stroke-opacity:1; fill:none" points="2724.92,1273.23 2724.92,1254.33 "/>
<polyline clip-path="url(#clip530)" style="stroke:#000000; stroke-linecap:round; stroke-linejoin:round; stroke-width:4; stroke-opacity:1; fill:none" points="2961.42,1273.23 2961.42,1254.33 "/>
<g clip-path="url(#clip530)">
<text style="fill:#000000; fill-opacity:1; font-family:Century Gothic,CenturyGothic,AppleGothic,sans-serif; font-size:47px; text-anchor:middle;" transform="rotate(0, 2015.4, 1353.69)" x="2015.4" y="1353.69">0</text>
</g>
<g clip-path="url(#clip530)">
<text style="fill:#000000; fill-opacity:1; font-family:Century Gothic,CenturyGothic,AppleGothic,sans-serif; font-size:47px; text-anchor:middle;" transform="rotate(0, 2251.9, 1353.69)" x="2251.9" y="1353.69">1</text>
</g>
<g clip-path="url(#clip530)">
<text style="fill:#000000; fill-opacity:1; font-family:Century Gothic,CenturyGothic,AppleGothic,sans-serif; font-size:47px; text-anchor:middle;" transform="rotate(0, 2488.41, 1353.69)" x="2488.41" y="1353.69">2</text>
</g>
<g clip-path="url(#clip530)">
<text style="fill:#000000; fill-opacity:1; font-family:Century Gothic,CenturyGothic,AppleGothic,sans-serif; font-size:47px; text-anchor:middle;" transform="rotate(0, 2724.92, 1353.69)" x="2724.92" y="1353.69">3</text>
</g>
<g clip-path="url(#clip530)">
<text style="fill:#000000; fill-opacity:1; font-family:Century Gothic,CenturyGothic,AppleGothic,sans-serif; font-size:47px; text-anchor:middle;" transform="rotate(0, 2961.42, 1353.69)" x="2961.42" y="1353.69">4</text>
</g>
<g clip-path="url(#clip530)">
<text style="fill:#000000; fill-opacity:1; font-family:Century Gothic,CenturyGothic,AppleGothic,sans-serif; font-size:65px; text-anchor:middle;" transform="rotate(0, 2488.41, 1452.31)" x="2488.41" y="1452.31">中心推定の正解数</text>
</g>
<polyline clip-path="url(#clip533)" style="stroke:#000000; stroke-linecap:round; stroke-linejoin:round; stroke-width:2; stroke-opacity:0.1; fill:none" points="1824.06,1273.23 3152.76,1273.23 "/>
<polyline clip-path="url(#clip533)" style="stroke:#000000; stroke-linecap:round; stroke-linejoin:round; stroke-width:2; stroke-opacity:0.1; fill:none" points="1824.06,994.366 3152.76,994.366 "/>
<polyline clip-path="url(#clip533)" style="stroke:#000000; stroke-linecap:round; stroke-linejoin:round; stroke-width:2; stroke-opacity:0.1; fill:none" points="1824.06,715.505 3152.76,715.505 "/>
<polyline clip-path="url(#clip533)" style="stroke:#000000; stroke-linecap:round; stroke-linejoin:round; stroke-width:2; stroke-opacity:0.1; fill:none" points="1824.06,436.645 3152.76,436.645 "/>
<polyline clip-path="url(#clip533)" style="stroke:#000000; stroke-linecap:round; stroke-linejoin:round; stroke-width:2; stroke-opacity:0.1; fill:none" points="1824.06,157.785 3152.76,157.785 "/>
<polyline clip-path="url(#clip530)" style="stroke:#000000; stroke-linecap:round; stroke-linejoin:round; stroke-width:4; stroke-opacity:1; fill:none" points="1824.06,1273.23 1824.06,88.0695 "/>
<polyline clip-path="url(#clip530)" style="stroke:#000000; stroke-linecap:round; stroke-linejoin:round; stroke-width:4; stroke-opacity:1; fill:none" points="1824.06,1273.23 1842.96,1273.23 "/>
<polyline clip-path="url(#clip530)" style="stroke:#000000; stroke-linecap:round; stroke-linejoin:round; stroke-width:4; stroke-opacity:1; fill:none" points="1824.06,994.366 1842.96,994.366 "/>
<polyline clip-path="url(#clip530)" style="stroke:#000000; stroke-linecap:round; stroke-linejoin:round; stroke-width:4; stroke-opacity:1; fill:none" points="1824.06,715.505 1842.96,715.505 "/>
<polyline clip-path="url(#clip530)" style="stroke:#000000; stroke-linecap:round; stroke-linejoin:round; stroke-width:4; stroke-opacity:1; fill:none" points="1824.06,436.645 1842.96,436.645 "/>
<polyline clip-path="url(#clip530)" style="stroke:#000000; stroke-linecap:round; stroke-linejoin:round; stroke-width:4; stroke-opacity:1; fill:none" points="1824.06,157.785 1842.96,157.785 "/>
<g clip-path="url(#clip530)">
<text style="fill:#000000; fill-opacity:1; font-family:Century Gothic,CenturyGothic,AppleGothic,sans-serif; font-size:47px; text-anchor:middle;" transform="rotate(0, 1739.13, 1290.73)" x="1739.13" y="1290.73">0</text>
</g>
<g clip-path="url(#clip530)">
<text style="fill:#000000; fill-opacity:1; font-family:Century Gothic,CenturyGothic,AppleGothic,sans-serif; font-size:47px; text-anchor:middle;" transform="rotate(0, 1713.25, 1011.87)" x="1713.25" y="1011.87">200</text>
</g>
<g clip-path="url(#clip530)">
<text style="fill:#000000; fill-opacity:1; font-family:Century Gothic,CenturyGothic,AppleGothic,sans-serif; font-size:47px; text-anchor:middle;" transform="rotate(0, 1713.25, 733.005)" x="1713.25" y="733.005">400</text>
</g>
<g clip-path="url(#clip530)">
<text style="fill:#000000; fill-opacity:1; font-family:Century Gothic,CenturyGothic,AppleGothic,sans-serif; font-size:47px; text-anchor:middle;" transform="rotate(0, 1713.25, 454.145)" x="1713.25" y="454.145">600</text>
</g>
<g clip-path="url(#clip530)">
<text style="fill:#000000; fill-opacity:1; font-family:Century Gothic,CenturyGothic,AppleGothic,sans-serif; font-size:47px; text-anchor:middle;" transform="rotate(0, 1713.25, 175.285)" x="1713.25" y="175.285">800</text>
</g>
<g clip-path="url(#clip530)">
<text style="fill:#000000; fill-opacity:1; font-family:Century Gothic,CenturyGothic,AppleGothic,sans-serif; font-size:65px; text-anchor:middle;" transform="rotate(-90, 1592.49, 680.648)" x="1592.49" y="680.648">度数</text>
</g>
<g clip-path="url(#clip530)">
<text style="fill:#000000; fill-opacity:1; font-family:Century Gothic,CenturyGothic,AppleGothic,sans-serif; font-size:81px; text-anchor:middle;" transform="rotate(0, 2488.41, 72)" x="2488.41" y="72">Setting : B, Method : GM</text>
</g>
<path clip-path="url(#clip533)" d="M1897.14 1273.23 L1897.14 1273.23 L2133.65 1273.23 L2133.65 1273.23 L1897.14 1273.23 L1897.14 1273.23  Z" fill="#009af9" fill-rule="evenodd" fill-opacity="1"/>
<polyline clip-path="url(#clip533)" style="stroke:#000000; stroke-linecap:round; stroke-linejoin:round; stroke-width:4; stroke-opacity:1; fill:none" points="1897.14,1273.23 1897.14,1273.23 2133.65,1273.23 1897.14,1273.23 "/>
<path clip-path="url(#clip533)" d="M2133.65 1273.23 L2133.65 1273.23 L2370.16 1273.23 L2370.16 1273.23 L2133.65 1273.23 L2133.65 1273.23  Z" fill="#009af9" fill-rule="evenodd" fill-opacity="1"/>
<polyline clip-path="url(#clip533)" style="stroke:#000000; stroke-linecap:round; stroke-linejoin:round; stroke-width:4; stroke-opacity:1; fill:none" points="2133.65,1273.23 2133.65,1273.23 2370.16,1273.23 2133.65,1273.23 "/>
<path clip-path="url(#clip533)" d="M2370.16 1131.01 L2370.16 1273.23 L2606.66 1273.23 L2606.66 1131.01 L2370.16 1131.01 L2370.16 1131.01  Z" fill="#009af9" fill-rule="evenodd" fill-opacity="1"/>
<polyline clip-path="url(#clip533)" style="stroke:#000000; stroke-linecap:round; stroke-linejoin:round; stroke-width:4; stroke-opacity:1; fill:none" points="2370.16,1131.01 2370.16,1273.23 2606.66,1273.23 2606.66,1131.01 2370.16,1131.01 "/>
<path clip-path="url(#clip533)" d="M2606.66 792.192 L2606.66 1273.23 L2843.17 1273.23 L2843.17 792.192 L2606.66 792.192 L2606.66 792.192  Z" fill="#009af9" fill-rule="evenodd" fill-opacity="1"/>
<polyline clip-path="url(#clip533)" style="stroke:#000000; stroke-linecap:round; stroke-linejoin:round; stroke-width:4; stroke-opacity:1; fill:none" points="2606.66,792.192 2606.66,1273.23 2843.17,1273.23 2843.17,792.192 2606.66,792.192 "/>
<path clip-path="url(#clip533)" d="M2843.17 502.177 L2843.17 1273.23 L3079.68 1273.23 L3079.68 502.177 L2843.17 502.177 L2843.17 502.177  Z" fill="#009af9" fill-rule="evenodd" fill-opacity="1"/>
<polyline clip-path="url(#clip533)" style="stroke:#000000; stroke-linecap:round; stroke-linejoin:round; stroke-width:4; stroke-opacity:1; fill:none" points="2843.17,502.177 2843.17,1273.23 3079.68,1273.23 3079.68,502.177 2843.17,502.177 "/>
<circle clip-path="url(#clip533)" style="fill:#009af9; stroke:none; fill-opacity:0" cx="2015.4" cy="1273.23" r="2"/>
<circle clip-path="url(#clip533)" style="fill:#009af9; stroke:none; fill-opacity:0" cx="2251.9" cy="1273.23" r="2"/>
<circle clip-path="url(#clip533)" style="fill:#009af9; stroke:none; fill-opacity:0" cx="2488.41" cy="1131.01" r="2"/>
<circle clip-path="url(#clip533)" style="fill:#009af9; stroke:none; fill-opacity:0" cx="2724.92" cy="792.192" r="2"/>
<circle clip-path="url(#clip533)" style="fill:#009af9; stroke:none; fill-opacity:0" cx="2961.42" cy="502.177" r="2"/>
<path clip-path="url(#clip530)" d="M1897.14 136.185 L1905.85 136.185 L1916.88 165.583 L1927.96 136.185 L1936.67 136.185 L1936.67 179.385 L1930.97 179.385 L1930.97 141.451 L1919.83 171.08 L1913.96 171.08 L1902.82 141.451 L1902.82 179.385 L1897.14 179.385 L1897.14 136.185 Z" fill="#000000" fill-rule="nonzero" fill-opacity="1" /><path clip-path="url(#clip530)" d="M1975.76 161.85 L1975.76 164.454 L1951.28 164.454 Q1951.63 169.952 1954.58 172.845 Q1957.56 175.71 1962.86 175.71 Q1965.92 175.71 1968.79 174.958 Q1971.68 174.205 1974.52 172.701 L1974.52 177.735 Q1971.65 178.951 1968.64 179.587 Q1965.63 180.224 1962.54 180.224 Q1954.78 180.224 1950.24 175.71 Q1945.73 171.196 1945.73 163.499 Q1945.73 155.542 1950.01 150.884 Q1954.32 146.196 1961.61 146.196 Q1968.15 146.196 1971.94 150.421 Q1975.76 154.616 1975.76 161.85 M1970.44 160.288 Q1970.38 155.918 1967.98 153.314 Q1965.6 150.71 1961.67 150.71 Q1957.21 150.71 1954.52 153.227 Q1951.86 155.745 1951.46 160.316 L1970.44 160.288 Z" fill="#000000" fill-rule="nonzero" fill-opacity="1" /><path clip-path="url(#clip530)" d="M1999.23 163.094 Q1992.77 163.094 1990.29 164.57 Q1987.8 166.046 1987.8 169.605 Q1987.8 172.44 1989.65 174.118 Q1991.53 175.768 1994.74 175.768 Q1999.17 175.768 2001.83 172.643 Q2004.52 169.489 2004.52 164.281 L2004.52 163.094 L1999.23 163.094 M2009.85 160.895 L2009.85 179.385 L2004.52 179.385 L2004.52 174.466 Q2002.7 177.417 1999.98 178.835 Q1997.26 180.224 1993.32 180.224 Q1988.35 180.224 1985.4 177.446 Q1982.47 174.639 1982.47 169.952 Q1982.47 164.483 1986.12 161.705 Q1989.79 158.928 1997.06 158.928 L2004.52 158.928 L2004.52 158.407 Q2004.52 154.732 2002.09 152.735 Q1999.69 150.71 1995.32 150.71 Q1992.54 150.71 1989.91 151.376 Q1987.28 152.041 1984.85 153.372 L1984.85 148.453 Q1987.77 147.325 1990.52 146.775 Q1993.27 146.196 1995.87 146.196 Q2002.9 146.196 2006.37 149.842 Q2009.85 153.488 2009.85 160.895 Z" fill="#000000" fill-rule="nonzero" fill-opacity="1" /><path clip-path="url(#clip530)" d="M2047.75 159.825 L2047.75 179.385 L2042.43 179.385 L2042.43 159.998 Q2042.43 155.397 2040.63 153.112 Q2038.84 150.826 2035.25 150.826 Q2030.94 150.826 2028.45 153.575 Q2025.96 156.323 2025.96 161.069 L2025.96 179.385 L2020.61 179.385 L2020.61 146.977 L2025.96 146.977 L2025.96 152.012 Q2027.87 149.09 2030.45 147.643 Q2033.05 146.196 2036.44 146.196 Q2042.02 146.196 2044.89 149.668 Q2047.75 153.112 2047.75 159.825 Z" fill="#000000" fill-rule="nonzero" fill-opacity="1" /><path clip-path="url(#clip530)" d="M2077.9 152.475 L2115 152.475 L2115 157.336 L2077.9 157.336 L2077.9 152.475 M2077.9 164.281 L2115 164.281 L2115 169.2 L2077.9 169.2 L2077.9 164.281 Z" fill="#000000" fill-rule="nonzero" fill-opacity="1" /><path clip-path="url(#clip530)" d="M2164.16 156.092 Q2168.35 156.989 2170.7 159.825 Q2173.07 162.66 2173.07 166.827 Q2173.07 173.221 2168.67 176.723 Q2164.27 180.224 2156.17 180.224 Q2153.45 180.224 2150.56 179.674 Q2147.69 179.153 2144.63 178.083 L2144.63 172.44 Q2147.06 173.858 2149.95 174.581 Q2152.84 175.305 2156 175.305 Q2161.49 175.305 2164.36 173.135 Q2167.25 170.965 2167.25 166.827 Q2167.25 163.007 2164.56 160.866 Q2161.9 158.696 2157.13 158.696 L2152.09 158.696 L2152.09 153.893 L2157.36 153.893 Q2161.67 153.893 2163.95 152.186 Q2166.24 150.45 2166.24 147.209 Q2166.24 143.881 2163.87 142.116 Q2161.52 140.322 2157.13 140.322 Q2154.72 140.322 2151.97 140.843 Q2149.23 141.364 2145.93 142.464 L2145.93 137.255 Q2149.26 136.329 2152.15 135.866 Q2155.07 135.403 2157.65 135.403 Q2164.3 135.403 2168.18 138.442 Q2172.06 141.451 2172.06 146.601 Q2172.06 150.189 2170 152.678 Q2167.95 155.137 2164.16 156.092 Z" fill="#000000" fill-rule="nonzero" fill-opacity="1" /><path clip-path="url(#clip530)" d="M2184.15 172.035 L2190.26 172.035 L2190.26 179.385 L2184.15 179.385 L2184.15 172.035 Z" fill="#000000" fill-rule="nonzero" fill-opacity="1" /><path clip-path="url(#clip530)" d="M2219.05 141.277 L2204.29 164.338 L2219.05 164.338 L2219.05 141.277 M2217.51 136.185 L2224.86 136.185 L2224.86 164.338 L2231.03 164.338 L2231.03 169.2 L2224.86 169.2 L2224.86 179.385 L2219.05 179.385 L2219.05 169.2 L2199.54 169.2 L2199.54 163.557 L2217.51 136.185 Z" fill="#000000" fill-rule="nonzero" fill-opacity="1" /><path clip-path="url(#clip530)" d="M2240.75 136.185 L2263.69 136.185 L2263.69 141.104 L2246.1 141.104 L2246.1 151.694 Q2247.37 151.26 2248.65 151.057 Q2249.92 150.826 2251.19 150.826 Q2258.43 150.826 2262.65 154.79 Q2266.88 158.754 2266.88 165.525 Q2266.88 172.498 2262.54 176.375 Q2258.2 180.224 2250.3 180.224 Q2247.58 180.224 2244.74 179.761 Q2241.93 179.298 2238.92 178.372 L2238.92 172.498 Q2241.53 173.916 2244.31 174.61 Q2247.08 175.305 2250.18 175.305 Q2255.19 175.305 2258.11 172.672 Q2261.03 170.039 2261.03 165.525 Q2261.03 161.011 2258.11 158.378 Q2255.19 155.745 2250.18 155.745 Q2247.84 155.745 2245.49 156.266 Q2243.18 156.786 2240.75 157.886 L2240.75 136.185 Z" fill="#000000" fill-rule="nonzero" fill-opacity="1" /><path clip-path="url(#clip530)" d="M2279.4 174.466 L2288.95 174.466 L2288.95 141.509 L2278.57 143.592 L2278.57 138.268 L2288.9 136.185 L2294.74 136.185 L2294.74 174.466 L2304.29 174.466 L2304.29 179.385 L2279.4 179.385 L2279.4 174.466 Z" fill="#000000" fill-rule="nonzero" fill-opacity="1" /><path clip-path="url(#clip530)" d="M1902.99 210.703 L1902.99 244.297 L1910.05 244.297 Q1918.99 244.297 1923.13 240.246 Q1927.29 236.195 1927.29 227.456 Q1927.29 218.776 1923.13 214.754 Q1918.99 210.703 1910.05 210.703 L1902.99 210.703 M1897.14 205.9 L1909.15 205.9 Q1921.71 205.9 1927.58 211.137 Q1933.46 216.345 1933.46 227.456 Q1933.46 238.625 1927.55 243.862 Q1921.65 249.1 1909.15 249.1 L1897.14 249.1 L1897.14 205.9 Z" fill="#000000" fill-rule="nonzero" fill-opacity="1" /><path clip-path="url(#clip530)" d="M1942.54 216.692 L1947.87 216.692 L1947.87 249.1 L1942.54 249.1 L1942.54 216.692 M1942.54 204.077 L1947.87 204.077 L1947.87 210.819 L1942.54 210.819 L1942.54 204.077 Z" fill="#000000" fill-rule="nonzero" fill-opacity="1" /><path clip-path="url(#clip530)" d="M1979.67 217.647 L1979.67 222.682 Q1977.41 221.525 1974.98 220.946 Q1972.55 220.367 1969.94 220.367 Q1965.98 220.367 1963.98 221.583 Q1962.02 222.798 1962.02 225.228 Q1962.02 227.08 1963.43 228.151 Q1964.85 229.192 1969.13 230.147 L1970.96 230.552 Q1976.63 231.768 1979 233.996 Q1981.4 236.195 1981.4 240.159 Q1981.4 244.673 1977.82 247.306 Q1974.26 249.939 1968.01 249.939 Q1965.4 249.939 1962.57 249.418 Q1959.76 248.926 1956.63 247.913 L1956.63 242.416 Q1959.59 243.949 1962.45 244.731 Q1965.32 245.483 1968.12 245.483 Q1971.88 245.483 1973.91 244.21 Q1975.93 242.908 1975.93 240.564 Q1975.93 238.394 1974.46 237.236 Q1973.01 236.079 1968.06 235.008 L1966.21 234.574 Q1961.26 233.533 1959.07 231.391 Q1956.87 229.221 1956.87 225.46 Q1956.87 220.888 1960.11 218.4 Q1963.35 215.911 1969.31 215.911 Q1972.26 215.911 1974.86 216.345 Q1977.47 216.779 1979.67 217.647 Z" fill="#000000" fill-rule="nonzero" fill-opacity="1" /><path clip-path="url(#clip530)" d="M1995.15 207.491 L1995.15 216.692 L2006.11 216.692 L2006.11 220.83 L1995.15 220.83 L1995.15 238.423 Q1995.15 242.387 1996.22 243.515 Q1997.32 244.644 2000.64 244.644 L2006.11 244.644 L2006.11 249.1 L2000.64 249.1 Q1994.48 249.1 1992.14 246.814 Q1989.79 244.499 1989.79 238.423 L1989.79 220.83 L1985.89 220.83 L1985.89 216.692 L1989.79 216.692 L1989.79 207.491 L1995.15 207.491 Z" fill="#000000" fill-rule="nonzero" fill-opacity="1" /><path clip-path="url(#clip530)" d="M2032.65 222.19 L2069.74 222.19 L2069.74 227.051 L2032.65 227.051 L2032.65 222.19 M2032.65 233.996 L2069.74 233.996 L2069.74 238.915 L2032.65 238.915 L2032.65 233.996 Z" fill="#000000" fill-rule="nonzero" fill-opacity="1" /><path clip-path="url(#clip530)" d="M2113.69 209.748 Q2109.18 209.748 2106.89 214.204 Q2104.64 218.631 2104.64 227.543 Q2104.64 236.426 2106.89 240.882 Q2109.18 245.309 2113.69 245.309 Q2118.24 245.309 2120.49 240.882 Q2122.78 236.426 2122.78 227.543 Q2122.78 218.631 2120.49 214.204 Q2118.24 209.748 2113.69 209.748 M2113.69 205.118 Q2120.96 205.118 2124.78 210.877 Q2128.62 216.606 2128.62 227.543 Q2128.62 238.452 2124.78 244.21 Q2120.96 249.939 2113.69 249.939 Q2106.43 249.939 2102.58 244.21 Q2098.76 238.452 2098.76 227.543 Q2098.76 216.606 2102.58 210.877 Q2106.43 205.118 2113.69 205.118 Z" fill="#000000" fill-rule="nonzero" fill-opacity="1" /><path clip-path="url(#clip530)" d="M2138.9 241.75 L2145 241.75 L2145 249.1 L2138.9 249.1 L2138.9 241.75 Z" fill="#000000" fill-rule="nonzero" fill-opacity="1" /><path clip-path="url(#clip530)" d="M2170.23 209.748 Q2165.72 209.748 2163.43 214.204 Q2161.18 218.631 2161.18 227.543 Q2161.18 236.426 2163.43 240.882 Q2165.72 245.309 2170.23 245.309 Q2174.78 245.309 2177.03 240.882 Q2179.32 236.426 2179.32 227.543 Q2179.32 218.631 2177.03 214.204 Q2174.78 209.748 2170.23 209.748 M2170.23 205.118 Q2177.5 205.118 2181.32 210.877 Q2185.16 216.606 2185.16 227.543 Q2185.16 238.452 2181.32 244.21 Q2177.5 249.939 2170.23 249.939 Q2162.97 249.939 2159.12 244.21 Q2155.3 238.452 2155.3 227.543 Q2155.3 216.606 2159.12 210.877 Q2162.97 205.118 2170.23 205.118 Z" fill="#000000" fill-rule="nonzero" fill-opacity="1" /><path clip-path="url(#clip530)" d="M2200.47 244.181 L2220.87 244.181 L2220.87 249.1 L2193.44 249.1 L2193.44 244.181 Q2196.77 240.738 2202.5 234.951 Q2208.25 229.135 2209.73 227.456 Q2212.54 224.302 2213.64 222.132 Q2214.76 219.933 2214.76 217.821 Q2214.76 214.378 2212.33 212.208 Q2209.93 210.037 2206.05 210.037 Q2203.31 210.037 2200.24 210.992 Q2197.2 211.947 2193.73 213.886 L2193.73 207.983 Q2197.26 206.565 2200.33 205.842 Q2203.39 205.118 2205.94 205.118 Q2212.65 205.118 2216.64 208.475 Q2220.64 211.831 2220.64 217.445 Q2220.64 220.107 2219.63 222.508 Q2218.64 224.881 2216.01 228.122 Q2215.28 228.961 2211.41 232.983 Q2207.53 236.976 2200.47 244.181 Z" fill="#000000" fill-rule="nonzero" fill-opacity="1" /><path clip-path="url(#clip530)" d="M2231.66 205.9 L2259.44 205.9 L2259.44 208.388 L2243.76 249.1 L2237.65 249.1 L2252.41 210.819 L2231.66 210.819 L2231.66 205.9 Z" fill="#000000" fill-rule="nonzero" fill-opacity="1" /><path clip-path="url(#clip530)" d="M2269.36 205.9 L2297.14 205.9 L2297.14 208.388 L2281.46 249.1 L2275.35 249.1 L2290.11 210.819 L2269.36 210.819 L2269.36 205.9 Z" fill="#000000" fill-rule="nonzero" fill-opacity="1" /><path clip-path="url(#clip530)" d="M2309.56 244.181 L2319.1 244.181 L2319.1 211.224 L2308.72 213.307 L2308.72 207.983 L2319.05 205.9 L2324.89 205.9 L2324.89 244.181 L2334.44 244.181 L2334.44 249.1 L2309.56 249.1 L2309.56 244.181 Z" fill="#000000" fill-rule="nonzero" fill-opacity="1" /><path clip-path="url(#clip530)" d="M3424.06 1273.23 L4752.76 1273.23 L4752.76 88.0695 L3424.06 88.0695  Z" fill="#ffffff" fill-rule="evenodd" fill-opacity="1"/>
<defs>
  <clipPath id="clip534">
    <rect x="3424" y="88" width="1330" height="1186"/>
  </clipPath>
</defs>
<polyline clip-path="url(#clip534)" style="stroke:#000000; stroke-linecap:round; stroke-linejoin:round; stroke-width:2; stroke-opacity:0.1; fill:none" points="3615.4,1273.23 3615.4,88.0695 "/>
<polyline clip-path="url(#clip534)" style="stroke:#000000; stroke-linecap:round; stroke-linejoin:round; stroke-width:2; stroke-opacity:0.1; fill:none" points="3851.9,1273.23 3851.9,88.0695 "/>
<polyline clip-path="url(#clip534)" style="stroke:#000000; stroke-linecap:round; stroke-linejoin:round; stroke-width:2; stroke-opacity:0.1; fill:none" points="4088.41,1273.23 4088.41,88.0695 "/>
<polyline clip-path="url(#clip534)" style="stroke:#000000; stroke-linecap:round; stroke-linejoin:round; stroke-width:2; stroke-opacity:0.1; fill:none" points="4324.92,1273.23 4324.92,88.0695 "/>
<polyline clip-path="url(#clip534)" style="stroke:#000000; stroke-linecap:round; stroke-linejoin:round; stroke-width:2; stroke-opacity:0.1; fill:none" points="4561.42,1273.23 4561.42,88.0695 "/>
<polyline clip-path="url(#clip530)" style="stroke:#000000; stroke-linecap:round; stroke-linejoin:round; stroke-width:4; stroke-opacity:1; fill:none" points="3424.06,1273.23 4752.76,1273.23 "/>
<polyline clip-path="url(#clip530)" style="stroke:#000000; stroke-linecap:round; stroke-linejoin:round; stroke-width:4; stroke-opacity:1; fill:none" points="3615.4,1273.23 3615.4,1254.33 "/>
<polyline clip-path="url(#clip530)" style="stroke:#000000; stroke-linecap:round; stroke-linejoin:round; stroke-width:4; stroke-opacity:1; fill:none" points="3851.9,1273.23 3851.9,1254.33 "/>
<polyline clip-path="url(#clip530)" style="stroke:#000000; stroke-linecap:round; stroke-linejoin:round; stroke-width:4; stroke-opacity:1; fill:none" points="4088.41,1273.23 4088.41,1254.33 "/>
<polyline clip-path="url(#clip530)" style="stroke:#000000; stroke-linecap:round; stroke-linejoin:round; stroke-width:4; stroke-opacity:1; fill:none" points="4324.92,1273.23 4324.92,1254.33 "/>
<polyline clip-path="url(#clip530)" style="stroke:#000000; stroke-linecap:round; stroke-linejoin:round; stroke-width:4; stroke-opacity:1; fill:none" points="4561.42,1273.23 4561.42,1254.33 "/>
<g clip-path="url(#clip530)">
<text style="fill:#000000; fill-opacity:1; font-family:Century Gothic,CenturyGothic,AppleGothic,sans-serif; font-size:47px; text-anchor:middle;" transform="rotate(0, 3615.4, 1353.69)" x="3615.4" y="1353.69">0</text>
</g>
<g clip-path="url(#clip530)">
<text style="fill:#000000; fill-opacity:1; font-family:Century Gothic,CenturyGothic,AppleGothic,sans-serif; font-size:47px; text-anchor:middle;" transform="rotate(0, 3851.9, 1353.69)" x="3851.9" y="1353.69">1</text>
</g>
<g clip-path="url(#clip530)">
<text style="fill:#000000; fill-opacity:1; font-family:Century Gothic,CenturyGothic,AppleGothic,sans-serif; font-size:47px; text-anchor:middle;" transform="rotate(0, 4088.41, 1353.69)" x="4088.41" y="1353.69">2</text>
</g>
<g clip-path="url(#clip530)">
<text style="fill:#000000; fill-opacity:1; font-family:Century Gothic,CenturyGothic,AppleGothic,sans-serif; font-size:47px; text-anchor:middle;" transform="rotate(0, 4324.92, 1353.69)" x="4324.92" y="1353.69">3</text>
</g>
<g clip-path="url(#clip530)">
<text style="fill:#000000; fill-opacity:1; font-family:Century Gothic,CenturyGothic,AppleGothic,sans-serif; font-size:47px; text-anchor:middle;" transform="rotate(0, 4561.42, 1353.69)" x="4561.42" y="1353.69">4</text>
</g>
<g clip-path="url(#clip530)">
<text style="fill:#000000; fill-opacity:1; font-family:Century Gothic,CenturyGothic,AppleGothic,sans-serif; font-size:65px; text-anchor:middle;" transform="rotate(0, 4088.41, 1452.31)" x="4088.41" y="1452.31">中心推定の正解数</text>
</g>
<polyline clip-path="url(#clip534)" style="stroke:#000000; stroke-linecap:round; stroke-linejoin:round; stroke-width:2; stroke-opacity:0.1; fill:none" points="3424.06,1273.23 4752.76,1273.23 "/>
<polyline clip-path="url(#clip534)" style="stroke:#000000; stroke-linecap:round; stroke-linejoin:round; stroke-width:2; stroke-opacity:0.1; fill:none" points="3424.06,994.366 4752.76,994.366 "/>
<polyline clip-path="url(#clip534)" style="stroke:#000000; stroke-linecap:round; stroke-linejoin:round; stroke-width:2; stroke-opacity:0.1; fill:none" points="3424.06,715.505 4752.76,715.505 "/>
<polyline clip-path="url(#clip534)" style="stroke:#000000; stroke-linecap:round; stroke-linejoin:round; stroke-width:2; stroke-opacity:0.1; fill:none" points="3424.06,436.645 4752.76,436.645 "/>
<polyline clip-path="url(#clip534)" style="stroke:#000000; stroke-linecap:round; stroke-linejoin:round; stroke-width:2; stroke-opacity:0.1; fill:none" points="3424.06,157.785 4752.76,157.785 "/>
<polyline clip-path="url(#clip530)" style="stroke:#000000; stroke-linecap:round; stroke-linejoin:round; stroke-width:4; stroke-opacity:1; fill:none" points="3424.06,1273.23 3424.06,88.0695 "/>
<polyline clip-path="url(#clip530)" style="stroke:#000000; stroke-linecap:round; stroke-linejoin:round; stroke-width:4; stroke-opacity:1; fill:none" points="3424.06,1273.23 3442.96,1273.23 "/>
<polyline clip-path="url(#clip530)" style="stroke:#000000; stroke-linecap:round; stroke-linejoin:round; stroke-width:4; stroke-opacity:1; fill:none" points="3424.06,994.366 3442.96,994.366 "/>
<polyline clip-path="url(#clip530)" style="stroke:#000000; stroke-linecap:round; stroke-linejoin:round; stroke-width:4; stroke-opacity:1; fill:none" points="3424.06,715.505 3442.96,715.505 "/>
<polyline clip-path="url(#clip530)" style="stroke:#000000; stroke-linecap:round; stroke-linejoin:round; stroke-width:4; stroke-opacity:1; fill:none" points="3424.06,436.645 3442.96,436.645 "/>
<polyline clip-path="url(#clip530)" style="stroke:#000000; stroke-linecap:round; stroke-linejoin:round; stroke-width:4; stroke-opacity:1; fill:none" points="3424.06,157.785 3442.96,157.785 "/>
<g clip-path="url(#clip530)">
<text style="fill:#000000; fill-opacity:1; font-family:Century Gothic,CenturyGothic,AppleGothic,sans-serif; font-size:47px; text-anchor:middle;" transform="rotate(0, 3339.13, 1290.73)" x="3339.13" y="1290.73">0</text>
</g>
<g clip-path="url(#clip530)">
<text style="fill:#000000; fill-opacity:1; font-family:Century Gothic,CenturyGothic,AppleGothic,sans-serif; font-size:47px; text-anchor:middle;" transform="rotate(0, 3313.25, 1011.87)" x="3313.25" y="1011.87">200</text>
</g>
<g clip-path="url(#clip530)">
<text style="fill:#000000; fill-opacity:1; font-family:Century Gothic,CenturyGothic,AppleGothic,sans-serif; font-size:47px; text-anchor:middle;" transform="rotate(0, 3313.25, 733.005)" x="3313.25" y="733.005">400</text>
</g>
<g clip-path="url(#clip530)">
<text style="fill:#000000; fill-opacity:1; font-family:Century Gothic,CenturyGothic,AppleGothic,sans-serif; font-size:47px; text-anchor:middle;" transform="rotate(0, 3313.25, 454.145)" x="3313.25" y="454.145">600</text>
</g>
<g clip-path="url(#clip530)">
<text style="fill:#000000; fill-opacity:1; font-family:Century Gothic,CenturyGothic,AppleGothic,sans-serif; font-size:47px; text-anchor:middle;" transform="rotate(0, 3313.25, 175.285)" x="3313.25" y="175.285">800</text>
</g>
<g clip-path="url(#clip530)">
<text style="fill:#000000; fill-opacity:1; font-family:Century Gothic,CenturyGothic,AppleGothic,sans-serif; font-size:65px; text-anchor:middle;" transform="rotate(-90, 3192.49, 680.648)" x="3192.49" y="680.648">度数</text>
</g>
<g clip-path="url(#clip530)">
<text style="fill:#000000; fill-opacity:1; font-family:Century Gothic,CenturyGothic,AppleGothic,sans-serif; font-size:81px; text-anchor:middle;" transform="rotate(0, 4088.41, 72)" x="4088.41" y="72">Setting : B, Method : LM</text>
</g>
<path clip-path="url(#clip534)" d="M3497.14 1273.23 L3497.14 1273.23 L3733.65 1273.23 L3733.65 1273.23 L3497.14 1273.23 L3497.14 1273.23  Z" fill="#009af9" fill-rule="evenodd" fill-opacity="1"/>
<polyline clip-path="url(#clip534)" style="stroke:#000000; stroke-linecap:round; stroke-linejoin:round; stroke-width:4; stroke-opacity:1; fill:none" points="3497.14,1273.23 3497.14,1273.23 3733.65,1273.23 3497.14,1273.23 "/>
<path clip-path="url(#clip534)" d="M3733.65 1186.78 L3733.65 1273.23 L3970.16 1273.23 L3970.16 1186.78 L3733.65 1186.78 L3733.65 1186.78  Z" fill="#009af9" fill-rule="evenodd" fill-opacity="1"/>
<polyline clip-path="url(#clip534)" style="stroke:#000000; stroke-linecap:round; stroke-linejoin:round; stroke-width:4; stroke-opacity:1; fill:none" points="3733.65,1186.78 3733.65,1273.23 3970.16,1273.23 3970.16,1186.78 3733.65,1186.78 "/>
<path clip-path="url(#clip534)" d="M3970.16 853.541 L3970.16 1273.23 L4206.66 1273.23 L4206.66 853.541 L3970.16 853.541 L3970.16 853.541  Z" fill="#009af9" fill-rule="evenodd" fill-opacity="1"/>
<polyline clip-path="url(#clip534)" style="stroke:#000000; stroke-linecap:round; stroke-linejoin:round; stroke-width:4; stroke-opacity:1; fill:none" points="3970.16,853.541 3970.16,1273.23 4206.66,1273.23 4206.66,853.541 3970.16,853.541 "/>
<path clip-path="url(#clip534)" d="M4206.66 550.978 L4206.66 1273.23 L4443.17 1273.23 L4443.17 550.978 L4206.66 550.978 L4206.66 550.978  Z" fill="#009af9" fill-rule="evenodd" fill-opacity="1"/>
<polyline clip-path="url(#clip534)" style="stroke:#000000; stroke-linecap:round; stroke-linejoin:round; stroke-width:4; stroke-opacity:1; fill:none" points="4206.66,550.978 4206.66,1273.23 4443.17,1273.23 4443.17,550.978 4206.66,550.978 "/>
<path clip-path="url(#clip534)" d="M4443.17 1107.3 L4443.17 1273.23 L4679.68 1273.23 L4679.68 1107.3 L4443.17 1107.3 L4443.17 1107.3  Z" fill="#009af9" fill-rule="evenodd" fill-opacity="1"/>
<polyline clip-path="url(#clip534)" style="stroke:#000000; stroke-linecap:round; stroke-linejoin:round; stroke-width:4; stroke-opacity:1; fill:none" points="4443.17,1107.3 4443.17,1273.23 4679.68,1273.23 4679.68,1107.3 4443.17,1107.3 "/>
<circle clip-path="url(#clip534)" style="fill:#009af9; stroke:none; fill-opacity:0" cx="3615.4" cy="1273.23" r="2"/>
<circle clip-path="url(#clip534)" style="fill:#009af9; stroke:none; fill-opacity:0" cx="3851.9" cy="1186.78" r="2"/>
<circle clip-path="url(#clip534)" style="fill:#009af9; stroke:none; fill-opacity:0" cx="4088.41" cy="853.541" r="2"/>
<circle clip-path="url(#clip534)" style="fill:#009af9; stroke:none; fill-opacity:0" cx="4324.92" cy="550.978" r="2"/>
<circle clip-path="url(#clip534)" style="fill:#009af9; stroke:none; fill-opacity:0" cx="4561.42" cy="1107.3" r="2"/>
<path clip-path="url(#clip530)" d="M3497.14 136.185 L3505.85 136.185 L3516.88 165.583 L3527.96 136.185 L3536.67 136.185 L3536.67 179.385 L3530.97 179.385 L3530.97 141.451 L3519.83 171.08 L3513.96 171.08 L3502.82 141.451 L3502.82 179.385 L3497.14 179.385 L3497.14 136.185 Z" fill="#000000" fill-rule="nonzero" fill-opacity="1" /><path clip-path="url(#clip530)" d="M3575.76 161.85 L3575.76 164.454 L3551.28 164.454 Q3551.63 169.952 3554.58 172.845 Q3557.56 175.71 3562.86 175.71 Q3565.92 175.71 3568.79 174.958 Q3571.68 174.205 3574.52 172.701 L3574.52 177.735 Q3571.65 178.951 3568.64 179.587 Q3565.63 180.224 3562.54 180.224 Q3554.78 180.224 3550.24 175.71 Q3545.73 171.196 3545.73 163.499 Q3545.73 155.542 3550.01 150.884 Q3554.32 146.196 3561.61 146.196 Q3568.15 146.196 3571.94 150.421 Q3575.76 154.616 3575.76 161.85 M3570.44 160.288 Q3570.38 155.918 3567.98 153.314 Q3565.6 150.71 3561.67 150.71 Q3557.21 150.71 3554.52 153.227 Q3551.86 155.745 3551.46 160.316 L3570.44 160.288 Z" fill="#000000" fill-rule="nonzero" fill-opacity="1" /><path clip-path="url(#clip530)" d="M3599.23 163.094 Q3592.77 163.094 3590.29 164.57 Q3587.8 166.046 3587.8 169.605 Q3587.8 172.44 3589.65 174.118 Q3591.53 175.768 3594.74 175.768 Q3599.17 175.768 3601.83 172.643 Q3604.52 169.489 3604.52 164.281 L3604.52 163.094 L3599.23 163.094 M3609.85 160.895 L3609.85 179.385 L3604.52 179.385 L3604.52 174.466 Q3602.7 177.417 3599.98 178.835 Q3597.26 180.224 3593.32 180.224 Q3588.35 180.224 3585.4 177.446 Q3582.47 174.639 3582.47 169.952 Q3582.47 164.483 3586.12 161.705 Q3589.79 158.928 3597.06 158.928 L3604.52 158.928 L3604.52 158.407 Q3604.52 154.732 3602.09 152.735 Q3599.69 150.71 3595.32 150.71 Q3592.54 150.71 3589.91 151.376 Q3587.28 152.041 3584.85 153.372 L3584.85 148.453 Q3587.77 147.325 3590.52 146.775 Q3593.27 146.196 3595.87 146.196 Q3602.9 146.196 3606.37 149.842 Q3609.85 153.488 3609.85 160.895 Z" fill="#000000" fill-rule="nonzero" fill-opacity="1" /><path clip-path="url(#clip530)" d="M3647.75 159.825 L3647.75 179.385 L3642.43 179.385 L3642.43 159.998 Q3642.43 155.397 3640.63 153.112 Q3638.84 150.826 3635.25 150.826 Q3630.94 150.826 3628.45 153.575 Q3625.96 156.323 3625.96 161.069 L3625.96 179.385 L3620.61 179.385 L3620.61 146.977 L3625.96 146.977 L3625.96 152.012 Q3627.87 149.09 3630.45 147.643 Q3633.05 146.196 3636.44 146.196 Q3642.02 146.196 3644.89 149.668 Q3647.75 153.112 3647.75 159.825 Z" fill="#000000" fill-rule="nonzero" fill-opacity="1" /><path clip-path="url(#clip530)" d="M3677.9 152.475 L3715 152.475 L3715 157.336 L3677.9 157.336 L3677.9 152.475 M3677.9 164.281 L3715 164.281 L3715 169.2 L3677.9 169.2 L3677.9 164.281 Z" fill="#000000" fill-rule="nonzero" fill-opacity="1" /><path clip-path="url(#clip530)" d="M3751.48 174.466 L3771.88 174.466 L3771.88 179.385 L3744.45 179.385 L3744.45 174.466 Q3747.78 171.022 3753.51 165.235 Q3759.27 159.419 3760.74 157.741 Q3763.55 154.587 3764.65 152.417 Q3765.78 150.218 3765.78 148.106 Q3765.78 144.663 3763.35 142.492 Q3760.94 140.322 3757.07 140.322 Q3754.32 140.322 3751.25 141.277 Q3748.21 142.232 3744.74 144.171 L3744.74 138.268 Q3748.27 136.85 3751.34 136.127 Q3754.41 135.403 3756.95 135.403 Q3763.66 135.403 3767.66 138.76 Q3771.65 142.116 3771.65 147.73 Q3771.65 150.392 3770.64 152.793 Q3769.65 155.166 3767.02 158.407 Q3766.3 159.246 3762.42 163.268 Q3758.54 167.261 3751.48 174.466 Z" fill="#000000" fill-rule="nonzero" fill-opacity="1" /><path clip-path="url(#clip530)" d="M3784.15 172.035 L3790.26 172.035 L3790.26 179.385 L3784.15 179.385 L3784.15 172.035 Z" fill="#000000" fill-rule="nonzero" fill-opacity="1" /><path clip-path="url(#clip530)" d="M3816.21 155.455 Q3812.28 155.455 3809.96 158.146 Q3807.67 160.837 3807.67 165.525 Q3807.67 170.183 3809.96 172.903 Q3812.28 175.594 3816.21 175.594 Q3820.15 175.594 3822.43 172.903 Q3824.75 170.183 3824.75 165.525 Q3824.75 160.837 3822.43 158.146 Q3820.15 155.455 3816.21 155.455 M3827.81 137.139 L3827.81 142.464 Q3825.61 141.422 3823.36 140.872 Q3821.13 140.322 3818.93 140.322 Q3813.14 140.322 3810.08 144.229 Q3807.04 148.135 3806.6 156.034 Q3808.31 153.517 3810.89 152.186 Q3813.46 150.826 3816.56 150.826 Q3823.07 150.826 3826.83 154.79 Q3830.62 158.725 3830.62 165.525 Q3830.62 172.18 3826.69 176.202 Q3822.75 180.224 3816.21 180.224 Q3808.72 180.224 3804.75 174.495 Q3800.79 168.737 3800.79 157.828 Q3800.79 147.585 3805.65 141.509 Q3810.51 135.403 3818.7 135.403 Q3820.9 135.403 3823.13 135.837 Q3825.38 136.271 3827.81 137.139 Z" fill="#000000" fill-rule="nonzero" fill-opacity="1" /><path clip-path="url(#clip530)" d="M3840.86 178.488 L3840.86 173.164 Q3843.06 174.205 3845.32 174.755 Q3847.58 175.305 3849.75 175.305 Q3855.53 175.305 3858.57 171.427 Q3861.64 167.521 3862.07 159.593 Q3860.39 162.081 3857.82 163.412 Q3855.24 164.744 3852.12 164.744 Q3845.64 164.744 3841.85 160.837 Q3838.09 156.902 3838.09 150.102 Q3838.09 143.447 3842.02 139.425 Q3845.96 135.403 3852.5 135.403 Q3859.99 135.403 3863.92 141.161 Q3867.89 146.891 3867.89 157.828 Q3867.89 168.042 3863.03 174.147 Q3858.2 180.224 3850.01 180.224 Q3847.81 180.224 3845.55 179.79 Q3843.29 179.356 3840.86 178.488 M3852.5 160.172 Q3856.43 160.172 3858.72 157.481 Q3861.03 154.79 3861.03 150.102 Q3861.03 145.444 3858.72 142.753 Q3856.43 140.033 3852.5 140.033 Q3848.56 140.033 3846.25 142.753 Q3843.96 145.444 3843.96 150.102 Q3843.96 154.79 3846.25 157.481 Q3848.56 160.172 3852.5 160.172 Z" fill="#000000" fill-rule="nonzero" fill-opacity="1" /><path clip-path="url(#clip530)" d="M3894.45 141.277 L3879.69 164.338 L3894.45 164.338 L3894.45 141.277 M3892.92 136.185 L3900.27 136.185 L3900.27 164.338 L3906.43 164.338 L3906.43 169.2 L3900.27 169.2 L3900.27 179.385 L3894.45 179.385 L3894.45 169.2 L3874.95 169.2 L3874.95 163.557 L3892.92 136.185 Z" fill="#000000" fill-rule="nonzero" fill-opacity="1" /><path clip-path="url(#clip530)" d="M3502.99 210.703 L3502.99 244.297 L3510.05 244.297 Q3518.99 244.297 3523.13 240.246 Q3527.29 236.195 3527.29 227.456 Q3527.29 218.776 3523.13 214.754 Q3518.99 210.703 3510.05 210.703 L3502.99 210.703 M3497.14 205.9 L3509.15 205.9 Q3521.71 205.9 3527.58 211.137 Q3533.46 216.345 3533.46 227.456 Q3533.46 238.625 3527.55 243.862 Q3521.65 249.1 3509.15 249.1 L3497.14 249.1 L3497.14 205.9 Z" fill="#000000" fill-rule="nonzero" fill-opacity="1" /><path clip-path="url(#clip530)" d="M3542.54 216.692 L3547.87 216.692 L3547.87 249.1 L3542.54 249.1 L3542.54 216.692 M3542.54 204.077 L3547.87 204.077 L3547.87 210.819 L3542.54 210.819 L3542.54 204.077 Z" fill="#000000" fill-rule="nonzero" fill-opacity="1" /><path clip-path="url(#clip530)" d="M3579.67 217.647 L3579.67 222.682 Q3577.41 221.525 3574.98 220.946 Q3572.55 220.367 3569.94 220.367 Q3565.98 220.367 3563.98 221.583 Q3562.02 222.798 3562.02 225.228 Q3562.02 227.08 3563.43 228.151 Q3564.85 229.192 3569.13 230.147 L3570.96 230.552 Q3576.63 231.768 3579 233.996 Q3581.4 236.195 3581.4 240.159 Q3581.4 244.673 3577.82 247.306 Q3574.26 249.939 3568.01 249.939 Q3565.4 249.939 3562.57 249.418 Q3559.76 248.926 3556.63 247.913 L3556.63 242.416 Q3559.59 243.949 3562.45 244.731 Q3565.32 245.483 3568.12 245.483 Q3571.88 245.483 3573.91 244.21 Q3575.93 242.908 3575.93 240.564 Q3575.93 238.394 3574.46 237.236 Q3573.01 236.079 3568.06 235.008 L3566.21 234.574 Q3561.26 233.533 3559.07 231.391 Q3556.87 229.221 3556.87 225.46 Q3556.87 220.888 3560.11 218.4 Q3563.35 215.911 3569.31 215.911 Q3572.26 215.911 3574.86 216.345 Q3577.47 216.779 3579.67 217.647 Z" fill="#000000" fill-rule="nonzero" fill-opacity="1" /><path clip-path="url(#clip530)" d="M3595.15 207.491 L3595.15 216.692 L3606.11 216.692 L3606.11 220.83 L3595.15 220.83 L3595.15 238.423 Q3595.15 242.387 3596.22 243.515 Q3597.32 244.644 3600.64 244.644 L3606.11 244.644 L3606.11 249.1 L3600.64 249.1 Q3594.48 249.1 3592.14 246.814 Q3589.79 244.499 3589.79 238.423 L3589.79 220.83 L3585.89 220.83 L3585.89 216.692 L3589.79 216.692 L3589.79 207.491 L3595.15 207.491 Z" fill="#000000" fill-rule="nonzero" fill-opacity="1" /><path clip-path="url(#clip530)" d="M3632.65 222.19 L3669.74 222.19 L3669.74 227.051 L3632.65 227.051 L3632.65 222.19 M3632.65 233.996 L3669.74 233.996 L3669.74 238.915 L3632.65 238.915 L3632.65 233.996 Z" fill="#000000" fill-rule="nonzero" fill-opacity="1" /><path clip-path="url(#clip530)" d="M3713.69 209.748 Q3709.18 209.748 3706.89 214.204 Q3704.64 218.631 3704.64 227.543 Q3704.64 236.426 3706.89 240.882 Q3709.18 245.309 3713.69 245.309 Q3718.24 245.309 3720.49 240.882 Q3722.78 236.426 3722.78 227.543 Q3722.78 218.631 3720.49 214.204 Q3718.24 209.748 3713.69 209.748 M3713.69 205.118 Q3720.96 205.118 3724.78 210.877 Q3728.62 216.606 3728.62 227.543 Q3728.62 238.452 3724.78 244.21 Q3720.96 249.939 3713.69 249.939 Q3706.43 249.939 3702.58 244.21 Q3698.76 238.452 3698.76 227.543 Q3698.76 216.606 3702.58 210.877 Q3706.43 205.118 3713.69 205.118 Z" fill="#000000" fill-rule="nonzero" fill-opacity="1" /><path clip-path="url(#clip530)" d="M3738.9 241.75 L3745 241.75 L3745 249.1 L3738.9 249.1 L3738.9 241.75 Z" fill="#000000" fill-rule="nonzero" fill-opacity="1" /><path clip-path="url(#clip530)" d="M3770.23 209.748 Q3765.72 209.748 3763.43 214.204 Q3761.18 218.631 3761.18 227.543 Q3761.18 236.426 3763.43 240.882 Q3765.72 245.309 3770.23 245.309 Q3774.78 245.309 3777.03 240.882 Q3779.32 236.426 3779.32 227.543 Q3779.32 218.631 3777.03 214.204 Q3774.78 209.748 3770.23 209.748 M3770.23 205.118 Q3777.5 205.118 3781.32 210.877 Q3785.16 216.606 3785.16 227.543 Q3785.16 238.452 3781.32 244.21 Q3777.5 249.939 3770.23 249.939 Q3762.97 249.939 3759.12 244.21 Q3755.3 238.452 3755.3 227.543 Q3755.3 216.606 3759.12 210.877 Q3762.97 205.118 3770.23 205.118 Z" fill="#000000" fill-rule="nonzero" fill-opacity="1" /><path clip-path="url(#clip530)" d="M3813.14 225.807 Q3817.34 226.704 3819.68 229.54 Q3822.06 232.375 3822.06 236.542 Q3822.06 242.937 3817.66 246.438 Q3813.26 249.939 3805.16 249.939 Q3802.44 249.939 3799.54 249.389 Q3796.68 248.868 3793.61 247.798 L3793.61 242.155 Q3796.04 243.573 3798.94 244.297 Q3801.83 245.02 3804.98 245.02 Q3810.48 245.02 3813.35 242.85 Q3816.24 240.68 3816.24 236.542 Q3816.24 232.723 3813.55 230.581 Q3810.89 228.411 3806.11 228.411 L3801.08 228.411 L3801.08 223.608 L3806.34 223.608 Q3810.66 223.608 3812.94 221.901 Q3815.23 220.165 3815.23 216.924 Q3815.23 213.596 3812.85 211.831 Q3810.51 210.037 3806.11 210.037 Q3803.71 210.037 3800.96 210.558 Q3798.21 211.079 3794.91 212.179 L3794.91 206.97 Q3798.24 206.044 3801.14 205.581 Q3804.06 205.118 3806.63 205.118 Q3813.29 205.118 3817.17 208.157 Q3821.04 211.166 3821.04 216.316 Q3821.04 219.904 3818.99 222.393 Q3816.93 224.852 3813.14 225.807 Z" fill="#000000" fill-rule="nonzero" fill-opacity="1" /><path clip-path="url(#clip530)" d="M3845.64 228.585 Q3841.47 228.585 3839.07 230.813 Q3836.7 233.041 3836.7 236.947 Q3836.7 240.853 3839.07 243.081 Q3841.47 245.309 3845.64 245.309 Q3849.8 245.309 3852.21 243.081 Q3854.61 240.824 3854.61 236.947 Q3854.61 233.041 3852.21 230.813 Q3849.83 228.585 3845.64 228.585 M3839.79 226.096 Q3836.03 225.17 3833.92 222.595 Q3831.84 220.02 3831.84 216.316 Q3831.84 211.137 3835.51 208.128 Q3839.21 205.118 3845.64 205.118 Q3852.09 205.118 3855.76 208.128 Q3859.44 211.137 3859.44 216.316 Q3859.44 220.02 3857.33 222.595 Q3855.24 225.17 3851.51 226.096 Q3855.74 227.08 3858.08 229.945 Q3860.45 232.809 3860.45 236.947 Q3860.45 243.226 3856.6 246.582 Q3852.78 249.939 3845.64 249.939 Q3838.49 249.939 3834.64 246.582 Q3830.82 243.226 3830.82 236.947 Q3830.82 232.809 3833.2 229.945 Q3835.57 227.08 3839.79 226.096 M3837.65 216.866 Q3837.65 220.223 3839.73 222.103 Q3841.85 223.984 3845.64 223.984 Q3849.4 223.984 3851.51 222.103 Q3853.65 220.223 3853.65 216.866 Q3853.65 213.51 3851.51 211.629 Q3849.4 209.748 3845.64 209.748 Q3841.85 209.748 3839.73 211.629 Q3837.65 213.51 3837.65 216.866 Z" fill="#000000" fill-rule="nonzero" fill-opacity="1" /><path clip-path="url(#clip530)" d="M3870.9 205.9 L3893.84 205.9 L3893.84 210.819 L3876.25 210.819 L3876.25 221.409 Q3877.52 220.975 3878.8 220.772 Q3880.07 220.541 3881.34 220.541 Q3888.58 220.541 3892.8 224.505 Q3897.03 228.469 3897.03 235.24 Q3897.03 242.213 3892.69 246.09 Q3888.35 249.939 3880.45 249.939 Q3877.73 249.939 3874.89 249.476 Q3872.08 249.013 3869.08 248.087 L3869.08 242.213 Q3871.68 243.631 3874.46 244.325 Q3877.23 245.02 3880.33 245.02 Q3885.34 245.02 3888.26 242.387 Q3891.18 239.754 3891.18 235.24 Q3891.18 230.726 3888.26 228.093 Q3885.34 225.46 3880.33 225.46 Q3877.99 225.46 3875.64 225.981 Q3873.33 226.501 3870.9 227.601 L3870.9 205.9 Z" fill="#000000" fill-rule="nonzero" fill-opacity="1" /><path clip-path="url(#clip530)" d="M3926.25 225.807 Q3930.45 226.704 3932.79 229.54 Q3935.16 232.375 3935.16 236.542 Q3935.16 242.937 3930.76 246.438 Q3926.37 249.939 3918.26 249.939 Q3915.54 249.939 3912.65 249.389 Q3909.79 248.868 3906.72 247.798 L3906.72 242.155 Q3909.15 243.573 3912.04 244.297 Q3914.94 245.02 3918.09 245.02 Q3923.59 245.02 3926.45 242.85 Q3929.35 240.68 3929.35 236.542 Q3929.35 232.723 3926.66 230.581 Q3923.99 228.411 3919.22 228.411 L3914.18 228.411 L3914.18 223.608 L3919.45 223.608 Q3923.76 223.608 3926.05 221.901 Q3928.33 220.165 3928.33 216.924 Q3928.33 213.596 3925.96 211.831 Q3923.62 210.037 3919.22 210.037 Q3916.82 210.037 3914.07 210.558 Q3911.32 211.079 3908.02 212.179 L3908.02 206.97 Q3911.35 206.044 3914.24 205.581 Q3917.17 205.118 3919.74 205.118 Q3926.4 205.118 3930.27 208.157 Q3934.15 211.166 3934.15 216.316 Q3934.15 219.904 3932.1 222.393 Q3930.04 224.852 3926.25 225.807 Z" fill="#000000" fill-rule="nonzero" fill-opacity="1" /></svg>
