<?xml version="1.0" encoding="utf-8"?>
<svg xmlns="http://www.w3.org/2000/svg" xmlns:xlink="http://www.w3.org/1999/xlink" width="1200" height="350" viewBox="0 0 4800 1400">
<defs>
  <clipPath id="clip660">
    <rect x="0" y="0" width="4800" height="1400"/>
  </clipPath>
</defs>
<path clip-path="url(#clip660)" d="M0 1400 L4800 1400 L4800 0 L0 0  Z" fill="#ffffff" fill-rule="evenodd" fill-opacity="1"/>
<defs>
  <clipPath id="clip661">
    <rect x="960" y="0" width="3361" height="1400"/>
  </clipPath>
</defs>
<path clip-path="url(#clip660)" d="M224.064 1273.23 L1552.76 1273.23 L1552.76 88.0695 L224.064 88.0695  Z" fill="#ffffff" fill-rule="evenodd" fill-opacity="1"/>
<defs>
  <clipPath id="clip662">
    <rect x="224" y="88" width="1330" height="1186"/>
  </clipPath>
</defs>
<polyline clip-path="url(#clip662)" style="stroke:#000000; stroke-linecap:round; stroke-linejoin:round; stroke-width:2; stroke-opacity:0.1; fill:none" points="415.397,1273.23 415.397,88.0695 "/>
<polyline clip-path="url(#clip662)" style="stroke:#000000; stroke-linecap:round; stroke-linejoin:round; stroke-width:2; stroke-opacity:0.1; fill:none" points="651.904,1273.23 651.904,88.0695 "/>
<polyline clip-path="url(#clip662)" style="stroke:#000000; stroke-linecap:round; stroke-linejoin:round; stroke-width:2; stroke-opacity:0.1; fill:none" points="888.41,1273.23 888.41,88.0695 "/>
<polyline clip-path="url(#clip662)" style="stroke:#000000; stroke-linecap:round; stroke-linejoin:round; stroke-width:2; stroke-opacity:0.1; fill:none" points="1124.92,1273.23 1124.92,88.0695 "/>
<polyline clip-path="url(#clip662)" style="stroke:#000000; stroke-linecap:round; stroke-linejoin:round; stroke-width:2; stroke-opacity:0.1; fill:none" points="1361.42,1273.23 1361.42,88.0695 "/>
<polyline clip-path="url(#clip660)" style="stroke:#000000; stroke-linecap:round; stroke-linejoin:round; stroke-width:4; stroke-opacity:1; fill:none" points="224.064,1273.23 1552.76,1273.23 "/>
<polyline clip-path="url(#clip660)" style="stroke:#000000; stroke-linecap:round; stroke-linejoin:round; stroke-width:4; stroke-opacity:1; fill:none" points="415.397,1273.23 415.397,1254.33 "/>
<polyline clip-path="url(#clip660)" style="stroke:#000000; stroke-linecap:round; stroke-linejoin:round; stroke-width:4; stroke-opacity:1; fill:none" points="651.904,1273.23 651.904,1254.33 "/>
<polyline clip-path="url(#clip660)" style="stroke:#000000; stroke-linecap:round; stroke-linejoin:round; stroke-width:4; stroke-opacity:1; fill:none" points="888.41,1273.23 888.41,1254.33 "/>
<polyline clip-path="url(#clip660)" style="stroke:#000000; stroke-linecap:round; stroke-linejoin:round; stroke-width:4; stroke-opacity:1; fill:none" points="1124.92,1273.23 1124.92,1254.33 "/>
<polyline clip-path="url(#clip660)" style="stroke:#000000; stroke-linecap:round; stroke-linejoin:round; stroke-width:4; stroke-opacity:1; fill:none" points="1361.42,1273.23 1361.42,1254.33 "/>
<g clip-path="url(#clip660)">
<text style="fill:#000000; fill-opacity:1; font-family:Century Gothic,CenturyGothic,AppleGothic,sans-serif; font-size:47px; text-anchor:middle;" transform="rotate(0, 415.397, 1353.69)" x="415.397" y="1353.69">0</text>
</g>
<g clip-path="url(#clip660)">
<text style="fill:#000000; fill-opacity:1; font-family:Century Gothic,CenturyGothic,AppleGothic,sans-serif; font-size:47px; text-anchor:middle;" transform="rotate(0, 651.904, 1353.69)" x="651.904" y="1353.69">1</text>
</g>
<g clip-path="url(#clip660)">
<text style="fill:#000000; fill-opacity:1; font-family:Century Gothic,CenturyGothic,AppleGothic,sans-serif; font-size:47px; text-anchor:middle;" transform="rotate(0, 888.41, 1353.69)" x="888.41" y="1353.69">2</text>
</g>
<g clip-path="url(#clip660)">
<text style="fill:#000000; fill-opacity:1; font-family:Century Gothic,CenturyGothic,AppleGothic,sans-serif; font-size:47px; text-anchor:middle;" transform="rotate(0, 1124.92, 1353.69)" x="1124.92" y="1353.69">3</text>
</g>
<g clip-path="url(#clip660)">
<text style="fill:#000000; fill-opacity:1; font-family:Century Gothic,CenturyGothic,AppleGothic,sans-serif; font-size:47px; text-anchor:middle;" transform="rotate(0, 1361.42, 1353.69)" x="1361.42" y="1353.69">4</text>
</g>
<g clip-path="url(#clip660)">
<text style="fill:#000000; fill-opacity:1; font-family:Century Gothic,CenturyGothic,AppleGothic,sans-serif; font-size:65px; text-anchor:middle;" transform="rotate(0, 888.41, 1452.31)" x="888.41" y="1452.31">中心推定の正解数</text>
</g>
<polyline clip-path="url(#clip662)" style="stroke:#000000; stroke-linecap:round; stroke-linejoin:round; stroke-width:2; stroke-opacity:0.1; fill:none" points="224.064,1273.23 1552.76,1273.23 "/>
<polyline clip-path="url(#clip662)" style="stroke:#000000; stroke-linecap:round; stroke-linejoin:round; stroke-width:2; stroke-opacity:0.1; fill:none" points="224.064,994.366 1552.76,994.366 "/>
<polyline clip-path="url(#clip662)" style="stroke:#000000; stroke-linecap:round; stroke-linejoin:round; stroke-width:2; stroke-opacity:0.1; fill:none" points="224.064,715.505 1552.76,715.505 "/>
<polyline clip-path="url(#clip662)" style="stroke:#000000; stroke-linecap:round; stroke-linejoin:round; stroke-width:2; stroke-opacity:0.1; fill:none" points="224.064,436.645 1552.76,436.645 "/>
<polyline clip-path="url(#clip662)" style="stroke:#000000; stroke-linecap:round; stroke-linejoin:round; stroke-width:2; stroke-opacity:0.1; fill:none" points="224.064,157.785 1552.76,157.785 "/>
<polyline clip-path="url(#clip660)" style="stroke:#000000; stroke-linecap:round; stroke-linejoin:round; stroke-width:4; stroke-opacity:1; fill:none" points="224.064,1273.23 224.064,88.0695 "/>
<polyline clip-path="url(#clip660)" style="stroke:#000000; stroke-linecap:round; stroke-linejoin:round; stroke-width:4; stroke-opacity:1; fill:none" points="224.064,1273.23 242.961,1273.23 "/>
<polyline clip-path="url(#clip660)" style="stroke:#000000; stroke-linecap:round; stroke-linejoin:round; stroke-width:4; stroke-opacity:1; fill:none" points="224.064,994.366 242.961,994.366 "/>
<polyline clip-path="url(#clip660)" style="stroke:#000000; stroke-linecap:round; stroke-linejoin:round; stroke-width:4; stroke-opacity:1; fill:none" points="224.064,715.505 242.961,715.505 "/>
<polyline clip-path="url(#clip660)" style="stroke:#000000; stroke-linecap:round; stroke-linejoin:round; stroke-width:4; stroke-opacity:1; fill:none" points="224.064,436.645 242.961,436.645 "/>
<polyline clip-path="url(#clip660)" style="stroke:#000000; stroke-linecap:round; stroke-linejoin:round; stroke-width:4; stroke-opacity:1; fill:none" points="224.064,157.785 242.961,157.785 "/>
<g clip-path="url(#clip660)">
<text style="fill:#000000; fill-opacity:1; font-family:Century Gothic,CenturyGothic,AppleGothic,sans-serif; font-size:47px; text-anchor:middle;" transform="rotate(0, 139.127, 1290.73)" x="139.127" y="1290.73">0</text>
</g>
<g clip-path="url(#clip660)">
<text style="fill:#000000; fill-opacity:1; font-family:Century Gothic,CenturyGothic,AppleGothic,sans-serif; font-size:47px; text-anchor:middle;" transform="rotate(0, 113.254, 1011.87)" x="113.254" y="1011.87">200</text>
</g>
<g clip-path="url(#clip660)">
<text style="fill:#000000; fill-opacity:1; font-family:Century Gothic,CenturyGothic,AppleGothic,sans-serif; font-size:47px; text-anchor:middle;" transform="rotate(0, 113.254, 733.005)" x="113.254" y="733.005">400</text>
</g>
<g clip-path="url(#clip660)">
<text style="fill:#000000; fill-opacity:1; font-family:Century Gothic,CenturyGothic,AppleGothic,sans-serif; font-size:47px; text-anchor:middle;" transform="rotate(0, 113.254, 454.145)" x="113.254" y="454.145">600</text>
</g>
<g clip-path="url(#clip660)">
<text style="fill:#000000; fill-opacity:1; font-family:Century Gothic,CenturyGothic,AppleGothic,sans-serif; font-size:47px; text-anchor:middle;" transform="rotate(0, 113.254, 175.285)" x="113.254" y="175.285">800</text>
</g>
<g clip-path="url(#clip660)">
<text style="fill:#000000; fill-opacity:1; font-family:Century Gothic,CenturyGothic,AppleGothic,sans-serif; font-size:65px; text-anchor:middle;" transform="rotate(-90, -7.51163, 680.648)" x="-7.51163" y="680.648">度数</text>
</g>
<g clip-path="url(#clip660)">
<text style="fill:#000000; fill-opacity:1; font-family:Century Gothic,CenturyGothic,AppleGothic,sans-serif; font-size:81px; text-anchor:middle;" transform="rotate(0, 888.41, 72)" x="888.41" y="72">Setting : C, Method : EV</text>
</g>
<path clip-path="url(#clip662)" d="M297.144 1273.23 L297.144 1273.23 L533.65 1273.23 L533.65 1273.23 L297.144 1273.23 L297.144 1273.23  Z" fill="#009af9" fill-rule="evenodd" fill-opacity="1"/>
<polyline clip-path="url(#clip662)" style="stroke:#000000; stroke-linecap:round; stroke-linejoin:round; stroke-width:4; stroke-opacity:1; fill:none" points="297.144,1273.23 297.144,1273.23 533.65,1273.23 297.144,1273.23 "/>
<path clip-path="url(#clip662)" d="M533.65 1236.97 L533.65 1273.23 L770.157 1273.23 L770.157 1236.97 L533.65 1236.97 L533.65 1236.97  Z" fill="#009af9" fill-rule="evenodd" fill-opacity="1"/>
<polyline clip-path="url(#clip662)" style="stroke:#000000; stroke-linecap:round; stroke-linejoin:round; stroke-width:4; stroke-opacity:1; fill:none" points="533.65,1236.97 533.65,1273.23 770.157,1273.23 770.157,1236.97 533.65,1236.97 "/>
<path clip-path="url(#clip662)" d="M770.157 909.313 L770.157 1273.23 L1006.66 1273.23 L1006.66 909.313 L770.157 909.313 L770.157 909.313  Z" fill="#009af9" fill-rule="evenodd" fill-opacity="1"/>
<polyline clip-path="url(#clip662)" style="stroke:#000000; stroke-linecap:round; stroke-linejoin:round; stroke-width:4; stroke-opacity:1; fill:none" points="770.157,909.313 770.157,1273.23 1006.66,1273.23 1006.66,909.313 770.157,909.313 "/>
<path clip-path="url(#clip662)" d="M1006.66 709.928 L1006.66 1273.23 L1243.17 1273.23 L1243.17 709.928 L1006.66 709.928 L1006.66 709.928  Z" fill="#009af9" fill-rule="evenodd" fill-opacity="1"/>
<polyline clip-path="url(#clip662)" style="stroke:#000000; stroke-linecap:round; stroke-linejoin:round; stroke-width:4; stroke-opacity:1; fill:none" points="1006.66,709.928 1006.66,1273.23 1243.17,1273.23 1243.17,709.928 1006.66,709.928 "/>
<path clip-path="url(#clip662)" d="M1243.17 842.387 L1243.17 1273.23 L1479.68 1273.23 L1479.68 842.387 L1243.17 842.387 L1243.17 842.387  Z" fill="#009af9" fill-rule="evenodd" fill-opacity="1"/>
<polyline clip-path="url(#clip662)" style="stroke:#000000; stroke-linecap:round; stroke-linejoin:round; stroke-width:4; stroke-opacity:1; fill:none" points="1243.17,842.387 1243.17,1273.23 1479.68,1273.23 1479.68,842.387 1243.17,842.387 "/>
<circle clip-path="url(#clip662)" style="fill:#009af9; stroke:none; fill-opacity:0" cx="415.397" cy="1273.23" r="2"/>
<circle clip-path="url(#clip662)" style="fill:#009af9; stroke:none; fill-opacity:0" cx="651.904" cy="1236.97" r="2"/>
<circle clip-path="url(#clip662)" style="fill:#009af9; stroke:none; fill-opacity:0" cx="888.41" cy="909.313" r="2"/>
<circle clip-path="url(#clip662)" style="fill:#009af9; stroke:none; fill-opacity:0" cx="1124.92" cy="709.928" r="2"/>
<circle clip-path="url(#clip662)" style="fill:#009af9; stroke:none; fill-opacity:0" cx="1361.42" cy="842.387" r="2"/>
<path clip-path="url(#clip660)" d="M297.144 136.185 L305.854 136.185 L316.878 165.583 L327.96 136.185 L336.669 136.185 L336.669 179.385 L330.969 179.385 L330.969 141.451 L319.829 171.08 L313.955 171.08 L302.815 141.451 L302.815 179.385 L297.144 179.385 L297.144 136.185 Z" fill="#000000" fill-rule="nonzero" fill-opacity="1" /><path clip-path="url(#clip660)" d="M375.761 161.85 L375.761 164.454 L351.282 164.454 Q351.629 169.952 354.58 172.845 Q357.561 175.71 362.856 175.71 Q365.923 175.71 368.787 174.958 Q371.681 174.205 374.516 172.701 L374.516 177.735 Q371.652 178.951 368.643 179.587 Q365.633 180.224 362.537 180.224 Q354.783 180.224 350.24 175.71 Q345.726 171.196 345.726 163.499 Q345.726 155.542 350.008 150.884 Q354.32 146.196 361.611 146.196 Q368.151 146.196 371.941 150.421 Q375.761 154.616 375.761 161.85 M370.437 160.288 Q370.379 155.918 367.977 153.314 Q365.604 150.71 361.669 150.71 Q357.213 150.71 354.522 153.227 Q351.86 155.745 351.455 160.316 L370.437 160.288 Z" fill="#000000" fill-rule="nonzero" fill-opacity="1" /><path clip-path="url(#clip660)" d="M399.227 163.094 Q392.774 163.094 390.286 164.57 Q387.798 166.046 387.798 169.605 Q387.798 172.44 389.649 174.118 Q391.53 175.768 394.742 175.768 Q399.169 175.768 401.831 172.643 Q404.522 169.489 404.522 164.281 L404.522 163.094 L399.227 163.094 M409.846 160.895 L409.846 179.385 L404.522 179.385 L404.522 174.466 Q402.699 177.417 399.979 178.835 Q397.259 180.224 393.324 180.224 Q388.347 180.224 385.396 177.446 Q382.474 174.639 382.474 169.952 Q382.474 164.483 386.119 161.705 Q389.794 158.928 397.057 158.928 L404.522 158.928 L404.522 158.407 Q404.522 154.732 402.092 152.735 Q399.69 150.71 395.321 150.71 Q392.543 150.71 389.91 151.376 Q387.277 152.041 384.846 153.372 L384.846 148.453 Q387.769 147.325 390.518 146.775 Q393.266 146.196 395.87 146.196 Q402.902 146.196 406.374 149.842 Q409.846 153.488 409.846 160.895 Z" fill="#000000" fill-rule="nonzero" fill-opacity="1" /><path clip-path="url(#clip660)" d="M447.751 159.825 L447.751 179.385 L442.427 179.385 L442.427 159.998 Q442.427 155.397 440.633 153.112 Q438.839 150.826 435.251 150.826 Q430.94 150.826 428.451 153.575 Q425.963 156.323 425.963 161.069 L425.963 179.385 L420.61 179.385 L420.61 146.977 L425.963 146.977 L425.963 152.012 Q427.873 149.09 430.448 147.643 Q433.052 146.196 436.437 146.196 Q442.022 146.196 444.886 149.668 Q447.751 153.112 447.751 159.825 Z" fill="#000000" fill-rule="nonzero" fill-opacity="1" /><path clip-path="url(#clip660)" d="M477.901 152.475 L514.996 152.475 L514.996 157.336 L477.901 157.336 L477.901 152.475 M477.901 164.281 L514.996 164.281 L514.996 169.2 L477.901 169.2 L477.901 164.281 Z" fill="#000000" fill-rule="nonzero" fill-opacity="1" /><path clip-path="url(#clip660)" d="M551.483 174.466 L571.882 174.466 L571.882 179.385 L544.452 179.385 L544.452 174.466 Q547.779 171.022 553.509 165.235 Q559.267 159.419 560.742 157.741 Q563.549 154.587 564.649 152.417 Q565.777 150.218 565.777 148.106 Q565.777 144.663 563.346 142.492 Q560.945 140.322 557.068 140.322 Q554.319 140.322 551.252 141.277 Q548.213 142.232 544.741 144.171 L544.741 138.268 Q548.271 136.85 551.338 136.127 Q554.406 135.403 556.952 135.403 Q563.665 135.403 567.658 138.76 Q571.651 142.116 571.651 147.73 Q571.651 150.392 570.638 152.793 Q569.654 155.166 567.021 158.407 Q566.298 159.246 562.421 163.268 Q558.543 167.261 551.483 174.466 Z" fill="#000000" fill-rule="nonzero" fill-opacity="1" /><path clip-path="url(#clip660)" d="M584.151 172.035 L590.256 172.035 L590.256 179.385 L584.151 179.385 L584.151 172.035 Z" fill="#000000" fill-rule="nonzero" fill-opacity="1" /><path clip-path="url(#clip660)" d="M603.161 178.488 L603.161 173.164 Q605.36 174.205 607.617 174.755 Q609.874 175.305 612.044 175.305 Q617.831 175.305 620.869 171.427 Q623.936 167.521 624.37 159.593 Q622.692 162.081 620.117 163.412 Q617.542 164.744 614.417 164.744 Q607.935 164.744 604.145 160.837 Q600.383 156.902 600.383 150.102 Q600.383 143.447 604.318 139.425 Q608.254 135.403 614.793 135.403 Q622.287 135.403 626.222 141.161 Q630.186 146.891 630.186 157.828 Q630.186 168.042 625.325 174.147 Q620.493 180.224 612.305 180.224 Q610.105 180.224 607.849 179.79 Q605.592 179.356 603.161 178.488 M614.793 160.172 Q618.728 160.172 621.014 157.481 Q623.329 154.79 623.329 150.102 Q623.329 145.444 621.014 142.753 Q618.728 140.033 614.793 140.033 Q610.858 140.033 608.543 142.753 Q606.257 145.444 606.257 150.102 Q606.257 154.79 608.543 157.481 Q610.858 160.172 614.793 160.172 Z" fill="#000000" fill-rule="nonzero" fill-opacity="1" /><path clip-path="url(#clip660)" d="M640.863 178.488 L640.863 173.164 Q643.062 174.205 645.319 174.755 Q647.576 175.305 649.746 175.305 Q655.533 175.305 658.572 171.427 Q661.639 167.521 662.073 159.593 Q660.395 162.081 657.819 163.412 Q655.244 164.744 652.119 164.744 Q645.638 164.744 641.847 160.837 Q638.086 156.902 638.086 150.102 Q638.086 143.447 642.021 139.425 Q645.956 135.403 652.495 135.403 Q659.989 135.403 663.925 141.161 Q667.889 146.891 667.889 157.828 Q667.889 168.042 663.028 174.147 Q658.195 180.224 650.007 180.224 Q647.808 180.224 645.551 179.79 Q643.294 179.356 640.863 178.488 M652.495 160.172 Q656.43 160.172 658.716 157.481 Q661.031 154.79 661.031 150.102 Q661.031 145.444 658.716 142.753 Q656.43 140.033 652.495 140.033 Q648.56 140.033 646.245 142.753 Q643.959 145.444 643.959 150.102 Q643.959 154.79 646.245 157.481 Q648.56 160.172 652.495 160.172 Z" fill="#000000" fill-rule="nonzero" fill-opacity="1" /><path clip-path="url(#clip660)" d="M691.615 155.455 Q687.68 155.455 685.365 158.146 Q683.08 160.837 683.08 165.525 Q683.08 170.183 685.365 172.903 Q687.68 175.594 691.615 175.594 Q695.551 175.594 697.836 172.903 Q700.151 170.183 700.151 165.525 Q700.151 160.837 697.836 158.146 Q695.551 155.455 691.615 155.455 M703.218 137.139 L703.218 142.464 Q701.019 141.422 698.762 140.872 Q696.534 140.322 694.335 140.322 Q688.548 140.322 685.481 144.229 Q682.443 148.135 682.009 156.034 Q683.716 153.517 686.291 152.186 Q688.867 150.826 691.963 150.826 Q698.473 150.826 702.235 154.79 Q706.025 158.725 706.025 165.525 Q706.025 172.18 702.09 176.202 Q698.155 180.224 691.615 180.224 Q684.121 180.224 680.157 174.495 Q676.193 168.737 676.193 157.828 Q676.193 147.585 681.054 141.509 Q685.915 135.403 694.104 135.403 Q696.303 135.403 698.531 135.837 Q700.788 136.271 703.218 137.139 Z" fill="#000000" fill-rule="nonzero" fill-opacity="1" /><path clip-path="url(#clip660)" d="M302.989 210.703 L302.989 244.297 L310.049 244.297 Q318.99 244.297 323.128 240.246 Q327.294 236.195 327.294 227.456 Q327.294 218.776 323.128 214.754 Q318.99 210.703 310.049 210.703 L302.989 210.703 M297.144 205.9 L309.152 205.9 Q321.71 205.9 327.584 211.137 Q333.458 216.345 333.458 227.456 Q333.458 238.625 327.555 243.862 Q321.652 249.1 309.152 249.1 L297.144 249.1 L297.144 205.9 Z" fill="#000000" fill-rule="nonzero" fill-opacity="1" /><path clip-path="url(#clip660)" d="M342.543 216.692 L347.867 216.692 L347.867 249.1 L342.543 249.1 L342.543 216.692 M342.543 204.077 L347.867 204.077 L347.867 210.819 L342.543 210.819 L342.543 204.077 Z" fill="#000000" fill-rule="nonzero" fill-opacity="1" /><path clip-path="url(#clip660)" d="M379.667 217.647 L379.667 222.682 Q377.41 221.525 374.979 220.946 Q372.549 220.367 369.945 220.367 Q365.981 220.367 363.984 221.583 Q362.016 222.798 362.016 225.228 Q362.016 227.08 363.434 228.151 Q364.852 229.192 369.135 230.147 L370.957 230.552 Q376.629 231.768 379.001 233.996 Q381.403 236.195 381.403 240.159 Q381.403 244.673 377.815 247.306 Q374.256 249.939 368.006 249.939 Q365.402 249.939 362.566 249.418 Q359.76 248.926 356.635 247.913 L356.635 242.416 Q359.586 243.949 362.451 244.731 Q365.315 245.483 368.122 245.483 Q371.883 245.483 373.909 244.21 Q375.934 242.908 375.934 240.564 Q375.934 238.394 374.459 237.236 Q373.012 236.079 368.064 235.008 L366.212 234.574 Q361.264 233.533 359.065 231.391 Q356.866 229.221 356.866 225.46 Q356.866 220.888 360.107 218.4 Q363.348 215.911 369.308 215.911 Q372.259 215.911 374.864 216.345 Q377.468 216.779 379.667 217.647 Z" fill="#000000" fill-rule="nonzero" fill-opacity="1" /><path clip-path="url(#clip660)" d="M395.147 207.491 L395.147 216.692 L406.113 216.692 L406.113 220.83 L395.147 220.83 L395.147 238.423 Q395.147 242.387 396.218 243.515 Q397.317 244.644 400.645 244.644 L406.113 244.644 L406.113 249.1 L400.645 249.1 Q394.482 249.1 392.138 246.814 Q389.794 244.499 389.794 238.423 L389.794 220.83 L385.888 220.83 L385.888 216.692 L389.794 216.692 L389.794 207.491 L395.147 207.491 Z" fill="#000000" fill-rule="nonzero" fill-opacity="1" /><path clip-path="url(#clip660)" d="M432.647 222.19 L469.742 222.19 L469.742 227.051 L432.647 227.051 L432.647 222.19 M432.647 233.996 L469.742 233.996 L469.742 238.915 L432.647 238.915 L432.647 233.996 Z" fill="#000000" fill-rule="nonzero" fill-opacity="1" /><path clip-path="url(#clip660)" d="M513.694 209.748 Q509.18 209.748 506.894 214.204 Q504.637 218.631 504.637 227.543 Q504.637 236.426 506.894 240.882 Q509.18 245.309 513.694 245.309 Q518.237 245.309 520.494 240.882 Q522.78 236.426 522.78 227.543 Q522.78 218.631 520.494 214.204 Q518.237 209.748 513.694 209.748 M513.694 205.118 Q520.957 205.118 524.776 210.877 Q528.624 216.606 528.624 227.543 Q528.624 238.452 524.776 244.21 Q520.957 249.939 513.694 249.939 Q506.431 249.939 502.583 244.21 Q498.763 238.452 498.763 227.543 Q498.763 216.606 502.583 210.877 Q506.431 205.118 513.694 205.118 Z" fill="#000000" fill-rule="nonzero" fill-opacity="1" /><path clip-path="url(#clip660)" d="M538.896 241.75 L545.002 241.75 L545.002 249.1 L538.896 249.1 L538.896 241.75 Z" fill="#000000" fill-rule="nonzero" fill-opacity="1" /><path clip-path="url(#clip660)" d="M570.233 209.748 Q565.719 209.748 563.433 214.204 Q561.176 218.631 561.176 227.543 Q561.176 236.426 563.433 240.882 Q565.719 245.309 570.233 245.309 Q574.776 245.309 577.033 240.882 Q579.319 236.426 579.319 227.543 Q579.319 218.631 577.033 214.204 Q574.776 209.748 570.233 209.748 M570.233 205.118 Q577.496 205.118 581.315 210.877 Q585.163 216.606 585.163 227.543 Q585.163 238.452 581.315 244.21 Q577.496 249.939 570.233 249.939 Q562.97 249.939 559.122 244.21 Q555.302 238.452 555.302 227.543 Q555.302 216.606 559.122 210.877 Q562.97 205.118 570.233 205.118 Z" fill="#000000" fill-rule="nonzero" fill-opacity="1" /><path clip-path="url(#clip660)" d="M613.144 225.807 Q617.339 226.704 619.683 229.54 Q622.056 232.375 622.056 236.542 Q622.056 242.937 617.657 246.438 Q613.259 249.939 605.158 249.939 Q602.438 249.939 599.544 249.389 Q596.68 248.868 593.612 247.798 L593.612 242.155 Q596.043 243.573 598.937 244.297 Q601.83 245.02 604.984 245.02 Q610.482 245.02 613.346 242.85 Q616.24 240.68 616.24 236.542 Q616.24 232.723 613.549 230.581 Q610.887 228.411 606.112 228.411 L601.078 228.411 L601.078 223.608 L606.344 223.608 Q610.655 223.608 612.941 221.901 Q615.227 220.165 615.227 216.924 Q615.227 213.596 612.854 211.831 Q610.511 210.037 606.112 210.037 Q603.711 210.037 600.962 210.558 Q598.213 211.079 594.915 212.179 L594.915 206.97 Q598.242 206.044 601.136 205.581 Q604.058 205.118 606.633 205.118 Q613.288 205.118 617.166 208.157 Q621.043 211.166 621.043 216.316 Q621.043 219.904 618.989 222.393 Q616.934 224.852 613.144 225.807 Z" fill="#000000" fill-rule="nonzero" fill-opacity="1" /><path clip-path="url(#clip660)" d="M638.172 244.181 L658.572 244.181 L658.572 249.1 L631.141 249.1 L631.141 244.181 Q634.469 240.738 640.198 234.951 Q645.956 229.135 647.432 227.456 Q650.238 224.302 651.338 222.132 Q652.466 219.933 652.466 217.821 Q652.466 214.378 650.036 212.208 Q647.634 210.037 643.757 210.037 Q641.008 210.037 637.941 210.992 Q634.903 211.947 631.431 213.886 L631.431 207.983 Q634.961 206.565 638.028 205.842 Q641.095 205.118 643.641 205.118 Q650.354 205.118 654.347 208.475 Q658.34 211.831 658.34 217.445 Q658.34 220.107 657.327 222.508 Q656.344 224.881 653.711 228.122 Q652.987 228.961 649.11 232.983 Q645.233 236.976 638.172 244.181 Z" fill="#000000" fill-rule="nonzero" fill-opacity="1" /><path clip-path="url(#clip660)" d="M683.34 209.748 Q678.826 209.748 676.54 214.204 Q674.283 218.631 674.283 227.543 Q674.283 236.426 676.54 240.882 Q678.826 245.309 683.34 245.309 Q687.883 245.309 690.14 240.882 Q692.426 236.426 692.426 227.543 Q692.426 218.631 690.14 214.204 Q687.883 209.748 683.34 209.748 M683.34 205.118 Q690.603 205.118 694.422 210.877 Q698.27 216.606 698.27 227.543 Q698.27 238.452 694.422 244.21 Q690.603 249.939 683.34 249.939 Q676.077 249.939 672.229 244.21 Q668.41 238.452 668.41 227.543 Q668.41 216.606 672.229 210.877 Q676.077 205.118 683.34 205.118 Z" fill="#000000" fill-rule="nonzero" fill-opacity="1" /><path clip-path="url(#clip660)" d="M708.716 248.203 L708.716 242.879 Q710.915 243.92 713.172 244.47 Q715.429 245.02 717.599 245.02 Q723.386 245.02 726.424 241.143 Q729.491 237.236 729.925 229.308 Q728.247 231.797 725.672 233.128 Q723.097 234.459 719.972 234.459 Q713.49 234.459 709.7 230.552 Q705.938 226.617 705.938 219.817 Q705.938 213.162 709.873 209.14 Q713.809 205.118 720.348 205.118 Q727.842 205.118 731.777 210.877 Q735.741 216.606 735.741 227.543 Q735.741 237.757 730.88 243.862 Q726.048 249.939 717.859 249.939 Q715.66 249.939 713.404 249.505 Q711.147 249.071 708.716 248.203 M720.348 229.887 Q724.283 229.887 726.569 227.196 Q728.884 224.505 728.884 219.817 Q728.884 215.159 726.569 212.468 Q724.283 209.748 720.348 209.748 Q716.413 209.748 714.098 212.468 Q711.812 215.159 711.812 219.817 Q711.812 224.505 714.098 227.196 Q716.413 229.887 720.348 229.887 Z" fill="#000000" fill-rule="nonzero" fill-opacity="1" /><path clip-path="url(#clip660)" d="M1824.06 1273.23 L3152.76 1273.23 L3152.76 88.0695 L1824.06 88.0695  Z" fill="#ffffff" fill-rule="evenodd" fill-opacity="1"/>
<defs>
  <clipPath id="clip663">
    <rect x="1824" y="88" width="1330" height="1186"/>
  </clipPath>
</defs>
<polyline clip-path="url(#clip663)" style="stroke:#000000; stroke-linecap:round; stroke-linejoin:round; stroke-width:2; stroke-opacity:0.1; fill:none" points="2015.4,1273.23 2015.4,88.0695 "/>
<polyline clip-path="url(#clip663)" style="stroke:#000000; stroke-linecap:round; stroke-linejoin:round; stroke-width:2; stroke-opacity:0.1; fill:none" points="2251.9,1273.23 2251.9,88.0695 "/>
<polyline clip-path="url(#clip663)" style="stroke:#000000; stroke-linecap:round; stroke-linejoin:round; stroke-width:2; stroke-opacity:0.1; fill:none" points="2488.41,1273.23 2488.41,88.0695 "/>
<polyline clip-path="url(#clip663)" style="stroke:#000000; stroke-linecap:round; stroke-linejoin:round; stroke-width:2; stroke-opacity:0.1; fill:none" points="2724.92,1273.23 2724.92,88.0695 "/>
<polyline clip-path="url(#clip663)" style="stroke:#000000; stroke-linecap:round; stroke-linejoin:round; stroke-width:2; stroke-opacity:0.1; fill:none" points="2961.42,1273.23 2961.42,88.0695 "/>
<polyline clip-path="url(#clip660)" style="stroke:#000000; stroke-linecap:round; stroke-linejoin:round; stroke-width:4; stroke-opacity:1; fill:none" points="1824.06,1273.23 3152.76,1273.23 "/>
<polyline clip-path="url(#clip660)" style="stroke:#000000; stroke-linecap:round; stroke-linejoin:round; stroke-width:4; stroke-opacity:1; fill:none" points="2015.4,1273.23 2015.4,1254.33 "/>
<polyline clip-path="url(#clip660)" style="stroke:#000000; stroke-linecap:round; stroke-linejoin:round; stroke-width:4; stroke-opacity:1; fill:none" points="2251.9,1273.23 2251.9,1254.33 "/>
<polyline clip-path="url(#clip660)" style="stroke:#000000; stroke-linecap:round; stroke-linejoin:round; stroke-width:4; stroke-opacity:1; fill:none" points="2488.41,1273.23 2488.41,1254.33 "/>
<polyline clip-path="url(#clip660)" style="stroke:#000000; stroke-linecap:round; stroke-linejoin:round; stroke-width:4; stroke-opacity:1; fill:none" points="2724.92,1273.23 2724.92,1254.33 "/>
<polyline clip-path="url(#clip660)" style="stroke:#000000; stroke-linecap:round; stroke-linejoin:round; stroke-width:4; stroke-opacity:1; fill:none" points="2961.42,1273.23 2961.42,1254.33 "/>
<g clip-path="url(#clip660)">
<text style="fill:#000000; fill-opacity:1; font-family:Century Gothic,CenturyGothic,AppleGothic,sans-serif; font-size:47px; text-anchor:middle;" transform="rotate(0, 2015.4, 1353.69)" x="2015.4" y="1353.69">0</text>
</g>
<g clip-path="url(#clip660)">
<text style="fill:#000000; fill-opacity:1; font-family:Century Gothic,CenturyGothic,AppleGothic,sans-serif; font-size:47px; text-anchor:middle;" transform="rotate(0, 2251.9, 1353.69)" x="2251.9" y="1353.69">1</text>
</g>
<g clip-path="url(#clip660)">
<text style="fill:#000000; fill-opacity:1; font-family:Century Gothic,CenturyGothic,AppleGothic,sans-serif; font-size:47px; text-anchor:middle;" transform="rotate(0, 2488.41, 1353.69)" x="2488.41" y="1353.69">2</text>
</g>
<g clip-path="url(#clip660)">
<text style="fill:#000000; fill-opacity:1; font-family:Century Gothic,CenturyGothic,AppleGothic,sans-serif; font-size:47px; text-anchor:middle;" transform="rotate(0, 2724.92, 1353.69)" x="2724.92" y="1353.69">3</text>
</g>
<g clip-path="url(#clip660)">
<text style="fill:#000000; fill-opacity:1; font-family:Century Gothic,CenturyGothic,AppleGothic,sans-serif; font-size:47px; text-anchor:middle;" transform="rotate(0, 2961.42, 1353.69)" x="2961.42" y="1353.69">4</text>
</g>
<g clip-path="url(#clip660)">
<text style="fill:#000000; fill-opacity:1; font-family:Century Gothic,CenturyGothic,AppleGothic,sans-serif; font-size:65px; text-anchor:middle;" transform="rotate(0, 2488.41, 1452.31)" x="2488.41" y="1452.31">中心推定の正解数</text>
</g>
<polyline clip-path="url(#clip663)" style="stroke:#000000; stroke-linecap:round; stroke-linejoin:round; stroke-width:2; stroke-opacity:0.1; fill:none" points="1824.06,1273.23 3152.76,1273.23 "/>
<polyline clip-path="url(#clip663)" style="stroke:#000000; stroke-linecap:round; stroke-linejoin:round; stroke-width:2; stroke-opacity:0.1; fill:none" points="1824.06,994.366 3152.76,994.366 "/>
<polyline clip-path="url(#clip663)" style="stroke:#000000; stroke-linecap:round; stroke-linejoin:round; stroke-width:2; stroke-opacity:0.1; fill:none" points="1824.06,715.505 3152.76,715.505 "/>
<polyline clip-path="url(#clip663)" style="stroke:#000000; stroke-linecap:round; stroke-linejoin:round; stroke-width:2; stroke-opacity:0.1; fill:none" points="1824.06,436.645 3152.76,436.645 "/>
<polyline clip-path="url(#clip663)" style="stroke:#000000; stroke-linecap:round; stroke-linejoin:round; stroke-width:2; stroke-opacity:0.1; fill:none" points="1824.06,157.785 3152.76,157.785 "/>
<polyline clip-path="url(#clip660)" style="stroke:#000000; stroke-linecap:round; stroke-linejoin:round; stroke-width:4; stroke-opacity:1; fill:none" points="1824.06,1273.23 1824.06,88.0695 "/>
<polyline clip-path="url(#clip660)" style="stroke:#000000; stroke-linecap:round; stroke-linejoin:round; stroke-width:4; stroke-opacity:1; fill:none" points="1824.06,1273.23 1842.96,1273.23 "/>
<polyline clip-path="url(#clip660)" style="stroke:#000000; stroke-linecap:round; stroke-linejoin:round; stroke-width:4; stroke-opacity:1; fill:none" points="1824.06,994.366 1842.96,994.366 "/>
<polyline clip-path="url(#clip660)" style="stroke:#000000; stroke-linecap:round; stroke-linejoin:round; stroke-width:4; stroke-opacity:1; fill:none" points="1824.06,715.505 1842.96,715.505 "/>
<polyline clip-path="url(#clip660)" style="stroke:#000000; stroke-linecap:round; stroke-linejoin:round; stroke-width:4; stroke-opacity:1; fill:none" points="1824.06,436.645 1842.96,436.645 "/>
<polyline clip-path="url(#clip660)" style="stroke:#000000; stroke-linecap:round; stroke-linejoin:round; stroke-width:4; stroke-opacity:1; fill:none" points="1824.06,157.785 1842.96,157.785 "/>
<g clip-path="url(#clip660)">
<text style="fill:#000000; fill-opacity:1; font-family:Century Gothic,CenturyGothic,AppleGothic,sans-serif; font-size:47px; text-anchor:middle;" transform="rotate(0, 1739.13, 1290.73)" x="1739.13" y="1290.73">0</text>
</g>
<g clip-path="url(#clip660)">
<text style="fill:#000000; fill-opacity:1; font-family:Century Gothic,CenturyGothic,AppleGothic,sans-serif; font-size:47px; text-anchor:middle;" transform="rotate(0, 1713.25, 1011.87)" x="1713.25" y="1011.87">200</text>
</g>
<g clip-path="url(#clip660)">
<text style="fill:#000000; fill-opacity:1; font-family:Century Gothic,CenturyGothic,AppleGothic,sans-serif; font-size:47px; text-anchor:middle;" transform="rotate(0, 1713.25, 733.005)" x="1713.25" y="733.005">400</text>
</g>
<g clip-path="url(#clip660)">
<text style="fill:#000000; fill-opacity:1; font-family:Century Gothic,CenturyGothic,AppleGothic,sans-serif; font-size:47px; text-anchor:middle;" transform="rotate(0, 1713.25, 454.145)" x="1713.25" y="454.145">600</text>
</g>
<g clip-path="url(#clip660)">
<text style="fill:#000000; fill-opacity:1; font-family:Century Gothic,CenturyGothic,AppleGothic,sans-serif; font-size:47px; text-anchor:middle;" transform="rotate(0, 1713.25, 175.285)" x="1713.25" y="175.285">800</text>
</g>
<g clip-path="url(#clip660)">
<text style="fill:#000000; fill-opacity:1; font-family:Century Gothic,CenturyGothic,AppleGothic,sans-serif; font-size:65px; text-anchor:middle;" transform="rotate(-90, 1592.49, 680.648)" x="1592.49" y="680.648">度数</text>
</g>
<g clip-path="url(#clip660)">
<text style="fill:#000000; fill-opacity:1; font-family:Century Gothic,CenturyGothic,AppleGothic,sans-serif; font-size:81px; text-anchor:middle;" transform="rotate(0, 2488.41, 72)" x="2488.41" y="72">Setting : C, Method : GM</text>
</g>
<path clip-path="url(#clip663)" d="M1897.14 1273.23 L1897.14 1273.23 L2133.65 1273.23 L2133.65 1273.23 L1897.14 1273.23 L1897.14 1273.23  Z" fill="#009af9" fill-rule="evenodd" fill-opacity="1"/>
<polyline clip-path="url(#clip663)" style="stroke:#000000; stroke-linecap:round; stroke-linejoin:round; stroke-width:4; stroke-opacity:1; fill:none" points="1897.14,1273.23 1897.14,1273.23 2133.65,1273.23 1897.14,1273.23 "/>
<path clip-path="url(#clip663)" d="M2133.65 1243.95 L2133.65 1273.23 L2370.16 1273.23 L2370.16 1243.95 L2133.65 1243.95 L2133.65 1243.95  Z" fill="#009af9" fill-rule="evenodd" fill-opacity="1"/>
<polyline clip-path="url(#clip663)" style="stroke:#000000; stroke-linecap:round; stroke-linejoin:round; stroke-width:4; stroke-opacity:1; fill:none" points="2133.65,1243.95 2133.65,1273.23 2370.16,1273.23 2370.16,1243.95 2133.65,1243.95 "/>
<path clip-path="url(#clip663)" d="M2370.16 906.525 L2370.16 1273.23 L2606.66 1273.23 L2606.66 906.525 L2370.16 906.525 L2370.16 906.525  Z" fill="#009af9" fill-rule="evenodd" fill-opacity="1"/>
<polyline clip-path="url(#clip663)" style="stroke:#000000; stroke-linecap:round; stroke-linejoin:round; stroke-width:4; stroke-opacity:1; fill:none" points="2370.16,906.525 2370.16,1273.23 2606.66,1273.23 2606.66,906.525 2370.16,906.525 "/>
<path clip-path="url(#clip663)" d="M2606.66 691.802 L2606.66 1273.23 L2843.17 1273.23 L2843.17 691.802 L2606.66 691.802 L2606.66 691.802  Z" fill="#009af9" fill-rule="evenodd" fill-opacity="1"/>
<polyline clip-path="url(#clip663)" style="stroke:#000000; stroke-linecap:round; stroke-linejoin:round; stroke-width:4; stroke-opacity:1; fill:none" points="2606.66,691.802 2606.66,1273.23 2843.17,1273.23 2843.17,691.802 2606.66,691.802 "/>
<path clip-path="url(#clip663)" d="M2843.17 856.33 L2843.17 1273.23 L3079.68 1273.23 L3079.68 856.33 L2843.17 856.33 L2843.17 856.33  Z" fill="#009af9" fill-rule="evenodd" fill-opacity="1"/>
<polyline clip-path="url(#clip663)" style="stroke:#000000; stroke-linecap:round; stroke-linejoin:round; stroke-width:4; stroke-opacity:1; fill:none" points="2843.17,856.33 2843.17,1273.23 3079.68,1273.23 3079.68,856.33 2843.17,856.33 "/>
<circle clip-path="url(#clip663)" style="fill:#009af9; stroke:none; fill-opacity:0" cx="2015.4" cy="1273.23" r="2"/>
<circle clip-path="url(#clip663)" style="fill:#009af9; stroke:none; fill-opacity:0" cx="2251.9" cy="1243.95" r="2"/>
<circle clip-path="url(#clip663)" style="fill:#009af9; stroke:none; fill-opacity:0" cx="2488.41" cy="906.525" r="2"/>
<circle clip-path="url(#clip663)" style="fill:#009af9; stroke:none; fill-opacity:0" cx="2724.92" cy="691.802" r="2"/>
<circle clip-path="url(#clip663)" style="fill:#009af9; stroke:none; fill-opacity:0" cx="2961.42" cy="856.33" r="2"/>
<path clip-path="url(#clip660)" d="M1897.14 136.185 L1905.85 136.185 L1916.88 165.583 L1927.96 136.185 L1936.67 136.185 L1936.67 179.385 L1930.97 179.385 L1930.97 141.451 L1919.83 171.08 L1913.96 171.08 L1902.82 141.451 L1902.82 179.385 L1897.14 179.385 L1897.14 136.185 Z" fill="#000000" fill-rule="nonzero" fill-opacity="1" /><path clip-path="url(#clip660)" d="M1975.76 161.85 L1975.76 164.454 L1951.28 164.454 Q1951.63 169.952 1954.58 172.845 Q1957.56 175.71 1962.86 175.71 Q1965.92 175.71 1968.79 174.958 Q1971.68 174.205 1974.52 172.701 L1974.52 177.735 Q1971.65 178.951 1968.64 179.587 Q1965.63 180.224 1962.54 180.224 Q1954.78 180.224 1950.24 175.71 Q1945.73 171.196 1945.73 163.499 Q1945.73 155.542 1950.01 150.884 Q1954.32 146.196 1961.61 146.196 Q1968.15 146.196 1971.94 150.421 Q1975.76 154.616 1975.76 161.85 M1970.44 160.288 Q1970.38 155.918 1967.98 153.314 Q1965.6 150.71 1961.67 150.71 Q1957.21 150.71 1954.52 153.227 Q1951.86 155.745 1951.46 160.316 L1970.44 160.288 Z" fill="#000000" fill-rule="nonzero" fill-opacity="1" /><path clip-path="url(#clip660)" d="M1999.23 163.094 Q1992.77 163.094 1990.29 164.57 Q1987.8 166.046 1987.8 169.605 Q1987.8 172.44 1989.65 174.118 Q1991.53 175.768 1994.74 175.768 Q1999.17 175.768 2001.83 172.643 Q2004.52 169.489 2004.52 164.281 L2004.52 163.094 L1999.23 163.094 M2009.85 160.895 L2009.85 179.385 L2004.52 179.385 L2004.52 174.466 Q2002.7 177.417 1999.98 178.835 Q1997.26 180.224 1993.32 180.224 Q1988.35 180.224 1985.4 177.446 Q1982.47 174.639 1982.47 169.952 Q1982.47 164.483 1986.12 161.705 Q1989.79 158.928 1997.06 158.928 L2004.52 158.928 L2004.52 158.407 Q2004.52 154.732 2002.09 152.735 Q1999.69 150.71 1995.32 150.71 Q1992.54 150.71 1989.91 151.376 Q1987.28 152.041 1984.85 153.372 L1984.85 148.453 Q1987.77 147.325 1990.52 146.775 Q1993.27 146.196 1995.87 146.196 Q2002.9 146.196 2006.37 149.842 Q2009.85 153.488 2009.85 160.895 Z" fill="#000000" fill-rule="nonzero" fill-opacity="1" /><path clip-path="url(#clip660)" d="M2047.75 159.825 L2047.75 179.385 L2042.43 179.385 L2042.43 159.998 Q2042.43 155.397 2040.63 153.112 Q2038.84 150.826 2035.25 150.826 Q2030.94 150.826 2028.45 153.575 Q2025.96 156.323 2025.96 161.069 L2025.96 179.385 L2020.61 179.385 L2020.61 146.977 L2025.96 146.977 L2025.96 152.012 Q2027.87 149.09 2030.45 147.643 Q2033.05 146.196 2036.44 146.196 Q2042.02 146.196 2044.89 149.668 Q2047.75 153.112 2047.75 159.825 Z" fill="#000000" fill-rule="nonzero" fill-opacity="1" /><path clip-path="url(#clip660)" d="M2077.9 152.475 L2115 152.475 L2115 157.336 L2077.9 157.336 L2077.9 152.475 M2077.9 164.281 L2115 164.281 L2115 169.2 L2077.9 169.2 L2077.9 164.281 Z" fill="#000000" fill-rule="nonzero" fill-opacity="1" /><path clip-path="url(#clip660)" d="M2151.48 174.466 L2171.88 174.466 L2171.88 179.385 L2144.45 179.385 L2144.45 174.466 Q2147.78 171.022 2153.51 165.235 Q2159.27 159.419 2160.74 157.741 Q2163.55 154.587 2164.65 152.417 Q2165.78 150.218 2165.78 148.106 Q2165.78 144.663 2163.35 142.492 Q2160.94 140.322 2157.07 140.322 Q2154.32 140.322 2151.25 141.277 Q2148.21 142.232 2144.74 144.171 L2144.74 138.268 Q2148.27 136.85 2151.34 136.127 Q2154.41 135.403 2156.95 135.403 Q2163.66 135.403 2167.66 138.76 Q2171.65 142.116 2171.65 147.73 Q2171.65 150.392 2170.64 152.793 Q2169.65 155.166 2167.02 158.407 Q2166.3 159.246 2162.42 163.268 Q2158.54 167.261 2151.48 174.466 Z" fill="#000000" fill-rule="nonzero" fill-opacity="1" /><path clip-path="url(#clip660)" d="M2184.15 172.035 L2190.26 172.035 L2190.26 179.385 L2184.15 179.385 L2184.15 172.035 Z" fill="#000000" fill-rule="nonzero" fill-opacity="1" /><path clip-path="url(#clip660)" d="M2203.16 178.488 L2203.16 173.164 Q2205.36 174.205 2207.62 174.755 Q2209.87 175.305 2212.04 175.305 Q2217.83 175.305 2220.87 171.427 Q2223.94 167.521 2224.37 159.593 Q2222.69 162.081 2220.12 163.412 Q2217.54 164.744 2214.42 164.744 Q2207.94 164.744 2204.14 160.837 Q2200.38 156.902 2200.38 150.102 Q2200.38 143.447 2204.32 139.425 Q2208.25 135.403 2214.79 135.403 Q2222.29 135.403 2226.22 141.161 Q2230.19 146.891 2230.19 157.828 Q2230.19 168.042 2225.33 174.147 Q2220.49 180.224 2212.3 180.224 Q2210.11 180.224 2207.85 179.79 Q2205.59 179.356 2203.16 178.488 M2214.79 160.172 Q2218.73 160.172 2221.01 157.481 Q2223.33 154.79 2223.33 150.102 Q2223.33 145.444 2221.01 142.753 Q2218.73 140.033 2214.79 140.033 Q2210.86 140.033 2208.54 142.753 Q2206.26 145.444 2206.26 150.102 Q2206.26 154.79 2208.54 157.481 Q2210.86 160.172 2214.79 160.172 Z" fill="#000000" fill-rule="nonzero" fill-opacity="1" /><path clip-path="url(#clip660)" d="M2240.86 178.488 L2240.86 173.164 Q2243.06 174.205 2245.32 174.755 Q2247.58 175.305 2249.75 175.305 Q2255.53 175.305 2258.57 171.427 Q2261.64 167.521 2262.07 159.593 Q2260.39 162.081 2257.82 163.412 Q2255.24 164.744 2252.12 164.744 Q2245.64 164.744 2241.85 160.837 Q2238.09 156.902 2238.09 150.102 Q2238.09 143.447 2242.02 139.425 Q2245.96 135.403 2252.5 135.403 Q2259.99 135.403 2263.92 141.161 Q2267.89 146.891 2267.89 157.828 Q2267.89 168.042 2263.03 174.147 Q2258.2 180.224 2250.01 180.224 Q2247.81 180.224 2245.55 179.79 Q2243.29 179.356 2240.86 178.488 M2252.5 160.172 Q2256.43 160.172 2258.72 157.481 Q2261.03 154.79 2261.03 150.102 Q2261.03 145.444 2258.72 142.753 Q2256.43 140.033 2252.5 140.033 Q2248.56 140.033 2246.25 142.753 Q2243.96 145.444 2243.96 150.102 Q2243.96 154.79 2246.25 157.481 Q2248.56 160.172 2252.5 160.172 Z" fill="#000000" fill-rule="nonzero" fill-opacity="1" /><path clip-path="url(#clip660)" d="M2294.45 141.277 L2279.69 164.338 L2294.45 164.338 L2294.45 141.277 M2292.92 136.185 L2300.27 136.185 L2300.27 164.338 L2306.43 164.338 L2306.43 169.2 L2300.27 169.2 L2300.27 179.385 L2294.45 179.385 L2294.45 169.2 L2274.95 169.2 L2274.95 163.557 L2292.92 136.185 Z" fill="#000000" fill-rule="nonzero" fill-opacity="1" /><path clip-path="url(#clip660)" d="M1902.99 210.703 L1902.99 244.297 L1910.05 244.297 Q1918.99 244.297 1923.13 240.246 Q1927.29 236.195 1927.29 227.456 Q1927.29 218.776 1923.13 214.754 Q1918.99 210.703 1910.05 210.703 L1902.99 210.703 M1897.14 205.9 L1909.15 205.9 Q1921.71 205.9 1927.58 211.137 Q1933.46 216.345 1933.46 227.456 Q1933.46 238.625 1927.55 243.862 Q1921.65 249.1 1909.15 249.1 L1897.14 249.1 L1897.14 205.9 Z" fill="#000000" fill-rule="nonzero" fill-opacity="1" /><path clip-path="url(#clip660)" d="M1942.54 216.692 L1947.87 216.692 L1947.87 249.1 L1942.54 249.1 L1942.54 216.692 M1942.54 204.077 L1947.87 204.077 L1947.87 210.819 L1942.54 210.819 L1942.54 204.077 Z" fill="#000000" fill-rule="nonzero" fill-opacity="1" /><path clip-path="url(#clip660)" d="M1979.67 217.647 L1979.67 222.682 Q1977.41 221.525 1974.98 220.946 Q1972.55 220.367 1969.94 220.367 Q1965.98 220.367 1963.98 221.583 Q1962.02 222.798 1962.02 225.228 Q1962.02 227.08 1963.43 228.151 Q1964.85 229.192 1969.13 230.147 L1970.96 230.552 Q1976.63 231.768 1979 233.996 Q1981.4 236.195 1981.4 240.159 Q1981.4 244.673 1977.82 247.306 Q1974.26 249.939 1968.01 249.939 Q1965.4 249.939 1962.57 249.418 Q1959.76 248.926 1956.63 247.913 L1956.63 242.416 Q1959.59 243.949 1962.45 244.731 Q1965.32 245.483 1968.12 245.483 Q1971.88 245.483 1973.91 244.21 Q1975.93 242.908 1975.93 240.564 Q1975.93 238.394 1974.46 237.236 Q1973.01 236.079 1968.06 235.008 L1966.21 234.574 Q1961.26 233.533 1959.07 231.391 Q1956.87 229.221 1956.87 225.46 Q1956.87 220.888 1960.11 218.4 Q1963.35 215.911 1969.31 215.911 Q1972.26 215.911 1974.86 216.345 Q1977.47 216.779 1979.67 217.647 Z" fill="#000000" fill-rule="nonzero" fill-opacity="1" /><path clip-path="url(#clip660)" d="M1995.15 207.491 L1995.15 216.692 L2006.11 216.692 L2006.11 220.83 L1995.15 220.83 L1995.15 238.423 Q1995.15 242.387 1996.22 243.515 Q1997.32 244.644 2000.64 244.644 L2006.11 244.644 L2006.11 249.1 L2000.64 249.1 Q1994.48 249.1 1992.14 246.814 Q1989.79 244.499 1989.79 238.423 L1989.79 220.83 L1985.89 220.83 L1985.89 216.692 L1989.79 216.692 L1989.79 207.491 L1995.15 207.491 Z" fill="#000000" fill-rule="nonzero" fill-opacity="1" /><path clip-path="url(#clip660)" d="M2032.65 222.19 L2069.74 222.19 L2069.74 227.051 L2032.65 227.051 L2032.65 222.19 M2032.65 233.996 L2069.74 233.996 L2069.74 238.915 L2032.65 238.915 L2032.65 233.996 Z" fill="#000000" fill-rule="nonzero" fill-opacity="1" /><path clip-path="url(#clip660)" d="M2113.69 209.748 Q2109.18 209.748 2106.89 214.204 Q2104.64 218.631 2104.64 227.543 Q2104.64 236.426 2106.89 240.882 Q2109.18 245.309 2113.69 245.309 Q2118.24 245.309 2120.49 240.882 Q2122.78 236.426 2122.78 227.543 Q2122.78 218.631 2120.49 214.204 Q2118.24 209.748 2113.69 209.748 M2113.69 205.118 Q2120.96 205.118 2124.78 210.877 Q2128.62 216.606 2128.62 227.543 Q2128.62 238.452 2124.78 244.21 Q2120.96 249.939 2113.69 249.939 Q2106.43 249.939 2102.58 244.21 Q2098.76 238.452 2098.76 227.543 Q2098.76 216.606 2102.58 210.877 Q2106.43 205.118 2113.69 205.118 Z" fill="#000000" fill-rule="nonzero" fill-opacity="1" /><path clip-path="url(#clip660)" d="M2138.9 241.75 L2145 241.75 L2145 249.1 L2138.9 249.1 L2138.9 241.75 Z" fill="#000000" fill-rule="nonzero" fill-opacity="1" /><path clip-path="url(#clip660)" d="M2170.23 209.748 Q2165.72 209.748 2163.43 214.204 Q2161.18 218.631 2161.18 227.543 Q2161.18 236.426 2163.43 240.882 Q2165.72 245.309 2170.23 245.309 Q2174.78 245.309 2177.03 240.882 Q2179.32 236.426 2179.32 227.543 Q2179.32 218.631 2177.03 214.204 Q2174.78 209.748 2170.23 209.748 M2170.23 205.118 Q2177.5 205.118 2181.32 210.877 Q2185.16 216.606 2185.16 227.543 Q2185.16 238.452 2181.32 244.21 Q2177.5 249.939 2170.23 249.939 Q2162.97 249.939 2159.12 244.21 Q2155.3 238.452 2155.3 227.543 Q2155.3 216.606 2159.12 210.877 Q2162.97 205.118 2170.23 205.118 Z" fill="#000000" fill-rule="nonzero" fill-opacity="1" /><path clip-path="url(#clip660)" d="M2213.14 225.807 Q2217.34 226.704 2219.68 229.54 Q2222.06 232.375 2222.06 236.542 Q2222.06 242.937 2217.66 246.438 Q2213.26 249.939 2205.16 249.939 Q2202.44 249.939 2199.54 249.389 Q2196.68 248.868 2193.61 247.798 L2193.61 242.155 Q2196.04 243.573 2198.94 244.297 Q2201.83 245.02 2204.98 245.02 Q2210.48 245.02 2213.35 242.85 Q2216.24 240.68 2216.24 236.542 Q2216.24 232.723 2213.55 230.581 Q2210.89 228.411 2206.11 228.411 L2201.08 228.411 L2201.08 223.608 L2206.34 223.608 Q2210.66 223.608 2212.94 221.901 Q2215.23 220.165 2215.23 216.924 Q2215.23 213.596 2212.85 211.831 Q2210.51 210.037 2206.11 210.037 Q2203.71 210.037 2200.96 210.558 Q2198.21 211.079 2194.91 212.179 L2194.91 206.97 Q2198.24 206.044 2201.14 205.581 Q2204.06 205.118 2206.63 205.118 Q2213.29 205.118 2217.17 208.157 Q2221.04 211.166 2221.04 216.316 Q2221.04 219.904 2218.99 222.393 Q2216.93 224.852 2213.14 225.807 Z" fill="#000000" fill-rule="nonzero" fill-opacity="1" /><path clip-path="url(#clip660)" d="M2238.17 244.181 L2258.57 244.181 L2258.57 249.1 L2231.14 249.1 L2231.14 244.181 Q2234.47 240.738 2240.2 234.951 Q2245.96 229.135 2247.43 227.456 Q2250.24 224.302 2251.34 222.132 Q2252.47 219.933 2252.47 217.821 Q2252.47 214.378 2250.04 212.208 Q2247.63 210.037 2243.76 210.037 Q2241.01 210.037 2237.94 210.992 Q2234.9 211.947 2231.43 213.886 L2231.43 207.983 Q2234.96 206.565 2238.03 205.842 Q2241.09 205.118 2243.64 205.118 Q2250.35 205.118 2254.35 208.475 Q2258.34 211.831 2258.34 217.445 Q2258.34 220.107 2257.33 222.508 Q2256.34 224.881 2253.71 228.122 Q2252.99 228.961 2249.11 232.983 Q2245.23 236.976 2238.17 244.181 Z" fill="#000000" fill-rule="nonzero" fill-opacity="1" /><path clip-path="url(#clip660)" d="M2288.55 225.807 Q2292.74 226.704 2295.09 229.54 Q2297.46 232.375 2297.46 236.542 Q2297.46 242.937 2293.06 246.438 Q2288.66 249.939 2280.56 249.939 Q2277.84 249.939 2274.95 249.389 Q2272.08 248.868 2269.02 247.798 L2269.02 242.155 Q2271.45 243.573 2274.34 244.297 Q2277.23 245.02 2280.39 245.02 Q2285.89 245.02 2288.75 242.85 Q2291.64 240.68 2291.64 236.542 Q2291.64 232.723 2288.95 230.581 Q2286.29 228.411 2281.52 228.411 L2276.48 228.411 L2276.48 223.608 L2281.75 223.608 Q2286.06 223.608 2288.35 221.901 Q2290.63 220.165 2290.63 216.924 Q2290.63 213.596 2288.26 211.831 Q2285.92 210.037 2281.52 210.037 Q2279.12 210.037 2276.37 210.558 Q2273.62 211.079 2270.32 212.179 L2270.32 206.97 Q2273.65 206.044 2276.54 205.581 Q2279.46 205.118 2282.04 205.118 Q2288.69 205.118 2292.57 208.157 Q2296.45 211.166 2296.45 216.316 Q2296.45 219.904 2294.39 222.393 Q2292.34 224.852 2288.55 225.807 Z" fill="#000000" fill-rule="nonzero" fill-opacity="1" /><path clip-path="url(#clip660)" d="M2308.6 205.9 L2331.55 205.9 L2331.55 210.819 L2313.95 210.819 L2313.95 221.409 Q2315.23 220.975 2316.5 220.772 Q2317.77 220.541 2319.05 220.541 Q2326.28 220.541 2330.5 224.505 Q2334.73 228.469 2334.73 235.24 Q2334.73 242.213 2330.39 246.09 Q2326.05 249.939 2318.15 249.939 Q2315.43 249.939 2312.59 249.476 Q2309.79 249.013 2306.78 248.087 L2306.78 242.213 Q2309.38 243.631 2312.16 244.325 Q2314.94 245.02 2318.03 245.02 Q2323.04 245.02 2325.96 242.387 Q2328.88 239.754 2328.88 235.24 Q2328.88 230.726 2325.96 228.093 Q2323.04 225.46 2318.03 225.46 Q2315.69 225.46 2313.35 225.981 Q2311.03 226.501 2308.6 227.601 L2308.6 205.9 Z" fill="#000000" fill-rule="nonzero" fill-opacity="1" /><path clip-path="url(#clip660)" d="M3424.06 1273.23 L4752.76 1273.23 L4752.76 88.0695 L3424.06 88.0695  Z" fill="#ffffff" fill-rule="evenodd" fill-opacity="1"/>
<defs>
  <clipPath id="clip664">
    <rect x="3424" y="88" width="1330" height="1186"/>
  </clipPath>
</defs>
<polyline clip-path="url(#clip664)" style="stroke:#000000; stroke-linecap:round; stroke-linejoin:round; stroke-width:2; stroke-opacity:0.1; fill:none" points="3615.4,1273.23 3615.4,88.0695 "/>
<polyline clip-path="url(#clip664)" style="stroke:#000000; stroke-linecap:round; stroke-linejoin:round; stroke-width:2; stroke-opacity:0.1; fill:none" points="3851.9,1273.23 3851.9,88.0695 "/>
<polyline clip-path="url(#clip664)" style="stroke:#000000; stroke-linecap:round; stroke-linejoin:round; stroke-width:2; stroke-opacity:0.1; fill:none" points="4088.41,1273.23 4088.41,88.0695 "/>
<polyline clip-path="url(#clip664)" style="stroke:#000000; stroke-linecap:round; stroke-linejoin:round; stroke-width:2; stroke-opacity:0.1; fill:none" points="4324.92,1273.23 4324.92,88.0695 "/>
<polyline clip-path="url(#clip664)" style="stroke:#000000; stroke-linecap:round; stroke-linejoin:round; stroke-width:2; stroke-opacity:0.1; fill:none" points="4561.42,1273.23 4561.42,88.0695 "/>
<polyline clip-path="url(#clip660)" style="stroke:#000000; stroke-linecap:round; stroke-linejoin:round; stroke-width:4; stroke-opacity:1; fill:none" points="3424.06,1273.23 4752.76,1273.23 "/>
<polyline clip-path="url(#clip660)" style="stroke:#000000; stroke-linecap:round; stroke-linejoin:round; stroke-width:4; stroke-opacity:1; fill:none" points="3615.4,1273.23 3615.4,1254.33 "/>
<polyline clip-path="url(#clip660)" style="stroke:#000000; stroke-linecap:round; stroke-linejoin:round; stroke-width:4; stroke-opacity:1; fill:none" points="3851.9,1273.23 3851.9,1254.33 "/>
<polyline clip-path="url(#clip660)" style="stroke:#000000; stroke-linecap:round; stroke-linejoin:round; stroke-width:4; stroke-opacity:1; fill:none" points="4088.41,1273.23 4088.41,1254.33 "/>
<polyline clip-path="url(#clip660)" style="stroke:#000000; stroke-linecap:round; stroke-linejoin:round; stroke-width:4; stroke-opacity:1; fill:none" points="4324.92,1273.23 4324.92,1254.33 "/>
<polyline clip-path="url(#clip660)" style="stroke:#000000; stroke-linecap:round; stroke-linejoin:round; stroke-width:4; stroke-opacity:1; fill:none" points="4561.42,1273.23 4561.42,1254.33 "/>
<g clip-path="url(#clip660)">
<text style="fill:#000000; fill-opacity:1; font-family:Century Gothic,CenturyGothic,AppleGothic,sans-serif; font-size:47px; text-anchor:middle;" transform="rotate(0, 3615.4, 1353.69)" x="3615.4" y="1353.69">0</text>
</g>
<g clip-path="url(#clip660)">
<text style="fill:#000000; fill-opacity:1; font-family:Century Gothic,CenturyGothic,AppleGothic,sans-serif; font-size:47px; text-anchor:middle;" transform="rotate(0, 3851.9, 1353.69)" x="3851.9" y="1353.69">1</text>
</g>
<g clip-path="url(#clip660)">
<text style="fill:#000000; fill-opacity:1; font-family:Century Gothic,CenturyGothic,AppleGothic,sans-serif; font-size:47px; text-anchor:middle;" transform="rotate(0, 4088.41, 1353.69)" x="4088.41" y="1353.69">2</text>
</g>
<g clip-path="url(#clip660)">
<text style="fill:#000000; fill-opacity:1; font-family:Century Gothic,CenturyGothic,AppleGothic,sans-serif; font-size:47px; text-anchor:middle;" transform="rotate(0, 4324.92, 1353.69)" x="4324.92" y="1353.69">3</text>
</g>
<g clip-path="url(#clip660)">
<text style="fill:#000000; fill-opacity:1; font-family:Century Gothic,CenturyGothic,AppleGothic,sans-serif; font-size:47px; text-anchor:middle;" transform="rotate(0, 4561.42, 1353.69)" x="4561.42" y="1353.69">4</text>
</g>
<g clip-path="url(#clip660)">
<text style="fill:#000000; fill-opacity:1; font-family:Century Gothic,CenturyGothic,AppleGothic,sans-serif; font-size:65px; text-anchor:middle;" transform="rotate(0, 4088.41, 1452.31)" x="4088.41" y="1452.31">中心推定の正解数</text>
</g>
<polyline clip-path="url(#clip664)" style="stroke:#000000; stroke-linecap:round; stroke-linejoin:round; stroke-width:2; stroke-opacity:0.1; fill:none" points="3424.06,1273.23 4752.76,1273.23 "/>
<polyline clip-path="url(#clip664)" style="stroke:#000000; stroke-linecap:round; stroke-linejoin:round; stroke-width:2; stroke-opacity:0.1; fill:none" points="3424.06,994.366 4752.76,994.366 "/>
<polyline clip-path="url(#clip664)" style="stroke:#000000; stroke-linecap:round; stroke-linejoin:round; stroke-width:2; stroke-opacity:0.1; fill:none" points="3424.06,715.505 4752.76,715.505 "/>
<polyline clip-path="url(#clip664)" style="stroke:#000000; stroke-linecap:round; stroke-linejoin:round; stroke-width:2; stroke-opacity:0.1; fill:none" points="3424.06,436.645 4752.76,436.645 "/>
<polyline clip-path="url(#clip664)" style="stroke:#000000; stroke-linecap:round; stroke-linejoin:round; stroke-width:2; stroke-opacity:0.1; fill:none" points="3424.06,157.785 4752.76,157.785 "/>
<polyline clip-path="url(#clip660)" style="stroke:#000000; stroke-linecap:round; stroke-linejoin:round; stroke-width:4; stroke-opacity:1; fill:none" points="3424.06,1273.23 3424.06,88.0695 "/>
<polyline clip-path="url(#clip660)" style="stroke:#000000; stroke-linecap:round; stroke-linejoin:round; stroke-width:4; stroke-opacity:1; fill:none" points="3424.06,1273.23 3442.96,1273.23 "/>
<polyline clip-path="url(#clip660)" style="stroke:#000000; stroke-linecap:round; stroke-linejoin:round; stroke-width:4; stroke-opacity:1; fill:none" points="3424.06,994.366 3442.96,994.366 "/>
<polyline clip-path="url(#clip660)" style="stroke:#000000; stroke-linecap:round; stroke-linejoin:round; stroke-width:4; stroke-opacity:1; fill:none" points="3424.06,715.505 3442.96,715.505 "/>
<polyline clip-path="url(#clip660)" style="stroke:#000000; stroke-linecap:round; stroke-linejoin:round; stroke-width:4; stroke-opacity:1; fill:none" points="3424.06,436.645 3442.96,436.645 "/>
<polyline clip-path="url(#clip660)" style="stroke:#000000; stroke-linecap:round; stroke-linejoin:round; stroke-width:4; stroke-opacity:1; fill:none" points="3424.06,157.785 3442.96,157.785 "/>
<g clip-path="url(#clip660)">
<text style="fill:#000000; fill-opacity:1; font-family:Century Gothic,CenturyGothic,AppleGothic,sans-serif; font-size:47px; text-anchor:middle;" transform="rotate(0, 3339.13, 1290.73)" x="3339.13" y="1290.73">0</text>
</g>
<g clip-path="url(#clip660)">
<text style="fill:#000000; fill-opacity:1; font-family:Century Gothic,CenturyGothic,AppleGothic,sans-serif; font-size:47px; text-anchor:middle;" transform="rotate(0, 3313.25, 1011.87)" x="3313.25" y="1011.87">200</text>
</g>
<g clip-path="url(#clip660)">
<text style="fill:#000000; fill-opacity:1; font-family:Century Gothic,CenturyGothic,AppleGothic,sans-serif; font-size:47px; text-anchor:middle;" transform="rotate(0, 3313.25, 733.005)" x="3313.25" y="733.005">400</text>
</g>
<g clip-path="url(#clip660)">
<text style="fill:#000000; fill-opacity:1; font-family:Century Gothic,CenturyGothic,AppleGothic,sans-serif; font-size:47px; text-anchor:middle;" transform="rotate(0, 3313.25, 454.145)" x="3313.25" y="454.145">600</text>
</g>
<g clip-path="url(#clip660)">
<text style="fill:#000000; fill-opacity:1; font-family:Century Gothic,CenturyGothic,AppleGothic,sans-serif; font-size:47px; text-anchor:middle;" transform="rotate(0, 3313.25, 175.285)" x="3313.25" y="175.285">800</text>
</g>
<g clip-path="url(#clip660)">
<text style="fill:#000000; fill-opacity:1; font-family:Century Gothic,CenturyGothic,AppleGothic,sans-serif; font-size:65px; text-anchor:middle;" transform="rotate(-90, 3192.49, 680.648)" x="3192.49" y="680.648">度数</text>
</g>
<g clip-path="url(#clip660)">
<text style="fill:#000000; fill-opacity:1; font-family:Century Gothic,CenturyGothic,AppleGothic,sans-serif; font-size:81px; text-anchor:middle;" transform="rotate(0, 4088.41, 72)" x="4088.41" y="72">Setting : C, Method : LM</text>
</g>
<path clip-path="url(#clip664)" d="M3497.14 1273.23 L3497.14 1273.23 L3733.65 1273.23 L3733.65 1273.23 L3497.14 1273.23 L3497.14 1273.23  Z" fill="#009af9" fill-rule="evenodd" fill-opacity="1"/>
<polyline clip-path="url(#clip664)" style="stroke:#000000; stroke-linecap:round; stroke-linejoin:round; stroke-width:4; stroke-opacity:1; fill:none" points="3497.14,1273.23 3497.14,1273.23 3733.65,1273.23 3497.14,1273.23 "/>
<path clip-path="url(#clip664)" d="M3733.65 1249.52 L3733.65 1273.23 L3970.16 1273.23 L3970.16 1249.52 L3733.65 1249.52 L3733.65 1249.52  Z" fill="#009af9" fill-rule="evenodd" fill-opacity="1"/>
<polyline clip-path="url(#clip664)" style="stroke:#000000; stroke-linecap:round; stroke-linejoin:round; stroke-width:4; stroke-opacity:1; fill:none" points="3733.65,1249.52 3733.65,1273.23 3970.16,1273.23 3970.16,1249.52 3733.65,1249.52 "/>
<path clip-path="url(#clip664)" d="M3970.16 560.738 L3970.16 1273.23 L4206.66 1273.23 L4206.66 560.738 L3970.16 560.738 L3970.16 560.738  Z" fill="#009af9" fill-rule="evenodd" fill-opacity="1"/>
<polyline clip-path="url(#clip664)" style="stroke:#000000; stroke-linecap:round; stroke-linejoin:round; stroke-width:4; stroke-opacity:1; fill:none" points="3970.16,560.738 3970.16,1273.23 4206.66,1273.23 4206.66,560.738 3970.16,560.738 "/>
<path clip-path="url(#clip664)" d="M4206.66 701.562 L4206.66 1273.23 L4443.17 1273.23 L4443.17 701.562 L4206.66 701.562 L4206.66 701.562  Z" fill="#009af9" fill-rule="evenodd" fill-opacity="1"/>
<polyline clip-path="url(#clip664)" style="stroke:#000000; stroke-linecap:round; stroke-linejoin:round; stroke-width:4; stroke-opacity:1; fill:none" points="4206.66,701.562 4206.66,1273.23 4443.17,1273.23 4443.17,701.562 4206.66,701.562 "/>
<path clip-path="url(#clip664)" d="M4443.17 1186.78 L4443.17 1273.23 L4679.68 1273.23 L4679.68 1186.78 L4443.17 1186.78 L4443.17 1186.78  Z" fill="#009af9" fill-rule="evenodd" fill-opacity="1"/>
<polyline clip-path="url(#clip664)" style="stroke:#000000; stroke-linecap:round; stroke-linejoin:round; stroke-width:4; stroke-opacity:1; fill:none" points="4443.17,1186.78 4443.17,1273.23 4679.68,1273.23 4679.68,1186.78 4443.17,1186.78 "/>
<circle clip-path="url(#clip664)" style="fill:#009af9; stroke:none; fill-opacity:0" cx="3615.4" cy="1273.23" r="2"/>
<circle clip-path="url(#clip664)" style="fill:#009af9; stroke:none; fill-opacity:0" cx="3851.9" cy="1249.52" r="2"/>
<circle clip-path="url(#clip664)" style="fill:#009af9; stroke:none; fill-opacity:0" cx="4088.41" cy="560.738" r="2"/>
<circle clip-path="url(#clip664)" style="fill:#009af9; stroke:none; fill-opacity:0" cx="4324.92" cy="701.562" r="2"/>
<circle clip-path="url(#clip664)" style="fill:#009af9; stroke:none; fill-opacity:0" cx="4561.42" cy="1186.78" r="2"/>
<path clip-path="url(#clip660)" d="M3497.14 136.185 L3505.85 136.185 L3516.88 165.583 L3527.96 136.185 L3536.67 136.185 L3536.67 179.385 L3530.97 179.385 L3530.97 141.451 L3519.83 171.08 L3513.96 171.08 L3502.82 141.451 L3502.82 179.385 L3497.14 179.385 L3497.14 136.185 Z" fill="#000000" fill-rule="nonzero" fill-opacity="1" /><path clip-path="url(#clip660)" d="M3575.76 161.85 L3575.76 164.454 L3551.28 164.454 Q3551.63 169.952 3554.58 172.845 Q3557.56 175.71 3562.86 175.71 Q3565.92 175.71 3568.79 174.958 Q3571.68 174.205 3574.52 172.701 L3574.52 177.735 Q3571.65 178.951 3568.64 179.587 Q3565.63 180.224 3562.54 180.224 Q3554.78 180.224 3550.24 175.71 Q3545.73 171.196 3545.73 163.499 Q3545.73 155.542 3550.01 150.884 Q3554.32 146.196 3561.61 146.196 Q3568.15 146.196 3571.94 150.421 Q3575.76 154.616 3575.76 161.85 M3570.44 160.288 Q3570.38 155.918 3567.98 153.314 Q3565.6 150.71 3561.67 150.71 Q3557.21 150.71 3554.52 153.227 Q3551.86 155.745 3551.46 160.316 L3570.44 160.288 Z" fill="#000000" fill-rule="nonzero" fill-opacity="1" /><path clip-path="url(#clip660)" d="M3599.23 163.094 Q3592.77 163.094 3590.29 164.57 Q3587.8 166.046 3587.8 169.605 Q3587.8 172.44 3589.65 174.118 Q3591.53 175.768 3594.74 175.768 Q3599.17 175.768 3601.83 172.643 Q3604.52 169.489 3604.52 164.281 L3604.52 163.094 L3599.23 163.094 M3609.85 160.895 L3609.85 179.385 L3604.52 179.385 L3604.52 174.466 Q3602.7 177.417 3599.98 178.835 Q3597.26 180.224 3593.32 180.224 Q3588.35 180.224 3585.4 177.446 Q3582.47 174.639 3582.47 169.952 Q3582.47 164.483 3586.12 161.705 Q3589.79 158.928 3597.06 158.928 L3604.52 158.928 L3604.52 158.407 Q3604.52 154.732 3602.09 152.735 Q3599.69 150.71 3595.32 150.71 Q3592.54 150.71 3589.91 151.376 Q3587.28 152.041 3584.85 153.372 L3584.85 148.453 Q3587.77 147.325 3590.52 146.775 Q3593.27 146.196 3595.87 146.196 Q3602.9 146.196 3606.37 149.842 Q3609.85 153.488 3609.85 160.895 Z" fill="#000000" fill-rule="nonzero" fill-opacity="1" /><path clip-path="url(#clip660)" d="M3647.75 159.825 L3647.75 179.385 L3642.43 179.385 L3642.43 159.998 Q3642.43 155.397 3640.63 153.112 Q3638.84 150.826 3635.25 150.826 Q3630.94 150.826 3628.45 153.575 Q3625.96 156.323 3625.96 161.069 L3625.96 179.385 L3620.61 179.385 L3620.61 146.977 L3625.96 146.977 L3625.96 152.012 Q3627.87 149.09 3630.45 147.643 Q3633.05 146.196 3636.44 146.196 Q3642.02 146.196 3644.89 149.668 Q3647.75 153.112 3647.75 159.825 Z" fill="#000000" fill-rule="nonzero" fill-opacity="1" /><path clip-path="url(#clip660)" d="M3677.9 152.475 L3715 152.475 L3715 157.336 L3677.9 157.336 L3677.9 152.475 M3677.9 164.281 L3715 164.281 L3715 169.2 L3677.9 169.2 L3677.9 164.281 Z" fill="#000000" fill-rule="nonzero" fill-opacity="1" /><path clip-path="url(#clip660)" d="M3751.48 174.466 L3771.88 174.466 L3771.88 179.385 L3744.45 179.385 L3744.45 174.466 Q3747.78 171.022 3753.51 165.235 Q3759.27 159.419 3760.74 157.741 Q3763.55 154.587 3764.65 152.417 Q3765.78 150.218 3765.78 148.106 Q3765.78 144.663 3763.35 142.492 Q3760.94 140.322 3757.07 140.322 Q3754.32 140.322 3751.25 141.277 Q3748.21 142.232 3744.74 144.171 L3744.74 138.268 Q3748.27 136.85 3751.34 136.127 Q3754.41 135.403 3756.95 135.403 Q3763.66 135.403 3767.66 138.76 Q3771.65 142.116 3771.65 147.73 Q3771.65 150.392 3770.64 152.793 Q3769.65 155.166 3767.02 158.407 Q3766.3 159.246 3762.42 163.268 Q3758.54 167.261 3751.48 174.466 Z" fill="#000000" fill-rule="nonzero" fill-opacity="1" /><path clip-path="url(#clip660)" d="M3784.15 172.035 L3790.26 172.035 L3790.26 179.385 L3784.15 179.385 L3784.15 172.035 Z" fill="#000000" fill-rule="nonzero" fill-opacity="1" /><path clip-path="url(#clip660)" d="M3803.05 136.185 L3825.99 136.185 L3825.99 141.104 L3808.4 141.104 L3808.4 151.694 Q3809.67 151.26 3810.94 151.057 Q3812.22 150.826 3813.49 150.826 Q3820.72 150.826 3824.95 154.79 Q3829.17 158.754 3829.17 165.525 Q3829.17 172.498 3824.83 176.375 Q3820.49 180.224 3812.59 180.224 Q3809.87 180.224 3807.04 179.761 Q3804.23 179.298 3801.22 178.372 L3801.22 172.498 Q3803.83 173.916 3806.6 174.61 Q3809.38 175.305 3812.48 175.305 Q3817.48 175.305 3820.41 172.672 Q3823.33 170.039 3823.33 165.525 Q3823.33 161.011 3820.41 158.378 Q3817.48 155.745 3812.48 155.745 Q3810.13 155.745 3807.79 156.266 Q3805.48 156.786 3803.05 157.886 L3803.05 136.185 Z" fill="#000000" fill-rule="nonzero" fill-opacity="1" /><path clip-path="url(#clip660)" d="M3841.7 174.466 L3851.25 174.466 L3851.25 141.509 L3840.86 143.592 L3840.86 138.268 L3851.19 136.185 L3857.04 136.185 L3857.04 174.466 L3866.59 174.466 L3866.59 179.385 L3841.7 179.385 L3841.7 174.466 Z" fill="#000000" fill-rule="nonzero" fill-opacity="1" /><path clip-path="url(#clip660)" d="M3876.92 136.185 L3904.69 136.185 L3904.69 138.673 L3889.01 179.385 L3882.91 179.385 L3897.66 141.104 L3876.92 141.104 L3876.92 136.185 Z" fill="#000000" fill-rule="nonzero" fill-opacity="1" /><path clip-path="url(#clip660)" d="M3502.99 210.703 L3502.99 244.297 L3510.05 244.297 Q3518.99 244.297 3523.13 240.246 Q3527.29 236.195 3527.29 227.456 Q3527.29 218.776 3523.13 214.754 Q3518.99 210.703 3510.05 210.703 L3502.99 210.703 M3497.14 205.9 L3509.15 205.9 Q3521.71 205.9 3527.58 211.137 Q3533.46 216.345 3533.46 227.456 Q3533.46 238.625 3527.55 243.862 Q3521.65 249.1 3509.15 249.1 L3497.14 249.1 L3497.14 205.9 Z" fill="#000000" fill-rule="nonzero" fill-opacity="1" /><path clip-path="url(#clip660)" d="M3542.54 216.692 L3547.87 216.692 L3547.87 249.1 L3542.54 249.1 L3542.54 216.692 M3542.54 204.077 L3547.87 204.077 L3547.87 210.819 L3542.54 210.819 L3542.54 204.077 Z" fill="#000000" fill-rule="nonzero" fill-opacity="1" /><path clip-path="url(#clip660)" d="M3579.67 217.647 L3579.67 222.682 Q3577.41 221.525 3574.98 220.946 Q3572.55 220.367 3569.94 220.367 Q3565.98 220.367 3563.98 221.583 Q3562.02 222.798 3562.02 225.228 Q3562.02 227.08 3563.43 228.151 Q3564.85 229.192 3569.13 230.147 L3570.96 230.552 Q3576.63 231.768 3579 233.996 Q3581.4 236.195 3581.4 240.159 Q3581.4 244.673 3577.82 247.306 Q3574.26 249.939 3568.01 249.939 Q3565.4 249.939 3562.57 249.418 Q3559.76 248.926 3556.63 247.913 L3556.63 242.416 Q3559.59 243.949 3562.45 244.731 Q3565.32 245.483 3568.12 245.483 Q3571.88 245.483 3573.91 244.21 Q3575.93 242.908 3575.93 240.564 Q3575.93 238.394 3574.46 237.236 Q3573.01 236.079 3568.06 235.008 L3566.21 234.574 Q3561.26 233.533 3559.07 231.391 Q3556.87 229.221 3556.87 225.46 Q3556.87 220.888 3560.11 218.4 Q3563.35 215.911 3569.31 215.911 Q3572.26 215.911 3574.86 216.345 Q3577.47 216.779 3579.67 217.647 Z" fill="#000000" fill-rule="nonzero" fill-opacity="1" /><path clip-path="url(#clip660)" d="M3595.15 207.491 L3595.15 216.692 L3606.11 216.692 L3606.11 220.83 L3595.15 220.83 L3595.15 238.423 Q3595.15 242.387 3596.22 243.515 Q3597.32 244.644 3600.64 244.644 L3606.11 244.644 L3606.11 249.1 L3600.64 249.1 Q3594.48 249.1 3592.14 246.814 Q3589.79 244.499 3589.79 238.423 L3589.79 220.83 L3585.89 220.83 L3585.89 216.692 L3589.79 216.692 L3589.79 207.491 L3595.15 207.491 Z" fill="#000000" fill-rule="nonzero" fill-opacity="1" /><path clip-path="url(#clip660)" d="M3632.65 222.19 L3669.74 222.19 L3669.74 227.051 L3632.65 227.051 L3632.65 222.19 M3632.65 233.996 L3669.74 233.996 L3669.74 238.915 L3632.65 238.915 L3632.65 233.996 Z" fill="#000000" fill-rule="nonzero" fill-opacity="1" /><path clip-path="url(#clip660)" d="M3713.69 209.748 Q3709.18 209.748 3706.89 214.204 Q3704.64 218.631 3704.64 227.543 Q3704.64 236.426 3706.89 240.882 Q3709.18 245.309 3713.69 245.309 Q3718.24 245.309 3720.49 240.882 Q3722.78 236.426 3722.78 227.543 Q3722.78 218.631 3720.49 214.204 Q3718.24 209.748 3713.69 209.748 M3713.69 205.118 Q3720.96 205.118 3724.78 210.877 Q3728.62 216.606 3728.62 227.543 Q3728.62 238.452 3724.78 244.21 Q3720.96 249.939 3713.69 249.939 Q3706.43 249.939 3702.58 244.21 Q3698.76 238.452 3698.76 227.543 Q3698.76 216.606 3702.58 210.877 Q3706.43 205.118 3713.69 205.118 Z" fill="#000000" fill-rule="nonzero" fill-opacity="1" /><path clip-path="url(#clip660)" d="M3738.9 241.75 L3745 241.75 L3745 249.1 L3738.9 249.1 L3738.9 241.75 Z" fill="#000000" fill-rule="nonzero" fill-opacity="1" /><path clip-path="url(#clip660)" d="M3770.23 209.748 Q3765.72 209.748 3763.43 214.204 Q3761.18 218.631 3761.18 227.543 Q3761.18 236.426 3763.43 240.882 Q3765.72 245.309 3770.23 245.309 Q3774.78 245.309 3777.03 240.882 Q3779.32 236.426 3779.32 227.543 Q3779.32 218.631 3777.03 214.204 Q3774.78 209.748 3770.23 209.748 M3770.23 205.118 Q3777.5 205.118 3781.32 210.877 Q3785.16 216.606 3785.16 227.543 Q3785.16 238.452 3781.32 244.21 Q3777.5 249.939 3770.23 249.939 Q3762.97 249.939 3759.12 244.21 Q3755.3 238.452 3755.3 227.543 Q3755.3 216.606 3759.12 210.877 Q3762.97 205.118 3770.23 205.118 Z" fill="#000000" fill-rule="nonzero" fill-opacity="1" /><path clip-path="url(#clip660)" d="M3811.49 210.992 L3796.74 234.054 L3811.49 234.054 L3811.49 210.992 M3809.96 205.9 L3817.31 205.9 L3817.31 234.054 L3823.47 234.054 L3823.47 238.915 L3817.31 238.915 L3817.31 249.1 L3811.49 249.1 L3811.49 238.915 L3791.99 238.915 L3791.99 233.272 L3809.96 205.9 Z" fill="#000000" fill-rule="nonzero" fill-opacity="1" /><path clip-path="url(#clip660)" d="M3850.85 225.807 Q3855.04 226.704 3857.39 229.54 Q3859.76 232.375 3859.76 236.542 Q3859.76 242.937 3855.36 246.438 Q3850.96 249.939 3842.86 249.939 Q3840.14 249.939 3837.25 249.389 Q3834.38 248.868 3831.31 247.798 L3831.31 242.155 Q3833.75 243.573 3836.64 244.297 Q3839.53 245.02 3842.69 245.02 Q3848.18 245.02 3851.05 242.85 Q3853.94 240.68 3853.94 236.542 Q3853.94 232.723 3851.25 230.581 Q3848.59 228.411 3843.81 228.411 L3838.78 228.411 L3838.78 223.608 L3844.05 223.608 Q3848.36 223.608 3850.64 221.901 Q3852.93 220.165 3852.93 216.924 Q3852.93 213.596 3850.56 211.831 Q3848.21 210.037 3843.81 210.037 Q3841.41 210.037 3838.66 210.558 Q3835.92 211.079 3832.62 212.179 L3832.62 206.97 Q3835.94 206.044 3838.84 205.581 Q3841.76 205.118 3844.34 205.118 Q3850.99 205.118 3854.87 208.157 Q3858.75 211.166 3858.75 216.316 Q3858.75 219.904 3856.69 222.393 Q3854.64 224.852 3850.85 225.807 Z" fill="#000000" fill-rule="nonzero" fill-opacity="1" /><path clip-path="url(#clip660)" d="M3871.85 244.181 L3881.4 244.181 L3881.4 211.224 L3871.01 213.307 L3871.01 207.983 L3881.34 205.9 L3887.19 205.9 L3887.19 244.181 L3896.74 244.181 L3896.74 249.1 L3871.85 249.1 L3871.85 244.181 Z" fill="#000000" fill-rule="nonzero" fill-opacity="1" /><path clip-path="url(#clip660)" d="M3907.07 205.9 L3934.84 205.9 L3934.84 208.388 L3919.16 249.1 L3913.06 249.1 L3927.81 210.819 L3907.07 210.819 L3907.07 205.9 Z" fill="#000000" fill-rule="nonzero" fill-opacity="1" /></svg>
