<?xml version="1.0" encoding="utf-8"?>
<svg xmlns="http://www.w3.org/2000/svg" xmlns:xlink="http://www.w3.org/1999/xlink" width="1200" height="350" viewBox="0 0 4800 1400">
<defs>
  <clipPath id="clip700">
    <rect x="0" y="0" width="4800" height="1400"/>
  </clipPath>
</defs>
<path clip-path="url(#clip700)" d="M0 1400 L4800 1400 L4800 0 L0 0  Z" fill="#ffffff" fill-rule="evenodd" fill-opacity="1"/>
<defs>
  <clipPath id="clip701">
    <rect x="960" y="0" width="3361" height="1400"/>
  </clipPath>
</defs>
<path clip-path="url(#clip700)" d="M224.064 1273.23 L1552.76 1273.23 L1552.76 88.0695 L224.064 88.0695  Z" fill="#ffffff" fill-rule="evenodd" fill-opacity="1"/>
<defs>
  <clipPath id="clip702">
    <rect x="224" y="88" width="1330" height="1186"/>
  </clipPath>
</defs>
<polyline clip-path="url(#clip702)" style="stroke:#000000; stroke-linecap:round; stroke-linejoin:round; stroke-width:2; stroke-opacity:0.1; fill:none" points="381.611,1273.23 381.611,88.0695 "/>
<polyline clip-path="url(#clip702)" style="stroke:#000000; stroke-linecap:round; stroke-linejoin:round; stroke-width:2; stroke-opacity:0.1; fill:none" points="550.544,1273.23 550.544,88.0695 "/>
<polyline clip-path="url(#clip702)" style="stroke:#000000; stroke-linecap:round; stroke-linejoin:round; stroke-width:2; stroke-opacity:0.1; fill:none" points="719.477,1273.23 719.477,88.0695 "/>
<polyline clip-path="url(#clip702)" style="stroke:#000000; stroke-linecap:round; stroke-linejoin:round; stroke-width:2; stroke-opacity:0.1; fill:none" points="888.41,1273.23 888.41,88.0695 "/>
<polyline clip-path="url(#clip702)" style="stroke:#000000; stroke-linecap:round; stroke-linejoin:round; stroke-width:2; stroke-opacity:0.1; fill:none" points="1057.34,1273.23 1057.34,88.0695 "/>
<polyline clip-path="url(#clip702)" style="stroke:#000000; stroke-linecap:round; stroke-linejoin:round; stroke-width:2; stroke-opacity:0.1; fill:none" points="1226.28,1273.23 1226.28,88.0695 "/>
<polyline clip-path="url(#clip702)" style="stroke:#000000; stroke-linecap:round; stroke-linejoin:round; stroke-width:2; stroke-opacity:0.1; fill:none" points="1395.21,1273.23 1395.21,88.0695 "/>
<polyline clip-path="url(#clip700)" style="stroke:#000000; stroke-linecap:round; stroke-linejoin:round; stroke-width:4; stroke-opacity:1; fill:none" points="224.064,1273.23 1552.76,1273.23 "/>
<polyline clip-path="url(#clip700)" style="stroke:#000000; stroke-linecap:round; stroke-linejoin:round; stroke-width:4; stroke-opacity:1; fill:none" points="381.611,1273.23 381.611,1254.33 "/>
<polyline clip-path="url(#clip700)" style="stroke:#000000; stroke-linecap:round; stroke-linejoin:round; stroke-width:4; stroke-opacity:1; fill:none" points="550.544,1273.23 550.544,1254.33 "/>
<polyline clip-path="url(#clip700)" style="stroke:#000000; stroke-linecap:round; stroke-linejoin:round; stroke-width:4; stroke-opacity:1; fill:none" points="719.477,1273.23 719.477,1254.33 "/>
<polyline clip-path="url(#clip700)" style="stroke:#000000; stroke-linecap:round; stroke-linejoin:round; stroke-width:4; stroke-opacity:1; fill:none" points="888.41,1273.23 888.41,1254.33 "/>
<polyline clip-path="url(#clip700)" style="stroke:#000000; stroke-linecap:round; stroke-linejoin:round; stroke-width:4; stroke-opacity:1; fill:none" points="1057.34,1273.23 1057.34,1254.33 "/>
<polyline clip-path="url(#clip700)" style="stroke:#000000; stroke-linecap:round; stroke-linejoin:round; stroke-width:4; stroke-opacity:1; fill:none" points="1226.28,1273.23 1226.28,1254.33 "/>
<polyline clip-path="url(#clip700)" style="stroke:#000000; stroke-linecap:round; stroke-linejoin:round; stroke-width:4; stroke-opacity:1; fill:none" points="1395.21,1273.23 1395.21,1254.33 "/>
<g clip-path="url(#clip700)">
<text style="fill:#000000; fill-opacity:1; font-family:Century Gothic,CenturyGothic,AppleGothic,sans-serif; font-size:47px; text-anchor:middle;" transform="rotate(0, 381.611, 1353.69)" x="381.611" y="1353.69">0</text>
</g>
<g clip-path="url(#clip700)">
<text style="fill:#000000; fill-opacity:1; font-family:Century Gothic,CenturyGothic,AppleGothic,sans-serif; font-size:47px; text-anchor:middle;" transform="rotate(0, 550.544, 1353.69)" x="550.544" y="1353.69">1</text>
</g>
<g clip-path="url(#clip700)">
<text style="fill:#000000; fill-opacity:1; font-family:Century Gothic,CenturyGothic,AppleGothic,sans-serif; font-size:47px; text-anchor:middle;" transform="rotate(0, 719.477, 1353.69)" x="719.477" y="1353.69">2</text>
</g>
<g clip-path="url(#clip700)">
<text style="fill:#000000; fill-opacity:1; font-family:Century Gothic,CenturyGothic,AppleGothic,sans-serif; font-size:47px; text-anchor:middle;" transform="rotate(0, 888.41, 1353.69)" x="888.41" y="1353.69">3</text>
</g>
<g clip-path="url(#clip700)">
<text style="fill:#000000; fill-opacity:1; font-family:Century Gothic,CenturyGothic,AppleGothic,sans-serif; font-size:47px; text-anchor:middle;" transform="rotate(0, 1057.34, 1353.69)" x="1057.34" y="1353.69">4</text>
</g>
<g clip-path="url(#clip700)">
<text style="fill:#000000; fill-opacity:1; font-family:Century Gothic,CenturyGothic,AppleGothic,sans-serif; font-size:47px; text-anchor:middle;" transform="rotate(0, 1226.28, 1353.69)" x="1226.28" y="1353.69">5</text>
</g>
<g clip-path="url(#clip700)">
<text style="fill:#000000; fill-opacity:1; font-family:Century Gothic,CenturyGothic,AppleGothic,sans-serif; font-size:47px; text-anchor:middle;" transform="rotate(0, 1395.21, 1353.69)" x="1395.21" y="1353.69">6</text>
</g>
<g clip-path="url(#clip700)">
<text style="fill:#000000; fill-opacity:1; font-family:Century Gothic,CenturyGothic,AppleGothic,sans-serif; font-size:65px; text-anchor:middle;" transform="rotate(0, 888.41, 1452.31)" x="888.41" y="1452.31">中心推定の正解数</text>
</g>
<polyline clip-path="url(#clip702)" style="stroke:#000000; stroke-linecap:round; stroke-linejoin:round; stroke-width:2; stroke-opacity:0.1; fill:none" points="224.064,1273.23 1552.76,1273.23 "/>
<polyline clip-path="url(#clip702)" style="stroke:#000000; stroke-linecap:round; stroke-linejoin:round; stroke-width:2; stroke-opacity:0.1; fill:none" points="224.064,994.366 1552.76,994.366 "/>
<polyline clip-path="url(#clip702)" style="stroke:#000000; stroke-linecap:round; stroke-linejoin:round; stroke-width:2; stroke-opacity:0.1; fill:none" points="224.064,715.505 1552.76,715.505 "/>
<polyline clip-path="url(#clip702)" style="stroke:#000000; stroke-linecap:round; stroke-linejoin:round; stroke-width:2; stroke-opacity:0.1; fill:none" points="224.064,436.645 1552.76,436.645 "/>
<polyline clip-path="url(#clip702)" style="stroke:#000000; stroke-linecap:round; stroke-linejoin:round; stroke-width:2; stroke-opacity:0.1; fill:none" points="224.064,157.785 1552.76,157.785 "/>
<polyline clip-path="url(#clip700)" style="stroke:#000000; stroke-linecap:round; stroke-linejoin:round; stroke-width:4; stroke-opacity:1; fill:none" points="224.064,1273.23 224.064,88.0695 "/>
<polyline clip-path="url(#clip700)" style="stroke:#000000; stroke-linecap:round; stroke-linejoin:round; stroke-width:4; stroke-opacity:1; fill:none" points="224.064,1273.23 242.961,1273.23 "/>
<polyline clip-path="url(#clip700)" style="stroke:#000000; stroke-linecap:round; stroke-linejoin:round; stroke-width:4; stroke-opacity:1; fill:none" points="224.064,994.366 242.961,994.366 "/>
<polyline clip-path="url(#clip700)" style="stroke:#000000; stroke-linecap:round; stroke-linejoin:round; stroke-width:4; stroke-opacity:1; fill:none" points="224.064,715.505 242.961,715.505 "/>
<polyline clip-path="url(#clip700)" style="stroke:#000000; stroke-linecap:round; stroke-linejoin:round; stroke-width:4; stroke-opacity:1; fill:none" points="224.064,436.645 242.961,436.645 "/>
<polyline clip-path="url(#clip700)" style="stroke:#000000; stroke-linecap:round; stroke-linejoin:round; stroke-width:4; stroke-opacity:1; fill:none" points="224.064,157.785 242.961,157.785 "/>
<g clip-path="url(#clip700)">
<text style="fill:#000000; fill-opacity:1; font-family:Century Gothic,CenturyGothic,AppleGothic,sans-serif; font-size:47px; text-anchor:middle;" transform="rotate(0, 139.127, 1290.73)" x="139.127" y="1290.73">0</text>
</g>
<g clip-path="url(#clip700)">
<text style="fill:#000000; fill-opacity:1; font-family:Century Gothic,CenturyGothic,AppleGothic,sans-serif; font-size:47px; text-anchor:middle;" transform="rotate(0, 113.254, 1011.87)" x="113.254" y="1011.87">200</text>
</g>
<g clip-path="url(#clip700)">
<text style="fill:#000000; fill-opacity:1; font-family:Century Gothic,CenturyGothic,AppleGothic,sans-serif; font-size:47px; text-anchor:middle;" transform="rotate(0, 113.254, 733.005)" x="113.254" y="733.005">400</text>
</g>
<g clip-path="url(#clip700)">
<text style="fill:#000000; fill-opacity:1; font-family:Century Gothic,CenturyGothic,AppleGothic,sans-serif; font-size:47px; text-anchor:middle;" transform="rotate(0, 113.254, 454.145)" x="113.254" y="454.145">600</text>
</g>
<g clip-path="url(#clip700)">
<text style="fill:#000000; fill-opacity:1; font-family:Century Gothic,CenturyGothic,AppleGothic,sans-serif; font-size:47px; text-anchor:middle;" transform="rotate(0, 113.254, 175.285)" x="113.254" y="175.285">800</text>
</g>
<g clip-path="url(#clip700)">
<text style="fill:#000000; fill-opacity:1; font-family:Century Gothic,CenturyGothic,AppleGothic,sans-serif; font-size:65px; text-anchor:middle;" transform="rotate(-90, -7.51163, 680.648)" x="-7.51163" y="680.648">度数</text>
</g>
<g clip-path="url(#clip700)">
<text style="fill:#000000; fill-opacity:1; font-family:Century Gothic,CenturyGothic,AppleGothic,sans-serif; font-size:81px; text-anchor:middle;" transform="rotate(0, 888.41, 72)" x="888.41" y="72">Setting : A, Method : EV</text>
</g>
<path clip-path="url(#clip702)" d="M297.144 1273.23 L297.144 1273.23 L466.077 1273.23 L466.077 1273.23 L297.144 1273.23 L297.144 1273.23  Z" fill="#009af9" fill-rule="evenodd" fill-opacity="1"/>
<polyline clip-path="url(#clip702)" style="stroke:#000000; stroke-linecap:round; stroke-linejoin:round; stroke-width:4; stroke-opacity:1; fill:none" points="297.144,1273.23 297.144,1273.23 466.077,1273.23 297.144,1273.23 "/>
<path clip-path="url(#clip702)" d="M466.077 1273.23 L466.077 1273.23 L635.01 1273.23 L635.01 1273.23 L466.077 1273.23 L466.077 1273.23  Z" fill="#009af9" fill-rule="evenodd" fill-opacity="1"/>
<polyline clip-path="url(#clip702)" style="stroke:#000000; stroke-linecap:round; stroke-linejoin:round; stroke-width:4; stroke-opacity:1; fill:none" points="466.077,1273.23 466.077,1273.23 635.01,1273.23 466.077,1273.23 "/>
<path clip-path="url(#clip702)" d="M635.01 1271.83 L635.01 1273.23 L803.943 1273.23 L803.943 1271.83 L635.01 1271.83 L635.01 1271.83  Z" fill="#009af9" fill-rule="evenodd" fill-opacity="1"/>
<polyline clip-path="url(#clip702)" style="stroke:#000000; stroke-linecap:round; stroke-linejoin:round; stroke-width:4; stroke-opacity:1; fill:none" points="635.01,1271.83 635.01,1273.23 803.943,1273.23 803.943,1271.83 635.01,1271.83 "/>
<path clip-path="url(#clip702)" d="M803.943 1214.67 L803.943 1273.23 L972.876 1273.23 L972.876 1214.67 L803.943 1214.67 L803.943 1214.67  Z" fill="#009af9" fill-rule="evenodd" fill-opacity="1"/>
<polyline clip-path="url(#clip702)" style="stroke:#000000; stroke-linecap:round; stroke-linejoin:round; stroke-width:4; stroke-opacity:1; fill:none" points="803.943,1214.67 803.943,1273.23 972.876,1273.23 972.876,1214.67 803.943,1214.67 "/>
<path clip-path="url(#clip702)" d="M972.876 973.451 L972.876 1273.23 L1141.81 1273.23 L1141.81 973.451 L972.876 973.451 L972.876 973.451  Z" fill="#009af9" fill-rule="evenodd" fill-opacity="1"/>
<polyline clip-path="url(#clip702)" style="stroke:#000000; stroke-linecap:round; stroke-linejoin:round; stroke-width:4; stroke-opacity:1; fill:none" points="972.876,973.451 972.876,1273.23 1141.81,1273.23 1141.81,973.451 972.876,973.451 "/>
<path clip-path="url(#clip702)" d="M1141.81 610.933 L1141.81 1273.23 L1310.74 1273.23 L1310.74 610.933 L1141.81 610.933 L1141.81 610.933  Z" fill="#009af9" fill-rule="evenodd" fill-opacity="1"/>
<polyline clip-path="url(#clip702)" style="stroke:#000000; stroke-linecap:round; stroke-linejoin:round; stroke-width:4; stroke-opacity:1; fill:none" points="1141.81,610.933 1141.81,1273.23 1310.74,1273.23 1310.74,610.933 1141.81,610.933 "/>
<path clip-path="url(#clip702)" d="M1310.74 900.948 L1310.74 1273.23 L1479.68 1273.23 L1479.68 900.948 L1310.74 900.948 L1310.74 900.948  Z" fill="#009af9" fill-rule="evenodd" fill-opacity="1"/>
<polyline clip-path="url(#clip702)" style="stroke:#000000; stroke-linecap:round; stroke-linejoin:round; stroke-width:4; stroke-opacity:1; fill:none" points="1310.74,900.948 1310.74,1273.23 1479.68,1273.23 1479.68,900.948 1310.74,900.948 "/>
<circle clip-path="url(#clip702)" style="fill:#009af9; stroke:none; fill-opacity:0" cx="381.611" cy="1273.23" r="2"/>
<circle clip-path="url(#clip702)" style="fill:#009af9; stroke:none; fill-opacity:0" cx="550.544" cy="1273.23" r="2"/>
<circle clip-path="url(#clip702)" style="fill:#009af9; stroke:none; fill-opacity:0" cx="719.477" cy="1271.83" r="2"/>
<circle clip-path="url(#clip702)" style="fill:#009af9; stroke:none; fill-opacity:0" cx="888.41" cy="1214.67" r="2"/>
<circle clip-path="url(#clip702)" style="fill:#009af9; stroke:none; fill-opacity:0" cx="1057.34" cy="973.451" r="2"/>
<circle clip-path="url(#clip702)" style="fill:#009af9; stroke:none; fill-opacity:0" cx="1226.28" cy="610.933" r="2"/>
<circle clip-path="url(#clip702)" style="fill:#009af9; stroke:none; fill-opacity:0" cx="1395.21" cy="900.948" r="2"/>
<path clip-path="url(#clip700)" d="M297.144 136.185 L305.854 136.185 L316.878 165.583 L327.96 136.185 L336.669 136.185 L336.669 179.385 L330.969 179.385 L330.969 141.451 L319.829 171.08 L313.955 171.08 L302.815 141.451 L302.815 179.385 L297.144 179.385 L297.144 136.185 Z" fill="#000000" fill-rule="nonzero" fill-opacity="1" /><path clip-path="url(#clip700)" d="M375.761 161.85 L375.761 164.454 L351.282 164.454 Q351.629 169.952 354.58 172.845 Q357.561 175.71 362.856 175.71 Q365.923 175.71 368.787 174.958 Q371.681 174.205 374.516 172.701 L374.516 177.735 Q371.652 178.951 368.643 179.587 Q365.633 180.224 362.537 180.224 Q354.783 180.224 350.24 175.71 Q345.726 171.196 345.726 163.499 Q345.726 155.542 350.008 150.884 Q354.32 146.196 361.611 146.196 Q368.151 146.196 371.941 150.421 Q375.761 154.616 375.761 161.85 M370.437 160.288 Q370.379 155.918 367.977 153.314 Q365.604 150.71 361.669 150.71 Q357.213 150.71 354.522 153.227 Q351.86 155.745 351.455 160.316 L370.437 160.288 Z" fill="#000000" fill-rule="nonzero" fill-opacity="1" /><path clip-path="url(#clip700)" d="M399.227 163.094 Q392.774 163.094 390.286 164.57 Q387.798 166.046 387.798 169.605 Q387.798 172.44 389.649 174.118 Q391.53 175.768 394.742 175.768 Q399.169 175.768 401.831 172.643 Q404.522 169.489 404.522 164.281 L404.522 163.094 L399.227 163.094 M409.846 160.895 L409.846 179.385 L404.522 179.385 L404.522 174.466 Q402.699 177.417 399.979 178.835 Q397.259 180.224 393.324 180.224 Q388.347 180.224 385.396 177.446 Q382.474 174.639 382.474 169.952 Q382.474 164.483 386.119 161.705 Q389.794 158.928 397.057 158.928 L404.522 158.928 L404.522 158.407 Q404.522 154.732 402.092 152.735 Q399.69 150.71 395.321 150.71 Q392.543 150.71 389.91 151.376 Q387.277 152.041 384.846 153.372 L384.846 148.453 Q387.769 147.325 390.518 146.775 Q393.266 146.196 395.87 146.196 Q402.902 146.196 406.374 149.842 Q409.846 153.488 409.846 160.895 Z" fill="#000000" fill-rule="nonzero" fill-opacity="1" /><path clip-path="url(#clip700)" d="M447.751 159.825 L447.751 179.385 L442.427 179.385 L442.427 159.998 Q442.427 155.397 440.633 153.112 Q438.839 150.826 435.251 150.826 Q430.94 150.826 428.451 153.575 Q425.963 156.323 425.963 161.069 L425.963 179.385 L420.61 179.385 L420.61 146.977 L425.963 146.977 L425.963 152.012 Q427.873 149.09 430.448 147.643 Q433.052 146.196 436.437 146.196 Q442.022 146.196 444.886 149.668 Q447.751 153.112 447.751 159.825 Z" fill="#000000" fill-rule="nonzero" fill-opacity="1" /><path clip-path="url(#clip700)" d="M477.901 152.475 L514.996 152.475 L514.996 157.336 L477.901 157.336 L477.901 152.475 M477.901 164.281 L514.996 164.281 L514.996 169.2 L477.901 169.2 L477.901 164.281 Z" fill="#000000" fill-rule="nonzero" fill-opacity="1" /><path clip-path="url(#clip700)" d="M562.507 141.277 L547.75 164.338 L562.507 164.338 L562.507 141.277 M560.974 136.185 L568.323 136.185 L568.323 164.338 L574.486 164.338 L574.486 169.2 L568.323 169.2 L568.323 179.385 L562.507 179.385 L562.507 169.2 L543.005 169.2 L543.005 163.557 L560.974 136.185 Z" fill="#000000" fill-rule="nonzero" fill-opacity="1" /><path clip-path="url(#clip700)" d="M584.151 172.035 L590.256 172.035 L590.256 179.385 L584.151 179.385 L584.151 172.035 Z" fill="#000000" fill-rule="nonzero" fill-opacity="1" /><path clip-path="url(#clip700)" d="M603.161 178.488 L603.161 173.164 Q605.36 174.205 607.617 174.755 Q609.874 175.305 612.044 175.305 Q617.831 175.305 620.869 171.427 Q623.936 167.521 624.37 159.593 Q622.692 162.081 620.117 163.412 Q617.542 164.744 614.417 164.744 Q607.935 164.744 604.145 160.837 Q600.383 156.902 600.383 150.102 Q600.383 143.447 604.318 139.425 Q608.254 135.403 614.793 135.403 Q622.287 135.403 626.222 141.161 Q630.186 146.891 630.186 157.828 Q630.186 168.042 625.325 174.147 Q620.493 180.224 612.305 180.224 Q610.105 180.224 607.849 179.79 Q605.592 179.356 603.161 178.488 M614.793 160.172 Q618.728 160.172 621.014 157.481 Q623.329 154.79 623.329 150.102 Q623.329 145.444 621.014 142.753 Q618.728 140.033 614.793 140.033 Q610.858 140.033 608.543 142.753 Q606.257 145.444 606.257 150.102 Q606.257 154.79 608.543 157.481 Q610.858 160.172 614.793 160.172 Z" fill="#000000" fill-rule="nonzero" fill-opacity="1" /><path clip-path="url(#clip700)" d="M653.913 155.455 Q649.978 155.455 647.663 158.146 Q645.377 160.837 645.377 165.525 Q645.377 170.183 647.663 172.903 Q649.978 175.594 653.913 175.594 Q657.848 175.594 660.134 172.903 Q662.449 170.183 662.449 165.525 Q662.449 160.837 660.134 158.146 Q657.848 155.455 653.913 155.455 M665.516 137.139 L665.516 142.464 Q663.317 141.422 661.06 140.872 Q658.832 140.322 656.633 140.322 Q650.846 140.322 647.779 144.229 Q644.741 148.135 644.307 156.034 Q646.014 153.517 648.589 152.186 Q651.164 150.826 654.26 150.826 Q660.771 150.826 664.532 154.79 Q668.323 158.725 668.323 165.525 Q668.323 172.18 664.388 176.202 Q660.452 180.224 653.913 180.224 Q646.419 180.224 642.455 174.495 Q638.491 168.737 638.491 157.828 Q638.491 147.585 643.352 141.509 Q648.213 135.403 656.401 135.403 Q658.601 135.403 660.829 135.837 Q663.085 136.271 665.516 137.139 Z" fill="#000000" fill-rule="nonzero" fill-opacity="1" /><path clip-path="url(#clip700)" d="M678.45 136.185 L701.395 136.185 L701.395 141.104 L683.803 141.104 L683.803 151.694 Q685.076 151.26 686.349 151.057 Q687.622 150.826 688.896 150.826 Q696.129 150.826 700.354 154.79 Q704.578 158.754 704.578 165.525 Q704.578 172.498 700.238 176.375 Q695.898 180.224 687.999 180.224 Q685.279 180.224 682.443 179.761 Q679.636 179.298 676.627 178.372 L676.627 172.498 Q679.231 173.916 682.009 174.61 Q684.787 175.305 687.883 175.305 Q692.889 175.305 695.811 172.672 Q698.733 170.039 698.733 165.525 Q698.733 161.011 695.811 158.378 Q692.889 155.745 687.883 155.745 Q685.539 155.745 683.195 156.266 Q680.881 156.786 678.45 157.886 L678.45 136.185 Z" fill="#000000" fill-rule="nonzero" fill-opacity="1" /><path clip-path="url(#clip700)" d="M302.989 210.703 L302.989 244.297 L310.049 244.297 Q318.99 244.297 323.128 240.246 Q327.294 236.195 327.294 227.456 Q327.294 218.776 323.128 214.754 Q318.99 210.703 310.049 210.703 L302.989 210.703 M297.144 205.9 L309.152 205.9 Q321.71 205.9 327.584 211.137 Q333.458 216.345 333.458 227.456 Q333.458 238.625 327.555 243.862 Q321.652 249.1 309.152 249.1 L297.144 249.1 L297.144 205.9 Z" fill="#000000" fill-rule="nonzero" fill-opacity="1" /><path clip-path="url(#clip700)" d="M342.543 216.692 L347.867 216.692 L347.867 249.1 L342.543 249.1 L342.543 216.692 M342.543 204.077 L347.867 204.077 L347.867 210.819 L342.543 210.819 L342.543 204.077 Z" fill="#000000" fill-rule="nonzero" fill-opacity="1" /><path clip-path="url(#clip700)" d="M379.667 217.647 L379.667 222.682 Q377.41 221.525 374.979 220.946 Q372.549 220.367 369.945 220.367 Q365.981 220.367 363.984 221.583 Q362.016 222.798 362.016 225.228 Q362.016 227.08 363.434 228.151 Q364.852 229.192 369.135 230.147 L370.957 230.552 Q376.629 231.768 379.001 233.996 Q381.403 236.195 381.403 240.159 Q381.403 244.673 377.815 247.306 Q374.256 249.939 368.006 249.939 Q365.402 249.939 362.566 249.418 Q359.76 248.926 356.635 247.913 L356.635 242.416 Q359.586 243.949 362.451 244.731 Q365.315 245.483 368.122 245.483 Q371.883 245.483 373.909 244.21 Q375.934 242.908 375.934 240.564 Q375.934 238.394 374.459 237.236 Q373.012 236.079 368.064 235.008 L366.212 234.574 Q361.264 233.533 359.065 231.391 Q356.866 229.221 356.866 225.46 Q356.866 220.888 360.107 218.4 Q363.348 215.911 369.308 215.911 Q372.259 215.911 374.864 216.345 Q377.468 216.779 379.667 217.647 Z" fill="#000000" fill-rule="nonzero" fill-opacity="1" /><path clip-path="url(#clip700)" d="M395.147 207.491 L395.147 216.692 L406.113 216.692 L406.113 220.83 L395.147 220.83 L395.147 238.423 Q395.147 242.387 396.218 243.515 Q397.317 244.644 400.645 244.644 L406.113 244.644 L406.113 249.1 L400.645 249.1 Q394.482 249.1 392.138 246.814 Q389.794 244.499 389.794 238.423 L389.794 220.83 L385.888 220.83 L385.888 216.692 L389.794 216.692 L389.794 207.491 L395.147 207.491 Z" fill="#000000" fill-rule="nonzero" fill-opacity="1" /><path clip-path="url(#clip700)" d="M432.647 222.19 L469.742 222.19 L469.742 227.051 L432.647 227.051 L432.647 222.19 M432.647 233.996 L469.742 233.996 L469.742 238.915 L432.647 238.915 L432.647 233.996 Z" fill="#000000" fill-rule="nonzero" fill-opacity="1" /><path clip-path="url(#clip700)" d="M513.694 209.748 Q509.18 209.748 506.894 214.204 Q504.637 218.631 504.637 227.543 Q504.637 236.426 506.894 240.882 Q509.18 245.309 513.694 245.309 Q518.237 245.309 520.494 240.882 Q522.78 236.426 522.78 227.543 Q522.78 218.631 520.494 214.204 Q518.237 209.748 513.694 209.748 M513.694 205.118 Q520.957 205.118 524.776 210.877 Q528.624 216.606 528.624 227.543 Q528.624 238.452 524.776 244.21 Q520.957 249.939 513.694 249.939 Q506.431 249.939 502.583 244.21 Q498.763 238.452 498.763 227.543 Q498.763 216.606 502.583 210.877 Q506.431 205.118 513.694 205.118 Z" fill="#000000" fill-rule="nonzero" fill-opacity="1" /><path clip-path="url(#clip700)" d="M538.896 241.75 L545.002 241.75 L545.002 249.1 L538.896 249.1 L538.896 241.75 Z" fill="#000000" fill-rule="nonzero" fill-opacity="1" /><path clip-path="url(#clip700)" d="M570.233 209.748 Q565.719 209.748 563.433 214.204 Q561.176 218.631 561.176 227.543 Q561.176 236.426 563.433 240.882 Q565.719 245.309 570.233 245.309 Q574.776 245.309 577.033 240.882 Q579.319 236.426 579.319 227.543 Q579.319 218.631 577.033 214.204 Q574.776 209.748 570.233 209.748 M570.233 205.118 Q577.496 205.118 581.315 210.877 Q585.163 216.606 585.163 227.543 Q585.163 238.452 581.315 244.21 Q577.496 249.939 570.233 249.939 Q562.97 249.939 559.122 244.21 Q555.302 238.452 555.302 227.543 Q555.302 216.606 559.122 210.877 Q562.97 205.118 570.233 205.118 Z" fill="#000000" fill-rule="nonzero" fill-opacity="1" /><path clip-path="url(#clip700)" d="M600.47 244.181 L620.869 244.181 L620.869 249.1 L593.439 249.1 L593.439 244.181 Q596.766 240.738 602.496 234.951 Q608.254 229.135 609.729 227.456 Q612.536 224.302 613.636 222.132 Q614.764 219.933 614.764 217.821 Q614.764 214.378 612.333 212.208 Q609.932 210.037 606.055 210.037 Q603.306 210.037 600.239 210.992 Q597.2 211.947 593.728 213.886 L593.728 207.983 Q597.258 206.565 600.325 205.842 Q603.393 205.118 605.939 205.118 Q612.652 205.118 616.645 208.475 Q620.638 211.831 620.638 217.445 Q620.638 220.107 619.625 222.508 Q618.641 224.881 616.008 228.122 Q615.285 228.961 611.408 232.983 Q607.53 236.976 600.47 244.181 Z" fill="#000000" fill-rule="nonzero" fill-opacity="1" /><path clip-path="url(#clip700)" d="M638.172 244.181 L658.572 244.181 L658.572 249.1 L631.141 249.1 L631.141 244.181 Q634.469 240.738 640.198 234.951 Q645.956 229.135 647.432 227.456 Q650.238 224.302 651.338 222.132 Q652.466 219.933 652.466 217.821 Q652.466 214.378 650.036 212.208 Q647.634 210.037 643.757 210.037 Q641.008 210.037 637.941 210.992 Q634.903 211.947 631.431 213.886 L631.431 207.983 Q634.961 206.565 638.028 205.842 Q641.095 205.118 643.641 205.118 Q650.354 205.118 654.347 208.475 Q658.34 211.831 658.34 217.445 Q658.34 220.107 657.327 222.508 Q656.344 224.881 653.711 228.122 Q652.987 228.961 649.11 232.983 Q645.233 236.976 638.172 244.181 Z" fill="#000000" fill-rule="nonzero" fill-opacity="1" /><path clip-path="url(#clip700)" d="M683.34 228.585 Q679.173 228.585 676.772 230.813 Q674.399 233.041 674.399 236.947 Q674.399 240.853 676.772 243.081 Q679.173 245.309 683.34 245.309 Q687.507 245.309 689.908 243.081 Q692.31 240.824 692.31 236.947 Q692.31 233.041 689.908 230.813 Q687.536 228.585 683.34 228.585 M677.495 226.096 Q673.734 225.17 671.621 222.595 Q669.538 220.02 669.538 216.316 Q669.538 211.137 673.213 208.128 Q676.916 205.118 683.34 205.118 Q689.793 205.118 693.467 208.128 Q697.142 211.137 697.142 216.316 Q697.142 220.02 695.03 222.595 Q692.946 225.17 689.214 226.096 Q693.438 227.08 695.782 229.945 Q698.155 232.809 698.155 236.947 Q698.155 243.226 694.306 246.582 Q690.487 249.939 683.34 249.939 Q676.193 249.939 672.345 246.582 Q668.525 243.226 668.525 236.947 Q668.525 232.809 670.898 229.945 Q673.271 227.08 677.495 226.096 M675.354 216.866 Q675.354 220.223 677.437 222.103 Q679.55 223.984 683.34 223.984 Q687.102 223.984 689.214 222.103 Q691.355 220.223 691.355 216.866 Q691.355 213.51 689.214 211.629 Q687.102 209.748 683.34 209.748 Q679.55 209.748 677.437 211.629 Q675.354 213.51 675.354 216.866 Z" fill="#000000" fill-rule="nonzero" fill-opacity="1" /><path clip-path="url(#clip700)" d="M708.716 248.203 L708.716 242.879 Q710.915 243.92 713.172 244.47 Q715.429 245.02 717.599 245.02 Q723.386 245.02 726.424 241.143 Q729.491 237.236 729.925 229.308 Q728.247 231.797 725.672 233.128 Q723.097 234.459 719.972 234.459 Q713.49 234.459 709.7 230.552 Q705.938 226.617 705.938 219.817 Q705.938 213.162 709.873 209.14 Q713.809 205.118 720.348 205.118 Q727.842 205.118 731.777 210.877 Q735.741 216.606 735.741 227.543 Q735.741 237.757 730.88 243.862 Q726.048 249.939 717.859 249.939 Q715.66 249.939 713.404 249.505 Q711.147 249.071 708.716 248.203 M720.348 229.887 Q724.283 229.887 726.569 227.196 Q728.884 224.505 728.884 219.817 Q728.884 215.159 726.569 212.468 Q724.283 209.748 720.348 209.748 Q716.413 209.748 714.098 212.468 Q711.812 215.159 711.812 219.817 Q711.812 224.505 714.098 227.196 Q716.413 229.887 720.348 229.887 Z" fill="#000000" fill-rule="nonzero" fill-opacity="1" /><path clip-path="url(#clip700)" d="M1824.06 1273.23 L3152.76 1273.23 L3152.76 88.0695 L1824.06 88.0695  Z" fill="#ffffff" fill-rule="evenodd" fill-opacity="1"/>
<defs>
  <clipPath id="clip703">
    <rect x="1824" y="88" width="1330" height="1186"/>
  </clipPath>
</defs>
<polyline clip-path="url(#clip703)" style="stroke:#000000; stroke-linecap:round; stroke-linejoin:round; stroke-width:2; stroke-opacity:0.1; fill:none" points="1981.61,1273.23 1981.61,88.0695 "/>
<polyline clip-path="url(#clip703)" style="stroke:#000000; stroke-linecap:round; stroke-linejoin:round; stroke-width:2; stroke-opacity:0.1; fill:none" points="2150.54,1273.23 2150.54,88.0695 "/>
<polyline clip-path="url(#clip703)" style="stroke:#000000; stroke-linecap:round; stroke-linejoin:round; stroke-width:2; stroke-opacity:0.1; fill:none" points="2319.48,1273.23 2319.48,88.0695 "/>
<polyline clip-path="url(#clip703)" style="stroke:#000000; stroke-linecap:round; stroke-linejoin:round; stroke-width:2; stroke-opacity:0.1; fill:none" points="2488.41,1273.23 2488.41,88.0695 "/>
<polyline clip-path="url(#clip703)" style="stroke:#000000; stroke-linecap:round; stroke-linejoin:round; stroke-width:2; stroke-opacity:0.1; fill:none" points="2657.34,1273.23 2657.34,88.0695 "/>
<polyline clip-path="url(#clip703)" style="stroke:#000000; stroke-linecap:round; stroke-linejoin:round; stroke-width:2; stroke-opacity:0.1; fill:none" points="2826.28,1273.23 2826.28,88.0695 "/>
<polyline clip-path="url(#clip703)" style="stroke:#000000; stroke-linecap:round; stroke-linejoin:round; stroke-width:2; stroke-opacity:0.1; fill:none" points="2995.21,1273.23 2995.21,88.0695 "/>
<polyline clip-path="url(#clip700)" style="stroke:#000000; stroke-linecap:round; stroke-linejoin:round; stroke-width:4; stroke-opacity:1; fill:none" points="1824.06,1273.23 3152.76,1273.23 "/>
<polyline clip-path="url(#clip700)" style="stroke:#000000; stroke-linecap:round; stroke-linejoin:round; stroke-width:4; stroke-opacity:1; fill:none" points="1981.61,1273.23 1981.61,1254.33 "/>
<polyline clip-path="url(#clip700)" style="stroke:#000000; stroke-linecap:round; stroke-linejoin:round; stroke-width:4; stroke-opacity:1; fill:none" points="2150.54,1273.23 2150.54,1254.33 "/>
<polyline clip-path="url(#clip700)" style="stroke:#000000; stroke-linecap:round; stroke-linejoin:round; stroke-width:4; stroke-opacity:1; fill:none" points="2319.48,1273.23 2319.48,1254.33 "/>
<polyline clip-path="url(#clip700)" style="stroke:#000000; stroke-linecap:round; stroke-linejoin:round; stroke-width:4; stroke-opacity:1; fill:none" points="2488.41,1273.23 2488.41,1254.33 "/>
<polyline clip-path="url(#clip700)" style="stroke:#000000; stroke-linecap:round; stroke-linejoin:round; stroke-width:4; stroke-opacity:1; fill:none" points="2657.34,1273.23 2657.34,1254.33 "/>
<polyline clip-path="url(#clip700)" style="stroke:#000000; stroke-linecap:round; stroke-linejoin:round; stroke-width:4; stroke-opacity:1; fill:none" points="2826.28,1273.23 2826.28,1254.33 "/>
<polyline clip-path="url(#clip700)" style="stroke:#000000; stroke-linecap:round; stroke-linejoin:round; stroke-width:4; stroke-opacity:1; fill:none" points="2995.21,1273.23 2995.21,1254.33 "/>
<g clip-path="url(#clip700)">
<text style="fill:#000000; fill-opacity:1; font-family:Century Gothic,CenturyGothic,AppleGothic,sans-serif; font-size:47px; text-anchor:middle;" transform="rotate(0, 1981.61, 1353.69)" x="1981.61" y="1353.69">0</text>
</g>
<g clip-path="url(#clip700)">
<text style="fill:#000000; fill-opacity:1; font-family:Century Gothic,CenturyGothic,AppleGothic,sans-serif; font-size:47px; text-anchor:middle;" transform="rotate(0, 2150.54, 1353.69)" x="2150.54" y="1353.69">1</text>
</g>
<g clip-path="url(#clip700)">
<text style="fill:#000000; fill-opacity:1; font-family:Century Gothic,CenturyGothic,AppleGothic,sans-serif; font-size:47px; text-anchor:middle;" transform="rotate(0, 2319.48, 1353.69)" x="2319.48" y="1353.69">2</text>
</g>
<g clip-path="url(#clip700)">
<text style="fill:#000000; fill-opacity:1; font-family:Century Gothic,CenturyGothic,AppleGothic,sans-serif; font-size:47px; text-anchor:middle;" transform="rotate(0, 2488.41, 1353.69)" x="2488.41" y="1353.69">3</text>
</g>
<g clip-path="url(#clip700)">
<text style="fill:#000000; fill-opacity:1; font-family:Century Gothic,CenturyGothic,AppleGothic,sans-serif; font-size:47px; text-anchor:middle;" transform="rotate(0, 2657.34, 1353.69)" x="2657.34" y="1353.69">4</text>
</g>
<g clip-path="url(#clip700)">
<text style="fill:#000000; fill-opacity:1; font-family:Century Gothic,CenturyGothic,AppleGothic,sans-serif; font-size:47px; text-anchor:middle;" transform="rotate(0, 2826.28, 1353.69)" x="2826.28" y="1353.69">5</text>
</g>
<g clip-path="url(#clip700)">
<text style="fill:#000000; fill-opacity:1; font-family:Century Gothic,CenturyGothic,AppleGothic,sans-serif; font-size:47px; text-anchor:middle;" transform="rotate(0, 2995.21, 1353.69)" x="2995.21" y="1353.69">6</text>
</g>
<g clip-path="url(#clip700)">
<text style="fill:#000000; fill-opacity:1; font-family:Century Gothic,CenturyGothic,AppleGothic,sans-serif; font-size:65px; text-anchor:middle;" transform="rotate(0, 2488.41, 1452.31)" x="2488.41" y="1452.31">中心推定の正解数</text>
</g>
<polyline clip-path="url(#clip703)" style="stroke:#000000; stroke-linecap:round; stroke-linejoin:round; stroke-width:2; stroke-opacity:0.1; fill:none" points="1824.06,1273.23 3152.76,1273.23 "/>
<polyline clip-path="url(#clip703)" style="stroke:#000000; stroke-linecap:round; stroke-linejoin:round; stroke-width:2; stroke-opacity:0.1; fill:none" points="1824.06,994.366 3152.76,994.366 "/>
<polyline clip-path="url(#clip703)" style="stroke:#000000; stroke-linecap:round; stroke-linejoin:round; stroke-width:2; stroke-opacity:0.1; fill:none" points="1824.06,715.505 3152.76,715.505 "/>
<polyline clip-path="url(#clip703)" style="stroke:#000000; stroke-linecap:round; stroke-linejoin:round; stroke-width:2; stroke-opacity:0.1; fill:none" points="1824.06,436.645 3152.76,436.645 "/>
<polyline clip-path="url(#clip703)" style="stroke:#000000; stroke-linecap:round; stroke-linejoin:round; stroke-width:2; stroke-opacity:0.1; fill:none" points="1824.06,157.785 3152.76,157.785 "/>
<polyline clip-path="url(#clip700)" style="stroke:#000000; stroke-linecap:round; stroke-linejoin:round; stroke-width:4; stroke-opacity:1; fill:none" points="1824.06,1273.23 1824.06,88.0695 "/>
<polyline clip-path="url(#clip700)" style="stroke:#000000; stroke-linecap:round; stroke-linejoin:round; stroke-width:4; stroke-opacity:1; fill:none" points="1824.06,1273.23 1842.96,1273.23 "/>
<polyline clip-path="url(#clip700)" style="stroke:#000000; stroke-linecap:round; stroke-linejoin:round; stroke-width:4; stroke-opacity:1; fill:none" points="1824.06,994.366 1842.96,994.366 "/>
<polyline clip-path="url(#clip700)" style="stroke:#000000; stroke-linecap:round; stroke-linejoin:round; stroke-width:4; stroke-opacity:1; fill:none" points="1824.06,715.505 1842.96,715.505 "/>
<polyline clip-path="url(#clip700)" style="stroke:#000000; stroke-linecap:round; stroke-linejoin:round; stroke-width:4; stroke-opacity:1; fill:none" points="1824.06,436.645 1842.96,436.645 "/>
<polyline clip-path="url(#clip700)" style="stroke:#000000; stroke-linecap:round; stroke-linejoin:round; stroke-width:4; stroke-opacity:1; fill:none" points="1824.06,157.785 1842.96,157.785 "/>
<g clip-path="url(#clip700)">
<text style="fill:#000000; fill-opacity:1; font-family:Century Gothic,CenturyGothic,AppleGothic,sans-serif; font-size:47px; text-anchor:middle;" transform="rotate(0, 1739.13, 1290.73)" x="1739.13" y="1290.73">0</text>
</g>
<g clip-path="url(#clip700)">
<text style="fill:#000000; fill-opacity:1; font-family:Century Gothic,CenturyGothic,AppleGothic,sans-serif; font-size:47px; text-anchor:middle;" transform="rotate(0, 1713.25, 1011.87)" x="1713.25" y="1011.87">200</text>
</g>
<g clip-path="url(#clip700)">
<text style="fill:#000000; fill-opacity:1; font-family:Century Gothic,CenturyGothic,AppleGothic,sans-serif; font-size:47px; text-anchor:middle;" transform="rotate(0, 1713.25, 733.005)" x="1713.25" y="733.005">400</text>
</g>
<g clip-path="url(#clip700)">
<text style="fill:#000000; fill-opacity:1; font-family:Century Gothic,CenturyGothic,AppleGothic,sans-serif; font-size:47px; text-anchor:middle;" transform="rotate(0, 1713.25, 454.145)" x="1713.25" y="454.145">600</text>
</g>
<g clip-path="url(#clip700)">
<text style="fill:#000000; fill-opacity:1; font-family:Century Gothic,CenturyGothic,AppleGothic,sans-serif; font-size:47px; text-anchor:middle;" transform="rotate(0, 1713.25, 175.285)" x="1713.25" y="175.285">800</text>
</g>
<g clip-path="url(#clip700)">
<text style="fill:#000000; fill-opacity:1; font-family:Century Gothic,CenturyGothic,AppleGothic,sans-serif; font-size:65px; text-anchor:middle;" transform="rotate(-90, 1592.49, 680.648)" x="1592.49" y="680.648">度数</text>
</g>
<g clip-path="url(#clip700)">
<text style="fill:#000000; fill-opacity:1; font-family:Century Gothic,CenturyGothic,AppleGothic,sans-serif; font-size:81px; text-anchor:middle;" transform="rotate(0, 2488.41, 72)" x="2488.41" y="72">Setting : A, Method : GM</text>
</g>
<path clip-path="url(#clip703)" d="M1897.14 1273.23 L1897.14 1273.23 L2066.08 1273.23 L2066.08 1273.23 L1897.14 1273.23 L1897.14 1273.23  Z" fill="#009af9" fill-rule="evenodd" fill-opacity="1"/>
<polyline clip-path="url(#clip703)" style="stroke:#000000; stroke-linecap:round; stroke-linejoin:round; stroke-width:4; stroke-opacity:1; fill:none" points="1897.14,1273.23 1897.14,1273.23 2066.08,1273.23 1897.14,1273.23 "/>
<path clip-path="url(#clip703)" d="M2066.08 1273.23 L2066.08 1273.23 L2235.01 1273.23 L2235.01 1273.23 L2066.08 1273.23 L2066.08 1273.23  Z" fill="#009af9" fill-rule="evenodd" fill-opacity="1"/>
<polyline clip-path="url(#clip703)" style="stroke:#000000; stroke-linecap:round; stroke-linejoin:round; stroke-width:4; stroke-opacity:1; fill:none" points="2066.08,1273.23 2066.08,1273.23 2235.01,1273.23 2066.08,1273.23 "/>
<path clip-path="url(#clip703)" d="M2235.01 1271.83 L2235.01 1273.23 L2403.94 1273.23 L2403.94 1271.83 L2235.01 1271.83 L2235.01 1271.83  Z" fill="#009af9" fill-rule="evenodd" fill-opacity="1"/>
<polyline clip-path="url(#clip703)" style="stroke:#000000; stroke-linecap:round; stroke-linejoin:round; stroke-width:4; stroke-opacity:1; fill:none" points="2235.01,1271.83 2235.01,1273.23 2403.94,1273.23 2403.94,1271.83 2235.01,1271.83 "/>
<path clip-path="url(#clip703)" d="M2403.94 1216.06 L2403.94 1273.23 L2572.88 1273.23 L2572.88 1216.06 L2403.94 1216.06 L2403.94 1216.06  Z" fill="#009af9" fill-rule="evenodd" fill-opacity="1"/>
<polyline clip-path="url(#clip703)" style="stroke:#000000; stroke-linecap:round; stroke-linejoin:round; stroke-width:4; stroke-opacity:1; fill:none" points="2403.94,1216.06 2403.94,1273.23 2572.88,1273.23 2572.88,1216.06 2403.94,1216.06 "/>
<path clip-path="url(#clip703)" d="M2572.88 959.508 L2572.88 1273.23 L2741.81 1273.23 L2741.81 959.508 L2572.88 959.508 L2572.88 959.508  Z" fill="#009af9" fill-rule="evenodd" fill-opacity="1"/>
<polyline clip-path="url(#clip703)" style="stroke:#000000; stroke-linecap:round; stroke-linejoin:round; stroke-width:4; stroke-opacity:1; fill:none" points="2572.88,959.508 2572.88,1273.23 2741.81,1273.23 2741.81,959.508 2572.88,959.508 "/>
<path clip-path="url(#clip703)" d="M2741.81 603.961 L2741.81 1273.23 L2910.74 1273.23 L2910.74 603.961 L2741.81 603.961 L2741.81 603.961  Z" fill="#009af9" fill-rule="evenodd" fill-opacity="1"/>
<polyline clip-path="url(#clip703)" style="stroke:#000000; stroke-linecap:round; stroke-linejoin:round; stroke-width:4; stroke-opacity:1; fill:none" points="2741.81,603.961 2741.81,1273.23 2910.74,1273.23 2910.74,603.961 2741.81,603.961 "/>
<path clip-path="url(#clip703)" d="M2910.74 920.468 L2910.74 1273.23 L3079.68 1273.23 L3079.68 920.468 L2910.74 920.468 L2910.74 920.468  Z" fill="#009af9" fill-rule="evenodd" fill-opacity="1"/>
<polyline clip-path="url(#clip703)" style="stroke:#000000; stroke-linecap:round; stroke-linejoin:round; stroke-width:4; stroke-opacity:1; fill:none" points="2910.74,920.468 2910.74,1273.23 3079.68,1273.23 3079.68,920.468 2910.74,920.468 "/>
<circle clip-path="url(#clip703)" style="fill:#009af9; stroke:none; fill-opacity:0" cx="1981.61" cy="1273.23" r="2"/>
<circle clip-path="url(#clip703)" style="fill:#009af9; stroke:none; fill-opacity:0" cx="2150.54" cy="1273.23" r="2"/>
<circle clip-path="url(#clip703)" style="fill:#009af9; stroke:none; fill-opacity:0" cx="2319.48" cy="1271.83" r="2"/>
<circle clip-path="url(#clip703)" style="fill:#009af9; stroke:none; fill-opacity:0" cx="2488.41" cy="1216.06" r="2"/>
<circle clip-path="url(#clip703)" style="fill:#009af9; stroke:none; fill-opacity:0" cx="2657.34" cy="959.508" r="2"/>
<circle clip-path="url(#clip703)" style="fill:#009af9; stroke:none; fill-opacity:0" cx="2826.28" cy="603.961" r="2"/>
<circle clip-path="url(#clip703)" style="fill:#009af9; stroke:none; fill-opacity:0" cx="2995.21" cy="920.468" r="2"/>
<path clip-path="url(#clip700)" d="M1897.14 136.185 L1905.85 136.185 L1916.88 165.583 L1927.96 136.185 L1936.67 136.185 L1936.67 179.385 L1930.97 179.385 L1930.97 141.451 L1919.83 171.08 L1913.96 171.08 L1902.82 141.451 L1902.82 179.385 L1897.14 179.385 L1897.14 136.185 Z" fill="#000000" fill-rule="nonzero" fill-opacity="1" /><path clip-path="url(#clip700)" d="M1975.76 161.85 L1975.76 164.454 L1951.28 164.454 Q1951.63 169.952 1954.58 172.845 Q1957.56 175.71 1962.86 175.71 Q1965.92 175.71 1968.79 174.958 Q1971.68 174.205 1974.52 172.701 L1974.52 177.735 Q1971.65 178.951 1968.64 179.587 Q1965.63 180.224 1962.54 180.224 Q1954.78 180.224 1950.24 175.71 Q1945.73 171.196 1945.73 163.499 Q1945.73 155.542 1950.01 150.884 Q1954.32 146.196 1961.61 146.196 Q1968.15 146.196 1971.94 150.421 Q1975.76 154.616 1975.76 161.85 M1970.44 160.288 Q1970.38 155.918 1967.98 153.314 Q1965.6 150.71 1961.67 150.71 Q1957.21 150.71 1954.52 153.227 Q1951.86 155.745 1951.46 160.316 L1970.44 160.288 Z" fill="#000000" fill-rule="nonzero" fill-opacity="1" /><path clip-path="url(#clip700)" d="M1999.23 163.094 Q1992.77 163.094 1990.29 164.57 Q1987.8 166.046 1987.8 169.605 Q1987.8 172.44 1989.65 174.118 Q1991.53 175.768 1994.74 175.768 Q1999.17 175.768 2001.83 172.643 Q2004.52 169.489 2004.52 164.281 L2004.52 163.094 L1999.23 163.094 M2009.85 160.895 L2009.85 179.385 L2004.52 179.385 L2004.52 174.466 Q2002.7 177.417 1999.98 178.835 Q1997.26 180.224 1993.32 180.224 Q1988.35 180.224 1985.4 177.446 Q1982.47 174.639 1982.47 169.952 Q1982.47 164.483 1986.12 161.705 Q1989.79 158.928 1997.06 158.928 L2004.52 158.928 L2004.52 158.407 Q2004.52 154.732 2002.09 152.735 Q1999.69 150.71 1995.32 150.71 Q1992.54 150.71 1989.91 151.376 Q1987.28 152.041 1984.85 153.372 L1984.85 148.453 Q1987.77 147.325 1990.52 146.775 Q1993.27 146.196 1995.87 146.196 Q2002.9 146.196 2006.37 149.842 Q2009.85 153.488 2009.85 160.895 Z" fill="#000000" fill-rule="nonzero" fill-opacity="1" /><path clip-path="url(#clip700)" d="M2047.75 159.825 L2047.75 179.385 L2042.43 179.385 L2042.43 159.998 Q2042.43 155.397 2040.63 153.112 Q2038.84 150.826 2035.25 150.826 Q2030.94 150.826 2028.45 153.575 Q2025.96 156.323 2025.96 161.069 L2025.96 179.385 L2020.61 179.385 L2020.61 146.977 L2025.96 146.977 L2025.96 152.012 Q2027.87 149.09 2030.45 147.643 Q2033.05 146.196 2036.44 146.196 Q2042.02 146.196 2044.89 149.668 Q2047.75 153.112 2047.75 159.825 Z" fill="#000000" fill-rule="nonzero" fill-opacity="1" /><path clip-path="url(#clip700)" d="M2077.9 152.475 L2115 152.475 L2115 157.336 L2077.9 157.336 L2077.9 152.475 M2077.9 164.281 L2115 164.281 L2115 169.2 L2077.9 169.2 L2077.9 164.281 Z" fill="#000000" fill-rule="nonzero" fill-opacity="1" /><path clip-path="url(#clip700)" d="M2162.51 141.277 L2147.75 164.338 L2162.51 164.338 L2162.51 141.277 M2160.97 136.185 L2168.32 136.185 L2168.32 164.338 L2174.49 164.338 L2174.49 169.2 L2168.32 169.2 L2168.32 179.385 L2162.51 179.385 L2162.51 169.2 L2143.01 169.2 L2143.01 163.557 L2160.97 136.185 Z" fill="#000000" fill-rule="nonzero" fill-opacity="1" /><path clip-path="url(#clip700)" d="M2184.15 172.035 L2190.26 172.035 L2190.26 179.385 L2184.15 179.385 L2184.15 172.035 Z" fill="#000000" fill-rule="nonzero" fill-opacity="1" /><path clip-path="url(#clip700)" d="M2203.16 178.488 L2203.16 173.164 Q2205.36 174.205 2207.62 174.755 Q2209.87 175.305 2212.04 175.305 Q2217.83 175.305 2220.87 171.427 Q2223.94 167.521 2224.37 159.593 Q2222.69 162.081 2220.12 163.412 Q2217.54 164.744 2214.42 164.744 Q2207.94 164.744 2204.14 160.837 Q2200.38 156.902 2200.38 150.102 Q2200.38 143.447 2204.32 139.425 Q2208.25 135.403 2214.79 135.403 Q2222.29 135.403 2226.22 141.161 Q2230.19 146.891 2230.19 157.828 Q2230.19 168.042 2225.33 174.147 Q2220.49 180.224 2212.3 180.224 Q2210.11 180.224 2207.85 179.79 Q2205.59 179.356 2203.16 178.488 M2214.79 160.172 Q2218.73 160.172 2221.01 157.481 Q2223.33 154.79 2223.33 150.102 Q2223.33 145.444 2221.01 142.753 Q2218.73 140.033 2214.79 140.033 Q2210.86 140.033 2208.54 142.753 Q2206.26 145.444 2206.26 150.102 Q2206.26 154.79 2208.54 157.481 Q2210.86 160.172 2214.79 160.172 Z" fill="#000000" fill-rule="nonzero" fill-opacity="1" /><path clip-path="url(#clip700)" d="M2256.75 141.277 L2241.99 164.338 L2256.75 164.338 L2256.75 141.277 M2255.22 136.185 L2262.56 136.185 L2262.56 164.338 L2268.73 164.338 L2268.73 169.2 L2262.56 169.2 L2262.56 179.385 L2256.75 179.385 L2256.75 169.2 L2237.25 169.2 L2237.25 163.557 L2255.22 136.185 Z" fill="#000000" fill-rule="nonzero" fill-opacity="1" /><path clip-path="url(#clip700)" d="M2296.1 156.092 Q2300.3 156.989 2302.64 159.825 Q2305.01 162.66 2305.01 166.827 Q2305.01 173.221 2300.61 176.723 Q2296.22 180.224 2288.11 180.224 Q2285.39 180.224 2282.5 179.674 Q2279.64 179.153 2276.57 178.083 L2276.57 172.44 Q2279 173.858 2281.89 174.581 Q2284.79 175.305 2287.94 175.305 Q2293.44 175.305 2296.3 173.135 Q2299.2 170.965 2299.2 166.827 Q2299.2 163.007 2296.51 160.866 Q2293.84 158.696 2289.07 158.696 L2284.03 158.696 L2284.03 153.893 L2289.3 153.893 Q2293.61 153.893 2295.9 152.186 Q2298.18 150.45 2298.18 147.209 Q2298.18 143.881 2295.81 142.116 Q2293.47 140.322 2289.07 140.322 Q2286.67 140.322 2283.92 140.843 Q2281.17 141.364 2277.87 142.464 L2277.87 137.255 Q2281.2 136.329 2284.09 135.866 Q2287.01 135.403 2289.59 135.403 Q2296.25 135.403 2300.12 138.442 Q2304 141.451 2304 146.601 Q2304 150.189 2301.95 152.678 Q2299.89 155.137 2296.1 156.092 Z" fill="#000000" fill-rule="nonzero" fill-opacity="1" /><path clip-path="url(#clip700)" d="M1902.99 210.703 L1902.99 244.297 L1910.05 244.297 Q1918.99 244.297 1923.13 240.246 Q1927.29 236.195 1927.29 227.456 Q1927.29 218.776 1923.13 214.754 Q1918.99 210.703 1910.05 210.703 L1902.99 210.703 M1897.14 205.9 L1909.15 205.9 Q1921.71 205.9 1927.58 211.137 Q1933.46 216.345 1933.46 227.456 Q1933.46 238.625 1927.55 243.862 Q1921.65 249.1 1909.15 249.1 L1897.14 249.1 L1897.14 205.9 Z" fill="#000000" fill-rule="nonzero" fill-opacity="1" /><path clip-path="url(#clip700)" d="M1942.54 216.692 L1947.87 216.692 L1947.87 249.1 L1942.54 249.1 L1942.54 216.692 M1942.54 204.077 L1947.87 204.077 L1947.87 210.819 L1942.54 210.819 L1942.54 204.077 Z" fill="#000000" fill-rule="nonzero" fill-opacity="1" /><path clip-path="url(#clip700)" d="M1979.67 217.647 L1979.67 222.682 Q1977.41 221.525 1974.98 220.946 Q1972.55 220.367 1969.94 220.367 Q1965.98 220.367 1963.98 221.583 Q1962.02 222.798 1962.02 225.228 Q1962.02 227.08 1963.43 228.151 Q1964.85 229.192 1969.13 230.147 L1970.96 230.552 Q1976.63 231.768 1979 233.996 Q1981.4 236.195 1981.4 240.159 Q1981.4 244.673 1977.82 247.306 Q1974.26 249.939 1968.01 249.939 Q1965.4 249.939 1962.57 249.418 Q1959.76 248.926 1956.63 247.913 L1956.63 242.416 Q1959.59 243.949 1962.45 244.731 Q1965.32 245.483 1968.12 245.483 Q1971.88 245.483 1973.91 244.21 Q1975.93 242.908 1975.93 240.564 Q1975.93 238.394 1974.46 237.236 Q1973.01 236.079 1968.06 235.008 L1966.21 234.574 Q1961.26 233.533 1959.07 231.391 Q1956.87 229.221 1956.87 225.46 Q1956.87 220.888 1960.11 218.4 Q1963.35 215.911 1969.31 215.911 Q1972.26 215.911 1974.86 216.345 Q1977.47 216.779 1979.67 217.647 Z" fill="#000000" fill-rule="nonzero" fill-opacity="1" /><path clip-path="url(#clip700)" d="M1995.15 207.491 L1995.15 216.692 L2006.11 216.692 L2006.11 220.83 L1995.15 220.83 L1995.15 238.423 Q1995.15 242.387 1996.22 243.515 Q1997.32 244.644 2000.64 244.644 L2006.11 244.644 L2006.11 249.1 L2000.64 249.1 Q1994.48 249.1 1992.14 246.814 Q1989.79 244.499 1989.79 238.423 L1989.79 220.83 L1985.89 220.83 L1985.89 216.692 L1989.79 216.692 L1989.79 207.491 L1995.15 207.491 Z" fill="#000000" fill-rule="nonzero" fill-opacity="1" /><path clip-path="url(#clip700)" d="M2032.65 222.19 L2069.74 222.19 L2069.74 227.051 L2032.65 227.051 L2032.65 222.19 M2032.65 233.996 L2069.74 233.996 L2069.74 238.915 L2032.65 238.915 L2032.65 233.996 Z" fill="#000000" fill-rule="nonzero" fill-opacity="1" /><path clip-path="url(#clip700)" d="M2113.69 209.748 Q2109.18 209.748 2106.89 214.204 Q2104.64 218.631 2104.64 227.543 Q2104.64 236.426 2106.89 240.882 Q2109.18 245.309 2113.69 245.309 Q2118.24 245.309 2120.49 240.882 Q2122.78 236.426 2122.78 227.543 Q2122.78 218.631 2120.49 214.204 Q2118.24 209.748 2113.69 209.748 M2113.69 205.118 Q2120.96 205.118 2124.78 210.877 Q2128.62 216.606 2128.62 227.543 Q2128.62 238.452 2124.78 244.21 Q2120.96 249.939 2113.69 249.939 Q2106.43 249.939 2102.58 244.21 Q2098.76 238.452 2098.76 227.543 Q2098.76 216.606 2102.58 210.877 Q2106.43 205.118 2113.69 205.118 Z" fill="#000000" fill-rule="nonzero" fill-opacity="1" /><path clip-path="url(#clip700)" d="M2138.9 241.75 L2145 241.75 L2145 249.1 L2138.9 249.1 L2138.9 241.75 Z" fill="#000000" fill-rule="nonzero" fill-opacity="1" /><path clip-path="url(#clip700)" d="M2170.23 209.748 Q2165.72 209.748 2163.43 214.204 Q2161.18 218.631 2161.18 227.543 Q2161.18 236.426 2163.43 240.882 Q2165.72 245.309 2170.23 245.309 Q2174.78 245.309 2177.03 240.882 Q2179.32 236.426 2179.32 227.543 Q2179.32 218.631 2177.03 214.204 Q2174.78 209.748 2170.23 209.748 M2170.23 205.118 Q2177.5 205.118 2181.32 210.877 Q2185.16 216.606 2185.16 227.543 Q2185.16 238.452 2181.32 244.21 Q2177.5 249.939 2170.23 249.939 Q2162.97 249.939 2159.12 244.21 Q2155.3 238.452 2155.3 227.543 Q2155.3 216.606 2159.12 210.877 Q2162.97 205.118 2170.23 205.118 Z" fill="#000000" fill-rule="nonzero" fill-opacity="1" /><path clip-path="url(#clip700)" d="M2200.47 244.181 L2220.87 244.181 L2220.87 249.1 L2193.44 249.1 L2193.44 244.181 Q2196.77 240.738 2202.5 234.951 Q2208.25 229.135 2209.73 227.456 Q2212.54 224.302 2213.64 222.132 Q2214.76 219.933 2214.76 217.821 Q2214.76 214.378 2212.33 212.208 Q2209.93 210.037 2206.05 210.037 Q2203.31 210.037 2200.24 210.992 Q2197.2 211.947 2193.73 213.886 L2193.73 207.983 Q2197.26 206.565 2200.33 205.842 Q2203.39 205.118 2205.94 205.118 Q2212.65 205.118 2216.64 208.475 Q2220.64 211.831 2220.64 217.445 Q2220.64 220.107 2219.63 222.508 Q2218.64 224.881 2216.01 228.122 Q2215.28 228.961 2211.41 232.983 Q2207.53 236.976 2200.47 244.181 Z" fill="#000000" fill-rule="nonzero" fill-opacity="1" /><path clip-path="url(#clip700)" d="M2250.85 225.807 Q2255.04 226.704 2257.39 229.54 Q2259.76 232.375 2259.76 236.542 Q2259.76 242.937 2255.36 246.438 Q2250.96 249.939 2242.86 249.939 Q2240.14 249.939 2237.25 249.389 Q2234.38 248.868 2231.31 247.798 L2231.31 242.155 Q2233.75 243.573 2236.64 244.297 Q2239.53 245.02 2242.69 245.02 Q2248.18 245.02 2251.05 242.85 Q2253.94 240.68 2253.94 236.542 Q2253.94 232.723 2251.25 230.581 Q2248.59 228.411 2243.81 228.411 L2238.78 228.411 L2238.78 223.608 L2244.05 223.608 Q2248.36 223.608 2250.64 221.901 Q2252.93 220.165 2252.93 216.924 Q2252.93 213.596 2250.56 211.831 Q2248.21 210.037 2243.81 210.037 Q2241.41 210.037 2238.66 210.558 Q2235.92 211.079 2232.62 212.179 L2232.62 206.97 Q2235.94 206.044 2238.84 205.581 Q2241.76 205.118 2244.34 205.118 Q2250.99 205.118 2254.87 208.157 Q2258.75 211.166 2258.75 216.316 Q2258.75 219.904 2256.69 222.393 Q2254.64 224.852 2250.85 225.807 Z" fill="#000000" fill-rule="nonzero" fill-opacity="1" /><path clip-path="url(#clip700)" d="M2288.55 225.807 Q2292.74 226.704 2295.09 229.54 Q2297.46 232.375 2297.46 236.542 Q2297.46 242.937 2293.06 246.438 Q2288.66 249.939 2280.56 249.939 Q2277.84 249.939 2274.95 249.389 Q2272.08 248.868 2269.02 247.798 L2269.02 242.155 Q2271.45 243.573 2274.34 244.297 Q2277.23 245.02 2280.39 245.02 Q2285.89 245.02 2288.75 242.85 Q2291.64 240.68 2291.64 236.542 Q2291.64 232.723 2288.95 230.581 Q2286.29 228.411 2281.52 228.411 L2276.48 228.411 L2276.48 223.608 L2281.75 223.608 Q2286.06 223.608 2288.35 221.901 Q2290.63 220.165 2290.63 216.924 Q2290.63 213.596 2288.26 211.831 Q2285.92 210.037 2281.52 210.037 Q2279.12 210.037 2276.37 210.558 Q2273.62 211.079 2270.32 212.179 L2270.32 206.97 Q2273.65 206.044 2276.54 205.581 Q2279.46 205.118 2282.04 205.118 Q2288.69 205.118 2292.57 208.157 Q2296.45 211.166 2296.45 216.316 Q2296.45 219.904 2294.39 222.393 Q2292.34 224.852 2288.55 225.807 Z" fill="#000000" fill-rule="nonzero" fill-opacity="1" /><path clip-path="url(#clip700)" d="M2321.04 228.585 Q2316.88 228.585 2314.47 230.813 Q2312.1 233.041 2312.1 236.947 Q2312.1 240.853 2314.47 243.081 Q2316.88 245.309 2321.04 245.309 Q2325.21 245.309 2327.61 243.081 Q2330.01 240.824 2330.01 236.947 Q2330.01 233.041 2327.61 230.813 Q2325.24 228.585 2321.04 228.585 M2315.2 226.096 Q2311.44 225.17 2309.32 222.595 Q2307.24 220.02 2307.24 216.316 Q2307.24 211.137 2310.92 208.128 Q2314.62 205.118 2321.04 205.118 Q2327.49 205.118 2331.17 208.128 Q2334.84 211.137 2334.84 216.316 Q2334.84 220.02 2332.73 222.595 Q2330.65 225.17 2326.92 226.096 Q2331.14 227.08 2333.48 229.945 Q2335.86 232.809 2335.86 236.947 Q2335.86 243.226 2332.01 246.582 Q2328.19 249.939 2321.04 249.939 Q2313.9 249.939 2310.05 246.582 Q2306.23 243.226 2306.23 236.947 Q2306.23 232.809 2308.6 229.945 Q2310.97 227.08 2315.2 226.096 M2313.06 216.866 Q2313.06 220.223 2315.14 222.103 Q2317.25 223.984 2321.04 223.984 Q2324.8 223.984 2326.92 222.103 Q2329.06 220.223 2329.06 216.866 Q2329.06 213.51 2326.92 211.629 Q2324.8 209.748 2321.04 209.748 Q2317.25 209.748 2315.14 211.629 Q2313.06 213.51 2313.06 216.866 Z" fill="#000000" fill-rule="nonzero" fill-opacity="1" /><path clip-path="url(#clip700)" d="M3424.06 1273.23 L4752.76 1273.23 L4752.76 88.0695 L3424.06 88.0695  Z" fill="#ffffff" fill-rule="evenodd" fill-opacity="1"/>
<defs>
  <clipPath id="clip704">
    <rect x="3424" y="88" width="1330" height="1186"/>
  </clipPath>
</defs>
<polyline clip-path="url(#clip704)" style="stroke:#000000; stroke-linecap:round; stroke-linejoin:round; stroke-width:2; stroke-opacity:0.1; fill:none" points="3581.61,1273.23 3581.61,88.0695 "/>
<polyline clip-path="url(#clip704)" style="stroke:#000000; stroke-linecap:round; stroke-linejoin:round; stroke-width:2; stroke-opacity:0.1; fill:none" points="3750.54,1273.23 3750.54,88.0695 "/>
<polyline clip-path="url(#clip704)" style="stroke:#000000; stroke-linecap:round; stroke-linejoin:round; stroke-width:2; stroke-opacity:0.1; fill:none" points="3919.48,1273.23 3919.48,88.0695 "/>
<polyline clip-path="url(#clip704)" style="stroke:#000000; stroke-linecap:round; stroke-linejoin:round; stroke-width:2; stroke-opacity:0.1; fill:none" points="4088.41,1273.23 4088.41,88.0695 "/>
<polyline clip-path="url(#clip704)" style="stroke:#000000; stroke-linecap:round; stroke-linejoin:round; stroke-width:2; stroke-opacity:0.1; fill:none" points="4257.34,1273.23 4257.34,88.0695 "/>
<polyline clip-path="url(#clip704)" style="stroke:#000000; stroke-linecap:round; stroke-linejoin:round; stroke-width:2; stroke-opacity:0.1; fill:none" points="4426.28,1273.23 4426.28,88.0695 "/>
<polyline clip-path="url(#clip704)" style="stroke:#000000; stroke-linecap:round; stroke-linejoin:round; stroke-width:2; stroke-opacity:0.1; fill:none" points="4595.21,1273.23 4595.21,88.0695 "/>
<polyline clip-path="url(#clip700)" style="stroke:#000000; stroke-linecap:round; stroke-linejoin:round; stroke-width:4; stroke-opacity:1; fill:none" points="3424.06,1273.23 4752.76,1273.23 "/>
<polyline clip-path="url(#clip700)" style="stroke:#000000; stroke-linecap:round; stroke-linejoin:round; stroke-width:4; stroke-opacity:1; fill:none" points="3581.61,1273.23 3581.61,1254.33 "/>
<polyline clip-path="url(#clip700)" style="stroke:#000000; stroke-linecap:round; stroke-linejoin:round; stroke-width:4; stroke-opacity:1; fill:none" points="3750.54,1273.23 3750.54,1254.33 "/>
<polyline clip-path="url(#clip700)" style="stroke:#000000; stroke-linecap:round; stroke-linejoin:round; stroke-width:4; stroke-opacity:1; fill:none" points="3919.48,1273.23 3919.48,1254.33 "/>
<polyline clip-path="url(#clip700)" style="stroke:#000000; stroke-linecap:round; stroke-linejoin:round; stroke-width:4; stroke-opacity:1; fill:none" points="4088.41,1273.23 4088.41,1254.33 "/>
<polyline clip-path="url(#clip700)" style="stroke:#000000; stroke-linecap:round; stroke-linejoin:round; stroke-width:4; stroke-opacity:1; fill:none" points="4257.34,1273.23 4257.34,1254.33 "/>
<polyline clip-path="url(#clip700)" style="stroke:#000000; stroke-linecap:round; stroke-linejoin:round; stroke-width:4; stroke-opacity:1; fill:none" points="4426.28,1273.23 4426.28,1254.33 "/>
<polyline clip-path="url(#clip700)" style="stroke:#000000; stroke-linecap:round; stroke-linejoin:round; stroke-width:4; stroke-opacity:1; fill:none" points="4595.21,1273.23 4595.21,1254.33 "/>
<g clip-path="url(#clip700)">
<text style="fill:#000000; fill-opacity:1; font-family:Century Gothic,CenturyGothic,AppleGothic,sans-serif; font-size:47px; text-anchor:middle;" transform="rotate(0, 3581.61, 1353.69)" x="3581.61" y="1353.69">0</text>
</g>
<g clip-path="url(#clip700)">
<text style="fill:#000000; fill-opacity:1; font-family:Century Gothic,CenturyGothic,AppleGothic,sans-serif; font-size:47px; text-anchor:middle;" transform="rotate(0, 3750.54, 1353.69)" x="3750.54" y="1353.69">1</text>
</g>
<g clip-path="url(#clip700)">
<text style="fill:#000000; fill-opacity:1; font-family:Century Gothic,CenturyGothic,AppleGothic,sans-serif; font-size:47px; text-anchor:middle;" transform="rotate(0, 3919.48, 1353.69)" x="3919.48" y="1353.69">2</text>
</g>
<g clip-path="url(#clip700)">
<text style="fill:#000000; fill-opacity:1; font-family:Century Gothic,CenturyGothic,AppleGothic,sans-serif; font-size:47px; text-anchor:middle;" transform="rotate(0, 4088.41, 1353.69)" x="4088.41" y="1353.69">3</text>
</g>
<g clip-path="url(#clip700)">
<text style="fill:#000000; fill-opacity:1; font-family:Century Gothic,CenturyGothic,AppleGothic,sans-serif; font-size:47px; text-anchor:middle;" transform="rotate(0, 4257.34, 1353.69)" x="4257.34" y="1353.69">4</text>
</g>
<g clip-path="url(#clip700)">
<text style="fill:#000000; fill-opacity:1; font-family:Century Gothic,CenturyGothic,AppleGothic,sans-serif; font-size:47px; text-anchor:middle;" transform="rotate(0, 4426.28, 1353.69)" x="4426.28" y="1353.69">5</text>
</g>
<g clip-path="url(#clip700)">
<text style="fill:#000000; fill-opacity:1; font-family:Century Gothic,CenturyGothic,AppleGothic,sans-serif; font-size:47px; text-anchor:middle;" transform="rotate(0, 4595.21, 1353.69)" x="4595.21" y="1353.69">6</text>
</g>
<g clip-path="url(#clip700)">
<text style="fill:#000000; fill-opacity:1; font-family:Century Gothic,CenturyGothic,AppleGothic,sans-serif; font-size:65px; text-anchor:middle;" transform="rotate(0, 4088.41, 1452.31)" x="4088.41" y="1452.31">中心推定の正解数</text>
</g>
<polyline clip-path="url(#clip704)" style="stroke:#000000; stroke-linecap:round; stroke-linejoin:round; stroke-width:2; stroke-opacity:0.1; fill:none" points="3424.06,1273.23 4752.76,1273.23 "/>
<polyline clip-path="url(#clip704)" style="stroke:#000000; stroke-linecap:round; stroke-linejoin:round; stroke-width:2; stroke-opacity:0.1; fill:none" points="3424.06,994.366 4752.76,994.366 "/>
<polyline clip-path="url(#clip704)" style="stroke:#000000; stroke-linecap:round; stroke-linejoin:round; stroke-width:2; stroke-opacity:0.1; fill:none" points="3424.06,715.505 4752.76,715.505 "/>
<polyline clip-path="url(#clip704)" style="stroke:#000000; stroke-linecap:round; stroke-linejoin:round; stroke-width:2; stroke-opacity:0.1; fill:none" points="3424.06,436.645 4752.76,436.645 "/>
<polyline clip-path="url(#clip704)" style="stroke:#000000; stroke-linecap:round; stroke-linejoin:round; stroke-width:2; stroke-opacity:0.1; fill:none" points="3424.06,157.785 4752.76,157.785 "/>
<polyline clip-path="url(#clip700)" style="stroke:#000000; stroke-linecap:round; stroke-linejoin:round; stroke-width:4; stroke-opacity:1; fill:none" points="3424.06,1273.23 3424.06,88.0695 "/>
<polyline clip-path="url(#clip700)" style="stroke:#000000; stroke-linecap:round; stroke-linejoin:round; stroke-width:4; stroke-opacity:1; fill:none" points="3424.06,1273.23 3442.96,1273.23 "/>
<polyline clip-path="url(#clip700)" style="stroke:#000000; stroke-linecap:round; stroke-linejoin:round; stroke-width:4; stroke-opacity:1; fill:none" points="3424.06,994.366 3442.96,994.366 "/>
<polyline clip-path="url(#clip700)" style="stroke:#000000; stroke-linecap:round; stroke-linejoin:round; stroke-width:4; stroke-opacity:1; fill:none" points="3424.06,715.505 3442.96,715.505 "/>
<polyline clip-path="url(#clip700)" style="stroke:#000000; stroke-linecap:round; stroke-linejoin:round; stroke-width:4; stroke-opacity:1; fill:none" points="3424.06,436.645 3442.96,436.645 "/>
<polyline clip-path="url(#clip700)" style="stroke:#000000; stroke-linecap:round; stroke-linejoin:round; stroke-width:4; stroke-opacity:1; fill:none" points="3424.06,157.785 3442.96,157.785 "/>
<g clip-path="url(#clip700)">
<text style="fill:#000000; fill-opacity:1; font-family:Century Gothic,CenturyGothic,AppleGothic,sans-serif; font-size:47px; text-anchor:middle;" transform="rotate(0, 3339.13, 1290.73)" x="3339.13" y="1290.73">0</text>
</g>
<g clip-path="url(#clip700)">
<text style="fill:#000000; fill-opacity:1; font-family:Century Gothic,CenturyGothic,AppleGothic,sans-serif; font-size:47px; text-anchor:middle;" transform="rotate(0, 3313.25, 1011.87)" x="3313.25" y="1011.87">200</text>
</g>
<g clip-path="url(#clip700)">
<text style="fill:#000000; fill-opacity:1; font-family:Century Gothic,CenturyGothic,AppleGothic,sans-serif; font-size:47px; text-anchor:middle;" transform="rotate(0, 3313.25, 733.005)" x="3313.25" y="733.005">400</text>
</g>
<g clip-path="url(#clip700)">
<text style="fill:#000000; fill-opacity:1; font-family:Century Gothic,CenturyGothic,AppleGothic,sans-serif; font-size:47px; text-anchor:middle;" transform="rotate(0, 3313.25, 454.145)" x="3313.25" y="454.145">600</text>
</g>
<g clip-path="url(#clip700)">
<text style="fill:#000000; fill-opacity:1; font-family:Century Gothic,CenturyGothic,AppleGothic,sans-serif; font-size:47px; text-anchor:middle;" transform="rotate(0, 3313.25, 175.285)" x="3313.25" y="175.285">800</text>
</g>
<g clip-path="url(#clip700)">
<text style="fill:#000000; fill-opacity:1; font-family:Century Gothic,CenturyGothic,AppleGothic,sans-serif; font-size:65px; text-anchor:middle;" transform="rotate(-90, 3192.49, 680.648)" x="3192.49" y="680.648">度数</text>
</g>
<g clip-path="url(#clip700)">
<text style="fill:#000000; fill-opacity:1; font-family:Century Gothic,CenturyGothic,AppleGothic,sans-serif; font-size:81px; text-anchor:middle;" transform="rotate(0, 4088.41, 72)" x="4088.41" y="72">Setting : A, Method : LM</text>
</g>
<path clip-path="url(#clip704)" d="M3497.14 1273.23 L3497.14 1273.23 L3666.08 1273.23 L3666.08 1273.23 L3497.14 1273.23 L3497.14 1273.23  Z" fill="#009af9" fill-rule="evenodd" fill-opacity="1"/>
<polyline clip-path="url(#clip704)" style="stroke:#000000; stroke-linecap:round; stroke-linejoin:round; stroke-width:4; stroke-opacity:1; fill:none" points="3497.14,1273.23 3497.14,1273.23 3666.08,1273.23 3497.14,1273.23 "/>
<path clip-path="url(#clip704)" d="M3666.08 1273.23 L3666.08 1273.23 L3835.01 1273.23 L3835.01 1273.23 L3666.08 1273.23 L3666.08 1273.23  Z" fill="#009af9" fill-rule="evenodd" fill-opacity="1"/>
<polyline clip-path="url(#clip704)" style="stroke:#000000; stroke-linecap:round; stroke-linejoin:round; stroke-width:4; stroke-opacity:1; fill:none" points="3666.08,1273.23 3666.08,1273.23 3835.01,1273.23 3666.08,1273.23 "/>
<path clip-path="url(#clip704)" d="M3835.01 1264.86 L3835.01 1273.23 L4003.94 1273.23 L4003.94 1264.86 L3835.01 1264.86 L3835.01 1264.86  Z" fill="#009af9" fill-rule="evenodd" fill-opacity="1"/>
<polyline clip-path="url(#clip704)" style="stroke:#000000; stroke-linecap:round; stroke-linejoin:round; stroke-width:4; stroke-opacity:1; fill:none" points="3835.01,1264.86 3835.01,1273.23 4003.94,1273.23 4003.94,1264.86 3835.01,1264.86 "/>
<path clip-path="url(#clip704)" d="M4003.94 1105.91 L4003.94 1273.23 L4172.88 1273.23 L4172.88 1105.91 L4003.94 1105.91 L4003.94 1105.91  Z" fill="#009af9" fill-rule="evenodd" fill-opacity="1"/>
<polyline clip-path="url(#clip704)" style="stroke:#000000; stroke-linecap:round; stroke-linejoin:round; stroke-width:4; stroke-opacity:1; fill:none" points="4003.94,1105.91 4003.94,1273.23 4172.88,1273.23 4172.88,1105.91 4003.94,1105.91 "/>
<path clip-path="url(#clip704)" d="M4172.88 590.018 L4172.88 1273.23 L4341.81 1273.23 L4341.81 590.018 L4172.88 590.018 L4172.88 590.018  Z" fill="#009af9" fill-rule="evenodd" fill-opacity="1"/>
<polyline clip-path="url(#clip704)" style="stroke:#000000; stroke-linecap:round; stroke-linejoin:round; stroke-width:4; stroke-opacity:1; fill:none" points="4172.88,590.018 4172.88,1273.23 4341.81,1273.23 4341.81,590.018 4172.88,590.018 "/>
<path clip-path="url(#clip704)" d="M4341.81 744.786 L4341.81 1273.23 L4510.74 1273.23 L4510.74 744.786 L4341.81 744.786 L4341.81 744.786  Z" fill="#009af9" fill-rule="evenodd" fill-opacity="1"/>
<polyline clip-path="url(#clip704)" style="stroke:#000000; stroke-linecap:round; stroke-linejoin:round; stroke-width:4; stroke-opacity:1; fill:none" points="4341.81,744.786 4341.81,1273.23 4510.74,1273.23 4510.74,744.786 4341.81,744.786 "/>
<path clip-path="url(#clip704)" d="M4510.74 1266.25 L4510.74 1273.23 L4679.68 1273.23 L4679.68 1266.25 L4510.74 1266.25 L4510.74 1266.25  Z" fill="#009af9" fill-rule="evenodd" fill-opacity="1"/>
<polyline clip-path="url(#clip704)" style="stroke:#000000; stroke-linecap:round; stroke-linejoin:round; stroke-width:4; stroke-opacity:1; fill:none" points="4510.74,1266.25 4510.74,1273.23 4679.68,1273.23 4679.68,1266.25 4510.74,1266.25 "/>
<circle clip-path="url(#clip704)" style="fill:#009af9; stroke:none; fill-opacity:0" cx="3581.61" cy="1273.23" r="2"/>
<circle clip-path="url(#clip704)" style="fill:#009af9; stroke:none; fill-opacity:0" cx="3750.54" cy="1273.23" r="2"/>
<circle clip-path="url(#clip704)" style="fill:#009af9; stroke:none; fill-opacity:0" cx="3919.48" cy="1264.86" r="2"/>
<circle clip-path="url(#clip704)" style="fill:#009af9; stroke:none; fill-opacity:0" cx="4088.41" cy="1105.91" r="2"/>
<circle clip-path="url(#clip704)" style="fill:#009af9; stroke:none; fill-opacity:0" cx="4257.34" cy="590.018" r="2"/>
<circle clip-path="url(#clip704)" style="fill:#009af9; stroke:none; fill-opacity:0" cx="4426.28" cy="744.786" r="2"/>
<circle clip-path="url(#clip704)" style="fill:#009af9; stroke:none; fill-opacity:0" cx="4595.21" cy="1266.25" r="2"/>
<path clip-path="url(#clip700)" d="M3497.14 136.185 L3505.85 136.185 L3516.88 165.583 L3527.96 136.185 L3536.67 136.185 L3536.67 179.385 L3530.97 179.385 L3530.97 141.451 L3519.83 171.08 L3513.96 171.08 L3502.82 141.451 L3502.82 179.385 L3497.14 179.385 L3497.14 136.185 Z" fill="#000000" fill-rule="nonzero" fill-opacity="1" /><path clip-path="url(#clip700)" d="M3575.76 161.85 L3575.76 164.454 L3551.28 164.454 Q3551.63 169.952 3554.58 172.845 Q3557.56 175.71 3562.86 175.71 Q3565.92 175.71 3568.79 174.958 Q3571.68 174.205 3574.52 172.701 L3574.52 177.735 Q3571.65 178.951 3568.64 179.587 Q3565.63 180.224 3562.54 180.224 Q3554.78 180.224 3550.24 175.71 Q3545.73 171.196 3545.73 163.499 Q3545.73 155.542 3550.01 150.884 Q3554.32 146.196 3561.61 146.196 Q3568.15 146.196 3571.94 150.421 Q3575.76 154.616 3575.76 161.85 M3570.44 160.288 Q3570.38 155.918 3567.98 153.314 Q3565.6 150.71 3561.67 150.71 Q3557.21 150.71 3554.52 153.227 Q3551.86 155.745 3551.46 160.316 L3570.44 160.288 Z" fill="#000000" fill-rule="nonzero" fill-opacity="1" /><path clip-path="url(#clip700)" d="M3599.23 163.094 Q3592.77 163.094 3590.29 164.57 Q3587.8 166.046 3587.8 169.605 Q3587.8 172.44 3589.65 174.118 Q3591.53 175.768 3594.74 175.768 Q3599.17 175.768 3601.83 172.643 Q3604.52 169.489 3604.52 164.281 L3604.52 163.094 L3599.23 163.094 M3609.85 160.895 L3609.85 179.385 L3604.52 179.385 L3604.52 174.466 Q3602.7 177.417 3599.98 178.835 Q3597.26 180.224 3593.32 180.224 Q3588.35 180.224 3585.4 177.446 Q3582.47 174.639 3582.47 169.952 Q3582.47 164.483 3586.12 161.705 Q3589.79 158.928 3597.06 158.928 L3604.52 158.928 L3604.52 158.407 Q3604.52 154.732 3602.09 152.735 Q3599.69 150.71 3595.32 150.71 Q3592.54 150.71 3589.91 151.376 Q3587.28 152.041 3584.85 153.372 L3584.85 148.453 Q3587.77 147.325 3590.52 146.775 Q3593.27 146.196 3595.87 146.196 Q3602.9 146.196 3606.37 149.842 Q3609.85 153.488 3609.85 160.895 Z" fill="#000000" fill-rule="nonzero" fill-opacity="1" /><path clip-path="url(#clip700)" d="M3647.75 159.825 L3647.75 179.385 L3642.43 179.385 L3642.43 159.998 Q3642.43 155.397 3640.63 153.112 Q3638.84 150.826 3635.25 150.826 Q3630.94 150.826 3628.45 153.575 Q3625.96 156.323 3625.96 161.069 L3625.96 179.385 L3620.61 179.385 L3620.61 146.977 L3625.96 146.977 L3625.96 152.012 Q3627.87 149.09 3630.45 147.643 Q3633.05 146.196 3636.44 146.196 Q3642.02 146.196 3644.89 149.668 Q3647.75 153.112 3647.75 159.825 Z" fill="#000000" fill-rule="nonzero" fill-opacity="1" /><path clip-path="url(#clip700)" d="M3677.9 152.475 L3715 152.475 L3715 157.336 L3677.9 157.336 L3677.9 152.475 M3677.9 164.281 L3715 164.281 L3715 169.2 L3677.9 169.2 L3677.9 164.281 Z" fill="#000000" fill-rule="nonzero" fill-opacity="1" /><path clip-path="url(#clip700)" d="M3762.51 141.277 L3747.75 164.338 L3762.51 164.338 L3762.51 141.277 M3760.97 136.185 L3768.32 136.185 L3768.32 164.338 L3774.49 164.338 L3774.49 169.2 L3768.32 169.2 L3768.32 179.385 L3762.51 179.385 L3762.51 169.2 L3743.01 169.2 L3743.01 163.557 L3760.97 136.185 Z" fill="#000000" fill-rule="nonzero" fill-opacity="1" /><path clip-path="url(#clip700)" d="M3784.15 172.035 L3790.26 172.035 L3790.26 179.385 L3784.15 179.385 L3784.15 172.035 Z" fill="#000000" fill-rule="nonzero" fill-opacity="1" /><path clip-path="url(#clip700)" d="M3808.02 174.466 L3828.42 174.466 L3828.42 179.385 L3800.99 179.385 L3800.99 174.466 Q3804.32 171.022 3810.05 165.235 Q3815.81 159.419 3817.28 157.741 Q3820.09 154.587 3821.19 152.417 Q3822.32 150.218 3822.32 148.106 Q3822.32 144.663 3819.89 142.492 Q3817.48 140.322 3813.61 140.322 Q3810.86 140.322 3807.79 141.277 Q3804.75 142.232 3801.28 144.171 L3801.28 138.268 Q3804.81 136.85 3807.88 136.127 Q3810.94 135.403 3813.49 135.403 Q3820.2 135.403 3824.2 138.76 Q3828.19 142.116 3828.19 147.73 Q3828.19 150.392 3827.18 152.793 Q3826.19 155.166 3823.56 158.407 Q3822.84 159.246 3818.96 163.268 Q3815.08 167.261 3808.02 174.466 Z" fill="#000000" fill-rule="nonzero" fill-opacity="1" /><path clip-path="url(#clip700)" d="M3840.75 136.185 L3863.69 136.185 L3863.69 141.104 L3846.1 141.104 L3846.1 151.694 Q3847.37 151.26 3848.65 151.057 Q3849.92 150.826 3851.19 150.826 Q3858.43 150.826 3862.65 154.79 Q3866.88 158.754 3866.88 165.525 Q3866.88 172.498 3862.54 176.375 Q3858.2 180.224 3850.3 180.224 Q3847.58 180.224 3844.74 179.761 Q3841.93 179.298 3838.92 178.372 L3838.92 172.498 Q3841.53 173.916 3844.31 174.61 Q3847.08 175.305 3850.18 175.305 Q3855.19 175.305 3858.11 172.672 Q3861.03 170.039 3861.03 165.525 Q3861.03 161.011 3858.11 158.378 Q3855.19 155.745 3850.18 155.745 Q3847.84 155.745 3845.49 156.266 Q3843.18 156.786 3840.75 157.886 L3840.75 136.185 Z" fill="#000000" fill-rule="nonzero" fill-opacity="1" /><path clip-path="url(#clip700)" d="M3876.92 136.185 L3904.69 136.185 L3904.69 138.673 L3889.01 179.385 L3882.91 179.385 L3897.66 141.104 L3876.92 141.104 L3876.92 136.185 Z" fill="#000000" fill-rule="nonzero" fill-opacity="1" /><path clip-path="url(#clip700)" d="M3502.99 210.703 L3502.99 244.297 L3510.05 244.297 Q3518.99 244.297 3523.13 240.246 Q3527.29 236.195 3527.29 227.456 Q3527.29 218.776 3523.13 214.754 Q3518.99 210.703 3510.05 210.703 L3502.99 210.703 M3497.14 205.9 L3509.15 205.9 Q3521.71 205.9 3527.58 211.137 Q3533.46 216.345 3533.46 227.456 Q3533.46 238.625 3527.55 243.862 Q3521.65 249.1 3509.15 249.1 L3497.14 249.1 L3497.14 205.9 Z" fill="#000000" fill-rule="nonzero" fill-opacity="1" /><path clip-path="url(#clip700)" d="M3542.54 216.692 L3547.87 216.692 L3547.87 249.1 L3542.54 249.1 L3542.54 216.692 M3542.54 204.077 L3547.87 204.077 L3547.87 210.819 L3542.54 210.819 L3542.54 204.077 Z" fill="#000000" fill-rule="nonzero" fill-opacity="1" /><path clip-path="url(#clip700)" d="M3579.67 217.647 L3579.67 222.682 Q3577.41 221.525 3574.98 220.946 Q3572.55 220.367 3569.94 220.367 Q3565.98 220.367 3563.98 221.583 Q3562.02 222.798 3562.02 225.228 Q3562.02 227.08 3563.43 228.151 Q3564.85 229.192 3569.13 230.147 L3570.96 230.552 Q3576.63 231.768 3579 233.996 Q3581.4 236.195 3581.4 240.159 Q3581.4 244.673 3577.82 247.306 Q3574.26 249.939 3568.01 249.939 Q3565.4 249.939 3562.57 249.418 Q3559.76 248.926 3556.63 247.913 L3556.63 242.416 Q3559.59 243.949 3562.45 244.731 Q3565.32 245.483 3568.12 245.483 Q3571.88 245.483 3573.91 244.21 Q3575.93 242.908 3575.93 240.564 Q3575.93 238.394 3574.46 237.236 Q3573.01 236.079 3568.06 235.008 L3566.21 234.574 Q3561.26 233.533 3559.07 231.391 Q3556.87 229.221 3556.87 225.46 Q3556.87 220.888 3560.11 218.4 Q3563.35 215.911 3569.31 215.911 Q3572.26 215.911 3574.86 216.345 Q3577.47 216.779 3579.67 217.647 Z" fill="#000000" fill-rule="nonzero" fill-opacity="1" /><path clip-path="url(#clip700)" d="M3595.15 207.491 L3595.15 216.692 L3606.11 216.692 L3606.11 220.83 L3595.15 220.83 L3595.15 238.423 Q3595.15 242.387 3596.22 243.515 Q3597.32 244.644 3600.64 244.644 L3606.11 244.644 L3606.11 249.1 L3600.64 249.1 Q3594.48 249.1 3592.14 246.814 Q3589.79 244.499 3589.79 238.423 L3589.79 220.83 L3585.89 220.83 L3585.89 216.692 L3589.79 216.692 L3589.79 207.491 L3595.15 207.491 Z" fill="#000000" fill-rule="nonzero" fill-opacity="1" /><path clip-path="url(#clip700)" d="M3632.65 222.19 L3669.74 222.19 L3669.74 227.051 L3632.65 227.051 L3632.65 222.19 M3632.65 233.996 L3669.74 233.996 L3669.74 238.915 L3632.65 238.915 L3632.65 233.996 Z" fill="#000000" fill-rule="nonzero" fill-opacity="1" /><path clip-path="url(#clip700)" d="M3713.69 209.748 Q3709.18 209.748 3706.89 214.204 Q3704.64 218.631 3704.64 227.543 Q3704.64 236.426 3706.89 240.882 Q3709.18 245.309 3713.69 245.309 Q3718.24 245.309 3720.49 240.882 Q3722.78 236.426 3722.78 227.543 Q3722.78 218.631 3720.49 214.204 Q3718.24 209.748 3713.69 209.748 M3713.69 205.118 Q3720.96 205.118 3724.78 210.877 Q3728.62 216.606 3728.62 227.543 Q3728.62 238.452 3724.78 244.21 Q3720.96 249.939 3713.69 249.939 Q3706.43 249.939 3702.58 244.21 Q3698.76 238.452 3698.76 227.543 Q3698.76 216.606 3702.58 210.877 Q3706.43 205.118 3713.69 205.118 Z" fill="#000000" fill-rule="nonzero" fill-opacity="1" /><path clip-path="url(#clip700)" d="M3738.9 241.75 L3745 241.75 L3745 249.1 L3738.9 249.1 L3738.9 241.75 Z" fill="#000000" fill-rule="nonzero" fill-opacity="1" /><path clip-path="url(#clip700)" d="M3770.23 209.748 Q3765.72 209.748 3763.43 214.204 Q3761.18 218.631 3761.18 227.543 Q3761.18 236.426 3763.43 240.882 Q3765.72 245.309 3770.23 245.309 Q3774.78 245.309 3777.03 240.882 Q3779.32 236.426 3779.32 227.543 Q3779.32 218.631 3777.03 214.204 Q3774.78 209.748 3770.23 209.748 M3770.23 205.118 Q3777.5 205.118 3781.32 210.877 Q3785.16 216.606 3785.16 227.543 Q3785.16 238.452 3781.32 244.21 Q3777.5 249.939 3770.23 249.939 Q3762.97 249.939 3759.12 244.21 Q3755.3 238.452 3755.3 227.543 Q3755.3 216.606 3759.12 210.877 Q3762.97 205.118 3770.23 205.118 Z" fill="#000000" fill-rule="nonzero" fill-opacity="1" /><path clip-path="url(#clip700)" d="M3813.14 225.807 Q3817.34 226.704 3819.68 229.54 Q3822.06 232.375 3822.06 236.542 Q3822.06 242.937 3817.66 246.438 Q3813.26 249.939 3805.16 249.939 Q3802.44 249.939 3799.54 249.389 Q3796.68 248.868 3793.61 247.798 L3793.61 242.155 Q3796.04 243.573 3798.94 244.297 Q3801.83 245.02 3804.98 245.02 Q3810.48 245.02 3813.35 242.85 Q3816.24 240.68 3816.24 236.542 Q3816.24 232.723 3813.55 230.581 Q3810.89 228.411 3806.11 228.411 L3801.08 228.411 L3801.08 223.608 L3806.34 223.608 Q3810.66 223.608 3812.94 221.901 Q3815.23 220.165 3815.23 216.924 Q3815.23 213.596 3812.85 211.831 Q3810.51 210.037 3806.11 210.037 Q3803.71 210.037 3800.96 210.558 Q3798.21 211.079 3794.91 212.179 L3794.91 206.97 Q3798.24 206.044 3801.14 205.581 Q3804.06 205.118 3806.63 205.118 Q3813.29 205.118 3817.17 208.157 Q3821.04 211.166 3821.04 216.316 Q3821.04 219.904 3818.99 222.393 Q3816.93 224.852 3813.14 225.807 Z" fill="#000000" fill-rule="nonzero" fill-opacity="1" /><path clip-path="url(#clip700)" d="M3834.15 244.181 L3843.7 244.181 L3843.7 211.224 L3833.31 213.307 L3833.31 207.983 L3843.64 205.9 L3849.49 205.9 L3849.49 244.181 L3859.03 244.181 L3859.03 249.1 L3834.15 249.1 L3834.15 244.181 Z" fill="#000000" fill-rule="nonzero" fill-opacity="1" /><path clip-path="url(#clip700)" d="M3886.9 210.992 L3872.14 234.054 L3886.9 234.054 L3886.9 210.992 M3885.37 205.9 L3892.71 205.9 L3892.71 234.054 L3898.88 234.054 L3898.88 238.915 L3892.71 238.915 L3892.71 249.1 L3886.9 249.1 L3886.9 238.915 L3867.4 238.915 L3867.4 233.272 L3885.37 205.9 Z" fill="#000000" fill-rule="nonzero" fill-opacity="1" /><path clip-path="url(#clip700)" d="M3908.6 205.9 L3931.55 205.9 L3931.55 210.819 L3913.95 210.819 L3913.95 221.409 Q3915.23 220.975 3916.5 220.772 Q3917.77 220.541 3919.05 220.541 Q3926.28 220.541 3930.5 224.505 Q3934.73 228.469 3934.73 235.24 Q3934.73 242.213 3930.39 246.09 Q3926.05 249.939 3918.15 249.939 Q3915.43 249.939 3912.59 249.476 Q3909.79 249.013 3906.78 248.087 L3906.78 242.213 Q3909.38 243.631 3912.16 244.325 Q3914.94 245.02 3918.03 245.02 Q3923.04 245.02 3925.96 242.387 Q3928.88 239.754 3928.88 235.24 Q3928.88 230.726 3925.96 228.093 Q3923.04 225.46 3918.03 225.46 Q3915.69 225.46 3913.35 225.981 Q3911.03 226.501 3908.6 227.601 L3908.6 205.9 Z" fill="#000000" fill-rule="nonzero" fill-opacity="1" /></svg>
