<?xml version="1.0" encoding="utf-8"?>
<svg xmlns="http://www.w3.org/2000/svg" xmlns:xlink="http://www.w3.org/1999/xlink" width="1200" height="350" viewBox="0 0 4800 1400">
<defs>
  <clipPath id="clip260">
    <rect x="0" y="0" width="4800" height="1400"/>
  </clipPath>
</defs>
<path clip-path="url(#clip260)" d="M0 1400 L4800 1400 L4800 0 L0 0  Z" fill="#ffffff" fill-rule="evenodd" fill-opacity="1"/>
<defs>
  <clipPath id="clip261">
    <rect x="960" y="0" width="3361" height="1400"/>
  </clipPath>
</defs>
<path clip-path="url(#clip260)" d="M224.064 1273.23 L1552.76 1273.23 L1552.76 88.0695 L224.064 88.0695  Z" fill="#ffffff" fill-rule="evenodd" fill-opacity="1"/>
<defs>
  <clipPath id="clip262">
    <rect x="224" y="88" width="1330" height="1186"/>
  </clipPath>
</defs>
<polyline clip-path="url(#clip262)" style="stroke:#000000; stroke-linecap:round; stroke-linejoin:round; stroke-width:2; stroke-opacity:0.1; fill:none" points="362.84,1273.23 362.84,88.0695 "/>
<polyline clip-path="url(#clip262)" style="stroke:#000000; stroke-linecap:round; stroke-linejoin:round; stroke-width:2; stroke-opacity:0.1; fill:none" points="494.233,1273.23 494.233,88.0695 "/>
<polyline clip-path="url(#clip262)" style="stroke:#000000; stroke-linecap:round; stroke-linejoin:round; stroke-width:2; stroke-opacity:0.1; fill:none" points="625.625,1273.23 625.625,88.0695 "/>
<polyline clip-path="url(#clip262)" style="stroke:#000000; stroke-linecap:round; stroke-linejoin:round; stroke-width:2; stroke-opacity:0.1; fill:none" points="757.017,1273.23 757.017,88.0695 "/>
<polyline clip-path="url(#clip262)" style="stroke:#000000; stroke-linecap:round; stroke-linejoin:round; stroke-width:2; stroke-opacity:0.1; fill:none" points="888.41,1273.23 888.41,88.0695 "/>
<polyline clip-path="url(#clip262)" style="stroke:#000000; stroke-linecap:round; stroke-linejoin:round; stroke-width:2; stroke-opacity:0.1; fill:none" points="1019.8,1273.23 1019.8,88.0695 "/>
<polyline clip-path="url(#clip262)" style="stroke:#000000; stroke-linecap:round; stroke-linejoin:round; stroke-width:2; stroke-opacity:0.1; fill:none" points="1151.19,1273.23 1151.19,88.0695 "/>
<polyline clip-path="url(#clip262)" style="stroke:#000000; stroke-linecap:round; stroke-linejoin:round; stroke-width:2; stroke-opacity:0.1; fill:none" points="1282.59,1273.23 1282.59,88.0695 "/>
<polyline clip-path="url(#clip262)" style="stroke:#000000; stroke-linecap:round; stroke-linejoin:round; stroke-width:2; stroke-opacity:0.1; fill:none" points="1413.98,1273.23 1413.98,88.0695 "/>
<polyline clip-path="url(#clip260)" style="stroke:#000000; stroke-linecap:round; stroke-linejoin:round; stroke-width:4; stroke-opacity:1; fill:none" points="224.064,1273.23 1552.76,1273.23 "/>
<polyline clip-path="url(#clip260)" style="stroke:#000000; stroke-linecap:round; stroke-linejoin:round; stroke-width:4; stroke-opacity:1; fill:none" points="362.84,1273.23 362.84,1254.33 "/>
<polyline clip-path="url(#clip260)" style="stroke:#000000; stroke-linecap:round; stroke-linejoin:round; stroke-width:4; stroke-opacity:1; fill:none" points="494.233,1273.23 494.233,1254.33 "/>
<polyline clip-path="url(#clip260)" style="stroke:#000000; stroke-linecap:round; stroke-linejoin:round; stroke-width:4; stroke-opacity:1; fill:none" points="625.625,1273.23 625.625,1254.33 "/>
<polyline clip-path="url(#clip260)" style="stroke:#000000; stroke-linecap:round; stroke-linejoin:round; stroke-width:4; stroke-opacity:1; fill:none" points="757.017,1273.23 757.017,1254.33 "/>
<polyline clip-path="url(#clip260)" style="stroke:#000000; stroke-linecap:round; stroke-linejoin:round; stroke-width:4; stroke-opacity:1; fill:none" points="888.41,1273.23 888.41,1254.33 "/>
<polyline clip-path="url(#clip260)" style="stroke:#000000; stroke-linecap:round; stroke-linejoin:round; stroke-width:4; stroke-opacity:1; fill:none" points="1019.8,1273.23 1019.8,1254.33 "/>
<polyline clip-path="url(#clip260)" style="stroke:#000000; stroke-linecap:round; stroke-linejoin:round; stroke-width:4; stroke-opacity:1; fill:none" points="1151.19,1273.23 1151.19,1254.33 "/>
<polyline clip-path="url(#clip260)" style="stroke:#000000; stroke-linecap:round; stroke-linejoin:round; stroke-width:4; stroke-opacity:1; fill:none" points="1282.59,1273.23 1282.59,1254.33 "/>
<polyline clip-path="url(#clip260)" style="stroke:#000000; stroke-linecap:round; stroke-linejoin:round; stroke-width:4; stroke-opacity:1; fill:none" points="1413.98,1273.23 1413.98,1254.33 "/>
<g clip-path="url(#clip260)">
<text style="fill:#000000; fill-opacity:1; font-family:Century Gothic,CenturyGothic,AppleGothic,sans-serif; font-size:47px; text-anchor:middle;" transform="rotate(0, 362.84, 1353.69)" x="362.84" y="1353.69">0</text>
</g>
<g clip-path="url(#clip260)">
<text style="fill:#000000; fill-opacity:1; font-family:Century Gothic,CenturyGothic,AppleGothic,sans-serif; font-size:47px; text-anchor:middle;" transform="rotate(0, 494.233, 1353.69)" x="494.233" y="1353.69">1</text>
</g>
<g clip-path="url(#clip260)">
<text style="fill:#000000; fill-opacity:1; font-family:Century Gothic,CenturyGothic,AppleGothic,sans-serif; font-size:47px; text-anchor:middle;" transform="rotate(0, 625.625, 1353.69)" x="625.625" y="1353.69">2</text>
</g>
<g clip-path="url(#clip260)">
<text style="fill:#000000; fill-opacity:1; font-family:Century Gothic,CenturyGothic,AppleGothic,sans-serif; font-size:47px; text-anchor:middle;" transform="rotate(0, 757.017, 1353.69)" x="757.017" y="1353.69">3</text>
</g>
<g clip-path="url(#clip260)">
<text style="fill:#000000; fill-opacity:1; font-family:Century Gothic,CenturyGothic,AppleGothic,sans-serif; font-size:47px; text-anchor:middle;" transform="rotate(0, 888.41, 1353.69)" x="888.41" y="1353.69">4</text>
</g>
<g clip-path="url(#clip260)">
<text style="fill:#000000; fill-opacity:1; font-family:Century Gothic,CenturyGothic,AppleGothic,sans-serif; font-size:47px; text-anchor:middle;" transform="rotate(0, 1019.8, 1353.69)" x="1019.8" y="1353.69">5</text>
</g>
<g clip-path="url(#clip260)">
<text style="fill:#000000; fill-opacity:1; font-family:Century Gothic,CenturyGothic,AppleGothic,sans-serif; font-size:47px; text-anchor:middle;" transform="rotate(0, 1151.19, 1353.69)" x="1151.19" y="1353.69">6</text>
</g>
<g clip-path="url(#clip260)">
<text style="fill:#000000; fill-opacity:1; font-family:Century Gothic,CenturyGothic,AppleGothic,sans-serif; font-size:47px; text-anchor:middle;" transform="rotate(0, 1282.59, 1353.69)" x="1282.59" y="1353.69">7</text>
</g>
<g clip-path="url(#clip260)">
<text style="fill:#000000; fill-opacity:1; font-family:Century Gothic,CenturyGothic,AppleGothic,sans-serif; font-size:47px; text-anchor:middle;" transform="rotate(0, 1413.98, 1353.69)" x="1413.98" y="1353.69">8</text>
</g>
<g clip-path="url(#clip260)">
<text style="fill:#000000; fill-opacity:1; font-family:Century Gothic,CenturyGothic,AppleGothic,sans-serif; font-size:65px; text-anchor:middle;" transform="rotate(0, 888.41, 1452.31)" x="888.41" y="1452.31">中心推定の正解数</text>
</g>
<polyline clip-path="url(#clip262)" style="stroke:#000000; stroke-linecap:round; stroke-linejoin:round; stroke-width:2; stroke-opacity:0.1; fill:none" points="224.064,1273.23 1552.76,1273.23 "/>
<polyline clip-path="url(#clip262)" style="stroke:#000000; stroke-linecap:round; stroke-linejoin:round; stroke-width:2; stroke-opacity:0.1; fill:none" points="224.064,994.366 1552.76,994.366 "/>
<polyline clip-path="url(#clip262)" style="stroke:#000000; stroke-linecap:round; stroke-linejoin:round; stroke-width:2; stroke-opacity:0.1; fill:none" points="224.064,715.505 1552.76,715.505 "/>
<polyline clip-path="url(#clip262)" style="stroke:#000000; stroke-linecap:round; stroke-linejoin:round; stroke-width:2; stroke-opacity:0.1; fill:none" points="224.064,436.645 1552.76,436.645 "/>
<polyline clip-path="url(#clip262)" style="stroke:#000000; stroke-linecap:round; stroke-linejoin:round; stroke-width:2; stroke-opacity:0.1; fill:none" points="224.064,157.785 1552.76,157.785 "/>
<polyline clip-path="url(#clip260)" style="stroke:#000000; stroke-linecap:round; stroke-linejoin:round; stroke-width:4; stroke-opacity:1; fill:none" points="224.064,1273.23 224.064,88.0695 "/>
<polyline clip-path="url(#clip260)" style="stroke:#000000; stroke-linecap:round; stroke-linejoin:round; stroke-width:4; stroke-opacity:1; fill:none" points="224.064,1273.23 242.961,1273.23 "/>
<polyline clip-path="url(#clip260)" style="stroke:#000000; stroke-linecap:round; stroke-linejoin:round; stroke-width:4; stroke-opacity:1; fill:none" points="224.064,994.366 242.961,994.366 "/>
<polyline clip-path="url(#clip260)" style="stroke:#000000; stroke-linecap:round; stroke-linejoin:round; stroke-width:4; stroke-opacity:1; fill:none" points="224.064,715.505 242.961,715.505 "/>
<polyline clip-path="url(#clip260)" style="stroke:#000000; stroke-linecap:round; stroke-linejoin:round; stroke-width:4; stroke-opacity:1; fill:none" points="224.064,436.645 242.961,436.645 "/>
<polyline clip-path="url(#clip260)" style="stroke:#000000; stroke-linecap:round; stroke-linejoin:round; stroke-width:4; stroke-opacity:1; fill:none" points="224.064,157.785 242.961,157.785 "/>
<g clip-path="url(#clip260)">
<text style="fill:#000000; fill-opacity:1; font-family:Century Gothic,CenturyGothic,AppleGothic,sans-serif; font-size:47px; text-anchor:middle;" transform="rotate(0, 139.127, 1290.73)" x="139.127" y="1290.73">0</text>
</g>
<g clip-path="url(#clip260)">
<text style="fill:#000000; fill-opacity:1; font-family:Century Gothic,CenturyGothic,AppleGothic,sans-serif; font-size:47px; text-anchor:middle;" transform="rotate(0, 113.254, 1011.87)" x="113.254" y="1011.87">200</text>
</g>
<g clip-path="url(#clip260)">
<text style="fill:#000000; fill-opacity:1; font-family:Century Gothic,CenturyGothic,AppleGothic,sans-serif; font-size:47px; text-anchor:middle;" transform="rotate(0, 113.254, 733.005)" x="113.254" y="733.005">400</text>
</g>
<g clip-path="url(#clip260)">
<text style="fill:#000000; fill-opacity:1; font-family:Century Gothic,CenturyGothic,AppleGothic,sans-serif; font-size:47px; text-anchor:middle;" transform="rotate(0, 113.254, 454.145)" x="113.254" y="454.145">600</text>
</g>
<g clip-path="url(#clip260)">
<text style="fill:#000000; fill-opacity:1; font-family:Century Gothic,CenturyGothic,AppleGothic,sans-serif; font-size:47px; text-anchor:middle;" transform="rotate(0, 113.254, 175.285)" x="113.254" y="175.285">800</text>
</g>
<g clip-path="url(#clip260)">
<text style="fill:#000000; fill-opacity:1; font-family:Century Gothic,CenturyGothic,AppleGothic,sans-serif; font-size:65px; text-anchor:middle;" transform="rotate(-90, -7.51163, 680.648)" x="-7.51163" y="680.648">度数</text>
</g>
<g clip-path="url(#clip260)">
<text style="fill:#000000; fill-opacity:1; font-family:Century Gothic,CenturyGothic,AppleGothic,sans-serif; font-size:81px; text-anchor:middle;" transform="rotate(0, 888.41, 72)" x="888.41" y="72">Setting : C, Method : EV</text>
</g>
<path clip-path="url(#clip262)" d="M297.144 1273.23 L297.144 1273.23 L428.537 1273.23 L428.537 1273.23 L297.144 1273.23 L297.144 1273.23  Z" fill="#009af9" fill-rule="evenodd" fill-opacity="1"/>
<polyline clip-path="url(#clip262)" style="stroke:#000000; stroke-linecap:round; stroke-linejoin:round; stroke-width:4; stroke-opacity:1; fill:none" points="297.144,1273.23 297.144,1273.23 428.537,1273.23 297.144,1273.23 "/>
<path clip-path="url(#clip262)" d="M428.537 1273.23 L428.537 1273.23 L559.929 1273.23 L559.929 1273.23 L428.537 1273.23 L428.537 1273.23  Z" fill="#009af9" fill-rule="evenodd" fill-opacity="1"/>
<polyline clip-path="url(#clip262)" style="stroke:#000000; stroke-linecap:round; stroke-linejoin:round; stroke-width:4; stroke-opacity:1; fill:none" points="428.537,1273.23 428.537,1273.23 559.929,1273.23 428.537,1273.23 "/>
<path clip-path="url(#clip262)" d="M559.929 1273.23 L559.929 1273.23 L691.321 1273.23 L691.321 1273.23 L559.929 1273.23 L559.929 1273.23  Z" fill="#009af9" fill-rule="evenodd" fill-opacity="1"/>
<polyline clip-path="url(#clip262)" style="stroke:#000000; stroke-linecap:round; stroke-linejoin:round; stroke-width:4; stroke-opacity:1; fill:none" points="559.929,1273.23 559.929,1273.23 691.321,1273.23 559.929,1273.23 "/>
<path clip-path="url(#clip262)" d="M691.321 1273.23 L691.321 1273.23 L822.714 1273.23 L822.714 1273.23 L691.321 1273.23 L691.321 1273.23  Z" fill="#009af9" fill-rule="evenodd" fill-opacity="1"/>
<polyline clip-path="url(#clip262)" style="stroke:#000000; stroke-linecap:round; stroke-linejoin:round; stroke-width:4; stroke-opacity:1; fill:none" points="691.321,1273.23 691.321,1273.23 822.714,1273.23 691.321,1273.23 "/>
<path clip-path="url(#clip262)" d="M822.714 1273.23 L822.714 1273.23 L954.106 1273.23 L954.106 1273.23 L822.714 1273.23 L822.714 1273.23  Z" fill="#009af9" fill-rule="evenodd" fill-opacity="1"/>
<polyline clip-path="url(#clip262)" style="stroke:#000000; stroke-linecap:round; stroke-linejoin:round; stroke-width:4; stroke-opacity:1; fill:none" points="822.714,1273.23 822.714,1273.23 954.106,1273.23 822.714,1273.23 "/>
<path clip-path="url(#clip262)" d="M954.106 1267.65 L954.106 1273.23 L1085.5 1273.23 L1085.5 1267.65 L954.106 1267.65 L954.106 1267.65  Z" fill="#009af9" fill-rule="evenodd" fill-opacity="1"/>
<polyline clip-path="url(#clip262)" style="stroke:#000000; stroke-linecap:round; stroke-linejoin:round; stroke-width:4; stroke-opacity:1; fill:none" points="954.106,1267.65 954.106,1273.23 1085.5,1273.23 1085.5,1267.65 954.106,1267.65 "/>
<path clip-path="url(#clip262)" d="M1085.5 1211.88 L1085.5 1273.23 L1216.89 1273.23 L1216.89 1211.88 L1085.5 1211.88 L1085.5 1211.88  Z" fill="#009af9" fill-rule="evenodd" fill-opacity="1"/>
<polyline clip-path="url(#clip262)" style="stroke:#000000; stroke-linecap:round; stroke-linejoin:round; stroke-width:4; stroke-opacity:1; fill:none" points="1085.5,1211.88 1085.5,1273.23 1216.89,1273.23 1216.89,1211.88 1085.5,1211.88 "/>
<path clip-path="url(#clip262)" d="M1216.89 811.712 L1216.89 1273.23 L1348.28 1273.23 L1348.28 811.712 L1216.89 811.712 L1216.89 811.712  Z" fill="#009af9" fill-rule="evenodd" fill-opacity="1"/>
<polyline clip-path="url(#clip262)" style="stroke:#000000; stroke-linecap:round; stroke-linejoin:round; stroke-width:4; stroke-opacity:1; fill:none" points="1216.89,811.712 1216.89,1273.23 1348.28,1273.23 1348.28,811.712 1216.89,811.712 "/>
<path clip-path="url(#clip262)" d="M1348.28 407.365 L1348.28 1273.23 L1479.68 1273.23 L1479.68 407.365 L1348.28 407.365 L1348.28 407.365  Z" fill="#009af9" fill-rule="evenodd" fill-opacity="1"/>
<polyline clip-path="url(#clip262)" style="stroke:#000000; stroke-linecap:round; stroke-linejoin:round; stroke-width:4; stroke-opacity:1; fill:none" points="1348.28,407.365 1348.28,1273.23 1479.68,1273.23 1479.68,407.365 1348.28,407.365 "/>
<circle clip-path="url(#clip262)" style="fill:#009af9; stroke:none; fill-opacity:0" cx="362.84" cy="1273.23" r="2"/>
<circle clip-path="url(#clip262)" style="fill:#009af9; stroke:none; fill-opacity:0" cx="494.233" cy="1273.23" r="2"/>
<circle clip-path="url(#clip262)" style="fill:#009af9; stroke:none; fill-opacity:0" cx="625.625" cy="1273.23" r="2"/>
<circle clip-path="url(#clip262)" style="fill:#009af9; stroke:none; fill-opacity:0" cx="757.017" cy="1273.23" r="2"/>
<circle clip-path="url(#clip262)" style="fill:#009af9; stroke:none; fill-opacity:0" cx="888.41" cy="1273.23" r="2"/>
<circle clip-path="url(#clip262)" style="fill:#009af9; stroke:none; fill-opacity:0" cx="1019.8" cy="1267.65" r="2"/>
<circle clip-path="url(#clip262)" style="fill:#009af9; stroke:none; fill-opacity:0" cx="1151.19" cy="1211.88" r="2"/>
<circle clip-path="url(#clip262)" style="fill:#009af9; stroke:none; fill-opacity:0" cx="1282.59" cy="811.712" r="2"/>
<circle clip-path="url(#clip262)" style="fill:#009af9; stroke:none; fill-opacity:0" cx="1413.98" cy="407.365" r="2"/>
<path clip-path="url(#clip260)" d="M297.144 136.185 L305.854 136.185 L316.878 165.583 L327.96 136.185 L336.669 136.185 L336.669 179.385 L330.969 179.385 L330.969 141.451 L319.829 171.08 L313.955 171.08 L302.815 141.451 L302.815 179.385 L297.144 179.385 L297.144 136.185 Z" fill="#000000" fill-rule="nonzero" fill-opacity="1" /><path clip-path="url(#clip260)" d="M375.761 161.85 L375.761 164.454 L351.282 164.454 Q351.629 169.952 354.58 172.845 Q357.561 175.71 362.856 175.71 Q365.923 175.71 368.787 174.958 Q371.681 174.205 374.516 172.701 L374.516 177.735 Q371.652 178.951 368.643 179.587 Q365.633 180.224 362.537 180.224 Q354.783 180.224 350.24 175.71 Q345.726 171.196 345.726 163.499 Q345.726 155.542 350.008 150.884 Q354.32 146.196 361.611 146.196 Q368.151 146.196 371.941 150.421 Q375.761 154.616 375.761 161.85 M370.437 160.288 Q370.379 155.918 367.977 153.314 Q365.604 150.71 361.669 150.71 Q357.213 150.71 354.522 153.227 Q351.86 155.745 351.455 160.316 L370.437 160.288 Z" fill="#000000" fill-rule="nonzero" fill-opacity="1" /><path clip-path="url(#clip260)" d="M399.227 163.094 Q392.774 163.094 390.286 164.57 Q387.798 166.046 387.798 169.605 Q387.798 172.44 389.649 174.118 Q391.53 175.768 394.742 175.768 Q399.169 175.768 401.831 172.643 Q404.522 169.489 404.522 164.281 L404.522 163.094 L399.227 163.094 M409.846 160.895 L409.846 179.385 L404.522 179.385 L404.522 174.466 Q402.699 177.417 399.979 178.835 Q397.259 180.224 393.324 180.224 Q388.347 180.224 385.396 177.446 Q382.474 174.639 382.474 169.952 Q382.474 164.483 386.119 161.705 Q389.794 158.928 397.057 158.928 L404.522 158.928 L404.522 158.407 Q404.522 154.732 402.092 152.735 Q399.69 150.71 395.321 150.71 Q392.543 150.71 389.91 151.376 Q387.277 152.041 384.846 153.372 L384.846 148.453 Q387.769 147.325 390.518 146.775 Q393.266 146.196 395.87 146.196 Q402.902 146.196 406.374 149.842 Q409.846 153.488 409.846 160.895 Z" fill="#000000" fill-rule="nonzero" fill-opacity="1" /><path clip-path="url(#clip260)" d="M447.751 159.825 L447.751 179.385 L442.427 179.385 L442.427 159.998 Q442.427 155.397 440.633 153.112 Q438.839 150.826 435.251 150.826 Q430.94 150.826 428.451 153.575 Q425.963 156.323 425.963 161.069 L425.963 179.385 L420.61 179.385 L420.61 146.977 L425.963 146.977 L425.963 152.012 Q427.873 149.09 430.448 147.643 Q433.052 146.196 436.437 146.196 Q442.022 146.196 444.886 149.668 Q447.751 153.112 447.751 159.825 Z" fill="#000000" fill-rule="nonzero" fill-opacity="1" /><path clip-path="url(#clip260)" d="M477.901 152.475 L514.996 152.475 L514.996 157.336 L477.901 157.336 L477.901 152.475 M477.901 164.281 L514.996 164.281 L514.996 169.2 L477.901 169.2 L477.901 164.281 Z" fill="#000000" fill-rule="nonzero" fill-opacity="1" /><path clip-path="url(#clip260)" d="M544.973 136.185 L572.75 136.185 L572.75 138.673 L557.068 179.385 L550.962 179.385 L565.719 141.104 L544.973 141.104 L544.973 136.185 Z" fill="#000000" fill-rule="nonzero" fill-opacity="1" /><path clip-path="url(#clip260)" d="M584.151 172.035 L590.256 172.035 L590.256 179.385 L584.151 179.385 L584.151 172.035 Z" fill="#000000" fill-rule="nonzero" fill-opacity="1" /><path clip-path="url(#clip260)" d="M603.045 136.185 L625.991 136.185 L625.991 141.104 L608.398 141.104 L608.398 151.694 Q609.671 151.26 610.945 151.057 Q612.218 150.826 613.491 150.826 Q620.725 150.826 624.949 154.79 Q629.174 158.754 629.174 165.525 Q629.174 172.498 624.833 176.375 Q620.493 180.224 612.594 180.224 Q609.874 180.224 607.038 179.761 Q604.232 179.298 601.222 178.372 L601.222 172.498 Q603.827 173.916 606.604 174.61 Q609.382 175.305 612.478 175.305 Q617.484 175.305 620.406 172.672 Q623.329 170.039 623.329 165.525 Q623.329 161.011 620.406 158.378 Q617.484 155.745 612.478 155.745 Q610.134 155.745 607.791 156.266 Q605.476 156.786 603.045 157.886 L603.045 136.185 Z" fill="#000000" fill-rule="nonzero" fill-opacity="1" /><path clip-path="url(#clip260)" d="M653.913 155.455 Q649.978 155.455 647.663 158.146 Q645.377 160.837 645.377 165.525 Q645.377 170.183 647.663 172.903 Q649.978 175.594 653.913 175.594 Q657.848 175.594 660.134 172.903 Q662.449 170.183 662.449 165.525 Q662.449 160.837 660.134 158.146 Q657.848 155.455 653.913 155.455 M665.516 137.139 L665.516 142.464 Q663.317 141.422 661.06 140.872 Q658.832 140.322 656.633 140.322 Q650.846 140.322 647.779 144.229 Q644.741 148.135 644.307 156.034 Q646.014 153.517 648.589 152.186 Q651.164 150.826 654.26 150.826 Q660.771 150.826 664.532 154.79 Q668.323 158.725 668.323 165.525 Q668.323 172.18 664.388 176.202 Q660.452 180.224 653.913 180.224 Q646.419 180.224 642.455 174.495 Q638.491 168.737 638.491 157.828 Q638.491 147.585 643.352 141.509 Q648.213 135.403 656.401 135.403 Q658.601 135.403 660.829 135.837 Q663.085 136.271 665.516 137.139 Z" fill="#000000" fill-rule="nonzero" fill-opacity="1" /><path clip-path="url(#clip260)" d="M678.566 178.488 L678.566 173.164 Q680.765 174.205 683.022 174.755 Q685.279 175.305 687.449 175.305 Q693.236 175.305 696.274 171.427 Q699.341 167.521 699.775 159.593 Q698.097 162.081 695.522 163.412 Q692.946 164.744 689.821 164.744 Q683.34 164.744 679.55 160.837 Q675.788 156.902 675.788 150.102 Q675.788 143.447 679.723 139.425 Q683.658 135.403 690.198 135.403 Q697.692 135.403 701.627 141.161 Q705.591 146.891 705.591 157.828 Q705.591 168.042 700.73 174.147 Q695.898 180.224 687.709 180.224 Q685.51 180.224 683.253 179.79 Q680.996 179.356 678.566 178.488 M690.198 160.172 Q694.133 160.172 696.419 157.481 Q698.733 154.79 698.733 150.102 Q698.733 145.444 696.419 142.753 Q694.133 140.033 690.198 140.033 Q686.262 140.033 683.948 142.753 Q681.662 145.444 681.662 150.102 Q681.662 154.79 683.948 157.481 Q686.262 160.172 690.198 160.172 Z" fill="#000000" fill-rule="nonzero" fill-opacity="1" /><path clip-path="url(#clip260)" d="M302.989 210.703 L302.989 244.297 L310.049 244.297 Q318.99 244.297 323.128 240.246 Q327.294 236.195 327.294 227.456 Q327.294 218.776 323.128 214.754 Q318.99 210.703 310.049 210.703 L302.989 210.703 M297.144 205.9 L309.152 205.9 Q321.71 205.9 327.584 211.137 Q333.458 216.345 333.458 227.456 Q333.458 238.625 327.555 243.862 Q321.652 249.1 309.152 249.1 L297.144 249.1 L297.144 205.9 Z" fill="#000000" fill-rule="nonzero" fill-opacity="1" /><path clip-path="url(#clip260)" d="M342.543 216.692 L347.867 216.692 L347.867 249.1 L342.543 249.1 L342.543 216.692 M342.543 204.077 L347.867 204.077 L347.867 210.819 L342.543 210.819 L342.543 204.077 Z" fill="#000000" fill-rule="nonzero" fill-opacity="1" /><path clip-path="url(#clip260)" d="M379.667 217.647 L379.667 222.682 Q377.41 221.525 374.979 220.946 Q372.549 220.367 369.945 220.367 Q365.981 220.367 363.984 221.583 Q362.016 222.798 362.016 225.228 Q362.016 227.08 363.434 228.151 Q364.852 229.192 369.135 230.147 L370.957 230.552 Q376.629 231.768 379.001 233.996 Q381.403 236.195 381.403 240.159 Q381.403 244.673 377.815 247.306 Q374.256 249.939 368.006 249.939 Q365.402 249.939 362.566 249.418 Q359.76 248.926 356.635 247.913 L356.635 242.416 Q359.586 243.949 362.451 244.731 Q365.315 245.483 368.122 245.483 Q371.883 245.483 373.909 244.21 Q375.934 242.908 375.934 240.564 Q375.934 238.394 374.459 237.236 Q373.012 236.079 368.064 235.008 L366.212 234.574 Q361.264 233.533 359.065 231.391 Q356.866 229.221 356.866 225.46 Q356.866 220.888 360.107 218.4 Q363.348 215.911 369.308 215.911 Q372.259 215.911 374.864 216.345 Q377.468 216.779 379.667 217.647 Z" fill="#000000" fill-rule="nonzero" fill-opacity="1" /><path clip-path="url(#clip260)" d="M395.147 207.491 L395.147 216.692 L406.113 216.692 L406.113 220.83 L395.147 220.83 L395.147 238.423 Q395.147 242.387 396.218 243.515 Q397.317 244.644 400.645 244.644 L406.113 244.644 L406.113 249.1 L400.645 249.1 Q394.482 249.1 392.138 246.814 Q389.794 244.499 389.794 238.423 L389.794 220.83 L385.888 220.83 L385.888 216.692 L389.794 216.692 L389.794 207.491 L395.147 207.491 Z" fill="#000000" fill-rule="nonzero" fill-opacity="1" /><path clip-path="url(#clip260)" d="M432.647 222.19 L469.742 222.19 L469.742 227.051 L432.647 227.051 L432.647 222.19 M432.647 233.996 L469.742 233.996 L469.742 238.915 L432.647 238.915 L432.647 233.996 Z" fill="#000000" fill-rule="nonzero" fill-opacity="1" /><path clip-path="url(#clip260)" d="M513.694 209.748 Q509.18 209.748 506.894 214.204 Q504.637 218.631 504.637 227.543 Q504.637 236.426 506.894 240.882 Q509.18 245.309 513.694 245.309 Q518.237 245.309 520.494 240.882 Q522.78 236.426 522.78 227.543 Q522.78 218.631 520.494 214.204 Q518.237 209.748 513.694 209.748 M513.694 205.118 Q520.957 205.118 524.776 210.877 Q528.624 216.606 528.624 227.543 Q528.624 238.452 524.776 244.21 Q520.957 249.939 513.694 249.939 Q506.431 249.939 502.583 244.21 Q498.763 238.452 498.763 227.543 Q498.763 216.606 502.583 210.877 Q506.431 205.118 513.694 205.118 Z" fill="#000000" fill-rule="nonzero" fill-opacity="1" /><path clip-path="url(#clip260)" d="M538.896 241.75 L545.002 241.75 L545.002 249.1 L538.896 249.1 L538.896 241.75 Z" fill="#000000" fill-rule="nonzero" fill-opacity="1" /><path clip-path="url(#clip260)" d="M570.233 209.748 Q565.719 209.748 563.433 214.204 Q561.176 218.631 561.176 227.543 Q561.176 236.426 563.433 240.882 Q565.719 245.309 570.233 245.309 Q574.776 245.309 577.033 240.882 Q579.319 236.426 579.319 227.543 Q579.319 218.631 577.033 214.204 Q574.776 209.748 570.233 209.748 M570.233 205.118 Q577.496 205.118 581.315 210.877 Q585.163 216.606 585.163 227.543 Q585.163 238.452 581.315 244.21 Q577.496 249.939 570.233 249.939 Q562.97 249.939 559.122 244.21 Q555.302 238.452 555.302 227.543 Q555.302 216.606 559.122 210.877 Q562.97 205.118 570.233 205.118 Z" fill="#000000" fill-rule="nonzero" fill-opacity="1" /><path clip-path="url(#clip260)" d="M596.448 244.181 L605.997 244.181 L605.997 211.224 L595.609 213.307 L595.609 207.983 L605.939 205.9 L611.784 205.9 L611.784 244.181 L621.332 244.181 L621.332 249.1 L596.448 249.1 L596.448 244.181 Z" fill="#000000" fill-rule="nonzero" fill-opacity="1" /><path clip-path="url(#clip260)" d="M631.662 205.9 L659.44 205.9 L659.44 208.388 L643.757 249.1 L637.652 249.1 L652.408 210.819 L631.662 210.819 L631.662 205.9 Z" fill="#000000" fill-rule="nonzero" fill-opacity="1" /><path clip-path="url(#clip260)" d="M670.898 205.9 L693.843 205.9 L693.843 210.819 L676.251 210.819 L676.251 221.409 Q677.524 220.975 678.797 220.772 Q680.07 220.541 681.343 220.541 Q688.577 220.541 692.802 224.505 Q697.026 228.469 697.026 235.24 Q697.026 242.213 692.686 246.09 Q688.346 249.939 680.447 249.939 Q677.727 249.939 674.891 249.476 Q672.084 249.013 669.075 248.087 L669.075 242.213 Q671.679 243.631 674.457 244.325 Q677.235 245.02 680.331 245.02 Q685.337 245.02 688.259 242.387 Q691.181 239.754 691.181 235.24 Q691.181 230.726 688.259 228.093 Q685.337 225.46 680.331 225.46 Q677.987 225.46 675.643 225.981 Q673.328 226.501 670.898 227.601 L670.898 205.9 Z" fill="#000000" fill-rule="nonzero" fill-opacity="1" /><path clip-path="url(#clip260)" d="M1824.06 1273.23 L3152.76 1273.23 L3152.76 88.0695 L1824.06 88.0695  Z" fill="#ffffff" fill-rule="evenodd" fill-opacity="1"/>
<defs>
  <clipPath id="clip263">
    <rect x="1824" y="88" width="1330" height="1186"/>
  </clipPath>
</defs>
<polyline clip-path="url(#clip263)" style="stroke:#000000; stroke-linecap:round; stroke-linejoin:round; stroke-width:2; stroke-opacity:0.1; fill:none" points="1962.84,1273.23 1962.84,88.0695 "/>
<polyline clip-path="url(#clip263)" style="stroke:#000000; stroke-linecap:round; stroke-linejoin:round; stroke-width:2; stroke-opacity:0.1; fill:none" points="2094.23,1273.23 2094.23,88.0695 "/>
<polyline clip-path="url(#clip263)" style="stroke:#000000; stroke-linecap:round; stroke-linejoin:round; stroke-width:2; stroke-opacity:0.1; fill:none" points="2225.63,1273.23 2225.63,88.0695 "/>
<polyline clip-path="url(#clip263)" style="stroke:#000000; stroke-linecap:round; stroke-linejoin:round; stroke-width:2; stroke-opacity:0.1; fill:none" points="2357.02,1273.23 2357.02,88.0695 "/>
<polyline clip-path="url(#clip263)" style="stroke:#000000; stroke-linecap:round; stroke-linejoin:round; stroke-width:2; stroke-opacity:0.1; fill:none" points="2488.41,1273.23 2488.41,88.0695 "/>
<polyline clip-path="url(#clip263)" style="stroke:#000000; stroke-linecap:round; stroke-linejoin:round; stroke-width:2; stroke-opacity:0.1; fill:none" points="2619.8,1273.23 2619.8,88.0695 "/>
<polyline clip-path="url(#clip263)" style="stroke:#000000; stroke-linecap:round; stroke-linejoin:round; stroke-width:2; stroke-opacity:0.1; fill:none" points="2751.19,1273.23 2751.19,88.0695 "/>
<polyline clip-path="url(#clip263)" style="stroke:#000000; stroke-linecap:round; stroke-linejoin:round; stroke-width:2; stroke-opacity:0.1; fill:none" points="2882.59,1273.23 2882.59,88.0695 "/>
<polyline clip-path="url(#clip263)" style="stroke:#000000; stroke-linecap:round; stroke-linejoin:round; stroke-width:2; stroke-opacity:0.1; fill:none" points="3013.98,1273.23 3013.98,88.0695 "/>
<polyline clip-path="url(#clip260)" style="stroke:#000000; stroke-linecap:round; stroke-linejoin:round; stroke-width:4; stroke-opacity:1; fill:none" points="1824.06,1273.23 3152.76,1273.23 "/>
<polyline clip-path="url(#clip260)" style="stroke:#000000; stroke-linecap:round; stroke-linejoin:round; stroke-width:4; stroke-opacity:1; fill:none" points="1962.84,1273.23 1962.84,1254.33 "/>
<polyline clip-path="url(#clip260)" style="stroke:#000000; stroke-linecap:round; stroke-linejoin:round; stroke-width:4; stroke-opacity:1; fill:none" points="2094.23,1273.23 2094.23,1254.33 "/>
<polyline clip-path="url(#clip260)" style="stroke:#000000; stroke-linecap:round; stroke-linejoin:round; stroke-width:4; stroke-opacity:1; fill:none" points="2225.63,1273.23 2225.63,1254.33 "/>
<polyline clip-path="url(#clip260)" style="stroke:#000000; stroke-linecap:round; stroke-linejoin:round; stroke-width:4; stroke-opacity:1; fill:none" points="2357.02,1273.23 2357.02,1254.33 "/>
<polyline clip-path="url(#clip260)" style="stroke:#000000; stroke-linecap:round; stroke-linejoin:round; stroke-width:4; stroke-opacity:1; fill:none" points="2488.41,1273.23 2488.41,1254.33 "/>
<polyline clip-path="url(#clip260)" style="stroke:#000000; stroke-linecap:round; stroke-linejoin:round; stroke-width:4; stroke-opacity:1; fill:none" points="2619.8,1273.23 2619.8,1254.33 "/>
<polyline clip-path="url(#clip260)" style="stroke:#000000; stroke-linecap:round; stroke-linejoin:round; stroke-width:4; stroke-opacity:1; fill:none" points="2751.19,1273.23 2751.19,1254.33 "/>
<polyline clip-path="url(#clip260)" style="stroke:#000000; stroke-linecap:round; stroke-linejoin:round; stroke-width:4; stroke-opacity:1; fill:none" points="2882.59,1273.23 2882.59,1254.33 "/>
<polyline clip-path="url(#clip260)" style="stroke:#000000; stroke-linecap:round; stroke-linejoin:round; stroke-width:4; stroke-opacity:1; fill:none" points="3013.98,1273.23 3013.98,1254.33 "/>
<g clip-path="url(#clip260)">
<text style="fill:#000000; fill-opacity:1; font-family:Century Gothic,CenturyGothic,AppleGothic,sans-serif; font-size:47px; text-anchor:middle;" transform="rotate(0, 1962.84, 1353.69)" x="1962.84" y="1353.69">0</text>
</g>
<g clip-path="url(#clip260)">
<text style="fill:#000000; fill-opacity:1; font-family:Century Gothic,CenturyGothic,AppleGothic,sans-serif; font-size:47px; text-anchor:middle;" transform="rotate(0, 2094.23, 1353.69)" x="2094.23" y="1353.69">1</text>
</g>
<g clip-path="url(#clip260)">
<text style="fill:#000000; fill-opacity:1; font-family:Century Gothic,CenturyGothic,AppleGothic,sans-serif; font-size:47px; text-anchor:middle;" transform="rotate(0, 2225.63, 1353.69)" x="2225.63" y="1353.69">2</text>
</g>
<g clip-path="url(#clip260)">
<text style="fill:#000000; fill-opacity:1; font-family:Century Gothic,CenturyGothic,AppleGothic,sans-serif; font-size:47px; text-anchor:middle;" transform="rotate(0, 2357.02, 1353.69)" x="2357.02" y="1353.69">3</text>
</g>
<g clip-path="url(#clip260)">
<text style="fill:#000000; fill-opacity:1; font-family:Century Gothic,CenturyGothic,AppleGothic,sans-serif; font-size:47px; text-anchor:middle;" transform="rotate(0, 2488.41, 1353.69)" x="2488.41" y="1353.69">4</text>
</g>
<g clip-path="url(#clip260)">
<text style="fill:#000000; fill-opacity:1; font-family:Century Gothic,CenturyGothic,AppleGothic,sans-serif; font-size:47px; text-anchor:middle;" transform="rotate(0, 2619.8, 1353.69)" x="2619.8" y="1353.69">5</text>
</g>
<g clip-path="url(#clip260)">
<text style="fill:#000000; fill-opacity:1; font-family:Century Gothic,CenturyGothic,AppleGothic,sans-serif; font-size:47px; text-anchor:middle;" transform="rotate(0, 2751.19, 1353.69)" x="2751.19" y="1353.69">6</text>
</g>
<g clip-path="url(#clip260)">
<text style="fill:#000000; fill-opacity:1; font-family:Century Gothic,CenturyGothic,AppleGothic,sans-serif; font-size:47px; text-anchor:middle;" transform="rotate(0, 2882.59, 1353.69)" x="2882.59" y="1353.69">7</text>
</g>
<g clip-path="url(#clip260)">
<text style="fill:#000000; fill-opacity:1; font-family:Century Gothic,CenturyGothic,AppleGothic,sans-serif; font-size:47px; text-anchor:middle;" transform="rotate(0, 3013.98, 1353.69)" x="3013.98" y="1353.69">8</text>
</g>
<g clip-path="url(#clip260)">
<text style="fill:#000000; fill-opacity:1; font-family:Century Gothic,CenturyGothic,AppleGothic,sans-serif; font-size:65px; text-anchor:middle;" transform="rotate(0, 2488.41, 1452.31)" x="2488.41" y="1452.31">中心推定の正解数</text>
</g>
<polyline clip-path="url(#clip263)" style="stroke:#000000; stroke-linecap:round; stroke-linejoin:round; stroke-width:2; stroke-opacity:0.1; fill:none" points="1824.06,1273.23 3152.76,1273.23 "/>
<polyline clip-path="url(#clip263)" style="stroke:#000000; stroke-linecap:round; stroke-linejoin:round; stroke-width:2; stroke-opacity:0.1; fill:none" points="1824.06,994.366 3152.76,994.366 "/>
<polyline clip-path="url(#clip263)" style="stroke:#000000; stroke-linecap:round; stroke-linejoin:round; stroke-width:2; stroke-opacity:0.1; fill:none" points="1824.06,715.505 3152.76,715.505 "/>
<polyline clip-path="url(#clip263)" style="stroke:#000000; stroke-linecap:round; stroke-linejoin:round; stroke-width:2; stroke-opacity:0.1; fill:none" points="1824.06,436.645 3152.76,436.645 "/>
<polyline clip-path="url(#clip263)" style="stroke:#000000; stroke-linecap:round; stroke-linejoin:round; stroke-width:2; stroke-opacity:0.1; fill:none" points="1824.06,157.785 3152.76,157.785 "/>
<polyline clip-path="url(#clip260)" style="stroke:#000000; stroke-linecap:round; stroke-linejoin:round; stroke-width:4; stroke-opacity:1; fill:none" points="1824.06,1273.23 1824.06,88.0695 "/>
<polyline clip-path="url(#clip260)" style="stroke:#000000; stroke-linecap:round; stroke-linejoin:round; stroke-width:4; stroke-opacity:1; fill:none" points="1824.06,1273.23 1842.96,1273.23 "/>
<polyline clip-path="url(#clip260)" style="stroke:#000000; stroke-linecap:round; stroke-linejoin:round; stroke-width:4; stroke-opacity:1; fill:none" points="1824.06,994.366 1842.96,994.366 "/>
<polyline clip-path="url(#clip260)" style="stroke:#000000; stroke-linecap:round; stroke-linejoin:round; stroke-width:4; stroke-opacity:1; fill:none" points="1824.06,715.505 1842.96,715.505 "/>
<polyline clip-path="url(#clip260)" style="stroke:#000000; stroke-linecap:round; stroke-linejoin:round; stroke-width:4; stroke-opacity:1; fill:none" points="1824.06,436.645 1842.96,436.645 "/>
<polyline clip-path="url(#clip260)" style="stroke:#000000; stroke-linecap:round; stroke-linejoin:round; stroke-width:4; stroke-opacity:1; fill:none" points="1824.06,157.785 1842.96,157.785 "/>
<g clip-path="url(#clip260)">
<text style="fill:#000000; fill-opacity:1; font-family:Century Gothic,CenturyGothic,AppleGothic,sans-serif; font-size:47px; text-anchor:middle;" transform="rotate(0, 1739.13, 1290.73)" x="1739.13" y="1290.73">0</text>
</g>
<g clip-path="url(#clip260)">
<text style="fill:#000000; fill-opacity:1; font-family:Century Gothic,CenturyGothic,AppleGothic,sans-serif; font-size:47px; text-anchor:middle;" transform="rotate(0, 1713.25, 1011.87)" x="1713.25" y="1011.87">200</text>
</g>
<g clip-path="url(#clip260)">
<text style="fill:#000000; fill-opacity:1; font-family:Century Gothic,CenturyGothic,AppleGothic,sans-serif; font-size:47px; text-anchor:middle;" transform="rotate(0, 1713.25, 733.005)" x="1713.25" y="733.005">400</text>
</g>
<g clip-path="url(#clip260)">
<text style="fill:#000000; fill-opacity:1; font-family:Century Gothic,CenturyGothic,AppleGothic,sans-serif; font-size:47px; text-anchor:middle;" transform="rotate(0, 1713.25, 454.145)" x="1713.25" y="454.145">600</text>
</g>
<g clip-path="url(#clip260)">
<text style="fill:#000000; fill-opacity:1; font-family:Century Gothic,CenturyGothic,AppleGothic,sans-serif; font-size:47px; text-anchor:middle;" transform="rotate(0, 1713.25, 175.285)" x="1713.25" y="175.285">800</text>
</g>
<g clip-path="url(#clip260)">
<text style="fill:#000000; fill-opacity:1; font-family:Century Gothic,CenturyGothic,AppleGothic,sans-serif; font-size:65px; text-anchor:middle;" transform="rotate(-90, 1592.49, 680.648)" x="1592.49" y="680.648">度数</text>
</g>
<g clip-path="url(#clip260)">
<text style="fill:#000000; fill-opacity:1; font-family:Century Gothic,CenturyGothic,AppleGothic,sans-serif; font-size:81px; text-anchor:middle;" transform="rotate(0, 2488.41, 72)" x="2488.41" y="72">Setting : C, Method : GM</text>
</g>
<path clip-path="url(#clip263)" d="M1897.14 1273.23 L1897.14 1273.23 L2028.54 1273.23 L2028.54 1273.23 L1897.14 1273.23 L1897.14 1273.23  Z" fill="#009af9" fill-rule="evenodd" fill-opacity="1"/>
<polyline clip-path="url(#clip263)" style="stroke:#000000; stroke-linecap:round; stroke-linejoin:round; stroke-width:4; stroke-opacity:1; fill:none" points="1897.14,1273.23 1897.14,1273.23 2028.54,1273.23 1897.14,1273.23 "/>
<path clip-path="url(#clip263)" d="M2028.54 1273.23 L2028.54 1273.23 L2159.93 1273.23 L2159.93 1273.23 L2028.54 1273.23 L2028.54 1273.23  Z" fill="#009af9" fill-rule="evenodd" fill-opacity="1"/>
<polyline clip-path="url(#clip263)" style="stroke:#000000; stroke-linecap:round; stroke-linejoin:round; stroke-width:4; stroke-opacity:1; fill:none" points="2028.54,1273.23 2028.54,1273.23 2159.93,1273.23 2028.54,1273.23 "/>
<path clip-path="url(#clip263)" d="M2159.93 1273.23 L2159.93 1273.23 L2291.32 1273.23 L2291.32 1273.23 L2159.93 1273.23 L2159.93 1273.23  Z" fill="#009af9" fill-rule="evenodd" fill-opacity="1"/>
<polyline clip-path="url(#clip263)" style="stroke:#000000; stroke-linecap:round; stroke-linejoin:round; stroke-width:4; stroke-opacity:1; fill:none" points="2159.93,1273.23 2159.93,1273.23 2291.32,1273.23 2159.93,1273.23 "/>
<path clip-path="url(#clip263)" d="M2291.32 1273.23 L2291.32 1273.23 L2422.71 1273.23 L2422.71 1273.23 L2291.32 1273.23 L2291.32 1273.23  Z" fill="#009af9" fill-rule="evenodd" fill-opacity="1"/>
<polyline clip-path="url(#clip263)" style="stroke:#000000; stroke-linecap:round; stroke-linejoin:round; stroke-width:4; stroke-opacity:1; fill:none" points="2291.32,1273.23 2291.32,1273.23 2422.71,1273.23 2291.32,1273.23 "/>
<path clip-path="url(#clip263)" d="M2422.71 1273.23 L2422.71 1273.23 L2554.11 1273.23 L2554.11 1273.23 L2422.71 1273.23 L2422.71 1273.23  Z" fill="#009af9" fill-rule="evenodd" fill-opacity="1"/>
<polyline clip-path="url(#clip263)" style="stroke:#000000; stroke-linecap:round; stroke-linejoin:round; stroke-width:4; stroke-opacity:1; fill:none" points="2422.71,1273.23 2422.71,1273.23 2554.11,1273.23 2422.71,1273.23 "/>
<path clip-path="url(#clip263)" d="M2554.11 1269.04 L2554.11 1273.23 L2685.5 1273.23 L2685.5 1269.04 L2554.11 1269.04 L2554.11 1269.04  Z" fill="#009af9" fill-rule="evenodd" fill-opacity="1"/>
<polyline clip-path="url(#clip263)" style="stroke:#000000; stroke-linecap:round; stroke-linejoin:round; stroke-width:4; stroke-opacity:1; fill:none" points="2554.11,1269.04 2554.11,1273.23 2685.5,1273.23 2685.5,1269.04 2554.11,1269.04 "/>
<path clip-path="url(#clip263)" d="M2685.5 1210.48 L2685.5 1273.23 L2816.89 1273.23 L2816.89 1210.48 L2685.5 1210.48 L2685.5 1210.48  Z" fill="#009af9" fill-rule="evenodd" fill-opacity="1"/>
<polyline clip-path="url(#clip263)" style="stroke:#000000; stroke-linecap:round; stroke-linejoin:round; stroke-width:4; stroke-opacity:1; fill:none" points="2685.5,1210.48 2685.5,1273.23 2816.89,1273.23 2816.89,1210.48 2685.5,1210.48 "/>
<path clip-path="url(#clip263)" d="M2816.89 788.009 L2816.89 1273.23 L2948.28 1273.23 L2948.28 788.009 L2816.89 788.009 L2816.89 788.009  Z" fill="#009af9" fill-rule="evenodd" fill-opacity="1"/>
<polyline clip-path="url(#clip263)" style="stroke:#000000; stroke-linecap:round; stroke-linejoin:round; stroke-width:4; stroke-opacity:1; fill:none" points="2816.89,788.009 2816.89,1273.23 2948.28,1273.23 2948.28,788.009 2816.89,788.009 "/>
<path clip-path="url(#clip263)" d="M2948.28 431.068 L2948.28 1273.23 L3079.68 1273.23 L3079.68 431.068 L2948.28 431.068 L2948.28 431.068  Z" fill="#009af9" fill-rule="evenodd" fill-opacity="1"/>
<polyline clip-path="url(#clip263)" style="stroke:#000000; stroke-linecap:round; stroke-linejoin:round; stroke-width:4; stroke-opacity:1; fill:none" points="2948.28,431.068 2948.28,1273.23 3079.68,1273.23 3079.68,431.068 2948.28,431.068 "/>
<circle clip-path="url(#clip263)" style="fill:#009af9; stroke:none; fill-opacity:0" cx="1962.84" cy="1273.23" r="2"/>
<circle clip-path="url(#clip263)" style="fill:#009af9; stroke:none; fill-opacity:0" cx="2094.23" cy="1273.23" r="2"/>
<circle clip-path="url(#clip263)" style="fill:#009af9; stroke:none; fill-opacity:0" cx="2225.63" cy="1273.23" r="2"/>
<circle clip-path="url(#clip263)" style="fill:#009af9; stroke:none; fill-opacity:0" cx="2357.02" cy="1273.23" r="2"/>
<circle clip-path="url(#clip263)" style="fill:#009af9; stroke:none; fill-opacity:0" cx="2488.41" cy="1273.23" r="2"/>
<circle clip-path="url(#clip263)" style="fill:#009af9; stroke:none; fill-opacity:0" cx="2619.8" cy="1269.04" r="2"/>
<circle clip-path="url(#clip263)" style="fill:#009af9; stroke:none; fill-opacity:0" cx="2751.19" cy="1210.48" r="2"/>
<circle clip-path="url(#clip263)" style="fill:#009af9; stroke:none; fill-opacity:0" cx="2882.59" cy="788.009" r="2"/>
<circle clip-path="url(#clip263)" style="fill:#009af9; stroke:none; fill-opacity:0" cx="3013.98" cy="431.068" r="2"/>
<path clip-path="url(#clip260)" d="M1897.14 136.185 L1905.85 136.185 L1916.88 165.583 L1927.96 136.185 L1936.67 136.185 L1936.67 179.385 L1930.97 179.385 L1930.97 141.451 L1919.83 171.08 L1913.96 171.08 L1902.82 141.451 L1902.82 179.385 L1897.14 179.385 L1897.14 136.185 Z" fill="#000000" fill-rule="nonzero" fill-opacity="1" /><path clip-path="url(#clip260)" d="M1975.76 161.85 L1975.76 164.454 L1951.28 164.454 Q1951.63 169.952 1954.58 172.845 Q1957.56 175.71 1962.86 175.71 Q1965.92 175.71 1968.79 174.958 Q1971.68 174.205 1974.52 172.701 L1974.52 177.735 Q1971.65 178.951 1968.64 179.587 Q1965.63 180.224 1962.54 180.224 Q1954.78 180.224 1950.24 175.71 Q1945.73 171.196 1945.73 163.499 Q1945.73 155.542 1950.01 150.884 Q1954.32 146.196 1961.61 146.196 Q1968.15 146.196 1971.94 150.421 Q1975.76 154.616 1975.76 161.85 M1970.44 160.288 Q1970.38 155.918 1967.98 153.314 Q1965.6 150.71 1961.67 150.71 Q1957.21 150.71 1954.52 153.227 Q1951.86 155.745 1951.46 160.316 L1970.44 160.288 Z" fill="#000000" fill-rule="nonzero" fill-opacity="1" /><path clip-path="url(#clip260)" d="M1999.23 163.094 Q1992.77 163.094 1990.29 164.57 Q1987.8 166.046 1987.8 169.605 Q1987.8 172.44 1989.65 174.118 Q1991.53 175.768 1994.74 175.768 Q1999.17 175.768 2001.83 172.643 Q2004.52 169.489 2004.52 164.281 L2004.52 163.094 L1999.23 163.094 M2009.85 160.895 L2009.85 179.385 L2004.52 179.385 L2004.52 174.466 Q2002.7 177.417 1999.98 178.835 Q1997.26 180.224 1993.32 180.224 Q1988.35 180.224 1985.4 177.446 Q1982.47 174.639 1982.47 169.952 Q1982.47 164.483 1986.12 161.705 Q1989.79 158.928 1997.06 158.928 L2004.52 158.928 L2004.52 158.407 Q2004.52 154.732 2002.09 152.735 Q1999.69 150.71 1995.32 150.71 Q1992.54 150.71 1989.91 151.376 Q1987.28 152.041 1984.85 153.372 L1984.85 148.453 Q1987.77 147.325 1990.52 146.775 Q1993.27 146.196 1995.87 146.196 Q2002.9 146.196 2006.37 149.842 Q2009.85 153.488 2009.85 160.895 Z" fill="#000000" fill-rule="nonzero" fill-opacity="1" /><path clip-path="url(#clip260)" d="M2047.75 159.825 L2047.75 179.385 L2042.43 179.385 L2042.43 159.998 Q2042.43 155.397 2040.63 153.112 Q2038.84 150.826 2035.25 150.826 Q2030.94 150.826 2028.45 153.575 Q2025.96 156.323 2025.96 161.069 L2025.96 179.385 L2020.61 179.385 L2020.61 146.977 L2025.96 146.977 L2025.96 152.012 Q2027.87 149.09 2030.45 147.643 Q2033.05 146.196 2036.44 146.196 Q2042.02 146.196 2044.89 149.668 Q2047.75 153.112 2047.75 159.825 Z" fill="#000000" fill-rule="nonzero" fill-opacity="1" /><path clip-path="url(#clip260)" d="M2077.9 152.475 L2115 152.475 L2115 157.336 L2077.9 157.336 L2077.9 152.475 M2077.9 164.281 L2115 164.281 L2115 169.2 L2077.9 169.2 L2077.9 164.281 Z" fill="#000000" fill-rule="nonzero" fill-opacity="1" /><path clip-path="url(#clip260)" d="M2144.97 136.185 L2172.75 136.185 L2172.75 138.673 L2157.07 179.385 L2150.96 179.385 L2165.72 141.104 L2144.97 141.104 L2144.97 136.185 Z" fill="#000000" fill-rule="nonzero" fill-opacity="1" /><path clip-path="url(#clip260)" d="M2184.15 172.035 L2190.26 172.035 L2190.26 179.385 L2184.15 179.385 L2184.15 172.035 Z" fill="#000000" fill-rule="nonzero" fill-opacity="1" /><path clip-path="url(#clip260)" d="M2203.05 136.185 L2225.99 136.185 L2225.99 141.104 L2208.4 141.104 L2208.4 151.694 Q2209.67 151.26 2210.94 151.057 Q2212.22 150.826 2213.49 150.826 Q2220.72 150.826 2224.95 154.79 Q2229.17 158.754 2229.17 165.525 Q2229.17 172.498 2224.83 176.375 Q2220.49 180.224 2212.59 180.224 Q2209.87 180.224 2207.04 179.761 Q2204.23 179.298 2201.22 178.372 L2201.22 172.498 Q2203.83 173.916 2206.6 174.61 Q2209.38 175.305 2212.48 175.305 Q2217.48 175.305 2220.41 172.672 Q2223.33 170.039 2223.33 165.525 Q2223.33 161.011 2220.41 158.378 Q2217.48 155.745 2212.48 155.745 Q2210.13 155.745 2207.79 156.266 Q2205.48 156.786 2203.05 157.886 L2203.05 136.185 Z" fill="#000000" fill-rule="nonzero" fill-opacity="1" /><path clip-path="url(#clip260)" d="M2240.75 136.185 L2263.69 136.185 L2263.69 141.104 L2246.1 141.104 L2246.1 151.694 Q2247.37 151.26 2248.65 151.057 Q2249.92 150.826 2251.19 150.826 Q2258.43 150.826 2262.65 154.79 Q2266.88 158.754 2266.88 165.525 Q2266.88 172.498 2262.54 176.375 Q2258.2 180.224 2250.3 180.224 Q2247.58 180.224 2244.74 179.761 Q2241.93 179.298 2238.92 178.372 L2238.92 172.498 Q2241.53 173.916 2244.31 174.61 Q2247.08 175.305 2250.18 175.305 Q2255.19 175.305 2258.11 172.672 Q2261.03 170.039 2261.03 165.525 Q2261.03 161.011 2258.11 158.378 Q2255.19 155.745 2250.18 155.745 Q2247.84 155.745 2245.49 156.266 Q2243.18 156.786 2240.75 157.886 L2240.75 136.185 Z" fill="#000000" fill-rule="nonzero" fill-opacity="1" /><path clip-path="url(#clip260)" d="M2296.1 156.092 Q2300.3 156.989 2302.64 159.825 Q2305.01 162.66 2305.01 166.827 Q2305.01 173.221 2300.61 176.723 Q2296.22 180.224 2288.11 180.224 Q2285.39 180.224 2282.5 179.674 Q2279.64 179.153 2276.57 178.083 L2276.57 172.44 Q2279 173.858 2281.89 174.581 Q2284.79 175.305 2287.94 175.305 Q2293.44 175.305 2296.3 173.135 Q2299.2 170.965 2299.2 166.827 Q2299.2 163.007 2296.51 160.866 Q2293.84 158.696 2289.07 158.696 L2284.03 158.696 L2284.03 153.893 L2289.3 153.893 Q2293.61 153.893 2295.9 152.186 Q2298.18 150.45 2298.18 147.209 Q2298.18 143.881 2295.81 142.116 Q2293.47 140.322 2289.07 140.322 Q2286.67 140.322 2283.92 140.843 Q2281.17 141.364 2277.87 142.464 L2277.87 137.255 Q2281.2 136.329 2284.09 135.866 Q2287.01 135.403 2289.59 135.403 Q2296.25 135.403 2300.12 138.442 Q2304 141.451 2304 146.601 Q2304 150.189 2301.95 152.678 Q2299.89 155.137 2296.1 156.092 Z" fill="#000000" fill-rule="nonzero" fill-opacity="1" /><path clip-path="url(#clip260)" d="M1902.99 210.703 L1902.99 244.297 L1910.05 244.297 Q1918.99 244.297 1923.13 240.246 Q1927.29 236.195 1927.29 227.456 Q1927.29 218.776 1923.13 214.754 Q1918.99 210.703 1910.05 210.703 L1902.99 210.703 M1897.14 205.9 L1909.15 205.9 Q1921.71 205.9 1927.58 211.137 Q1933.46 216.345 1933.46 227.456 Q1933.46 238.625 1927.55 243.862 Q1921.65 249.1 1909.15 249.1 L1897.14 249.1 L1897.14 205.9 Z" fill="#000000" fill-rule="nonzero" fill-opacity="1" /><path clip-path="url(#clip260)" d="M1942.54 216.692 L1947.87 216.692 L1947.87 249.1 L1942.54 249.1 L1942.54 216.692 M1942.54 204.077 L1947.87 204.077 L1947.87 210.819 L1942.54 210.819 L1942.54 204.077 Z" fill="#000000" fill-rule="nonzero" fill-opacity="1" /><path clip-path="url(#clip260)" d="M1979.67 217.647 L1979.67 222.682 Q1977.41 221.525 1974.98 220.946 Q1972.55 220.367 1969.94 220.367 Q1965.98 220.367 1963.98 221.583 Q1962.02 222.798 1962.02 225.228 Q1962.02 227.08 1963.43 228.151 Q1964.85 229.192 1969.13 230.147 L1970.96 230.552 Q1976.63 231.768 1979 233.996 Q1981.4 236.195 1981.4 240.159 Q1981.4 244.673 1977.82 247.306 Q1974.26 249.939 1968.01 249.939 Q1965.4 249.939 1962.57 249.418 Q1959.76 248.926 1956.63 247.913 L1956.63 242.416 Q1959.59 243.949 1962.45 244.731 Q1965.32 245.483 1968.12 245.483 Q1971.88 245.483 1973.91 244.21 Q1975.93 242.908 1975.93 240.564 Q1975.93 238.394 1974.46 237.236 Q1973.01 236.079 1968.06 235.008 L1966.21 234.574 Q1961.26 233.533 1959.07 231.391 Q1956.87 229.221 1956.87 225.46 Q1956.87 220.888 1960.11 218.4 Q1963.35 215.911 1969.31 215.911 Q1972.26 215.911 1974.86 216.345 Q1977.47 216.779 1979.67 217.647 Z" fill="#000000" fill-rule="nonzero" fill-opacity="1" /><path clip-path="url(#clip260)" d="M1995.15 207.491 L1995.15 216.692 L2006.11 216.692 L2006.11 220.83 L1995.15 220.83 L1995.15 238.423 Q1995.15 242.387 1996.22 243.515 Q1997.32 244.644 2000.64 244.644 L2006.11 244.644 L2006.11 249.1 L2000.64 249.1 Q1994.48 249.1 1992.14 246.814 Q1989.79 244.499 1989.79 238.423 L1989.79 220.83 L1985.89 220.83 L1985.89 216.692 L1989.79 216.692 L1989.79 207.491 L1995.15 207.491 Z" fill="#000000" fill-rule="nonzero" fill-opacity="1" /><path clip-path="url(#clip260)" d="M2032.65 222.19 L2069.74 222.19 L2069.74 227.051 L2032.65 227.051 L2032.65 222.19 M2032.65 233.996 L2069.74 233.996 L2069.74 238.915 L2032.65 238.915 L2032.65 233.996 Z" fill="#000000" fill-rule="nonzero" fill-opacity="1" /><path clip-path="url(#clip260)" d="M2113.69 209.748 Q2109.18 209.748 2106.89 214.204 Q2104.64 218.631 2104.64 227.543 Q2104.64 236.426 2106.89 240.882 Q2109.18 245.309 2113.69 245.309 Q2118.24 245.309 2120.49 240.882 Q2122.78 236.426 2122.78 227.543 Q2122.78 218.631 2120.49 214.204 Q2118.24 209.748 2113.69 209.748 M2113.69 205.118 Q2120.96 205.118 2124.78 210.877 Q2128.62 216.606 2128.62 227.543 Q2128.62 238.452 2124.78 244.21 Q2120.96 249.939 2113.69 249.939 Q2106.43 249.939 2102.58 244.21 Q2098.76 238.452 2098.76 227.543 Q2098.76 216.606 2102.58 210.877 Q2106.43 205.118 2113.69 205.118 Z" fill="#000000" fill-rule="nonzero" fill-opacity="1" /><path clip-path="url(#clip260)" d="M2138.9 241.75 L2145 241.75 L2145 249.1 L2138.9 249.1 L2138.9 241.75 Z" fill="#000000" fill-rule="nonzero" fill-opacity="1" /><path clip-path="url(#clip260)" d="M2170.23 209.748 Q2165.72 209.748 2163.43 214.204 Q2161.18 218.631 2161.18 227.543 Q2161.18 236.426 2163.43 240.882 Q2165.72 245.309 2170.23 245.309 Q2174.78 245.309 2177.03 240.882 Q2179.32 236.426 2179.32 227.543 Q2179.32 218.631 2177.03 214.204 Q2174.78 209.748 2170.23 209.748 M2170.23 205.118 Q2177.5 205.118 2181.32 210.877 Q2185.16 216.606 2185.16 227.543 Q2185.16 238.452 2181.32 244.21 Q2177.5 249.939 2170.23 249.939 Q2162.97 249.939 2159.12 244.21 Q2155.3 238.452 2155.3 227.543 Q2155.3 216.606 2159.12 210.877 Q2162.97 205.118 2170.23 205.118 Z" fill="#000000" fill-rule="nonzero" fill-opacity="1" /><path clip-path="url(#clip260)" d="M2196.45 244.181 L2206 244.181 L2206 211.224 L2195.61 213.307 L2195.61 207.983 L2205.94 205.9 L2211.78 205.9 L2211.78 244.181 L2221.33 244.181 L2221.33 249.1 L2196.45 249.1 L2196.45 244.181 Z" fill="#000000" fill-rule="nonzero" fill-opacity="1" /><path clip-path="url(#clip260)" d="M2231.66 205.9 L2259.44 205.9 L2259.44 208.388 L2243.76 249.1 L2237.65 249.1 L2252.41 210.819 L2231.66 210.819 L2231.66 205.9 Z" fill="#000000" fill-rule="nonzero" fill-opacity="1" /><path clip-path="url(#clip260)" d="M2271.01 248.203 L2271.01 242.879 Q2273.21 243.92 2275.47 244.47 Q2277.73 245.02 2279.9 245.02 Q2285.68 245.02 2288.72 241.143 Q2291.79 237.236 2292.22 229.308 Q2290.54 231.797 2287.97 233.128 Q2285.39 234.459 2282.27 234.459 Q2275.79 234.459 2272 230.552 Q2268.24 226.617 2268.24 219.817 Q2268.24 213.162 2272.17 209.14 Q2276.11 205.118 2282.65 205.118 Q2290.14 205.118 2294.07 210.877 Q2298.04 216.606 2298.04 227.543 Q2298.04 237.757 2293.18 243.862 Q2288.35 249.939 2280.16 249.939 Q2277.96 249.939 2275.7 249.505 Q2273.44 249.071 2271.01 248.203 M2282.65 229.887 Q2286.58 229.887 2288.87 227.196 Q2291.18 224.505 2291.18 219.817 Q2291.18 215.159 2288.87 212.468 Q2286.58 209.748 2282.65 209.748 Q2278.71 209.748 2276.4 212.468 Q2274.11 215.159 2274.11 219.817 Q2274.11 224.505 2276.4 227.196 Q2278.71 229.887 2282.65 229.887 Z" fill="#000000" fill-rule="nonzero" fill-opacity="1" /><path clip-path="url(#clip260)" d="M2308.6 205.9 L2331.55 205.9 L2331.55 210.819 L2313.95 210.819 L2313.95 221.409 Q2315.23 220.975 2316.5 220.772 Q2317.77 220.541 2319.05 220.541 Q2326.28 220.541 2330.5 224.505 Q2334.73 228.469 2334.73 235.24 Q2334.73 242.213 2330.39 246.09 Q2326.05 249.939 2318.15 249.939 Q2315.43 249.939 2312.59 249.476 Q2309.79 249.013 2306.78 248.087 L2306.78 242.213 Q2309.38 243.631 2312.16 244.325 Q2314.94 245.02 2318.03 245.02 Q2323.04 245.02 2325.96 242.387 Q2328.88 239.754 2328.88 235.24 Q2328.88 230.726 2325.96 228.093 Q2323.04 225.46 2318.03 225.46 Q2315.69 225.46 2313.35 225.981 Q2311.03 226.501 2308.6 227.601 L2308.6 205.9 Z" fill="#000000" fill-rule="nonzero" fill-opacity="1" /><path clip-path="url(#clip260)" d="M3424.06 1273.23 L4752.76 1273.23 L4752.76 88.0695 L3424.06 88.0695  Z" fill="#ffffff" fill-rule="evenodd" fill-opacity="1"/>
<defs>
  <clipPath id="clip264">
    <rect x="3424" y="88" width="1330" height="1186"/>
  </clipPath>
</defs>
<polyline clip-path="url(#clip264)" style="stroke:#000000; stroke-linecap:round; stroke-linejoin:round; stroke-width:2; stroke-opacity:0.1; fill:none" points="3562.84,1273.23 3562.84,88.0695 "/>
<polyline clip-path="url(#clip264)" style="stroke:#000000; stroke-linecap:round; stroke-linejoin:round; stroke-width:2; stroke-opacity:0.1; fill:none" points="3694.23,1273.23 3694.23,88.0695 "/>
<polyline clip-path="url(#clip264)" style="stroke:#000000; stroke-linecap:round; stroke-linejoin:round; stroke-width:2; stroke-opacity:0.1; fill:none" points="3825.63,1273.23 3825.63,88.0695 "/>
<polyline clip-path="url(#clip264)" style="stroke:#000000; stroke-linecap:round; stroke-linejoin:round; stroke-width:2; stroke-opacity:0.1; fill:none" points="3957.02,1273.23 3957.02,88.0695 "/>
<polyline clip-path="url(#clip264)" style="stroke:#000000; stroke-linecap:round; stroke-linejoin:round; stroke-width:2; stroke-opacity:0.1; fill:none" points="4088.41,1273.23 4088.41,88.0695 "/>
<polyline clip-path="url(#clip264)" style="stroke:#000000; stroke-linecap:round; stroke-linejoin:round; stroke-width:2; stroke-opacity:0.1; fill:none" points="4219.8,1273.23 4219.8,88.0695 "/>
<polyline clip-path="url(#clip264)" style="stroke:#000000; stroke-linecap:round; stroke-linejoin:round; stroke-width:2; stroke-opacity:0.1; fill:none" points="4351.19,1273.23 4351.19,88.0695 "/>
<polyline clip-path="url(#clip264)" style="stroke:#000000; stroke-linecap:round; stroke-linejoin:round; stroke-width:2; stroke-opacity:0.1; fill:none" points="4482.59,1273.23 4482.59,88.0695 "/>
<polyline clip-path="url(#clip264)" style="stroke:#000000; stroke-linecap:round; stroke-linejoin:round; stroke-width:2; stroke-opacity:0.1; fill:none" points="4613.98,1273.23 4613.98,88.0695 "/>
<polyline clip-path="url(#clip260)" style="stroke:#000000; stroke-linecap:round; stroke-linejoin:round; stroke-width:4; stroke-opacity:1; fill:none" points="3424.06,1273.23 4752.76,1273.23 "/>
<polyline clip-path="url(#clip260)" style="stroke:#000000; stroke-linecap:round; stroke-linejoin:round; stroke-width:4; stroke-opacity:1; fill:none" points="3562.84,1273.23 3562.84,1254.33 "/>
<polyline clip-path="url(#clip260)" style="stroke:#000000; stroke-linecap:round; stroke-linejoin:round; stroke-width:4; stroke-opacity:1; fill:none" points="3694.23,1273.23 3694.23,1254.33 "/>
<polyline clip-path="url(#clip260)" style="stroke:#000000; stroke-linecap:round; stroke-linejoin:round; stroke-width:4; stroke-opacity:1; fill:none" points="3825.63,1273.23 3825.63,1254.33 "/>
<polyline clip-path="url(#clip260)" style="stroke:#000000; stroke-linecap:round; stroke-linejoin:round; stroke-width:4; stroke-opacity:1; fill:none" points="3957.02,1273.23 3957.02,1254.33 "/>
<polyline clip-path="url(#clip260)" style="stroke:#000000; stroke-linecap:round; stroke-linejoin:round; stroke-width:4; stroke-opacity:1; fill:none" points="4088.41,1273.23 4088.41,1254.33 "/>
<polyline clip-path="url(#clip260)" style="stroke:#000000; stroke-linecap:round; stroke-linejoin:round; stroke-width:4; stroke-opacity:1; fill:none" points="4219.8,1273.23 4219.8,1254.33 "/>
<polyline clip-path="url(#clip260)" style="stroke:#000000; stroke-linecap:round; stroke-linejoin:round; stroke-width:4; stroke-opacity:1; fill:none" points="4351.19,1273.23 4351.19,1254.33 "/>
<polyline clip-path="url(#clip260)" style="stroke:#000000; stroke-linecap:round; stroke-linejoin:round; stroke-width:4; stroke-opacity:1; fill:none" points="4482.59,1273.23 4482.59,1254.33 "/>
<polyline clip-path="url(#clip260)" style="stroke:#000000; stroke-linecap:round; stroke-linejoin:round; stroke-width:4; stroke-opacity:1; fill:none" points="4613.98,1273.23 4613.98,1254.33 "/>
<g clip-path="url(#clip260)">
<text style="fill:#000000; fill-opacity:1; font-family:Century Gothic,CenturyGothic,AppleGothic,sans-serif; font-size:47px; text-anchor:middle;" transform="rotate(0, 3562.84, 1353.69)" x="3562.84" y="1353.69">0</text>
</g>
<g clip-path="url(#clip260)">
<text style="fill:#000000; fill-opacity:1; font-family:Century Gothic,CenturyGothic,AppleGothic,sans-serif; font-size:47px; text-anchor:middle;" transform="rotate(0, 3694.23, 1353.69)" x="3694.23" y="1353.69">1</text>
</g>
<g clip-path="url(#clip260)">
<text style="fill:#000000; fill-opacity:1; font-family:Century Gothic,CenturyGothic,AppleGothic,sans-serif; font-size:47px; text-anchor:middle;" transform="rotate(0, 3825.63, 1353.69)" x="3825.63" y="1353.69">2</text>
</g>
<g clip-path="url(#clip260)">
<text style="fill:#000000; fill-opacity:1; font-family:Century Gothic,CenturyGothic,AppleGothic,sans-serif; font-size:47px; text-anchor:middle;" transform="rotate(0, 3957.02, 1353.69)" x="3957.02" y="1353.69">3</text>
</g>
<g clip-path="url(#clip260)">
<text style="fill:#000000; fill-opacity:1; font-family:Century Gothic,CenturyGothic,AppleGothic,sans-serif; font-size:47px; text-anchor:middle;" transform="rotate(0, 4088.41, 1353.69)" x="4088.41" y="1353.69">4</text>
</g>
<g clip-path="url(#clip260)">
<text style="fill:#000000; fill-opacity:1; font-family:Century Gothic,CenturyGothic,AppleGothic,sans-serif; font-size:47px; text-anchor:middle;" transform="rotate(0, 4219.8, 1353.69)" x="4219.8" y="1353.69">5</text>
</g>
<g clip-path="url(#clip260)">
<text style="fill:#000000; fill-opacity:1; font-family:Century Gothic,CenturyGothic,AppleGothic,sans-serif; font-size:47px; text-anchor:middle;" transform="rotate(0, 4351.19, 1353.69)" x="4351.19" y="1353.69">6</text>
</g>
<g clip-path="url(#clip260)">
<text style="fill:#000000; fill-opacity:1; font-family:Century Gothic,CenturyGothic,AppleGothic,sans-serif; font-size:47px; text-anchor:middle;" transform="rotate(0, 4482.59, 1353.69)" x="4482.59" y="1353.69">7</text>
</g>
<g clip-path="url(#clip260)">
<text style="fill:#000000; fill-opacity:1; font-family:Century Gothic,CenturyGothic,AppleGothic,sans-serif; font-size:47px; text-anchor:middle;" transform="rotate(0, 4613.98, 1353.69)" x="4613.98" y="1353.69">8</text>
</g>
<g clip-path="url(#clip260)">
<text style="fill:#000000; fill-opacity:1; font-family:Century Gothic,CenturyGothic,AppleGothic,sans-serif; font-size:65px; text-anchor:middle;" transform="rotate(0, 4088.41, 1452.31)" x="4088.41" y="1452.31">中心推定の正解数</text>
</g>
<polyline clip-path="url(#clip264)" style="stroke:#000000; stroke-linecap:round; stroke-linejoin:round; stroke-width:2; stroke-opacity:0.1; fill:none" points="3424.06,1273.23 4752.76,1273.23 "/>
<polyline clip-path="url(#clip264)" style="stroke:#000000; stroke-linecap:round; stroke-linejoin:round; stroke-width:2; stroke-opacity:0.1; fill:none" points="3424.06,994.366 4752.76,994.366 "/>
<polyline clip-path="url(#clip264)" style="stroke:#000000; stroke-linecap:round; stroke-linejoin:round; stroke-width:2; stroke-opacity:0.1; fill:none" points="3424.06,715.505 4752.76,715.505 "/>
<polyline clip-path="url(#clip264)" style="stroke:#000000; stroke-linecap:round; stroke-linejoin:round; stroke-width:2; stroke-opacity:0.1; fill:none" points="3424.06,436.645 4752.76,436.645 "/>
<polyline clip-path="url(#clip264)" style="stroke:#000000; stroke-linecap:round; stroke-linejoin:round; stroke-width:2; stroke-opacity:0.1; fill:none" points="3424.06,157.785 4752.76,157.785 "/>
<polyline clip-path="url(#clip260)" style="stroke:#000000; stroke-linecap:round; stroke-linejoin:round; stroke-width:4; stroke-opacity:1; fill:none" points="3424.06,1273.23 3424.06,88.0695 "/>
<polyline clip-path="url(#clip260)" style="stroke:#000000; stroke-linecap:round; stroke-linejoin:round; stroke-width:4; stroke-opacity:1; fill:none" points="3424.06,1273.23 3442.96,1273.23 "/>
<polyline clip-path="url(#clip260)" style="stroke:#000000; stroke-linecap:round; stroke-linejoin:round; stroke-width:4; stroke-opacity:1; fill:none" points="3424.06,994.366 3442.96,994.366 "/>
<polyline clip-path="url(#clip260)" style="stroke:#000000; stroke-linecap:round; stroke-linejoin:round; stroke-width:4; stroke-opacity:1; fill:none" points="3424.06,715.505 3442.96,715.505 "/>
<polyline clip-path="url(#clip260)" style="stroke:#000000; stroke-linecap:round; stroke-linejoin:round; stroke-width:4; stroke-opacity:1; fill:none" points="3424.06,436.645 3442.96,436.645 "/>
<polyline clip-path="url(#clip260)" style="stroke:#000000; stroke-linecap:round; stroke-linejoin:round; stroke-width:4; stroke-opacity:1; fill:none" points="3424.06,157.785 3442.96,157.785 "/>
<g clip-path="url(#clip260)">
<text style="fill:#000000; fill-opacity:1; font-family:Century Gothic,CenturyGothic,AppleGothic,sans-serif; font-size:47px; text-anchor:middle;" transform="rotate(0, 3339.13, 1290.73)" x="3339.13" y="1290.73">0</text>
</g>
<g clip-path="url(#clip260)">
<text style="fill:#000000; fill-opacity:1; font-family:Century Gothic,CenturyGothic,AppleGothic,sans-serif; font-size:47px; text-anchor:middle;" transform="rotate(0, 3313.25, 1011.87)" x="3313.25" y="1011.87">200</text>
</g>
<g clip-path="url(#clip260)">
<text style="fill:#000000; fill-opacity:1; font-family:Century Gothic,CenturyGothic,AppleGothic,sans-serif; font-size:47px; text-anchor:middle;" transform="rotate(0, 3313.25, 733.005)" x="3313.25" y="733.005">400</text>
</g>
<g clip-path="url(#clip260)">
<text style="fill:#000000; fill-opacity:1; font-family:Century Gothic,CenturyGothic,AppleGothic,sans-serif; font-size:47px; text-anchor:middle;" transform="rotate(0, 3313.25, 454.145)" x="3313.25" y="454.145">600</text>
</g>
<g clip-path="url(#clip260)">
<text style="fill:#000000; fill-opacity:1; font-family:Century Gothic,CenturyGothic,AppleGothic,sans-serif; font-size:47px; text-anchor:middle;" transform="rotate(0, 3313.25, 175.285)" x="3313.25" y="175.285">800</text>
</g>
<g clip-path="url(#clip260)">
<text style="fill:#000000; fill-opacity:1; font-family:Century Gothic,CenturyGothic,AppleGothic,sans-serif; font-size:65px; text-anchor:middle;" transform="rotate(-90, 3192.49, 680.648)" x="3192.49" y="680.648">度数</text>
</g>
<g clip-path="url(#clip260)">
<text style="fill:#000000; fill-opacity:1; font-family:Century Gothic,CenturyGothic,AppleGothic,sans-serif; font-size:81px; text-anchor:middle;" transform="rotate(0, 4088.41, 72)" x="4088.41" y="72">Setting : C, Method : LM</text>
</g>
<path clip-path="url(#clip264)" d="M3497.14 1273.23 L3497.14 1273.23 L3628.54 1273.23 L3628.54 1273.23 L3497.14 1273.23 L3497.14 1273.23  Z" fill="#009af9" fill-rule="evenodd" fill-opacity="1"/>
<polyline clip-path="url(#clip264)" style="stroke:#000000; stroke-linecap:round; stroke-linejoin:round; stroke-width:4; stroke-opacity:1; fill:none" points="3497.14,1273.23 3497.14,1273.23 3628.54,1273.23 3497.14,1273.23 "/>
<path clip-path="url(#clip264)" d="M3628.54 1273.23 L3628.54 1273.23 L3759.93 1273.23 L3759.93 1273.23 L3628.54 1273.23 L3628.54 1273.23  Z" fill="#009af9" fill-rule="evenodd" fill-opacity="1"/>
<polyline clip-path="url(#clip264)" style="stroke:#000000; stroke-linecap:round; stroke-linejoin:round; stroke-width:4; stroke-opacity:1; fill:none" points="3628.54,1273.23 3628.54,1273.23 3759.93,1273.23 3628.54,1273.23 "/>
<path clip-path="url(#clip264)" d="M3759.93 1273.23 L3759.93 1273.23 L3891.32 1273.23 L3891.32 1273.23 L3759.93 1273.23 L3759.93 1273.23  Z" fill="#009af9" fill-rule="evenodd" fill-opacity="1"/>
<polyline clip-path="url(#clip264)" style="stroke:#000000; stroke-linecap:round; stroke-linejoin:round; stroke-width:4; stroke-opacity:1; fill:none" points="3759.93,1273.23 3759.93,1273.23 3891.32,1273.23 3759.93,1273.23 "/>
<path clip-path="url(#clip264)" d="M3891.32 1269.04 L3891.32 1273.23 L4022.71 1273.23 L4022.71 1269.04 L3891.32 1269.04 L3891.32 1269.04  Z" fill="#009af9" fill-rule="evenodd" fill-opacity="1"/>
<polyline clip-path="url(#clip264)" style="stroke:#000000; stroke-linecap:round; stroke-linejoin:round; stroke-width:4; stroke-opacity:1; fill:none" points="3891.32,1269.04 3891.32,1273.23 4022.71,1273.23 4022.71,1269.04 3891.32,1269.04 "/>
<path clip-path="url(#clip264)" d="M4022.71 1234.19 L4022.71 1273.23 L4154.11 1273.23 L4154.11 1234.19 L4022.71 1234.19 L4022.71 1234.19  Z" fill="#009af9" fill-rule="evenodd" fill-opacity="1"/>
<polyline clip-path="url(#clip264)" style="stroke:#000000; stroke-linecap:round; stroke-linejoin:round; stroke-width:4; stroke-opacity:1; fill:none" points="4022.71,1234.19 4022.71,1273.23 4154.11,1273.23 4154.11,1234.19 4022.71,1234.19 "/>
<path clip-path="url(#clip264)" d="M4154.11 1171.44 L4154.11 1273.23 L4285.5 1273.23 L4285.5 1171.44 L4154.11 1171.44 L4154.11 1171.44  Z" fill="#009af9" fill-rule="evenodd" fill-opacity="1"/>
<polyline clip-path="url(#clip264)" style="stroke:#000000; stroke-linecap:round; stroke-linejoin:round; stroke-width:4; stroke-opacity:1; fill:none" points="4154.11,1171.44 4154.11,1273.23 4285.5,1273.23 4285.5,1171.44 4154.11,1171.44 "/>
<path clip-path="url(#clip264)" d="M4285.5 953.931 L4285.5 1273.23 L4416.89 1273.23 L4416.89 953.931 L4285.5 953.931 L4285.5 953.931  Z" fill="#009af9" fill-rule="evenodd" fill-opacity="1"/>
<polyline clip-path="url(#clip264)" style="stroke:#000000; stroke-linecap:round; stroke-linejoin:round; stroke-width:4; stroke-opacity:1; fill:none" points="4285.5,953.931 4285.5,1273.23 4416.89,1273.23 4416.89,953.931 4285.5,953.931 "/>
<path clip-path="url(#clip264)" d="M4416.89 754.546 L4416.89 1273.23 L4548.28 1273.23 L4548.28 754.546 L4416.89 754.546 L4416.89 754.546  Z" fill="#009af9" fill-rule="evenodd" fill-opacity="1"/>
<polyline clip-path="url(#clip264)" style="stroke:#000000; stroke-linecap:round; stroke-linejoin:round; stroke-width:4; stroke-opacity:1; fill:none" points="4416.89,754.546 4416.89,1273.23 4548.28,1273.23 4548.28,754.546 4416.89,754.546 "/>
<path clip-path="url(#clip264)" d="M4548.28 861.907 L4548.28 1273.23 L4679.68 1273.23 L4679.68 861.907 L4548.28 861.907 L4548.28 861.907  Z" fill="#009af9" fill-rule="evenodd" fill-opacity="1"/>
<polyline clip-path="url(#clip264)" style="stroke:#000000; stroke-linecap:round; stroke-linejoin:round; stroke-width:4; stroke-opacity:1; fill:none" points="4548.28,861.907 4548.28,1273.23 4679.68,1273.23 4679.68,861.907 4548.28,861.907 "/>
<circle clip-path="url(#clip264)" style="fill:#009af9; stroke:none; fill-opacity:0" cx="3562.84" cy="1273.23" r="2"/>
<circle clip-path="url(#clip264)" style="fill:#009af9; stroke:none; fill-opacity:0" cx="3694.23" cy="1273.23" r="2"/>
<circle clip-path="url(#clip264)" style="fill:#009af9; stroke:none; fill-opacity:0" cx="3825.63" cy="1273.23" r="2"/>
<circle clip-path="url(#clip264)" style="fill:#009af9; stroke:none; fill-opacity:0" cx="3957.02" cy="1269.04" r="2"/>
<circle clip-path="url(#clip264)" style="fill:#009af9; stroke:none; fill-opacity:0" cx="4088.41" cy="1234.19" r="2"/>
<circle clip-path="url(#clip264)" style="fill:#009af9; stroke:none; fill-opacity:0" cx="4219.8" cy="1171.44" r="2"/>
<circle clip-path="url(#clip264)" style="fill:#009af9; stroke:none; fill-opacity:0" cx="4351.19" cy="953.931" r="2"/>
<circle clip-path="url(#clip264)" style="fill:#009af9; stroke:none; fill-opacity:0" cx="4482.59" cy="754.546" r="2"/>
<circle clip-path="url(#clip264)" style="fill:#009af9; stroke:none; fill-opacity:0" cx="4613.98" cy="861.907" r="2"/>
<path clip-path="url(#clip260)" d="M3497.14 136.185 L3505.85 136.185 L3516.88 165.583 L3527.96 136.185 L3536.67 136.185 L3536.67 179.385 L3530.97 179.385 L3530.97 141.451 L3519.83 171.08 L3513.96 171.08 L3502.82 141.451 L3502.82 179.385 L3497.14 179.385 L3497.14 136.185 Z" fill="#000000" fill-rule="nonzero" fill-opacity="1" /><path clip-path="url(#clip260)" d="M3575.76 161.85 L3575.76 164.454 L3551.28 164.454 Q3551.63 169.952 3554.58 172.845 Q3557.56 175.71 3562.86 175.71 Q3565.92 175.71 3568.79 174.958 Q3571.68 174.205 3574.52 172.701 L3574.52 177.735 Q3571.65 178.951 3568.64 179.587 Q3565.63 180.224 3562.54 180.224 Q3554.78 180.224 3550.24 175.71 Q3545.73 171.196 3545.73 163.499 Q3545.73 155.542 3550.01 150.884 Q3554.32 146.196 3561.61 146.196 Q3568.15 146.196 3571.94 150.421 Q3575.76 154.616 3575.76 161.85 M3570.44 160.288 Q3570.38 155.918 3567.98 153.314 Q3565.6 150.71 3561.67 150.71 Q3557.21 150.71 3554.52 153.227 Q3551.86 155.745 3551.46 160.316 L3570.44 160.288 Z" fill="#000000" fill-rule="nonzero" fill-opacity="1" /><path clip-path="url(#clip260)" d="M3599.23 163.094 Q3592.77 163.094 3590.29 164.57 Q3587.8 166.046 3587.8 169.605 Q3587.8 172.44 3589.65 174.118 Q3591.53 175.768 3594.74 175.768 Q3599.17 175.768 3601.83 172.643 Q3604.52 169.489 3604.52 164.281 L3604.52 163.094 L3599.23 163.094 M3609.85 160.895 L3609.85 179.385 L3604.52 179.385 L3604.52 174.466 Q3602.7 177.417 3599.98 178.835 Q3597.26 180.224 3593.32 180.224 Q3588.35 180.224 3585.4 177.446 Q3582.47 174.639 3582.47 169.952 Q3582.47 164.483 3586.12 161.705 Q3589.79 158.928 3597.06 158.928 L3604.52 158.928 L3604.52 158.407 Q3604.52 154.732 3602.09 152.735 Q3599.69 150.71 3595.32 150.71 Q3592.54 150.71 3589.91 151.376 Q3587.28 152.041 3584.85 153.372 L3584.85 148.453 Q3587.77 147.325 3590.52 146.775 Q3593.27 146.196 3595.87 146.196 Q3602.9 146.196 3606.37 149.842 Q3609.85 153.488 3609.85 160.895 Z" fill="#000000" fill-rule="nonzero" fill-opacity="1" /><path clip-path="url(#clip260)" d="M3647.75 159.825 L3647.75 179.385 L3642.43 179.385 L3642.43 159.998 Q3642.43 155.397 3640.63 153.112 Q3638.84 150.826 3635.25 150.826 Q3630.94 150.826 3628.45 153.575 Q3625.96 156.323 3625.96 161.069 L3625.96 179.385 L3620.61 179.385 L3620.61 146.977 L3625.96 146.977 L3625.96 152.012 Q3627.87 149.09 3630.45 147.643 Q3633.05 146.196 3636.44 146.196 Q3642.02 146.196 3644.89 149.668 Q3647.75 153.112 3647.75 159.825 Z" fill="#000000" fill-rule="nonzero" fill-opacity="1" /><path clip-path="url(#clip260)" d="M3677.9 152.475 L3715 152.475 L3715 157.336 L3677.9 157.336 L3677.9 152.475 M3677.9 164.281 L3715 164.281 L3715 169.2 L3677.9 169.2 L3677.9 164.281 Z" fill="#000000" fill-rule="nonzero" fill-opacity="1" /><path clip-path="url(#clip260)" d="M3759.67 155.455 Q3755.74 155.455 3753.42 158.146 Q3751.14 160.837 3751.14 165.525 Q3751.14 170.183 3753.42 172.903 Q3755.74 175.594 3759.67 175.594 Q3763.61 175.594 3765.89 172.903 Q3768.21 170.183 3768.21 165.525 Q3768.21 160.837 3765.89 158.146 Q3763.61 155.455 3759.67 155.455 M3771.27 137.139 L3771.27 142.464 Q3769.08 141.422 3766.82 140.872 Q3764.59 140.322 3762.39 140.322 Q3756.6 140.322 3753.54 144.229 Q3750.5 148.135 3750.07 156.034 Q3751.77 153.517 3754.35 152.186 Q3756.92 150.826 3760.02 150.826 Q3766.53 150.826 3770.29 154.79 Q3774.08 158.725 3774.08 165.525 Q3774.08 172.18 3770.15 176.202 Q3766.21 180.224 3759.67 180.224 Q3752.18 180.224 3748.21 174.495 Q3744.25 168.737 3744.25 157.828 Q3744.25 147.585 3749.11 141.509 Q3753.97 135.403 3762.16 135.403 Q3764.36 135.403 3766.59 135.837 Q3768.84 136.271 3771.27 137.139 Z" fill="#000000" fill-rule="nonzero" fill-opacity="1" /><path clip-path="url(#clip260)" d="M3784.15 172.035 L3790.26 172.035 L3790.26 179.385 L3784.15 179.385 L3784.15 172.035 Z" fill="#000000" fill-rule="nonzero" fill-opacity="1" /><path clip-path="url(#clip260)" d="M3815.49 158.87 Q3811.32 158.87 3808.92 161.098 Q3806.55 163.326 3806.55 167.232 Q3806.55 171.138 3808.92 173.366 Q3811.32 175.594 3815.49 175.594 Q3819.65 175.594 3822.06 173.366 Q3824.46 171.109 3824.46 167.232 Q3824.46 163.326 3822.06 161.098 Q3819.68 158.87 3815.49 158.87 M3809.64 156.381 Q3805.88 155.455 3803.77 152.88 Q3801.69 150.305 3801.69 146.601 Q3801.69 141.422 3805.36 138.413 Q3809.06 135.403 3815.49 135.403 Q3821.94 135.403 3825.61 138.413 Q3829.29 141.422 3829.29 146.601 Q3829.29 150.305 3827.18 152.88 Q3825.09 155.455 3821.36 156.381 Q3825.59 157.365 3827.93 160.23 Q3830.3 163.094 3830.3 167.232 Q3830.3 173.511 3826.45 176.867 Q3822.63 180.224 3815.49 180.224 Q3808.34 180.224 3804.49 176.867 Q3800.67 173.511 3800.67 167.232 Q3800.67 163.094 3803.05 160.23 Q3805.42 157.365 3809.64 156.381 M3807.5 147.151 Q3807.5 150.507 3809.58 152.388 Q3811.7 154.269 3815.49 154.269 Q3819.25 154.269 3821.36 152.388 Q3823.5 150.507 3823.5 147.151 Q3823.5 143.795 3821.36 141.914 Q3819.25 140.033 3815.49 140.033 Q3811.7 140.033 3809.58 141.914 Q3807.5 143.795 3807.5 147.151 Z" fill="#000000" fill-rule="nonzero" fill-opacity="1" /><path clip-path="url(#clip260)" d="M3845.72 174.466 L3866.12 174.466 L3866.12 179.385 L3838.69 179.385 L3838.69 174.466 Q3842.02 171.022 3847.75 165.235 Q3853.51 159.419 3854.98 157.741 Q3857.79 154.587 3858.89 152.417 Q3860.02 150.218 3860.02 148.106 Q3860.02 144.663 3857.59 142.492 Q3855.19 140.322 3851.31 140.322 Q3848.56 140.322 3845.49 141.277 Q3842.45 142.232 3838.98 144.171 L3838.98 138.268 Q3842.51 136.85 3845.58 136.127 Q3848.65 135.403 3851.19 135.403 Q3857.91 135.403 3861.9 138.76 Q3865.89 142.116 3865.89 147.73 Q3865.89 150.392 3864.88 152.793 Q3863.9 155.166 3861.26 158.407 Q3860.54 159.246 3856.66 163.268 Q3852.78 167.261 3845.72 174.466 Z" fill="#000000" fill-rule="nonzero" fill-opacity="1" /><path clip-path="url(#clip260)" d="M3894.45 141.277 L3879.69 164.338 L3894.45 164.338 L3894.45 141.277 M3892.92 136.185 L3900.27 136.185 L3900.27 164.338 L3906.43 164.338 L3906.43 169.2 L3900.27 169.2 L3900.27 179.385 L3894.45 179.385 L3894.45 169.2 L3874.95 169.2 L3874.95 163.557 L3892.92 136.185 Z" fill="#000000" fill-rule="nonzero" fill-opacity="1" /><path clip-path="url(#clip260)" d="M3502.99 210.703 L3502.99 244.297 L3510.05 244.297 Q3518.99 244.297 3523.13 240.246 Q3527.29 236.195 3527.29 227.456 Q3527.29 218.776 3523.13 214.754 Q3518.99 210.703 3510.05 210.703 L3502.99 210.703 M3497.14 205.9 L3509.15 205.9 Q3521.71 205.9 3527.58 211.137 Q3533.46 216.345 3533.46 227.456 Q3533.46 238.625 3527.55 243.862 Q3521.65 249.1 3509.15 249.1 L3497.14 249.1 L3497.14 205.9 Z" fill="#000000" fill-rule="nonzero" fill-opacity="1" /><path clip-path="url(#clip260)" d="M3542.54 216.692 L3547.87 216.692 L3547.87 249.1 L3542.54 249.1 L3542.54 216.692 M3542.54 204.077 L3547.87 204.077 L3547.87 210.819 L3542.54 210.819 L3542.54 204.077 Z" fill="#000000" fill-rule="nonzero" fill-opacity="1" /><path clip-path="url(#clip260)" d="M3579.67 217.647 L3579.67 222.682 Q3577.41 221.525 3574.98 220.946 Q3572.55 220.367 3569.94 220.367 Q3565.98 220.367 3563.98 221.583 Q3562.02 222.798 3562.02 225.228 Q3562.02 227.08 3563.43 228.151 Q3564.85 229.192 3569.13 230.147 L3570.96 230.552 Q3576.63 231.768 3579 233.996 Q3581.4 236.195 3581.4 240.159 Q3581.4 244.673 3577.82 247.306 Q3574.26 249.939 3568.01 249.939 Q3565.4 249.939 3562.57 249.418 Q3559.76 248.926 3556.63 247.913 L3556.63 242.416 Q3559.59 243.949 3562.45 244.731 Q3565.32 245.483 3568.12 245.483 Q3571.88 245.483 3573.91 244.21 Q3575.93 242.908 3575.93 240.564 Q3575.93 238.394 3574.46 237.236 Q3573.01 236.079 3568.06 235.008 L3566.21 234.574 Q3561.26 233.533 3559.07 231.391 Q3556.87 229.221 3556.87 225.46 Q3556.87 220.888 3560.11 218.4 Q3563.35 215.911 3569.31 215.911 Q3572.26 215.911 3574.86 216.345 Q3577.47 216.779 3579.67 217.647 Z" fill="#000000" fill-rule="nonzero" fill-opacity="1" /><path clip-path="url(#clip260)" d="M3595.15 207.491 L3595.15 216.692 L3606.11 216.692 L3606.11 220.83 L3595.15 220.83 L3595.15 238.423 Q3595.15 242.387 3596.22 243.515 Q3597.32 244.644 3600.64 244.644 L3606.11 244.644 L3606.11 249.1 L3600.64 249.1 Q3594.48 249.1 3592.14 246.814 Q3589.79 244.499 3589.79 238.423 L3589.79 220.83 L3585.89 220.83 L3585.89 216.692 L3589.79 216.692 L3589.79 207.491 L3595.15 207.491 Z" fill="#000000" fill-rule="nonzero" fill-opacity="1" /><path clip-path="url(#clip260)" d="M3632.65 222.19 L3669.74 222.19 L3669.74 227.051 L3632.65 227.051 L3632.65 222.19 M3632.65 233.996 L3669.74 233.996 L3669.74 238.915 L3632.65 238.915 L3632.65 233.996 Z" fill="#000000" fill-rule="nonzero" fill-opacity="1" /><path clip-path="url(#clip260)" d="M3713.69 209.748 Q3709.18 209.748 3706.89 214.204 Q3704.64 218.631 3704.64 227.543 Q3704.64 236.426 3706.89 240.882 Q3709.18 245.309 3713.69 245.309 Q3718.24 245.309 3720.49 240.882 Q3722.78 236.426 3722.78 227.543 Q3722.78 218.631 3720.49 214.204 Q3718.24 209.748 3713.69 209.748 M3713.69 205.118 Q3720.96 205.118 3724.78 210.877 Q3728.62 216.606 3728.62 227.543 Q3728.62 238.452 3724.78 244.21 Q3720.96 249.939 3713.69 249.939 Q3706.43 249.939 3702.58 244.21 Q3698.76 238.452 3698.76 227.543 Q3698.76 216.606 3702.58 210.877 Q3706.43 205.118 3713.69 205.118 Z" fill="#000000" fill-rule="nonzero" fill-opacity="1" /><path clip-path="url(#clip260)" d="M3738.9 241.75 L3745 241.75 L3745 249.1 L3738.9 249.1 L3738.9 241.75 Z" fill="#000000" fill-rule="nonzero" fill-opacity="1" /><path clip-path="url(#clip260)" d="M3770.23 209.748 Q3765.72 209.748 3763.43 214.204 Q3761.18 218.631 3761.18 227.543 Q3761.18 236.426 3763.43 240.882 Q3765.72 245.309 3770.23 245.309 Q3774.78 245.309 3777.03 240.882 Q3779.32 236.426 3779.32 227.543 Q3779.32 218.631 3777.03 214.204 Q3774.78 209.748 3770.23 209.748 M3770.23 205.118 Q3777.5 205.118 3781.32 210.877 Q3785.16 216.606 3785.16 227.543 Q3785.16 238.452 3781.32 244.21 Q3777.5 249.939 3770.23 249.939 Q3762.97 249.939 3759.12 244.21 Q3755.3 238.452 3755.3 227.543 Q3755.3 216.606 3759.12 210.877 Q3762.97 205.118 3770.23 205.118 Z" fill="#000000" fill-rule="nonzero" fill-opacity="1" /><path clip-path="url(#clip260)" d="M3800.47 244.181 L3820.87 244.181 L3820.87 249.1 L3793.44 249.1 L3793.44 244.181 Q3796.77 240.738 3802.5 234.951 Q3808.25 229.135 3809.73 227.456 Q3812.54 224.302 3813.64 222.132 Q3814.76 219.933 3814.76 217.821 Q3814.76 214.378 3812.33 212.208 Q3809.93 210.037 3806.05 210.037 Q3803.31 210.037 3800.24 210.992 Q3797.2 211.947 3793.73 213.886 L3793.73 207.983 Q3797.26 206.565 3800.33 205.842 Q3803.39 205.118 3805.94 205.118 Q3812.65 205.118 3816.64 208.475 Q3820.64 211.831 3820.64 217.445 Q3820.64 220.107 3819.63 222.508 Q3818.64 224.881 3816.01 228.122 Q3815.28 228.961 3811.41 232.983 Q3807.53 236.976 3800.47 244.181 Z" fill="#000000" fill-rule="nonzero" fill-opacity="1" /><path clip-path="url(#clip260)" d="M3833.2 205.9 L3856.14 205.9 L3856.14 210.819 L3838.55 210.819 L3838.55 221.409 Q3839.82 220.975 3841.09 220.772 Q3842.37 220.541 3843.64 220.541 Q3850.87 220.541 3855.1 224.505 Q3859.32 228.469 3859.32 235.24 Q3859.32 242.213 3854.98 246.09 Q3850.64 249.939 3842.74 249.939 Q3840.02 249.939 3837.19 249.476 Q3834.38 249.013 3831.37 248.087 L3831.37 242.213 Q3833.98 243.631 3836.75 244.325 Q3839.53 245.02 3842.63 245.02 Q3847.63 245.02 3850.56 242.387 Q3853.48 239.754 3853.48 235.24 Q3853.48 230.726 3850.56 228.093 Q3847.63 225.46 3842.63 225.46 Q3840.28 225.46 3837.94 225.981 Q3835.63 226.501 3833.2 227.601 L3833.2 205.9 Z" fill="#000000" fill-rule="nonzero" fill-opacity="1" /><path clip-path="url(#clip260)" d="M3883.34 228.585 Q3879.17 228.585 3876.77 230.813 Q3874.4 233.041 3874.4 236.947 Q3874.4 240.853 3876.77 243.081 Q3879.17 245.309 3883.34 245.309 Q3887.51 245.309 3889.91 243.081 Q3892.31 240.824 3892.31 236.947 Q3892.31 233.041 3889.91 230.813 Q3887.54 228.585 3883.34 228.585 M3877.5 226.096 Q3873.73 225.17 3871.62 222.595 Q3869.54 220.02 3869.54 216.316 Q3869.54 211.137 3873.21 208.128 Q3876.92 205.118 3883.34 205.118 Q3889.79 205.118 3893.47 208.128 Q3897.14 211.137 3897.14 216.316 Q3897.14 220.02 3895.03 222.595 Q3892.95 225.17 3889.21 226.096 Q3893.44 227.08 3895.78 229.945 Q3898.15 232.809 3898.15 236.947 Q3898.15 243.226 3894.31 246.582 Q3890.49 249.939 3883.34 249.939 Q3876.19 249.939 3872.34 246.582 Q3868.53 243.226 3868.53 236.947 Q3868.53 232.809 3870.9 229.945 Q3873.27 227.08 3877.5 226.096 M3875.35 216.866 Q3875.35 220.223 3877.44 222.103 Q3879.55 223.984 3883.34 223.984 Q3887.1 223.984 3889.21 222.103 Q3891.36 220.223 3891.36 216.866 Q3891.36 213.51 3889.21 211.629 Q3887.1 209.748 3883.34 209.748 Q3879.55 209.748 3877.44 211.629 Q3875.35 213.51 3875.35 216.866 Z" fill="#000000" fill-rule="nonzero" fill-opacity="1" /></svg>
