<?xml version="1.0" encoding="utf-8"?>
<svg xmlns="http://www.w3.org/2000/svg" xmlns:xlink="http://www.w3.org/1999/xlink" width="1200" height="350" viewBox="0 0 4800 1400">
<defs>
  <clipPath id="clip610">
    <rect x="0" y="0" width="4800" height="1400"/>
  </clipPath>
</defs>
<path clip-path="url(#clip610)" d="M0 1400 L4800 1400 L4800 0 L0 0  Z" fill="#ffffff" fill-rule="evenodd" fill-opacity="1"/>
<defs>
  <clipPath id="clip611">
    <rect x="960" y="0" width="3361" height="1400"/>
  </clipPath>
</defs>
<path clip-path="url(#clip610)" d="M224.064 1273.23 L1552.76 1273.23 L1552.76 88.0695 L224.064 88.0695  Z" fill="#ffffff" fill-rule="evenodd" fill-opacity="1"/>
<defs>
  <clipPath id="clip612">
    <rect x="224" y="88" width="1330" height="1186"/>
  </clipPath>
</defs>
<polyline clip-path="url(#clip612)" style="stroke:#000000; stroke-linecap:round; stroke-linejoin:round; stroke-width:2; stroke-opacity:0.1; fill:none" points="371.052,1273.23 371.052,88.0695 "/>
<polyline clip-path="url(#clip612)" style="stroke:#000000; stroke-linecap:round; stroke-linejoin:round; stroke-width:2; stroke-opacity:0.1; fill:none" points="518.869,1273.23 518.869,88.0695 "/>
<polyline clip-path="url(#clip612)" style="stroke:#000000; stroke-linecap:round; stroke-linejoin:round; stroke-width:2; stroke-opacity:0.1; fill:none" points="666.685,1273.23 666.685,88.0695 "/>
<polyline clip-path="url(#clip612)" style="stroke:#000000; stroke-linecap:round; stroke-linejoin:round; stroke-width:2; stroke-opacity:0.1; fill:none" points="814.502,1273.23 814.502,88.0695 "/>
<polyline clip-path="url(#clip612)" style="stroke:#000000; stroke-linecap:round; stroke-linejoin:round; stroke-width:2; stroke-opacity:0.1; fill:none" points="962.318,1273.23 962.318,88.0695 "/>
<polyline clip-path="url(#clip612)" style="stroke:#000000; stroke-linecap:round; stroke-linejoin:round; stroke-width:2; stroke-opacity:0.1; fill:none" points="1110.13,1273.23 1110.13,88.0695 "/>
<polyline clip-path="url(#clip612)" style="stroke:#000000; stroke-linecap:round; stroke-linejoin:round; stroke-width:2; stroke-opacity:0.1; fill:none" points="1257.95,1273.23 1257.95,88.0695 "/>
<polyline clip-path="url(#clip612)" style="stroke:#000000; stroke-linecap:round; stroke-linejoin:round; stroke-width:2; stroke-opacity:0.1; fill:none" points="1405.77,1273.23 1405.77,88.0695 "/>
<polyline clip-path="url(#clip610)" style="stroke:#000000; stroke-linecap:round; stroke-linejoin:round; stroke-width:4; stroke-opacity:1; fill:none" points="224.064,1273.23 1552.76,1273.23 "/>
<polyline clip-path="url(#clip610)" style="stroke:#000000; stroke-linecap:round; stroke-linejoin:round; stroke-width:4; stroke-opacity:1; fill:none" points="371.052,1273.23 371.052,1254.33 "/>
<polyline clip-path="url(#clip610)" style="stroke:#000000; stroke-linecap:round; stroke-linejoin:round; stroke-width:4; stroke-opacity:1; fill:none" points="518.869,1273.23 518.869,1254.33 "/>
<polyline clip-path="url(#clip610)" style="stroke:#000000; stroke-linecap:round; stroke-linejoin:round; stroke-width:4; stroke-opacity:1; fill:none" points="666.685,1273.23 666.685,1254.33 "/>
<polyline clip-path="url(#clip610)" style="stroke:#000000; stroke-linecap:round; stroke-linejoin:round; stroke-width:4; stroke-opacity:1; fill:none" points="814.502,1273.23 814.502,1254.33 "/>
<polyline clip-path="url(#clip610)" style="stroke:#000000; stroke-linecap:round; stroke-linejoin:round; stroke-width:4; stroke-opacity:1; fill:none" points="962.318,1273.23 962.318,1254.33 "/>
<polyline clip-path="url(#clip610)" style="stroke:#000000; stroke-linecap:round; stroke-linejoin:round; stroke-width:4; stroke-opacity:1; fill:none" points="1110.13,1273.23 1110.13,1254.33 "/>
<polyline clip-path="url(#clip610)" style="stroke:#000000; stroke-linecap:round; stroke-linejoin:round; stroke-width:4; stroke-opacity:1; fill:none" points="1257.95,1273.23 1257.95,1254.33 "/>
<polyline clip-path="url(#clip610)" style="stroke:#000000; stroke-linecap:round; stroke-linejoin:round; stroke-width:4; stroke-opacity:1; fill:none" points="1405.77,1273.23 1405.77,1254.33 "/>
<g clip-path="url(#clip610)">
<text style="fill:#000000; fill-opacity:1; font-family:Century Gothic,CenturyGothic,AppleGothic,sans-serif; font-size:47px; text-anchor:middle;" transform="rotate(0, 371.052, 1353.69)" x="371.052" y="1353.69">0</text>
</g>
<g clip-path="url(#clip610)">
<text style="fill:#000000; fill-opacity:1; font-family:Century Gothic,CenturyGothic,AppleGothic,sans-serif; font-size:47px; text-anchor:middle;" transform="rotate(0, 518.869, 1353.69)" x="518.869" y="1353.69">1</text>
</g>
<g clip-path="url(#clip610)">
<text style="fill:#000000; fill-opacity:1; font-family:Century Gothic,CenturyGothic,AppleGothic,sans-serif; font-size:47px; text-anchor:middle;" transform="rotate(0, 666.685, 1353.69)" x="666.685" y="1353.69">2</text>
</g>
<g clip-path="url(#clip610)">
<text style="fill:#000000; fill-opacity:1; font-family:Century Gothic,CenturyGothic,AppleGothic,sans-serif; font-size:47px; text-anchor:middle;" transform="rotate(0, 814.502, 1353.69)" x="814.502" y="1353.69">3</text>
</g>
<g clip-path="url(#clip610)">
<text style="fill:#000000; fill-opacity:1; font-family:Century Gothic,CenturyGothic,AppleGothic,sans-serif; font-size:47px; text-anchor:middle;" transform="rotate(0, 962.318, 1353.69)" x="962.318" y="1353.69">4</text>
</g>
<g clip-path="url(#clip610)">
<text style="fill:#000000; fill-opacity:1; font-family:Century Gothic,CenturyGothic,AppleGothic,sans-serif; font-size:47px; text-anchor:middle;" transform="rotate(0, 1110.13, 1353.69)" x="1110.13" y="1353.69">5</text>
</g>
<g clip-path="url(#clip610)">
<text style="fill:#000000; fill-opacity:1; font-family:Century Gothic,CenturyGothic,AppleGothic,sans-serif; font-size:47px; text-anchor:middle;" transform="rotate(0, 1257.95, 1353.69)" x="1257.95" y="1353.69">6</text>
</g>
<g clip-path="url(#clip610)">
<text style="fill:#000000; fill-opacity:1; font-family:Century Gothic,CenturyGothic,AppleGothic,sans-serif; font-size:47px; text-anchor:middle;" transform="rotate(0, 1405.77, 1353.69)" x="1405.77" y="1353.69">7</text>
</g>
<g clip-path="url(#clip610)">
<text style="fill:#000000; fill-opacity:1; font-family:Century Gothic,CenturyGothic,AppleGothic,sans-serif; font-size:65px; text-anchor:middle;" transform="rotate(0, 888.41, 1452.31)" x="888.41" y="1452.31">中心推定の正解数</text>
</g>
<polyline clip-path="url(#clip612)" style="stroke:#000000; stroke-linecap:round; stroke-linejoin:round; stroke-width:2; stroke-opacity:0.1; fill:none" points="224.064,1273.23 1552.76,1273.23 "/>
<polyline clip-path="url(#clip612)" style="stroke:#000000; stroke-linecap:round; stroke-linejoin:round; stroke-width:2; stroke-opacity:0.1; fill:none" points="224.064,994.366 1552.76,994.366 "/>
<polyline clip-path="url(#clip612)" style="stroke:#000000; stroke-linecap:round; stroke-linejoin:round; stroke-width:2; stroke-opacity:0.1; fill:none" points="224.064,715.505 1552.76,715.505 "/>
<polyline clip-path="url(#clip612)" style="stroke:#000000; stroke-linecap:round; stroke-linejoin:round; stroke-width:2; stroke-opacity:0.1; fill:none" points="224.064,436.645 1552.76,436.645 "/>
<polyline clip-path="url(#clip612)" style="stroke:#000000; stroke-linecap:round; stroke-linejoin:round; stroke-width:2; stroke-opacity:0.1; fill:none" points="224.064,157.785 1552.76,157.785 "/>
<polyline clip-path="url(#clip610)" style="stroke:#000000; stroke-linecap:round; stroke-linejoin:round; stroke-width:4; stroke-opacity:1; fill:none" points="224.064,1273.23 224.064,88.0695 "/>
<polyline clip-path="url(#clip610)" style="stroke:#000000; stroke-linecap:round; stroke-linejoin:round; stroke-width:4; stroke-opacity:1; fill:none" points="224.064,1273.23 242.961,1273.23 "/>
<polyline clip-path="url(#clip610)" style="stroke:#000000; stroke-linecap:round; stroke-linejoin:round; stroke-width:4; stroke-opacity:1; fill:none" points="224.064,994.366 242.961,994.366 "/>
<polyline clip-path="url(#clip610)" style="stroke:#000000; stroke-linecap:round; stroke-linejoin:round; stroke-width:4; stroke-opacity:1; fill:none" points="224.064,715.505 242.961,715.505 "/>
<polyline clip-path="url(#clip610)" style="stroke:#000000; stroke-linecap:round; stroke-linejoin:round; stroke-width:4; stroke-opacity:1; fill:none" points="224.064,436.645 242.961,436.645 "/>
<polyline clip-path="url(#clip610)" style="stroke:#000000; stroke-linecap:round; stroke-linejoin:round; stroke-width:4; stroke-opacity:1; fill:none" points="224.064,157.785 242.961,157.785 "/>
<g clip-path="url(#clip610)">
<text style="fill:#000000; fill-opacity:1; font-family:Century Gothic,CenturyGothic,AppleGothic,sans-serif; font-size:47px; text-anchor:middle;" transform="rotate(0, 139.127, 1290.73)" x="139.127" y="1290.73">0</text>
</g>
<g clip-path="url(#clip610)">
<text style="fill:#000000; fill-opacity:1; font-family:Century Gothic,CenturyGothic,AppleGothic,sans-serif; font-size:47px; text-anchor:middle;" transform="rotate(0, 113.254, 1011.87)" x="113.254" y="1011.87">200</text>
</g>
<g clip-path="url(#clip610)">
<text style="fill:#000000; fill-opacity:1; font-family:Century Gothic,CenturyGothic,AppleGothic,sans-serif; font-size:47px; text-anchor:middle;" transform="rotate(0, 113.254, 733.005)" x="113.254" y="733.005">400</text>
</g>
<g clip-path="url(#clip610)">
<text style="fill:#000000; fill-opacity:1; font-family:Century Gothic,CenturyGothic,AppleGothic,sans-serif; font-size:47px; text-anchor:middle;" transform="rotate(0, 113.254, 454.145)" x="113.254" y="454.145">600</text>
</g>
<g clip-path="url(#clip610)">
<text style="fill:#000000; fill-opacity:1; font-family:Century Gothic,CenturyGothic,AppleGothic,sans-serif; font-size:47px; text-anchor:middle;" transform="rotate(0, 113.254, 175.285)" x="113.254" y="175.285">800</text>
</g>
<g clip-path="url(#clip610)">
<text style="fill:#000000; fill-opacity:1; font-family:Century Gothic,CenturyGothic,AppleGothic,sans-serif; font-size:65px; text-anchor:middle;" transform="rotate(-90, -7.51163, 680.648)" x="-7.51163" y="680.648">度数</text>
</g>
<g clip-path="url(#clip610)">
<text style="fill:#000000; fill-opacity:1; font-family:Century Gothic,CenturyGothic,AppleGothic,sans-serif; font-size:81px; text-anchor:middle;" transform="rotate(0, 888.41, 72)" x="888.41" y="72">Setting : C, Method : EV</text>
</g>
<path clip-path="url(#clip612)" d="M297.144 1273.23 L297.144 1273.23 L444.961 1273.23 L444.961 1273.23 L297.144 1273.23 L297.144 1273.23  Z" fill="#009af9" fill-rule="evenodd" fill-opacity="1"/>
<polyline clip-path="url(#clip612)" style="stroke:#000000; stroke-linecap:round; stroke-linejoin:round; stroke-width:4; stroke-opacity:1; fill:none" points="297.144,1273.23 297.144,1273.23 444.961,1273.23 297.144,1273.23 "/>
<path clip-path="url(#clip612)" d="M444.961 1273.23 L444.961 1273.23 L592.777 1273.23 L592.777 1273.23 L444.961 1273.23 L444.961 1273.23  Z" fill="#009af9" fill-rule="evenodd" fill-opacity="1"/>
<polyline clip-path="url(#clip612)" style="stroke:#000000; stroke-linecap:round; stroke-linejoin:round; stroke-width:4; stroke-opacity:1; fill:none" points="444.961,1273.23 444.961,1273.23 592.777,1273.23 444.961,1273.23 "/>
<path clip-path="url(#clip612)" d="M592.777 1273.23 L592.777 1273.23 L740.593 1273.23 L740.593 1273.23 L592.777 1273.23 L592.777 1273.23  Z" fill="#009af9" fill-rule="evenodd" fill-opacity="1"/>
<polyline clip-path="url(#clip612)" style="stroke:#000000; stroke-linecap:round; stroke-linejoin:round; stroke-width:4; stroke-opacity:1; fill:none" points="592.777,1273.23 592.777,1273.23 740.593,1273.23 592.777,1273.23 "/>
<path clip-path="url(#clip612)" d="M740.593 1273.23 L740.593 1273.23 L888.41 1273.23 L888.41 1273.23 L740.593 1273.23 L740.593 1273.23  Z" fill="#009af9" fill-rule="evenodd" fill-opacity="1"/>
<polyline clip-path="url(#clip612)" style="stroke:#000000; stroke-linecap:round; stroke-linejoin:round; stroke-width:4; stroke-opacity:1; fill:none" points="740.593,1273.23 740.593,1273.23 888.41,1273.23 740.593,1273.23 "/>
<path clip-path="url(#clip612)" d="M888.41 1270.44 L888.41 1273.23 L1036.23 1273.23 L1036.23 1270.44 L888.41 1270.44 L888.41 1270.44  Z" fill="#009af9" fill-rule="evenodd" fill-opacity="1"/>
<polyline clip-path="url(#clip612)" style="stroke:#000000; stroke-linecap:round; stroke-linejoin:round; stroke-width:4; stroke-opacity:1; fill:none" points="888.41,1270.44 888.41,1273.23 1036.23,1273.23 1036.23,1270.44 888.41,1270.44 "/>
<path clip-path="url(#clip612)" d="M1036.23 1217.45 L1036.23 1273.23 L1184.04 1273.23 L1184.04 1217.45 L1036.23 1217.45 L1036.23 1217.45  Z" fill="#009af9" fill-rule="evenodd" fill-opacity="1"/>
<polyline clip-path="url(#clip612)" style="stroke:#000000; stroke-linecap:round; stroke-linejoin:round; stroke-width:4; stroke-opacity:1; fill:none" points="1036.23,1217.45 1036.23,1273.23 1184.04,1273.23 1184.04,1217.45 1036.23,1217.45 "/>
<path clip-path="url(#clip612)" d="M1184.04 896.765 L1184.04 1273.23 L1331.86 1273.23 L1331.86 896.765 L1184.04 896.765 L1184.04 896.765  Z" fill="#009af9" fill-rule="evenodd" fill-opacity="1"/>
<polyline clip-path="url(#clip612)" style="stroke:#000000; stroke-linecap:round; stroke-linejoin:round; stroke-width:4; stroke-opacity:1; fill:none" points="1184.04,896.765 1184.04,1273.23 1331.86,1273.23 1331.86,896.765 1184.04,896.765 "/>
<path clip-path="url(#clip612)" d="M1331.86 313.946 L1331.86 1273.23 L1479.68 1273.23 L1479.68 313.946 L1331.86 313.946 L1331.86 313.946  Z" fill="#009af9" fill-rule="evenodd" fill-opacity="1"/>
<polyline clip-path="url(#clip612)" style="stroke:#000000; stroke-linecap:round; stroke-linejoin:round; stroke-width:4; stroke-opacity:1; fill:none" points="1331.86,313.946 1331.86,1273.23 1479.68,1273.23 1479.68,313.946 1331.86,313.946 "/>
<circle clip-path="url(#clip612)" style="fill:#009af9; stroke:none; fill-opacity:0" cx="371.052" cy="1273.23" r="2"/>
<circle clip-path="url(#clip612)" style="fill:#009af9; stroke:none; fill-opacity:0" cx="518.869" cy="1273.23" r="2"/>
<circle clip-path="url(#clip612)" style="fill:#009af9; stroke:none; fill-opacity:0" cx="666.685" cy="1273.23" r="2"/>
<circle clip-path="url(#clip612)" style="fill:#009af9; stroke:none; fill-opacity:0" cx="814.502" cy="1273.23" r="2"/>
<circle clip-path="url(#clip612)" style="fill:#009af9; stroke:none; fill-opacity:0" cx="962.318" cy="1270.44" r="2"/>
<circle clip-path="url(#clip612)" style="fill:#009af9; stroke:none; fill-opacity:0" cx="1110.13" cy="1217.45" r="2"/>
<circle clip-path="url(#clip612)" style="fill:#009af9; stroke:none; fill-opacity:0" cx="1257.95" cy="896.765" r="2"/>
<circle clip-path="url(#clip612)" style="fill:#009af9; stroke:none; fill-opacity:0" cx="1405.77" cy="313.946" r="2"/>
<path clip-path="url(#clip610)" d="M297.144 136.185 L305.854 136.185 L316.878 165.583 L327.96 136.185 L336.669 136.185 L336.669 179.385 L330.969 179.385 L330.969 141.451 L319.829 171.08 L313.955 171.08 L302.815 141.451 L302.815 179.385 L297.144 179.385 L297.144 136.185 Z" fill="#000000" fill-rule="nonzero" fill-opacity="1" /><path clip-path="url(#clip610)" d="M375.761 161.85 L375.761 164.454 L351.282 164.454 Q351.629 169.952 354.58 172.845 Q357.561 175.71 362.856 175.71 Q365.923 175.71 368.787 174.958 Q371.681 174.205 374.516 172.701 L374.516 177.735 Q371.652 178.951 368.643 179.587 Q365.633 180.224 362.537 180.224 Q354.783 180.224 350.24 175.71 Q345.726 171.196 345.726 163.499 Q345.726 155.542 350.008 150.884 Q354.32 146.196 361.611 146.196 Q368.151 146.196 371.941 150.421 Q375.761 154.616 375.761 161.85 M370.437 160.288 Q370.379 155.918 367.977 153.314 Q365.604 150.71 361.669 150.71 Q357.213 150.71 354.522 153.227 Q351.86 155.745 351.455 160.316 L370.437 160.288 Z" fill="#000000" fill-rule="nonzero" fill-opacity="1" /><path clip-path="url(#clip610)" d="M399.227 163.094 Q392.774 163.094 390.286 164.57 Q387.798 166.046 387.798 169.605 Q387.798 172.44 389.649 174.118 Q391.53 175.768 394.742 175.768 Q399.169 175.768 401.831 172.643 Q404.522 169.489 404.522 164.281 L404.522 163.094 L399.227 163.094 M409.846 160.895 L409.846 179.385 L404.522 179.385 L404.522 174.466 Q402.699 177.417 399.979 178.835 Q397.259 180.224 393.324 180.224 Q388.347 180.224 385.396 177.446 Q382.474 174.639 382.474 169.952 Q382.474 164.483 386.119 161.705 Q389.794 158.928 397.057 158.928 L404.522 158.928 L404.522 158.407 Q404.522 154.732 402.092 152.735 Q399.69 150.71 395.321 150.71 Q392.543 150.71 389.91 151.376 Q387.277 152.041 384.846 153.372 L384.846 148.453 Q387.769 147.325 390.518 146.775 Q393.266 146.196 395.87 146.196 Q402.902 146.196 406.374 149.842 Q409.846 153.488 409.846 160.895 Z" fill="#000000" fill-rule="nonzero" fill-opacity="1" /><path clip-path="url(#clip610)" d="M447.751 159.825 L447.751 179.385 L442.427 179.385 L442.427 159.998 Q442.427 155.397 440.633 153.112 Q438.839 150.826 435.251 150.826 Q430.94 150.826 428.451 153.575 Q425.963 156.323 425.963 161.069 L425.963 179.385 L420.61 179.385 L420.61 146.977 L425.963 146.977 L425.963 152.012 Q427.873 149.09 430.448 147.643 Q433.052 146.196 436.437 146.196 Q442.022 146.196 444.886 149.668 Q447.751 153.112 447.751 159.825 Z" fill="#000000" fill-rule="nonzero" fill-opacity="1" /><path clip-path="url(#clip610)" d="M477.901 152.475 L514.996 152.475 L514.996 157.336 L477.901 157.336 L477.901 152.475 M477.901 164.281 L514.996 164.281 L514.996 169.2 L477.901 169.2 L477.901 164.281 Z" fill="#000000" fill-rule="nonzero" fill-opacity="1" /><path clip-path="url(#clip610)" d="M559.672 155.455 Q555.737 155.455 553.422 158.146 Q551.136 160.837 551.136 165.525 Q551.136 170.183 553.422 172.903 Q555.737 175.594 559.672 175.594 Q563.607 175.594 565.893 172.903 Q568.208 170.183 568.208 165.525 Q568.208 160.837 565.893 158.146 Q563.607 155.455 559.672 155.455 M571.275 137.139 L571.275 142.464 Q569.076 141.422 566.819 140.872 Q564.591 140.322 562.392 140.322 Q556.605 140.322 553.537 144.229 Q550.499 148.135 550.065 156.034 Q551.772 153.517 554.348 152.186 Q556.923 150.826 560.019 150.826 Q566.529 150.826 570.291 154.79 Q574.081 158.725 574.081 165.525 Q574.081 172.18 570.146 176.202 Q566.211 180.224 559.672 180.224 Q552.178 180.224 548.213 174.495 Q544.249 168.737 544.249 157.828 Q544.249 147.585 549.11 141.509 Q553.971 135.403 562.16 135.403 Q564.359 135.403 566.587 135.837 Q568.844 136.271 571.275 137.139 Z" fill="#000000" fill-rule="nonzero" fill-opacity="1" /><path clip-path="url(#clip610)" d="M584.151 172.035 L590.256 172.035 L590.256 179.385 L584.151 179.385 L584.151 172.035 Z" fill="#000000" fill-rule="nonzero" fill-opacity="1" /><path clip-path="url(#clip610)" d="M616.211 155.455 Q612.276 155.455 609.961 158.146 Q607.675 160.837 607.675 165.525 Q607.675 170.183 609.961 172.903 Q612.276 175.594 616.211 175.594 Q620.146 175.594 622.432 172.903 Q624.747 170.183 624.747 165.525 Q624.747 160.837 622.432 158.146 Q620.146 155.455 616.211 155.455 M627.814 137.139 L627.814 142.464 Q625.615 141.422 623.358 140.872 Q621.13 140.322 618.931 140.322 Q613.144 140.322 610.077 144.229 Q607.038 148.135 606.604 156.034 Q608.311 153.517 610.887 152.186 Q613.462 150.826 616.558 150.826 Q623.068 150.826 626.83 154.79 Q630.62 158.725 630.62 165.525 Q630.62 172.18 626.685 176.202 Q622.75 180.224 616.211 180.224 Q608.717 180.224 604.752 174.495 Q600.788 168.737 600.788 157.828 Q600.788 147.585 605.649 141.509 Q610.511 135.403 618.699 135.403 Q620.898 135.403 623.126 135.837 Q625.383 136.271 627.814 137.139 Z" fill="#000000" fill-rule="nonzero" fill-opacity="1" /><path clip-path="url(#clip610)" d="M656.749 141.277 L641.992 164.338 L656.749 164.338 L656.749 141.277 M655.215 136.185 L662.565 136.185 L662.565 164.338 L668.728 164.338 L668.728 169.2 L662.565 169.2 L662.565 179.385 L656.749 179.385 L656.749 169.2 L637.247 169.2 L637.247 163.557 L655.215 136.185 Z" fill="#000000" fill-rule="nonzero" fill-opacity="1" /><path clip-path="url(#clip610)" d="M694.451 141.277 L679.694 164.338 L694.451 164.338 L694.451 141.277 M692.918 136.185 L700.267 136.185 L700.267 164.338 L706.43 164.338 L706.43 169.2 L700.267 169.2 L700.267 179.385 L694.451 179.385 L694.451 169.2 L674.949 169.2 L674.949 163.557 L692.918 136.185 Z" fill="#000000" fill-rule="nonzero" fill-opacity="1" /><path clip-path="url(#clip610)" d="M302.989 210.703 L302.989 244.297 L310.049 244.297 Q318.99 244.297 323.128 240.246 Q327.294 236.195 327.294 227.456 Q327.294 218.776 323.128 214.754 Q318.99 210.703 310.049 210.703 L302.989 210.703 M297.144 205.9 L309.152 205.9 Q321.71 205.9 327.584 211.137 Q333.458 216.345 333.458 227.456 Q333.458 238.625 327.555 243.862 Q321.652 249.1 309.152 249.1 L297.144 249.1 L297.144 205.9 Z" fill="#000000" fill-rule="nonzero" fill-opacity="1" /><path clip-path="url(#clip610)" d="M342.543 216.692 L347.867 216.692 L347.867 249.1 L342.543 249.1 L342.543 216.692 M342.543 204.077 L347.867 204.077 L347.867 210.819 L342.543 210.819 L342.543 204.077 Z" fill="#000000" fill-rule="nonzero" fill-opacity="1" /><path clip-path="url(#clip610)" d="M379.667 217.647 L379.667 222.682 Q377.41 221.525 374.979 220.946 Q372.549 220.367 369.945 220.367 Q365.981 220.367 363.984 221.583 Q362.016 222.798 362.016 225.228 Q362.016 227.08 363.434 228.151 Q364.852 229.192 369.135 230.147 L370.957 230.552 Q376.629 231.768 379.001 233.996 Q381.403 236.195 381.403 240.159 Q381.403 244.673 377.815 247.306 Q374.256 249.939 368.006 249.939 Q365.402 249.939 362.566 249.418 Q359.76 248.926 356.635 247.913 L356.635 242.416 Q359.586 243.949 362.451 244.731 Q365.315 245.483 368.122 245.483 Q371.883 245.483 373.909 244.21 Q375.934 242.908 375.934 240.564 Q375.934 238.394 374.459 237.236 Q373.012 236.079 368.064 235.008 L366.212 234.574 Q361.264 233.533 359.065 231.391 Q356.866 229.221 356.866 225.46 Q356.866 220.888 360.107 218.4 Q363.348 215.911 369.308 215.911 Q372.259 215.911 374.864 216.345 Q377.468 216.779 379.667 217.647 Z" fill="#000000" fill-rule="nonzero" fill-opacity="1" /><path clip-path="url(#clip610)" d="M395.147 207.491 L395.147 216.692 L406.113 216.692 L406.113 220.83 L395.147 220.83 L395.147 238.423 Q395.147 242.387 396.218 243.515 Q397.317 244.644 400.645 244.644 L406.113 244.644 L406.113 249.1 L400.645 249.1 Q394.482 249.1 392.138 246.814 Q389.794 244.499 389.794 238.423 L389.794 220.83 L385.888 220.83 L385.888 216.692 L389.794 216.692 L389.794 207.491 L395.147 207.491 Z" fill="#000000" fill-rule="nonzero" fill-opacity="1" /><path clip-path="url(#clip610)" d="M432.647 222.19 L469.742 222.19 L469.742 227.051 L432.647 227.051 L432.647 222.19 M432.647 233.996 L469.742 233.996 L469.742 238.915 L432.647 238.915 L432.647 233.996 Z" fill="#000000" fill-rule="nonzero" fill-opacity="1" /><path clip-path="url(#clip610)" d="M513.694 209.748 Q509.18 209.748 506.894 214.204 Q504.637 218.631 504.637 227.543 Q504.637 236.426 506.894 240.882 Q509.18 245.309 513.694 245.309 Q518.237 245.309 520.494 240.882 Q522.78 236.426 522.78 227.543 Q522.78 218.631 520.494 214.204 Q518.237 209.748 513.694 209.748 M513.694 205.118 Q520.957 205.118 524.776 210.877 Q528.624 216.606 528.624 227.543 Q528.624 238.452 524.776 244.21 Q520.957 249.939 513.694 249.939 Q506.431 249.939 502.583 244.21 Q498.763 238.452 498.763 227.543 Q498.763 216.606 502.583 210.877 Q506.431 205.118 513.694 205.118 Z" fill="#000000" fill-rule="nonzero" fill-opacity="1" /><path clip-path="url(#clip610)" d="M538.896 241.75 L545.002 241.75 L545.002 249.1 L538.896 249.1 L538.896 241.75 Z" fill="#000000" fill-rule="nonzero" fill-opacity="1" /><path clip-path="url(#clip610)" d="M570.233 209.748 Q565.719 209.748 563.433 214.204 Q561.176 218.631 561.176 227.543 Q561.176 236.426 563.433 240.882 Q565.719 245.309 570.233 245.309 Q574.776 245.309 577.033 240.882 Q579.319 236.426 579.319 227.543 Q579.319 218.631 577.033 214.204 Q574.776 209.748 570.233 209.748 M570.233 205.118 Q577.496 205.118 581.315 210.877 Q585.163 216.606 585.163 227.543 Q585.163 238.452 581.315 244.21 Q577.496 249.939 570.233 249.939 Q562.97 249.939 559.122 244.21 Q555.302 238.452 555.302 227.543 Q555.302 216.606 559.122 210.877 Q562.97 205.118 570.233 205.118 Z" fill="#000000" fill-rule="nonzero" fill-opacity="1" /><path clip-path="url(#clip610)" d="M596.448 244.181 L605.997 244.181 L605.997 211.224 L595.609 213.307 L595.609 207.983 L605.939 205.9 L611.784 205.9 L611.784 244.181 L621.332 244.181 L621.332 249.1 L596.448 249.1 L596.448 244.181 Z" fill="#000000" fill-rule="nonzero" fill-opacity="1" /><path clip-path="url(#clip610)" d="M645.638 228.585 Q641.471 228.585 639.069 230.813 Q636.697 233.041 636.697 236.947 Q636.697 240.853 639.069 243.081 Q641.471 245.309 645.638 245.309 Q649.804 245.309 652.206 243.081 Q654.608 240.824 654.608 236.947 Q654.608 233.041 652.206 230.813 Q649.833 228.585 645.638 228.585 M639.793 226.096 Q636.031 225.17 633.919 222.595 Q631.836 220.02 631.836 216.316 Q631.836 211.137 635.51 208.128 Q639.214 205.118 645.638 205.118 Q652.09 205.118 655.765 208.128 Q659.44 211.137 659.44 216.316 Q659.44 220.02 657.327 222.595 Q655.244 225.17 651.511 226.096 Q655.736 227.08 658.08 229.945 Q660.452 232.809 660.452 236.947 Q660.452 243.226 656.604 246.582 Q652.785 249.939 645.638 249.939 Q638.491 249.939 634.642 246.582 Q630.823 243.226 630.823 236.947 Q630.823 232.809 633.196 229.945 Q635.568 227.08 639.793 226.096 M637.652 216.866 Q637.652 220.223 639.735 222.103 Q641.847 223.984 645.638 223.984 Q649.399 223.984 651.511 222.103 Q653.653 220.223 653.653 216.866 Q653.653 213.51 651.511 211.629 Q649.399 209.748 645.638 209.748 Q641.847 209.748 639.735 211.629 Q637.652 213.51 637.652 216.866 Z" fill="#000000" fill-rule="nonzero" fill-opacity="1" /><path clip-path="url(#clip610)" d="M684.063 225.17 Q680.128 225.17 677.813 227.861 Q675.528 230.552 675.528 235.24 Q675.528 239.898 677.813 242.618 Q680.128 245.309 684.063 245.309 Q687.999 245.309 690.284 242.618 Q692.599 239.898 692.599 235.24 Q692.599 230.552 690.284 227.861 Q687.999 225.17 684.063 225.17 M695.666 206.855 L695.666 212.179 Q693.467 211.137 691.21 210.587 Q688.982 210.037 686.783 210.037 Q680.996 210.037 677.929 213.944 Q674.891 217.85 674.457 225.749 Q676.164 223.232 678.739 221.901 Q681.315 220.541 684.411 220.541 Q690.921 220.541 694.683 224.505 Q698.473 228.44 698.473 235.24 Q698.473 241.895 694.538 245.917 Q690.603 249.939 684.063 249.939 Q676.569 249.939 672.605 244.21 Q668.641 238.452 668.641 227.543 Q668.641 217.3 673.502 211.224 Q678.363 205.118 686.552 205.118 Q688.751 205.118 690.979 205.553 Q693.236 205.987 695.666 206.855 Z" fill="#000000" fill-rule="nonzero" fill-opacity="1" /><path clip-path="url(#clip610)" d="M708.716 248.203 L708.716 242.879 Q710.915 243.92 713.172 244.47 Q715.429 245.02 717.599 245.02 Q723.386 245.02 726.424 241.143 Q729.491 237.236 729.925 229.308 Q728.247 231.797 725.672 233.128 Q723.097 234.459 719.972 234.459 Q713.49 234.459 709.7 230.552 Q705.938 226.617 705.938 219.817 Q705.938 213.162 709.873 209.14 Q713.809 205.118 720.348 205.118 Q727.842 205.118 731.777 210.877 Q735.741 216.606 735.741 227.543 Q735.741 237.757 730.88 243.862 Q726.048 249.939 717.859 249.939 Q715.66 249.939 713.404 249.505 Q711.147 249.071 708.716 248.203 M720.348 229.887 Q724.283 229.887 726.569 227.196 Q728.884 224.505 728.884 219.817 Q728.884 215.159 726.569 212.468 Q724.283 209.748 720.348 209.748 Q716.413 209.748 714.098 212.468 Q711.812 215.159 711.812 219.817 Q711.812 224.505 714.098 227.196 Q716.413 229.887 720.348 229.887 Z" fill="#000000" fill-rule="nonzero" fill-opacity="1" /><path clip-path="url(#clip610)" d="M1824.06 1273.23 L3152.76 1273.23 L3152.76 88.0695 L1824.06 88.0695  Z" fill="#ffffff" fill-rule="evenodd" fill-opacity="1"/>
<defs>
  <clipPath id="clip613">
    <rect x="1824" y="88" width="1330" height="1186"/>
  </clipPath>
</defs>
<polyline clip-path="url(#clip613)" style="stroke:#000000; stroke-linecap:round; stroke-linejoin:round; stroke-width:2; stroke-opacity:0.1; fill:none" points="1971.05,1273.23 1971.05,88.0695 "/>
<polyline clip-path="url(#clip613)" style="stroke:#000000; stroke-linecap:round; stroke-linejoin:round; stroke-width:2; stroke-opacity:0.1; fill:none" points="2118.87,1273.23 2118.87,88.0695 "/>
<polyline clip-path="url(#clip613)" style="stroke:#000000; stroke-linecap:round; stroke-linejoin:round; stroke-width:2; stroke-opacity:0.1; fill:none" points="2266.69,1273.23 2266.69,88.0695 "/>
<polyline clip-path="url(#clip613)" style="stroke:#000000; stroke-linecap:round; stroke-linejoin:round; stroke-width:2; stroke-opacity:0.1; fill:none" points="2414.5,1273.23 2414.5,88.0695 "/>
<polyline clip-path="url(#clip613)" style="stroke:#000000; stroke-linecap:round; stroke-linejoin:round; stroke-width:2; stroke-opacity:0.1; fill:none" points="2562.32,1273.23 2562.32,88.0695 "/>
<polyline clip-path="url(#clip613)" style="stroke:#000000; stroke-linecap:round; stroke-linejoin:round; stroke-width:2; stroke-opacity:0.1; fill:none" points="2710.13,1273.23 2710.13,88.0695 "/>
<polyline clip-path="url(#clip613)" style="stroke:#000000; stroke-linecap:round; stroke-linejoin:round; stroke-width:2; stroke-opacity:0.1; fill:none" points="2857.95,1273.23 2857.95,88.0695 "/>
<polyline clip-path="url(#clip613)" style="stroke:#000000; stroke-linecap:round; stroke-linejoin:round; stroke-width:2; stroke-opacity:0.1; fill:none" points="3005.77,1273.23 3005.77,88.0695 "/>
<polyline clip-path="url(#clip610)" style="stroke:#000000; stroke-linecap:round; stroke-linejoin:round; stroke-width:4; stroke-opacity:1; fill:none" points="1824.06,1273.23 3152.76,1273.23 "/>
<polyline clip-path="url(#clip610)" style="stroke:#000000; stroke-linecap:round; stroke-linejoin:round; stroke-width:4; stroke-opacity:1; fill:none" points="1971.05,1273.23 1971.05,1254.33 "/>
<polyline clip-path="url(#clip610)" style="stroke:#000000; stroke-linecap:round; stroke-linejoin:round; stroke-width:4; stroke-opacity:1; fill:none" points="2118.87,1273.23 2118.87,1254.33 "/>
<polyline clip-path="url(#clip610)" style="stroke:#000000; stroke-linecap:round; stroke-linejoin:round; stroke-width:4; stroke-opacity:1; fill:none" points="2266.69,1273.23 2266.69,1254.33 "/>
<polyline clip-path="url(#clip610)" style="stroke:#000000; stroke-linecap:round; stroke-linejoin:round; stroke-width:4; stroke-opacity:1; fill:none" points="2414.5,1273.23 2414.5,1254.33 "/>
<polyline clip-path="url(#clip610)" style="stroke:#000000; stroke-linecap:round; stroke-linejoin:round; stroke-width:4; stroke-opacity:1; fill:none" points="2562.32,1273.23 2562.32,1254.33 "/>
<polyline clip-path="url(#clip610)" style="stroke:#000000; stroke-linecap:round; stroke-linejoin:round; stroke-width:4; stroke-opacity:1; fill:none" points="2710.13,1273.23 2710.13,1254.33 "/>
<polyline clip-path="url(#clip610)" style="stroke:#000000; stroke-linecap:round; stroke-linejoin:round; stroke-width:4; stroke-opacity:1; fill:none" points="2857.95,1273.23 2857.95,1254.33 "/>
<polyline clip-path="url(#clip610)" style="stroke:#000000; stroke-linecap:round; stroke-linejoin:round; stroke-width:4; stroke-opacity:1; fill:none" points="3005.77,1273.23 3005.77,1254.33 "/>
<g clip-path="url(#clip610)">
<text style="fill:#000000; fill-opacity:1; font-family:Century Gothic,CenturyGothic,AppleGothic,sans-serif; font-size:47px; text-anchor:middle;" transform="rotate(0, 1971.05, 1353.69)" x="1971.05" y="1353.69">0</text>
</g>
<g clip-path="url(#clip610)">
<text style="fill:#000000; fill-opacity:1; font-family:Century Gothic,CenturyGothic,AppleGothic,sans-serif; font-size:47px; text-anchor:middle;" transform="rotate(0, 2118.87, 1353.69)" x="2118.87" y="1353.69">1</text>
</g>
<g clip-path="url(#clip610)">
<text style="fill:#000000; fill-opacity:1; font-family:Century Gothic,CenturyGothic,AppleGothic,sans-serif; font-size:47px; text-anchor:middle;" transform="rotate(0, 2266.69, 1353.69)" x="2266.69" y="1353.69">2</text>
</g>
<g clip-path="url(#clip610)">
<text style="fill:#000000; fill-opacity:1; font-family:Century Gothic,CenturyGothic,AppleGothic,sans-serif; font-size:47px; text-anchor:middle;" transform="rotate(0, 2414.5, 1353.69)" x="2414.5" y="1353.69">3</text>
</g>
<g clip-path="url(#clip610)">
<text style="fill:#000000; fill-opacity:1; font-family:Century Gothic,CenturyGothic,AppleGothic,sans-serif; font-size:47px; text-anchor:middle;" transform="rotate(0, 2562.32, 1353.69)" x="2562.32" y="1353.69">4</text>
</g>
<g clip-path="url(#clip610)">
<text style="fill:#000000; fill-opacity:1; font-family:Century Gothic,CenturyGothic,AppleGothic,sans-serif; font-size:47px; text-anchor:middle;" transform="rotate(0, 2710.13, 1353.69)" x="2710.13" y="1353.69">5</text>
</g>
<g clip-path="url(#clip610)">
<text style="fill:#000000; fill-opacity:1; font-family:Century Gothic,CenturyGothic,AppleGothic,sans-serif; font-size:47px; text-anchor:middle;" transform="rotate(0, 2857.95, 1353.69)" x="2857.95" y="1353.69">6</text>
</g>
<g clip-path="url(#clip610)">
<text style="fill:#000000; fill-opacity:1; font-family:Century Gothic,CenturyGothic,AppleGothic,sans-serif; font-size:47px; text-anchor:middle;" transform="rotate(0, 3005.77, 1353.69)" x="3005.77" y="1353.69">7</text>
</g>
<g clip-path="url(#clip610)">
<text style="fill:#000000; fill-opacity:1; font-family:Century Gothic,CenturyGothic,AppleGothic,sans-serif; font-size:65px; text-anchor:middle;" transform="rotate(0, 2488.41, 1452.31)" x="2488.41" y="1452.31">中心推定の正解数</text>
</g>
<polyline clip-path="url(#clip613)" style="stroke:#000000; stroke-linecap:round; stroke-linejoin:round; stroke-width:2; stroke-opacity:0.1; fill:none" points="1824.06,1273.23 3152.76,1273.23 "/>
<polyline clip-path="url(#clip613)" style="stroke:#000000; stroke-linecap:round; stroke-linejoin:round; stroke-width:2; stroke-opacity:0.1; fill:none" points="1824.06,994.366 3152.76,994.366 "/>
<polyline clip-path="url(#clip613)" style="stroke:#000000; stroke-linecap:round; stroke-linejoin:round; stroke-width:2; stroke-opacity:0.1; fill:none" points="1824.06,715.505 3152.76,715.505 "/>
<polyline clip-path="url(#clip613)" style="stroke:#000000; stroke-linecap:round; stroke-linejoin:round; stroke-width:2; stroke-opacity:0.1; fill:none" points="1824.06,436.645 3152.76,436.645 "/>
<polyline clip-path="url(#clip613)" style="stroke:#000000; stroke-linecap:round; stroke-linejoin:round; stroke-width:2; stroke-opacity:0.1; fill:none" points="1824.06,157.785 3152.76,157.785 "/>
<polyline clip-path="url(#clip610)" style="stroke:#000000; stroke-linecap:round; stroke-linejoin:round; stroke-width:4; stroke-opacity:1; fill:none" points="1824.06,1273.23 1824.06,88.0695 "/>
<polyline clip-path="url(#clip610)" style="stroke:#000000; stroke-linecap:round; stroke-linejoin:round; stroke-width:4; stroke-opacity:1; fill:none" points="1824.06,1273.23 1842.96,1273.23 "/>
<polyline clip-path="url(#clip610)" style="stroke:#000000; stroke-linecap:round; stroke-linejoin:round; stroke-width:4; stroke-opacity:1; fill:none" points="1824.06,994.366 1842.96,994.366 "/>
<polyline clip-path="url(#clip610)" style="stroke:#000000; stroke-linecap:round; stroke-linejoin:round; stroke-width:4; stroke-opacity:1; fill:none" points="1824.06,715.505 1842.96,715.505 "/>
<polyline clip-path="url(#clip610)" style="stroke:#000000; stroke-linecap:round; stroke-linejoin:round; stroke-width:4; stroke-opacity:1; fill:none" points="1824.06,436.645 1842.96,436.645 "/>
<polyline clip-path="url(#clip610)" style="stroke:#000000; stroke-linecap:round; stroke-linejoin:round; stroke-width:4; stroke-opacity:1; fill:none" points="1824.06,157.785 1842.96,157.785 "/>
<g clip-path="url(#clip610)">
<text style="fill:#000000; fill-opacity:1; font-family:Century Gothic,CenturyGothic,AppleGothic,sans-serif; font-size:47px; text-anchor:middle;" transform="rotate(0, 1739.13, 1290.73)" x="1739.13" y="1290.73">0</text>
</g>
<g clip-path="url(#clip610)">
<text style="fill:#000000; fill-opacity:1; font-family:Century Gothic,CenturyGothic,AppleGothic,sans-serif; font-size:47px; text-anchor:middle;" transform="rotate(0, 1713.25, 1011.87)" x="1713.25" y="1011.87">200</text>
</g>
<g clip-path="url(#clip610)">
<text style="fill:#000000; fill-opacity:1; font-family:Century Gothic,CenturyGothic,AppleGothic,sans-serif; font-size:47px; text-anchor:middle;" transform="rotate(0, 1713.25, 733.005)" x="1713.25" y="733.005">400</text>
</g>
<g clip-path="url(#clip610)">
<text style="fill:#000000; fill-opacity:1; font-family:Century Gothic,CenturyGothic,AppleGothic,sans-serif; font-size:47px; text-anchor:middle;" transform="rotate(0, 1713.25, 454.145)" x="1713.25" y="454.145">600</text>
</g>
<g clip-path="url(#clip610)">
<text style="fill:#000000; fill-opacity:1; font-family:Century Gothic,CenturyGothic,AppleGothic,sans-serif; font-size:47px; text-anchor:middle;" transform="rotate(0, 1713.25, 175.285)" x="1713.25" y="175.285">800</text>
</g>
<g clip-path="url(#clip610)">
<text style="fill:#000000; fill-opacity:1; font-family:Century Gothic,CenturyGothic,AppleGothic,sans-serif; font-size:65px; text-anchor:middle;" transform="rotate(-90, 1592.49, 680.648)" x="1592.49" y="680.648">度数</text>
</g>
<g clip-path="url(#clip610)">
<text style="fill:#000000; fill-opacity:1; font-family:Century Gothic,CenturyGothic,AppleGothic,sans-serif; font-size:81px; text-anchor:middle;" transform="rotate(0, 2488.41, 72)" x="2488.41" y="72">Setting : C, Method : GM</text>
</g>
<path clip-path="url(#clip613)" d="M1897.14 1273.23 L1897.14 1273.23 L2044.96 1273.23 L2044.96 1273.23 L1897.14 1273.23 L1897.14 1273.23  Z" fill="#009af9" fill-rule="evenodd" fill-opacity="1"/>
<polyline clip-path="url(#clip613)" style="stroke:#000000; stroke-linecap:round; stroke-linejoin:round; stroke-width:4; stroke-opacity:1; fill:none" points="1897.14,1273.23 1897.14,1273.23 2044.96,1273.23 1897.14,1273.23 "/>
<path clip-path="url(#clip613)" d="M2044.96 1273.23 L2044.96 1273.23 L2192.78 1273.23 L2192.78 1273.23 L2044.96 1273.23 L2044.96 1273.23  Z" fill="#009af9" fill-rule="evenodd" fill-opacity="1"/>
<polyline clip-path="url(#clip613)" style="stroke:#000000; stroke-linecap:round; stroke-linejoin:round; stroke-width:4; stroke-opacity:1; fill:none" points="2044.96,1273.23 2044.96,1273.23 2192.78,1273.23 2044.96,1273.23 "/>
<path clip-path="url(#clip613)" d="M2192.78 1273.23 L2192.78 1273.23 L2340.59 1273.23 L2340.59 1273.23 L2192.78 1273.23 L2192.78 1273.23  Z" fill="#009af9" fill-rule="evenodd" fill-opacity="1"/>
<polyline clip-path="url(#clip613)" style="stroke:#000000; stroke-linecap:round; stroke-linejoin:round; stroke-width:4; stroke-opacity:1; fill:none" points="2192.78,1273.23 2192.78,1273.23 2340.59,1273.23 2192.78,1273.23 "/>
<path clip-path="url(#clip613)" d="M2340.59 1273.23 L2340.59 1273.23 L2488.41 1273.23 L2488.41 1273.23 L2340.59 1273.23 L2340.59 1273.23  Z" fill="#009af9" fill-rule="evenodd" fill-opacity="1"/>
<polyline clip-path="url(#clip613)" style="stroke:#000000; stroke-linecap:round; stroke-linejoin:round; stroke-width:4; stroke-opacity:1; fill:none" points="2340.59,1273.23 2340.59,1273.23 2488.41,1273.23 2340.59,1273.23 "/>
<path clip-path="url(#clip613)" d="M2488.41 1267.65 L2488.41 1273.23 L2636.23 1273.23 L2636.23 1267.65 L2488.41 1267.65 L2488.41 1267.65  Z" fill="#009af9" fill-rule="evenodd" fill-opacity="1"/>
<polyline clip-path="url(#clip613)" style="stroke:#000000; stroke-linecap:round; stroke-linejoin:round; stroke-width:4; stroke-opacity:1; fill:none" points="2488.41,1267.65 2488.41,1273.23 2636.23,1273.23 2636.23,1267.65 2488.41,1267.65 "/>
<path clip-path="url(#clip613)" d="M2636.23 1225.82 L2636.23 1273.23 L2784.04 1273.23 L2784.04 1225.82 L2636.23 1225.82 L2636.23 1225.82  Z" fill="#009af9" fill-rule="evenodd" fill-opacity="1"/>
<polyline clip-path="url(#clip613)" style="stroke:#000000; stroke-linecap:round; stroke-linejoin:round; stroke-width:4; stroke-opacity:1; fill:none" points="2636.23,1225.82 2636.23,1273.23 2784.04,1273.23 2784.04,1225.82 2636.23,1225.82 "/>
<path clip-path="url(#clip613)" d="M2784.04 881.427 L2784.04 1273.23 L2931.86 1273.23 L2931.86 881.427 L2784.04 881.427 L2784.04 881.427  Z" fill="#009af9" fill-rule="evenodd" fill-opacity="1"/>
<polyline clip-path="url(#clip613)" style="stroke:#000000; stroke-linecap:round; stroke-linejoin:round; stroke-width:4; stroke-opacity:1; fill:none" points="2784.04,881.427 2784.04,1273.23 2931.86,1273.23 2931.86,881.427 2784.04,881.427 "/>
<path clip-path="url(#clip613)" d="M2931.86 323.707 L2931.86 1273.23 L3079.68 1273.23 L3079.68 323.707 L2931.86 323.707 L2931.86 323.707  Z" fill="#009af9" fill-rule="evenodd" fill-opacity="1"/>
<polyline clip-path="url(#clip613)" style="stroke:#000000; stroke-linecap:round; stroke-linejoin:round; stroke-width:4; stroke-opacity:1; fill:none" points="2931.86,323.707 2931.86,1273.23 3079.68,1273.23 3079.68,323.707 2931.86,323.707 "/>
<circle clip-path="url(#clip613)" style="fill:#009af9; stroke:none; fill-opacity:0" cx="1971.05" cy="1273.23" r="2"/>
<circle clip-path="url(#clip613)" style="fill:#009af9; stroke:none; fill-opacity:0" cx="2118.87" cy="1273.23" r="2"/>
<circle clip-path="url(#clip613)" style="fill:#009af9; stroke:none; fill-opacity:0" cx="2266.69" cy="1273.23" r="2"/>
<circle clip-path="url(#clip613)" style="fill:#009af9; stroke:none; fill-opacity:0" cx="2414.5" cy="1273.23" r="2"/>
<circle clip-path="url(#clip613)" style="fill:#009af9; stroke:none; fill-opacity:0" cx="2562.32" cy="1267.65" r="2"/>
<circle clip-path="url(#clip613)" style="fill:#009af9; stroke:none; fill-opacity:0" cx="2710.13" cy="1225.82" r="2"/>
<circle clip-path="url(#clip613)" style="fill:#009af9; stroke:none; fill-opacity:0" cx="2857.95" cy="881.427" r="2"/>
<circle clip-path="url(#clip613)" style="fill:#009af9; stroke:none; fill-opacity:0" cx="3005.77" cy="323.707" r="2"/>
<path clip-path="url(#clip610)" d="M1897.14 136.185 L1905.85 136.185 L1916.88 165.583 L1927.96 136.185 L1936.67 136.185 L1936.67 179.385 L1930.97 179.385 L1930.97 141.451 L1919.83 171.08 L1913.96 171.08 L1902.82 141.451 L1902.82 179.385 L1897.14 179.385 L1897.14 136.185 Z" fill="#000000" fill-rule="nonzero" fill-opacity="1" /><path clip-path="url(#clip610)" d="M1975.76 161.85 L1975.76 164.454 L1951.28 164.454 Q1951.63 169.952 1954.58 172.845 Q1957.56 175.71 1962.86 175.71 Q1965.92 175.71 1968.79 174.958 Q1971.68 174.205 1974.52 172.701 L1974.52 177.735 Q1971.65 178.951 1968.64 179.587 Q1965.63 180.224 1962.54 180.224 Q1954.78 180.224 1950.24 175.71 Q1945.73 171.196 1945.73 163.499 Q1945.73 155.542 1950.01 150.884 Q1954.32 146.196 1961.61 146.196 Q1968.15 146.196 1971.94 150.421 Q1975.76 154.616 1975.76 161.85 M1970.44 160.288 Q1970.38 155.918 1967.98 153.314 Q1965.6 150.71 1961.67 150.71 Q1957.21 150.71 1954.52 153.227 Q1951.86 155.745 1951.46 160.316 L1970.44 160.288 Z" fill="#000000" fill-rule="nonzero" fill-opacity="1" /><path clip-path="url(#clip610)" d="M1999.23 163.094 Q1992.77 163.094 1990.29 164.57 Q1987.8 166.046 1987.8 169.605 Q1987.8 172.44 1989.65 174.118 Q1991.53 175.768 1994.74 175.768 Q1999.17 175.768 2001.83 172.643 Q2004.52 169.489 2004.52 164.281 L2004.52 163.094 L1999.23 163.094 M2009.85 160.895 L2009.85 179.385 L2004.52 179.385 L2004.52 174.466 Q2002.7 177.417 1999.98 178.835 Q1997.26 180.224 1993.32 180.224 Q1988.35 180.224 1985.4 177.446 Q1982.47 174.639 1982.47 169.952 Q1982.47 164.483 1986.12 161.705 Q1989.79 158.928 1997.06 158.928 L2004.52 158.928 L2004.52 158.407 Q2004.52 154.732 2002.09 152.735 Q1999.69 150.71 1995.32 150.71 Q1992.54 150.71 1989.91 151.376 Q1987.28 152.041 1984.85 153.372 L1984.85 148.453 Q1987.77 147.325 1990.52 146.775 Q1993.27 146.196 1995.87 146.196 Q2002.9 146.196 2006.37 149.842 Q2009.85 153.488 2009.85 160.895 Z" fill="#000000" fill-rule="nonzero" fill-opacity="1" /><path clip-path="url(#clip610)" d="M2047.75 159.825 L2047.75 179.385 L2042.43 179.385 L2042.43 159.998 Q2042.43 155.397 2040.63 153.112 Q2038.84 150.826 2035.25 150.826 Q2030.94 150.826 2028.45 153.575 Q2025.96 156.323 2025.96 161.069 L2025.96 179.385 L2020.61 179.385 L2020.61 146.977 L2025.96 146.977 L2025.96 152.012 Q2027.87 149.09 2030.45 147.643 Q2033.05 146.196 2036.44 146.196 Q2042.02 146.196 2044.89 149.668 Q2047.75 153.112 2047.75 159.825 Z" fill="#000000" fill-rule="nonzero" fill-opacity="1" /><path clip-path="url(#clip610)" d="M2077.9 152.475 L2115 152.475 L2115 157.336 L2077.9 157.336 L2077.9 152.475 M2077.9 164.281 L2115 164.281 L2115 169.2 L2077.9 169.2 L2077.9 164.281 Z" fill="#000000" fill-rule="nonzero" fill-opacity="1" /><path clip-path="url(#clip610)" d="M2159.67 155.455 Q2155.74 155.455 2153.42 158.146 Q2151.14 160.837 2151.14 165.525 Q2151.14 170.183 2153.42 172.903 Q2155.74 175.594 2159.67 175.594 Q2163.61 175.594 2165.89 172.903 Q2168.21 170.183 2168.21 165.525 Q2168.21 160.837 2165.89 158.146 Q2163.61 155.455 2159.67 155.455 M2171.27 137.139 L2171.27 142.464 Q2169.08 141.422 2166.82 140.872 Q2164.59 140.322 2162.39 140.322 Q2156.6 140.322 2153.54 144.229 Q2150.5 148.135 2150.07 156.034 Q2151.77 153.517 2154.35 152.186 Q2156.92 150.826 2160.02 150.826 Q2166.53 150.826 2170.29 154.79 Q2174.08 158.725 2174.08 165.525 Q2174.08 172.18 2170.15 176.202 Q2166.21 180.224 2159.67 180.224 Q2152.18 180.224 2148.21 174.495 Q2144.25 168.737 2144.25 157.828 Q2144.25 147.585 2149.11 141.509 Q2153.97 135.403 2162.16 135.403 Q2164.36 135.403 2166.59 135.837 Q2168.84 136.271 2171.27 137.139 Z" fill="#000000" fill-rule="nonzero" fill-opacity="1" /><path clip-path="url(#clip610)" d="M2184.15 172.035 L2190.26 172.035 L2190.26 179.385 L2184.15 179.385 L2184.15 172.035 Z" fill="#000000" fill-rule="nonzero" fill-opacity="1" /><path clip-path="url(#clip610)" d="M2216.21 155.455 Q2212.28 155.455 2209.96 158.146 Q2207.67 160.837 2207.67 165.525 Q2207.67 170.183 2209.96 172.903 Q2212.28 175.594 2216.21 175.594 Q2220.15 175.594 2222.43 172.903 Q2224.75 170.183 2224.75 165.525 Q2224.75 160.837 2222.43 158.146 Q2220.15 155.455 2216.21 155.455 M2227.81 137.139 L2227.81 142.464 Q2225.61 141.422 2223.36 140.872 Q2221.13 140.322 2218.93 140.322 Q2213.14 140.322 2210.08 144.229 Q2207.04 148.135 2206.6 156.034 Q2208.31 153.517 2210.89 152.186 Q2213.46 150.826 2216.56 150.826 Q2223.07 150.826 2226.83 154.79 Q2230.62 158.725 2230.62 165.525 Q2230.62 172.18 2226.69 176.202 Q2222.75 180.224 2216.21 180.224 Q2208.72 180.224 2204.75 174.495 Q2200.79 168.737 2200.79 157.828 Q2200.79 147.585 2205.65 141.509 Q2210.51 135.403 2218.7 135.403 Q2220.9 135.403 2223.13 135.837 Q2225.38 136.271 2227.81 137.139 Z" fill="#000000" fill-rule="nonzero" fill-opacity="1" /><path clip-path="url(#clip610)" d="M2258.4 156.092 Q2262.59 156.989 2264.94 159.825 Q2267.31 162.66 2267.31 166.827 Q2267.31 173.221 2262.91 176.723 Q2258.51 180.224 2250.41 180.224 Q2247.69 180.224 2244.8 179.674 Q2241.93 179.153 2238.87 178.083 L2238.87 172.44 Q2241.3 173.858 2244.19 174.581 Q2247.08 175.305 2250.24 175.305 Q2255.74 175.305 2258.6 173.135 Q2261.49 170.965 2261.49 166.827 Q2261.49 163.007 2258.8 160.866 Q2256.14 158.696 2251.37 158.696 L2246.33 158.696 L2246.33 153.893 L2251.6 153.893 Q2255.91 153.893 2258.2 152.186 Q2260.48 150.45 2260.48 147.209 Q2260.48 143.881 2258.11 142.116 Q2255.76 140.322 2251.37 140.322 Q2248.97 140.322 2246.22 140.843 Q2243.47 141.364 2240.17 142.464 L2240.17 137.255 Q2243.5 136.329 2246.39 135.866 Q2249.31 135.403 2251.89 135.403 Q2258.54 135.403 2262.42 138.442 Q2266.3 141.451 2266.3 146.601 Q2266.3 150.189 2264.24 152.678 Q2262.19 155.137 2258.4 156.092 Z" fill="#000000" fill-rule="nonzero" fill-opacity="1" /><path clip-path="url(#clip610)" d="M2278.57 178.488 L2278.57 173.164 Q2280.76 174.205 2283.02 174.755 Q2285.28 175.305 2287.45 175.305 Q2293.24 175.305 2296.27 171.427 Q2299.34 167.521 2299.78 159.593 Q2298.1 162.081 2295.52 163.412 Q2292.95 164.744 2289.82 164.744 Q2283.34 164.744 2279.55 160.837 Q2275.79 156.902 2275.79 150.102 Q2275.79 143.447 2279.72 139.425 Q2283.66 135.403 2290.2 135.403 Q2297.69 135.403 2301.63 141.161 Q2305.59 146.891 2305.59 157.828 Q2305.59 168.042 2300.73 174.147 Q2295.9 180.224 2287.71 180.224 Q2285.51 180.224 2283.25 179.79 Q2281 179.356 2278.57 178.488 M2290.2 160.172 Q2294.13 160.172 2296.42 157.481 Q2298.73 154.79 2298.73 150.102 Q2298.73 145.444 2296.42 142.753 Q2294.13 140.033 2290.2 140.033 Q2286.26 140.033 2283.95 142.753 Q2281.66 145.444 2281.66 150.102 Q2281.66 154.79 2283.95 157.481 Q2286.26 160.172 2290.2 160.172 Z" fill="#000000" fill-rule="nonzero" fill-opacity="1" /><path clip-path="url(#clip610)" d="M1902.99 210.703 L1902.99 244.297 L1910.05 244.297 Q1918.99 244.297 1923.13 240.246 Q1927.29 236.195 1927.29 227.456 Q1927.29 218.776 1923.13 214.754 Q1918.99 210.703 1910.05 210.703 L1902.99 210.703 M1897.14 205.9 L1909.15 205.9 Q1921.71 205.9 1927.58 211.137 Q1933.46 216.345 1933.46 227.456 Q1933.46 238.625 1927.55 243.862 Q1921.65 249.1 1909.15 249.1 L1897.14 249.1 L1897.14 205.9 Z" fill="#000000" fill-rule="nonzero" fill-opacity="1" /><path clip-path="url(#clip610)" d="M1942.54 216.692 L1947.87 216.692 L1947.87 249.1 L1942.54 249.1 L1942.54 216.692 M1942.54 204.077 L1947.87 204.077 L1947.87 210.819 L1942.54 210.819 L1942.54 204.077 Z" fill="#000000" fill-rule="nonzero" fill-opacity="1" /><path clip-path="url(#clip610)" d="M1979.67 217.647 L1979.67 222.682 Q1977.41 221.525 1974.98 220.946 Q1972.55 220.367 1969.94 220.367 Q1965.98 220.367 1963.98 221.583 Q1962.02 222.798 1962.02 225.228 Q1962.02 227.08 1963.43 228.151 Q1964.85 229.192 1969.13 230.147 L1970.96 230.552 Q1976.63 231.768 1979 233.996 Q1981.4 236.195 1981.4 240.159 Q1981.4 244.673 1977.82 247.306 Q1974.26 249.939 1968.01 249.939 Q1965.4 249.939 1962.57 249.418 Q1959.76 248.926 1956.63 247.913 L1956.63 242.416 Q1959.59 243.949 1962.45 244.731 Q1965.32 245.483 1968.12 245.483 Q1971.88 245.483 1973.91 244.21 Q1975.93 242.908 1975.93 240.564 Q1975.93 238.394 1974.46 237.236 Q1973.01 236.079 1968.06 235.008 L1966.21 234.574 Q1961.26 233.533 1959.07 231.391 Q1956.87 229.221 1956.87 225.46 Q1956.87 220.888 1960.11 218.4 Q1963.35 215.911 1969.31 215.911 Q1972.26 215.911 1974.86 216.345 Q1977.47 216.779 1979.67 217.647 Z" fill="#000000" fill-rule="nonzero" fill-opacity="1" /><path clip-path="url(#clip610)" d="M1995.15 207.491 L1995.15 216.692 L2006.11 216.692 L2006.11 220.83 L1995.15 220.83 L1995.15 238.423 Q1995.15 242.387 1996.22 243.515 Q1997.32 244.644 2000.64 244.644 L2006.11 244.644 L2006.11 249.1 L2000.64 249.1 Q1994.48 249.1 1992.14 246.814 Q1989.79 244.499 1989.79 238.423 L1989.79 220.83 L1985.89 220.83 L1985.89 216.692 L1989.79 216.692 L1989.79 207.491 L1995.15 207.491 Z" fill="#000000" fill-rule="nonzero" fill-opacity="1" /><path clip-path="url(#clip610)" d="M2032.65 222.19 L2069.74 222.19 L2069.74 227.051 L2032.65 227.051 L2032.65 222.19 M2032.65 233.996 L2069.74 233.996 L2069.74 238.915 L2032.65 238.915 L2032.65 233.996 Z" fill="#000000" fill-rule="nonzero" fill-opacity="1" /><path clip-path="url(#clip610)" d="M2113.69 209.748 Q2109.18 209.748 2106.89 214.204 Q2104.64 218.631 2104.64 227.543 Q2104.64 236.426 2106.89 240.882 Q2109.18 245.309 2113.69 245.309 Q2118.24 245.309 2120.49 240.882 Q2122.78 236.426 2122.78 227.543 Q2122.78 218.631 2120.49 214.204 Q2118.24 209.748 2113.69 209.748 M2113.69 205.118 Q2120.96 205.118 2124.78 210.877 Q2128.62 216.606 2128.62 227.543 Q2128.62 238.452 2124.78 244.21 Q2120.96 249.939 2113.69 249.939 Q2106.43 249.939 2102.58 244.21 Q2098.76 238.452 2098.76 227.543 Q2098.76 216.606 2102.58 210.877 Q2106.43 205.118 2113.69 205.118 Z" fill="#000000" fill-rule="nonzero" fill-opacity="1" /><path clip-path="url(#clip610)" d="M2138.9 241.75 L2145 241.75 L2145 249.1 L2138.9 249.1 L2138.9 241.75 Z" fill="#000000" fill-rule="nonzero" fill-opacity="1" /><path clip-path="url(#clip610)" d="M2170.23 209.748 Q2165.72 209.748 2163.43 214.204 Q2161.18 218.631 2161.18 227.543 Q2161.18 236.426 2163.43 240.882 Q2165.72 245.309 2170.23 245.309 Q2174.78 245.309 2177.03 240.882 Q2179.32 236.426 2179.32 227.543 Q2179.32 218.631 2177.03 214.204 Q2174.78 209.748 2170.23 209.748 M2170.23 205.118 Q2177.5 205.118 2181.32 210.877 Q2185.16 216.606 2185.16 227.543 Q2185.16 238.452 2181.32 244.21 Q2177.5 249.939 2170.23 249.939 Q2162.97 249.939 2159.12 244.21 Q2155.3 238.452 2155.3 227.543 Q2155.3 216.606 2159.12 210.877 Q2162.97 205.118 2170.23 205.118 Z" fill="#000000" fill-rule="nonzero" fill-opacity="1" /><path clip-path="url(#clip610)" d="M2196.45 244.181 L2206 244.181 L2206 211.224 L2195.61 213.307 L2195.61 207.983 L2205.94 205.9 L2211.78 205.9 L2211.78 244.181 L2221.33 244.181 L2221.33 249.1 L2196.45 249.1 L2196.45 244.181 Z" fill="#000000" fill-rule="nonzero" fill-opacity="1" /><path clip-path="url(#clip610)" d="M2233.31 248.203 L2233.31 242.879 Q2235.51 243.92 2237.77 244.47 Q2240.02 245.02 2242.19 245.02 Q2247.98 245.02 2251.02 241.143 Q2254.09 237.236 2254.52 229.308 Q2252.84 231.797 2250.27 233.128 Q2247.69 234.459 2244.57 234.459 Q2238.09 234.459 2234.3 230.552 Q2230.53 226.617 2230.53 219.817 Q2230.53 213.162 2234.47 209.14 Q2238.4 205.118 2244.94 205.118 Q2252.44 205.118 2256.37 210.877 Q2260.34 216.606 2260.34 227.543 Q2260.34 237.757 2255.48 243.862 Q2250.64 249.939 2242.45 249.939 Q2240.26 249.939 2238 249.505 Q2235.74 249.071 2233.31 248.203 M2244.94 229.887 Q2248.88 229.887 2251.16 227.196 Q2253.48 224.505 2253.48 219.817 Q2253.48 215.159 2251.16 212.468 Q2248.88 209.748 2244.94 209.748 Q2241.01 209.748 2238.69 212.468 Q2236.41 215.159 2236.41 219.817 Q2236.41 224.505 2238.69 227.196 Q2241.01 229.887 2244.94 229.887 Z" fill="#000000" fill-rule="nonzero" fill-opacity="1" /><path clip-path="url(#clip610)" d="M3424.06 1273.23 L4752.76 1273.23 L4752.76 88.0695 L3424.06 88.0695  Z" fill="#ffffff" fill-rule="evenodd" fill-opacity="1"/>
<defs>
  <clipPath id="clip614">
    <rect x="3424" y="88" width="1330" height="1186"/>
  </clipPath>
</defs>
<polyline clip-path="url(#clip614)" style="stroke:#000000; stroke-linecap:round; stroke-linejoin:round; stroke-width:2; stroke-opacity:0.1; fill:none" points="3571.05,1273.23 3571.05,88.0695 "/>
<polyline clip-path="url(#clip614)" style="stroke:#000000; stroke-linecap:round; stroke-linejoin:round; stroke-width:2; stroke-opacity:0.1; fill:none" points="3718.87,1273.23 3718.87,88.0695 "/>
<polyline clip-path="url(#clip614)" style="stroke:#000000; stroke-linecap:round; stroke-linejoin:round; stroke-width:2; stroke-opacity:0.1; fill:none" points="3866.69,1273.23 3866.69,88.0695 "/>
<polyline clip-path="url(#clip614)" style="stroke:#000000; stroke-linecap:round; stroke-linejoin:round; stroke-width:2; stroke-opacity:0.1; fill:none" points="4014.5,1273.23 4014.5,88.0695 "/>
<polyline clip-path="url(#clip614)" style="stroke:#000000; stroke-linecap:round; stroke-linejoin:round; stroke-width:2; stroke-opacity:0.1; fill:none" points="4162.32,1273.23 4162.32,88.0695 "/>
<polyline clip-path="url(#clip614)" style="stroke:#000000; stroke-linecap:round; stroke-linejoin:round; stroke-width:2; stroke-opacity:0.1; fill:none" points="4310.13,1273.23 4310.13,88.0695 "/>
<polyline clip-path="url(#clip614)" style="stroke:#000000; stroke-linecap:round; stroke-linejoin:round; stroke-width:2; stroke-opacity:0.1; fill:none" points="4457.95,1273.23 4457.95,88.0695 "/>
<polyline clip-path="url(#clip614)" style="stroke:#000000; stroke-linecap:round; stroke-linejoin:round; stroke-width:2; stroke-opacity:0.1; fill:none" points="4605.77,1273.23 4605.77,88.0695 "/>
<polyline clip-path="url(#clip610)" style="stroke:#000000; stroke-linecap:round; stroke-linejoin:round; stroke-width:4; stroke-opacity:1; fill:none" points="3424.06,1273.23 4752.76,1273.23 "/>
<polyline clip-path="url(#clip610)" style="stroke:#000000; stroke-linecap:round; stroke-linejoin:round; stroke-width:4; stroke-opacity:1; fill:none" points="3571.05,1273.23 3571.05,1254.33 "/>
<polyline clip-path="url(#clip610)" style="stroke:#000000; stroke-linecap:round; stroke-linejoin:round; stroke-width:4; stroke-opacity:1; fill:none" points="3718.87,1273.23 3718.87,1254.33 "/>
<polyline clip-path="url(#clip610)" style="stroke:#000000; stroke-linecap:round; stroke-linejoin:round; stroke-width:4; stroke-opacity:1; fill:none" points="3866.69,1273.23 3866.69,1254.33 "/>
<polyline clip-path="url(#clip610)" style="stroke:#000000; stroke-linecap:round; stroke-linejoin:round; stroke-width:4; stroke-opacity:1; fill:none" points="4014.5,1273.23 4014.5,1254.33 "/>
<polyline clip-path="url(#clip610)" style="stroke:#000000; stroke-linecap:round; stroke-linejoin:round; stroke-width:4; stroke-opacity:1; fill:none" points="4162.32,1273.23 4162.32,1254.33 "/>
<polyline clip-path="url(#clip610)" style="stroke:#000000; stroke-linecap:round; stroke-linejoin:round; stroke-width:4; stroke-opacity:1; fill:none" points="4310.13,1273.23 4310.13,1254.33 "/>
<polyline clip-path="url(#clip610)" style="stroke:#000000; stroke-linecap:round; stroke-linejoin:round; stroke-width:4; stroke-opacity:1; fill:none" points="4457.95,1273.23 4457.95,1254.33 "/>
<polyline clip-path="url(#clip610)" style="stroke:#000000; stroke-linecap:round; stroke-linejoin:round; stroke-width:4; stroke-opacity:1; fill:none" points="4605.77,1273.23 4605.77,1254.33 "/>
<g clip-path="url(#clip610)">
<text style="fill:#000000; fill-opacity:1; font-family:Century Gothic,CenturyGothic,AppleGothic,sans-serif; font-size:47px; text-anchor:middle;" transform="rotate(0, 3571.05, 1353.69)" x="3571.05" y="1353.69">0</text>
</g>
<g clip-path="url(#clip610)">
<text style="fill:#000000; fill-opacity:1; font-family:Century Gothic,CenturyGothic,AppleGothic,sans-serif; font-size:47px; text-anchor:middle;" transform="rotate(0, 3718.87, 1353.69)" x="3718.87" y="1353.69">1</text>
</g>
<g clip-path="url(#clip610)">
<text style="fill:#000000; fill-opacity:1; font-family:Century Gothic,CenturyGothic,AppleGothic,sans-serif; font-size:47px; text-anchor:middle;" transform="rotate(0, 3866.69, 1353.69)" x="3866.69" y="1353.69">2</text>
</g>
<g clip-path="url(#clip610)">
<text style="fill:#000000; fill-opacity:1; font-family:Century Gothic,CenturyGothic,AppleGothic,sans-serif; font-size:47px; text-anchor:middle;" transform="rotate(0, 4014.5, 1353.69)" x="4014.5" y="1353.69">3</text>
</g>
<g clip-path="url(#clip610)">
<text style="fill:#000000; fill-opacity:1; font-family:Century Gothic,CenturyGothic,AppleGothic,sans-serif; font-size:47px; text-anchor:middle;" transform="rotate(0, 4162.32, 1353.69)" x="4162.32" y="1353.69">4</text>
</g>
<g clip-path="url(#clip610)">
<text style="fill:#000000; fill-opacity:1; font-family:Century Gothic,CenturyGothic,AppleGothic,sans-serif; font-size:47px; text-anchor:middle;" transform="rotate(0, 4310.13, 1353.69)" x="4310.13" y="1353.69">5</text>
</g>
<g clip-path="url(#clip610)">
<text style="fill:#000000; fill-opacity:1; font-family:Century Gothic,CenturyGothic,AppleGothic,sans-serif; font-size:47px; text-anchor:middle;" transform="rotate(0, 4457.95, 1353.69)" x="4457.95" y="1353.69">6</text>
</g>
<g clip-path="url(#clip610)">
<text style="fill:#000000; fill-opacity:1; font-family:Century Gothic,CenturyGothic,AppleGothic,sans-serif; font-size:47px; text-anchor:middle;" transform="rotate(0, 4605.77, 1353.69)" x="4605.77" y="1353.69">7</text>
</g>
<g clip-path="url(#clip610)">
<text style="fill:#000000; fill-opacity:1; font-family:Century Gothic,CenturyGothic,AppleGothic,sans-serif; font-size:65px; text-anchor:middle;" transform="rotate(0, 4088.41, 1452.31)" x="4088.41" y="1452.31">中心推定の正解数</text>
</g>
<polyline clip-path="url(#clip614)" style="stroke:#000000; stroke-linecap:round; stroke-linejoin:round; stroke-width:2; stroke-opacity:0.1; fill:none" points="3424.06,1273.23 4752.76,1273.23 "/>
<polyline clip-path="url(#clip614)" style="stroke:#000000; stroke-linecap:round; stroke-linejoin:round; stroke-width:2; stroke-opacity:0.1; fill:none" points="3424.06,994.366 4752.76,994.366 "/>
<polyline clip-path="url(#clip614)" style="stroke:#000000; stroke-linecap:round; stroke-linejoin:round; stroke-width:2; stroke-opacity:0.1; fill:none" points="3424.06,715.505 4752.76,715.505 "/>
<polyline clip-path="url(#clip614)" style="stroke:#000000; stroke-linecap:round; stroke-linejoin:round; stroke-width:2; stroke-opacity:0.1; fill:none" points="3424.06,436.645 4752.76,436.645 "/>
<polyline clip-path="url(#clip614)" style="stroke:#000000; stroke-linecap:round; stroke-linejoin:round; stroke-width:2; stroke-opacity:0.1; fill:none" points="3424.06,157.785 4752.76,157.785 "/>
<polyline clip-path="url(#clip610)" style="stroke:#000000; stroke-linecap:round; stroke-linejoin:round; stroke-width:4; stroke-opacity:1; fill:none" points="3424.06,1273.23 3424.06,88.0695 "/>
<polyline clip-path="url(#clip610)" style="stroke:#000000; stroke-linecap:round; stroke-linejoin:round; stroke-width:4; stroke-opacity:1; fill:none" points="3424.06,1273.23 3442.96,1273.23 "/>
<polyline clip-path="url(#clip610)" style="stroke:#000000; stroke-linecap:round; stroke-linejoin:round; stroke-width:4; stroke-opacity:1; fill:none" points="3424.06,994.366 3442.96,994.366 "/>
<polyline clip-path="url(#clip610)" style="stroke:#000000; stroke-linecap:round; stroke-linejoin:round; stroke-width:4; stroke-opacity:1; fill:none" points="3424.06,715.505 3442.96,715.505 "/>
<polyline clip-path="url(#clip610)" style="stroke:#000000; stroke-linecap:round; stroke-linejoin:round; stroke-width:4; stroke-opacity:1; fill:none" points="3424.06,436.645 3442.96,436.645 "/>
<polyline clip-path="url(#clip610)" style="stroke:#000000; stroke-linecap:round; stroke-linejoin:round; stroke-width:4; stroke-opacity:1; fill:none" points="3424.06,157.785 3442.96,157.785 "/>
<g clip-path="url(#clip610)">
<text style="fill:#000000; fill-opacity:1; font-family:Century Gothic,CenturyGothic,AppleGothic,sans-serif; font-size:47px; text-anchor:middle;" transform="rotate(0, 3339.13, 1290.73)" x="3339.13" y="1290.73">0</text>
</g>
<g clip-path="url(#clip610)">
<text style="fill:#000000; fill-opacity:1; font-family:Century Gothic,CenturyGothic,AppleGothic,sans-serif; font-size:47px; text-anchor:middle;" transform="rotate(0, 3313.25, 1011.87)" x="3313.25" y="1011.87">200</text>
</g>
<g clip-path="url(#clip610)">
<text style="fill:#000000; fill-opacity:1; font-family:Century Gothic,CenturyGothic,AppleGothic,sans-serif; font-size:47px; text-anchor:middle;" transform="rotate(0, 3313.25, 733.005)" x="3313.25" y="733.005">400</text>
</g>
<g clip-path="url(#clip610)">
<text style="fill:#000000; fill-opacity:1; font-family:Century Gothic,CenturyGothic,AppleGothic,sans-serif; font-size:47px; text-anchor:middle;" transform="rotate(0, 3313.25, 454.145)" x="3313.25" y="454.145">600</text>
</g>
<g clip-path="url(#clip610)">
<text style="fill:#000000; fill-opacity:1; font-family:Century Gothic,CenturyGothic,AppleGothic,sans-serif; font-size:47px; text-anchor:middle;" transform="rotate(0, 3313.25, 175.285)" x="3313.25" y="175.285">800</text>
</g>
<g clip-path="url(#clip610)">
<text style="fill:#000000; fill-opacity:1; font-family:Century Gothic,CenturyGothic,AppleGothic,sans-serif; font-size:65px; text-anchor:middle;" transform="rotate(-90, 3192.49, 680.648)" x="3192.49" y="680.648">度数</text>
</g>
<g clip-path="url(#clip610)">
<text style="fill:#000000; fill-opacity:1; font-family:Century Gothic,CenturyGothic,AppleGothic,sans-serif; font-size:81px; text-anchor:middle;" transform="rotate(0, 4088.41, 72)" x="4088.41" y="72">Setting : C, Method : LM</text>
</g>
<path clip-path="url(#clip614)" d="M3497.14 1273.23 L3497.14 1273.23 L3644.96 1273.23 L3644.96 1273.23 L3497.14 1273.23 L3497.14 1273.23  Z" fill="#009af9" fill-rule="evenodd" fill-opacity="1"/>
<polyline clip-path="url(#clip614)" style="stroke:#000000; stroke-linecap:round; stroke-linejoin:round; stroke-width:4; stroke-opacity:1; fill:none" points="3497.14,1273.23 3497.14,1273.23 3644.96,1273.23 3497.14,1273.23 "/>
<path clip-path="url(#clip614)" d="M3644.96 1273.23 L3644.96 1273.23 L3792.78 1273.23 L3792.78 1273.23 L3644.96 1273.23 L3644.96 1273.23  Z" fill="#009af9" fill-rule="evenodd" fill-opacity="1"/>
<polyline clip-path="url(#clip614)" style="stroke:#000000; stroke-linecap:round; stroke-linejoin:round; stroke-width:4; stroke-opacity:1; fill:none" points="3644.96,1273.23 3644.96,1273.23 3792.78,1273.23 3644.96,1273.23 "/>
<path clip-path="url(#clip614)" d="M3792.78 1271.83 L3792.78 1273.23 L3940.59 1273.23 L3940.59 1271.83 L3792.78 1271.83 L3792.78 1271.83  Z" fill="#009af9" fill-rule="evenodd" fill-opacity="1"/>
<polyline clip-path="url(#clip614)" style="stroke:#000000; stroke-linecap:round; stroke-linejoin:round; stroke-width:4; stroke-opacity:1; fill:none" points="3792.78,1271.83 3792.78,1273.23 3940.59,1273.23 3940.59,1271.83 3792.78,1271.83 "/>
<path clip-path="url(#clip614)" d="M3940.59 1246.73 L3940.59 1273.23 L4088.41 1273.23 L4088.41 1246.73 L3940.59 1246.73 L3940.59 1246.73  Z" fill="#009af9" fill-rule="evenodd" fill-opacity="1"/>
<polyline clip-path="url(#clip614)" style="stroke:#000000; stroke-linecap:round; stroke-linejoin:round; stroke-width:4; stroke-opacity:1; fill:none" points="3940.59,1246.73 3940.59,1273.23 4088.41,1273.23 4088.41,1246.73 3940.59,1246.73 "/>
<path clip-path="url(#clip614)" d="M4088.41 1149.13 L4088.41 1273.23 L4236.23 1273.23 L4236.23 1149.13 L4088.41 1149.13 L4088.41 1149.13  Z" fill="#009af9" fill-rule="evenodd" fill-opacity="1"/>
<polyline clip-path="url(#clip614)" style="stroke:#000000; stroke-linecap:round; stroke-linejoin:round; stroke-width:4; stroke-opacity:1; fill:none" points="4088.41,1149.13 4088.41,1273.23 4236.23,1273.23 4236.23,1149.13 4088.41,1149.13 "/>
<path clip-path="url(#clip614)" d="M4236.23 902.342 L4236.23 1273.23 L4384.04 1273.23 L4384.04 902.342 L4236.23 902.342 L4236.23 902.342  Z" fill="#009af9" fill-rule="evenodd" fill-opacity="1"/>
<polyline clip-path="url(#clip614)" style="stroke:#000000; stroke-linecap:round; stroke-linejoin:round; stroke-width:4; stroke-opacity:1; fill:none" points="4236.23,902.342 4236.23,1273.23 4384.04,1273.23 4384.04,902.342 4236.23,902.342 "/>
<path clip-path="url(#clip614)" d="M4384.04 789.403 L4384.04 1273.23 L4531.86 1273.23 L4531.86 789.403 L4384.04 789.403 L4384.04 789.403  Z" fill="#009af9" fill-rule="evenodd" fill-opacity="1"/>
<polyline clip-path="url(#clip614)" style="stroke:#000000; stroke-linecap:round; stroke-linejoin:round; stroke-width:4; stroke-opacity:1; fill:none" points="4384.04,789.403 4384.04,1273.23 4531.86,1273.23 4531.86,789.403 4384.04,789.403 "/>
<path clip-path="url(#clip614)" d="M4531.86 885.61 L4531.86 1273.23 L4679.68 1273.23 L4679.68 885.61 L4531.86 885.61 L4531.86 885.61  Z" fill="#009af9" fill-rule="evenodd" fill-opacity="1"/>
<polyline clip-path="url(#clip614)" style="stroke:#000000; stroke-linecap:round; stroke-linejoin:round; stroke-width:4; stroke-opacity:1; fill:none" points="4531.86,885.61 4531.86,1273.23 4679.68,1273.23 4679.68,885.61 4531.86,885.61 "/>
<circle clip-path="url(#clip614)" style="fill:#009af9; stroke:none; fill-opacity:0" cx="3571.05" cy="1273.23" r="2"/>
<circle clip-path="url(#clip614)" style="fill:#009af9; stroke:none; fill-opacity:0" cx="3718.87" cy="1273.23" r="2"/>
<circle clip-path="url(#clip614)" style="fill:#009af9; stroke:none; fill-opacity:0" cx="3866.69" cy="1271.83" r="2"/>
<circle clip-path="url(#clip614)" style="fill:#009af9; stroke:none; fill-opacity:0" cx="4014.5" cy="1246.73" r="2"/>
<circle clip-path="url(#clip614)" style="fill:#009af9; stroke:none; fill-opacity:0" cx="4162.32" cy="1149.13" r="2"/>
<circle clip-path="url(#clip614)" style="fill:#009af9; stroke:none; fill-opacity:0" cx="4310.13" cy="902.342" r="2"/>
<circle clip-path="url(#clip614)" style="fill:#009af9; stroke:none; fill-opacity:0" cx="4457.95" cy="789.403" r="2"/>
<circle clip-path="url(#clip614)" style="fill:#009af9; stroke:none; fill-opacity:0" cx="4605.77" cy="885.61" r="2"/>
<path clip-path="url(#clip610)" d="M3497.14 136.185 L3505.85 136.185 L3516.88 165.583 L3527.96 136.185 L3536.67 136.185 L3536.67 179.385 L3530.97 179.385 L3530.97 141.451 L3519.83 171.08 L3513.96 171.08 L3502.82 141.451 L3502.82 179.385 L3497.14 179.385 L3497.14 136.185 Z" fill="#000000" fill-rule="nonzero" fill-opacity="1" /><path clip-path="url(#clip610)" d="M3575.76 161.85 L3575.76 164.454 L3551.28 164.454 Q3551.63 169.952 3554.58 172.845 Q3557.56 175.71 3562.86 175.71 Q3565.92 175.71 3568.79 174.958 Q3571.68 174.205 3574.52 172.701 L3574.52 177.735 Q3571.65 178.951 3568.64 179.587 Q3565.63 180.224 3562.54 180.224 Q3554.78 180.224 3550.24 175.71 Q3545.73 171.196 3545.73 163.499 Q3545.73 155.542 3550.01 150.884 Q3554.32 146.196 3561.61 146.196 Q3568.15 146.196 3571.94 150.421 Q3575.76 154.616 3575.76 161.85 M3570.44 160.288 Q3570.38 155.918 3567.98 153.314 Q3565.6 150.71 3561.67 150.71 Q3557.21 150.71 3554.52 153.227 Q3551.86 155.745 3551.46 160.316 L3570.44 160.288 Z" fill="#000000" fill-rule="nonzero" fill-opacity="1" /><path clip-path="url(#clip610)" d="M3599.23 163.094 Q3592.77 163.094 3590.29 164.57 Q3587.8 166.046 3587.8 169.605 Q3587.8 172.44 3589.65 174.118 Q3591.53 175.768 3594.74 175.768 Q3599.17 175.768 3601.83 172.643 Q3604.52 169.489 3604.52 164.281 L3604.52 163.094 L3599.23 163.094 M3609.85 160.895 L3609.85 179.385 L3604.52 179.385 L3604.52 174.466 Q3602.7 177.417 3599.98 178.835 Q3597.26 180.224 3593.32 180.224 Q3588.35 180.224 3585.4 177.446 Q3582.47 174.639 3582.47 169.952 Q3582.47 164.483 3586.12 161.705 Q3589.79 158.928 3597.06 158.928 L3604.52 158.928 L3604.52 158.407 Q3604.52 154.732 3602.09 152.735 Q3599.69 150.71 3595.32 150.71 Q3592.54 150.71 3589.91 151.376 Q3587.28 152.041 3584.85 153.372 L3584.85 148.453 Q3587.77 147.325 3590.52 146.775 Q3593.27 146.196 3595.87 146.196 Q3602.9 146.196 3606.37 149.842 Q3609.85 153.488 3609.85 160.895 Z" fill="#000000" fill-rule="nonzero" fill-opacity="1" /><path clip-path="url(#clip610)" d="M3647.75 159.825 L3647.75 179.385 L3642.43 179.385 L3642.43 159.998 Q3642.43 155.397 3640.63 153.112 Q3638.84 150.826 3635.25 150.826 Q3630.94 150.826 3628.45 153.575 Q3625.96 156.323 3625.96 161.069 L3625.96 179.385 L3620.61 179.385 L3620.61 146.977 L3625.96 146.977 L3625.96 152.012 Q3627.87 149.09 3630.45 147.643 Q3633.05 146.196 3636.44 146.196 Q3642.02 146.196 3644.89 149.668 Q3647.75 153.112 3647.75 159.825 Z" fill="#000000" fill-rule="nonzero" fill-opacity="1" /><path clip-path="url(#clip610)" d="M3677.9 152.475 L3715 152.475 L3715 157.336 L3677.9 157.336 L3677.9 152.475 M3677.9 164.281 L3715 164.281 L3715 169.2 L3677.9 169.2 L3677.9 164.281 Z" fill="#000000" fill-rule="nonzero" fill-opacity="1" /><path clip-path="url(#clip610)" d="M3746.51 136.185 L3769.45 136.185 L3769.45 141.104 L3751.86 141.104 L3751.86 151.694 Q3753.13 151.26 3754.41 151.057 Q3755.68 150.826 3756.95 150.826 Q3764.19 150.826 3768.41 154.79 Q3772.63 158.754 3772.63 165.525 Q3772.63 172.498 3768.29 176.375 Q3763.95 180.224 3756.05 180.224 Q3753.33 180.224 3750.5 179.761 Q3747.69 179.298 3744.68 178.372 L3744.68 172.498 Q3747.29 173.916 3750.07 174.61 Q3752.84 175.305 3755.94 175.305 Q3760.94 175.305 3763.87 172.672 Q3766.79 170.039 3766.79 165.525 Q3766.79 161.011 3763.87 158.378 Q3760.94 155.745 3755.94 155.745 Q3753.6 155.745 3751.25 156.266 Q3748.94 156.786 3746.51 157.886 L3746.51 136.185 Z" fill="#000000" fill-rule="nonzero" fill-opacity="1" /><path clip-path="url(#clip610)" d="M3784.15 172.035 L3790.26 172.035 L3790.26 179.385 L3784.15 179.385 L3784.15 172.035 Z" fill="#000000" fill-rule="nonzero" fill-opacity="1" /><path clip-path="url(#clip610)" d="M3801.51 136.185 L3829.29 136.185 L3829.29 138.673 L3813.61 179.385 L3807.5 179.385 L3822.26 141.104 L3801.51 141.104 L3801.51 136.185 Z" fill="#000000" fill-rule="nonzero" fill-opacity="1" /><path clip-path="url(#clip610)" d="M3839.21 136.185 L3866.99 136.185 L3866.99 138.673 L3851.31 179.385 L3845.2 179.385 L3859.96 141.104 L3839.21 141.104 L3839.21 136.185 Z" fill="#000000" fill-rule="nonzero" fill-opacity="1" /><path clip-path="url(#clip610)" d="M3896.1 156.092 Q3900.3 156.989 3902.64 159.825 Q3905.01 162.66 3905.01 166.827 Q3905.01 173.221 3900.61 176.723 Q3896.22 180.224 3888.11 180.224 Q3885.39 180.224 3882.5 179.674 Q3879.64 179.153 3876.57 178.083 L3876.57 172.44 Q3879 173.858 3881.89 174.581 Q3884.79 175.305 3887.94 175.305 Q3893.44 175.305 3896.3 173.135 Q3899.2 170.965 3899.2 166.827 Q3899.2 163.007 3896.51 160.866 Q3893.84 158.696 3889.07 158.696 L3884.03 158.696 L3884.03 153.893 L3889.3 153.893 Q3893.61 153.893 3895.9 152.186 Q3898.18 150.45 3898.18 147.209 Q3898.18 143.881 3895.81 142.116 Q3893.47 140.322 3889.07 140.322 Q3886.67 140.322 3883.92 140.843 Q3881.17 141.364 3877.87 142.464 L3877.87 137.255 Q3881.2 136.329 3884.09 135.866 Q3887.01 135.403 3889.59 135.403 Q3896.25 135.403 3900.12 138.442 Q3904 141.451 3904 146.601 Q3904 150.189 3901.95 152.678 Q3899.89 155.137 3896.1 156.092 Z" fill="#000000" fill-rule="nonzero" fill-opacity="1" /><path clip-path="url(#clip610)" d="M3502.99 210.703 L3502.99 244.297 L3510.05 244.297 Q3518.99 244.297 3523.13 240.246 Q3527.29 236.195 3527.29 227.456 Q3527.29 218.776 3523.13 214.754 Q3518.99 210.703 3510.05 210.703 L3502.99 210.703 M3497.14 205.9 L3509.15 205.9 Q3521.71 205.9 3527.58 211.137 Q3533.46 216.345 3533.46 227.456 Q3533.46 238.625 3527.55 243.862 Q3521.65 249.1 3509.15 249.1 L3497.14 249.1 L3497.14 205.9 Z" fill="#000000" fill-rule="nonzero" fill-opacity="1" /><path clip-path="url(#clip610)" d="M3542.54 216.692 L3547.87 216.692 L3547.87 249.1 L3542.54 249.1 L3542.54 216.692 M3542.54 204.077 L3547.87 204.077 L3547.87 210.819 L3542.54 210.819 L3542.54 204.077 Z" fill="#000000" fill-rule="nonzero" fill-opacity="1" /><path clip-path="url(#clip610)" d="M3579.67 217.647 L3579.67 222.682 Q3577.41 221.525 3574.98 220.946 Q3572.55 220.367 3569.94 220.367 Q3565.98 220.367 3563.98 221.583 Q3562.02 222.798 3562.02 225.228 Q3562.02 227.08 3563.43 228.151 Q3564.85 229.192 3569.13 230.147 L3570.96 230.552 Q3576.63 231.768 3579 233.996 Q3581.4 236.195 3581.4 240.159 Q3581.4 244.673 3577.82 247.306 Q3574.26 249.939 3568.01 249.939 Q3565.4 249.939 3562.57 249.418 Q3559.76 248.926 3556.63 247.913 L3556.63 242.416 Q3559.59 243.949 3562.45 244.731 Q3565.32 245.483 3568.12 245.483 Q3571.88 245.483 3573.91 244.21 Q3575.93 242.908 3575.93 240.564 Q3575.93 238.394 3574.46 237.236 Q3573.01 236.079 3568.06 235.008 L3566.21 234.574 Q3561.26 233.533 3559.07 231.391 Q3556.87 229.221 3556.87 225.46 Q3556.87 220.888 3560.11 218.4 Q3563.35 215.911 3569.31 215.911 Q3572.26 215.911 3574.86 216.345 Q3577.47 216.779 3579.67 217.647 Z" fill="#000000" fill-rule="nonzero" fill-opacity="1" /><path clip-path="url(#clip610)" d="M3595.15 207.491 L3595.15 216.692 L3606.11 216.692 L3606.11 220.83 L3595.15 220.83 L3595.15 238.423 Q3595.15 242.387 3596.22 243.515 Q3597.32 244.644 3600.64 244.644 L3606.11 244.644 L3606.11 249.1 L3600.64 249.1 Q3594.48 249.1 3592.14 246.814 Q3589.79 244.499 3589.79 238.423 L3589.79 220.83 L3585.89 220.83 L3585.89 216.692 L3589.79 216.692 L3589.79 207.491 L3595.15 207.491 Z" fill="#000000" fill-rule="nonzero" fill-opacity="1" /><path clip-path="url(#clip610)" d="M3632.65 222.19 L3669.74 222.19 L3669.74 227.051 L3632.65 227.051 L3632.65 222.19 M3632.65 233.996 L3669.74 233.996 L3669.74 238.915 L3632.65 238.915 L3632.65 233.996 Z" fill="#000000" fill-rule="nonzero" fill-opacity="1" /><path clip-path="url(#clip610)" d="M3713.69 209.748 Q3709.18 209.748 3706.89 214.204 Q3704.64 218.631 3704.64 227.543 Q3704.64 236.426 3706.89 240.882 Q3709.18 245.309 3713.69 245.309 Q3718.24 245.309 3720.49 240.882 Q3722.78 236.426 3722.78 227.543 Q3722.78 218.631 3720.49 214.204 Q3718.24 209.748 3713.69 209.748 M3713.69 205.118 Q3720.96 205.118 3724.78 210.877 Q3728.62 216.606 3728.62 227.543 Q3728.62 238.452 3724.78 244.21 Q3720.96 249.939 3713.69 249.939 Q3706.43 249.939 3702.58 244.21 Q3698.76 238.452 3698.76 227.543 Q3698.76 216.606 3702.58 210.877 Q3706.43 205.118 3713.69 205.118 Z" fill="#000000" fill-rule="nonzero" fill-opacity="1" /><path clip-path="url(#clip610)" d="M3738.9 241.75 L3745 241.75 L3745 249.1 L3738.9 249.1 L3738.9 241.75 Z" fill="#000000" fill-rule="nonzero" fill-opacity="1" /><path clip-path="url(#clip610)" d="M3770.23 209.748 Q3765.72 209.748 3763.43 214.204 Q3761.18 218.631 3761.18 227.543 Q3761.18 236.426 3763.43 240.882 Q3765.72 245.309 3770.23 245.309 Q3774.78 245.309 3777.03 240.882 Q3779.32 236.426 3779.32 227.543 Q3779.32 218.631 3777.03 214.204 Q3774.78 209.748 3770.23 209.748 M3770.23 205.118 Q3777.5 205.118 3781.32 210.877 Q3785.16 216.606 3785.16 227.543 Q3785.16 238.452 3781.32 244.21 Q3777.5 249.939 3770.23 249.939 Q3762.97 249.939 3759.12 244.21 Q3755.3 238.452 3755.3 227.543 Q3755.3 216.606 3759.12 210.877 Q3762.97 205.118 3770.23 205.118 Z" fill="#000000" fill-rule="nonzero" fill-opacity="1" /><path clip-path="url(#clip610)" d="M3800.47 244.181 L3820.87 244.181 L3820.87 249.1 L3793.44 249.1 L3793.44 244.181 Q3796.77 240.738 3802.5 234.951 Q3808.25 229.135 3809.73 227.456 Q3812.54 224.302 3813.64 222.132 Q3814.76 219.933 3814.76 217.821 Q3814.76 214.378 3812.33 212.208 Q3809.93 210.037 3806.05 210.037 Q3803.31 210.037 3800.24 210.992 Q3797.2 211.947 3793.73 213.886 L3793.73 207.983 Q3797.26 206.565 3800.33 205.842 Q3803.39 205.118 3805.94 205.118 Q3812.65 205.118 3816.64 208.475 Q3820.64 211.831 3820.64 217.445 Q3820.64 220.107 3819.63 222.508 Q3818.64 224.881 3816.01 228.122 Q3815.28 228.961 3811.41 232.983 Q3807.53 236.976 3800.47 244.181 Z" fill="#000000" fill-rule="nonzero" fill-opacity="1" /><path clip-path="url(#clip610)" d="M3833.31 248.203 L3833.31 242.879 Q3835.51 243.92 3837.77 244.47 Q3840.02 245.02 3842.19 245.02 Q3847.98 245.02 3851.02 241.143 Q3854.09 237.236 3854.52 229.308 Q3852.84 231.797 3850.27 233.128 Q3847.69 234.459 3844.57 234.459 Q3838.09 234.459 3834.3 230.552 Q3830.53 226.617 3830.53 219.817 Q3830.53 213.162 3834.47 209.14 Q3838.4 205.118 3844.94 205.118 Q3852.44 205.118 3856.37 210.877 Q3860.34 216.606 3860.34 227.543 Q3860.34 237.757 3855.48 243.862 Q3850.64 249.939 3842.45 249.939 Q3840.26 249.939 3838 249.505 Q3835.74 249.071 3833.31 248.203 M3844.94 229.887 Q3848.88 229.887 3851.16 227.196 Q3853.48 224.505 3853.48 219.817 Q3853.48 215.159 3851.16 212.468 Q3848.88 209.748 3844.94 209.748 Q3841.01 209.748 3838.69 212.468 Q3836.41 215.159 3836.41 219.817 Q3836.41 224.505 3838.69 227.196 Q3841.01 229.887 3844.94 229.887 Z" fill="#000000" fill-rule="nonzero" fill-opacity="1" /><path clip-path="url(#clip610)" d="M3888.55 225.807 Q3892.74 226.704 3895.09 229.54 Q3897.46 232.375 3897.46 236.542 Q3897.46 242.937 3893.06 246.438 Q3888.66 249.939 3880.56 249.939 Q3877.84 249.939 3874.95 249.389 Q3872.08 248.868 3869.02 247.798 L3869.02 242.155 Q3871.45 243.573 3874.34 244.297 Q3877.23 245.02 3880.39 245.02 Q3885.89 245.02 3888.75 242.85 Q3891.64 240.68 3891.64 236.542 Q3891.64 232.723 3888.95 230.581 Q3886.29 228.411 3881.52 228.411 L3876.48 228.411 L3876.48 223.608 L3881.75 223.608 Q3886.06 223.608 3888.35 221.901 Q3890.63 220.165 3890.63 216.924 Q3890.63 213.596 3888.26 211.831 Q3885.92 210.037 3881.52 210.037 Q3879.12 210.037 3876.37 210.558 Q3873.62 211.079 3870.32 212.179 L3870.32 206.97 Q3873.65 206.044 3876.54 205.581 Q3879.46 205.118 3882.04 205.118 Q3888.69 205.118 3892.57 208.157 Q3896.45 211.166 3896.45 216.316 Q3896.45 219.904 3894.39 222.393 Q3892.34 224.852 3888.55 225.807 Z" fill="#000000" fill-rule="nonzero" fill-opacity="1" /><path clip-path="url(#clip610)" d="M3909.56 244.181 L3919.1 244.181 L3919.1 211.224 L3908.72 213.307 L3908.72 207.983 L3919.05 205.9 L3924.89 205.9 L3924.89 244.181 L3934.44 244.181 L3934.44 249.1 L3909.56 249.1 L3909.56 244.181 Z" fill="#000000" fill-rule="nonzero" fill-opacity="1" /></svg>
