<?xml version="1.0" encoding="utf-8"?>
<svg xmlns="http://www.w3.org/2000/svg" xmlns:xlink="http://www.w3.org/1999/xlink" width="1200" height="350" viewBox="0 0 4800 1400">
<defs>
  <clipPath id="clip920">
    <rect x="0" y="0" width="4800" height="1400"/>
  </clipPath>
</defs>
<path clip-path="url(#clip920)" d="M0 1400 L4800 1400 L4800 0 L0 0  Z" fill="#ffffff" fill-rule="evenodd" fill-opacity="1"/>
<defs>
  <clipPath id="clip921">
    <rect x="960" y="0" width="3361" height="1400"/>
  </clipPath>
</defs>
<path clip-path="url(#clip920)" d="M224.064 1273.23 L1552.76 1273.23 L1552.76 88.0695 L224.064 88.0695  Z" fill="#ffffff" fill-rule="evenodd" fill-opacity="1"/>
<defs>
  <clipPath id="clip922">
    <rect x="224" y="88" width="1330" height="1186"/>
  </clipPath>
</defs>
<polyline clip-path="url(#clip922)" style="stroke:#000000; stroke-linecap:round; stroke-linejoin:round; stroke-width:2; stroke-opacity:0.1; fill:none" points="415.397,1273.23 415.397,88.0695 "/>
<polyline clip-path="url(#clip922)" style="stroke:#000000; stroke-linecap:round; stroke-linejoin:round; stroke-width:2; stroke-opacity:0.1; fill:none" points="651.904,1273.23 651.904,88.0695 "/>
<polyline clip-path="url(#clip922)" style="stroke:#000000; stroke-linecap:round; stroke-linejoin:round; stroke-width:2; stroke-opacity:0.1; fill:none" points="888.41,1273.23 888.41,88.0695 "/>
<polyline clip-path="url(#clip922)" style="stroke:#000000; stroke-linecap:round; stroke-linejoin:round; stroke-width:2; stroke-opacity:0.1; fill:none" points="1124.92,1273.23 1124.92,88.0695 "/>
<polyline clip-path="url(#clip922)" style="stroke:#000000; stroke-linecap:round; stroke-linejoin:round; stroke-width:2; stroke-opacity:0.1; fill:none" points="1361.42,1273.23 1361.42,88.0695 "/>
<polyline clip-path="url(#clip920)" style="stroke:#000000; stroke-linecap:round; stroke-linejoin:round; stroke-width:4; stroke-opacity:1; fill:none" points="224.064,1273.23 1552.76,1273.23 "/>
<polyline clip-path="url(#clip920)" style="stroke:#000000; stroke-linecap:round; stroke-linejoin:round; stroke-width:4; stroke-opacity:1; fill:none" points="415.397,1273.23 415.397,1254.33 "/>
<polyline clip-path="url(#clip920)" style="stroke:#000000; stroke-linecap:round; stroke-linejoin:round; stroke-width:4; stroke-opacity:1; fill:none" points="651.904,1273.23 651.904,1254.33 "/>
<polyline clip-path="url(#clip920)" style="stroke:#000000; stroke-linecap:round; stroke-linejoin:round; stroke-width:4; stroke-opacity:1; fill:none" points="888.41,1273.23 888.41,1254.33 "/>
<polyline clip-path="url(#clip920)" style="stroke:#000000; stroke-linecap:round; stroke-linejoin:round; stroke-width:4; stroke-opacity:1; fill:none" points="1124.92,1273.23 1124.92,1254.33 "/>
<polyline clip-path="url(#clip920)" style="stroke:#000000; stroke-linecap:round; stroke-linejoin:round; stroke-width:4; stroke-opacity:1; fill:none" points="1361.42,1273.23 1361.42,1254.33 "/>
<g clip-path="url(#clip920)">
<text style="fill:#000000; fill-opacity:1; font-family:Century Gothic,CenturyGothic,AppleGothic,sans-serif; font-size:47px; text-anchor:middle;" transform="rotate(0, 415.397, 1353.69)" x="415.397" y="1353.69">0</text>
</g>
<g clip-path="url(#clip920)">
<text style="fill:#000000; fill-opacity:1; font-family:Century Gothic,CenturyGothic,AppleGothic,sans-serif; font-size:47px; text-anchor:middle;" transform="rotate(0, 651.904, 1353.69)" x="651.904" y="1353.69">1</text>
</g>
<g clip-path="url(#clip920)">
<text style="fill:#000000; fill-opacity:1; font-family:Century Gothic,CenturyGothic,AppleGothic,sans-serif; font-size:47px; text-anchor:middle;" transform="rotate(0, 888.41, 1353.69)" x="888.41" y="1353.69">2</text>
</g>
<g clip-path="url(#clip920)">
<text style="fill:#000000; fill-opacity:1; font-family:Century Gothic,CenturyGothic,AppleGothic,sans-serif; font-size:47px; text-anchor:middle;" transform="rotate(0, 1124.92, 1353.69)" x="1124.92" y="1353.69">3</text>
</g>
<g clip-path="url(#clip920)">
<text style="fill:#000000; fill-opacity:1; font-family:Century Gothic,CenturyGothic,AppleGothic,sans-serif; font-size:47px; text-anchor:middle;" transform="rotate(0, 1361.42, 1353.69)" x="1361.42" y="1353.69">4</text>
</g>
<g clip-path="url(#clip920)">
<text style="fill:#000000; fill-opacity:1; font-family:Century Gothic,CenturyGothic,AppleGothic,sans-serif; font-size:65px; text-anchor:middle;" transform="rotate(0, 888.41, 1452.31)" x="888.41" y="1452.31">中心推定の正解数</text>
</g>
<polyline clip-path="url(#clip922)" style="stroke:#000000; stroke-linecap:round; stroke-linejoin:round; stroke-width:2; stroke-opacity:0.1; fill:none" points="224.064,1273.23 1552.76,1273.23 "/>
<polyline clip-path="url(#clip922)" style="stroke:#000000; stroke-linecap:round; stroke-linejoin:round; stroke-width:2; stroke-opacity:0.1; fill:none" points="224.064,994.366 1552.76,994.366 "/>
<polyline clip-path="url(#clip922)" style="stroke:#000000; stroke-linecap:round; stroke-linejoin:round; stroke-width:2; stroke-opacity:0.1; fill:none" points="224.064,715.505 1552.76,715.505 "/>
<polyline clip-path="url(#clip922)" style="stroke:#000000; stroke-linecap:round; stroke-linejoin:round; stroke-width:2; stroke-opacity:0.1; fill:none" points="224.064,436.645 1552.76,436.645 "/>
<polyline clip-path="url(#clip922)" style="stroke:#000000; stroke-linecap:round; stroke-linejoin:round; stroke-width:2; stroke-opacity:0.1; fill:none" points="224.064,157.785 1552.76,157.785 "/>
<polyline clip-path="url(#clip920)" style="stroke:#000000; stroke-linecap:round; stroke-linejoin:round; stroke-width:4; stroke-opacity:1; fill:none" points="224.064,1273.23 224.064,88.0695 "/>
<polyline clip-path="url(#clip920)" style="stroke:#000000; stroke-linecap:round; stroke-linejoin:round; stroke-width:4; stroke-opacity:1; fill:none" points="224.064,1273.23 242.961,1273.23 "/>
<polyline clip-path="url(#clip920)" style="stroke:#000000; stroke-linecap:round; stroke-linejoin:round; stroke-width:4; stroke-opacity:1; fill:none" points="224.064,994.366 242.961,994.366 "/>
<polyline clip-path="url(#clip920)" style="stroke:#000000; stroke-linecap:round; stroke-linejoin:round; stroke-width:4; stroke-opacity:1; fill:none" points="224.064,715.505 242.961,715.505 "/>
<polyline clip-path="url(#clip920)" style="stroke:#000000; stroke-linecap:round; stroke-linejoin:round; stroke-width:4; stroke-opacity:1; fill:none" points="224.064,436.645 242.961,436.645 "/>
<polyline clip-path="url(#clip920)" style="stroke:#000000; stroke-linecap:round; stroke-linejoin:round; stroke-width:4; stroke-opacity:1; fill:none" points="224.064,157.785 242.961,157.785 "/>
<g clip-path="url(#clip920)">
<text style="fill:#000000; fill-opacity:1; font-family:Century Gothic,CenturyGothic,AppleGothic,sans-serif; font-size:47px; text-anchor:middle;" transform="rotate(0, 139.127, 1290.73)" x="139.127" y="1290.73">0</text>
</g>
<g clip-path="url(#clip920)">
<text style="fill:#000000; fill-opacity:1; font-family:Century Gothic,CenturyGothic,AppleGothic,sans-serif; font-size:47px; text-anchor:middle;" transform="rotate(0, 113.254, 1011.87)" x="113.254" y="1011.87">200</text>
</g>
<g clip-path="url(#clip920)">
<text style="fill:#000000; fill-opacity:1; font-family:Century Gothic,CenturyGothic,AppleGothic,sans-serif; font-size:47px; text-anchor:middle;" transform="rotate(0, 113.254, 733.005)" x="113.254" y="733.005">400</text>
</g>
<g clip-path="url(#clip920)">
<text style="fill:#000000; fill-opacity:1; font-family:Century Gothic,CenturyGothic,AppleGothic,sans-serif; font-size:47px; text-anchor:middle;" transform="rotate(0, 113.254, 454.145)" x="113.254" y="454.145">600</text>
</g>
<g clip-path="url(#clip920)">
<text style="fill:#000000; fill-opacity:1; font-family:Century Gothic,CenturyGothic,AppleGothic,sans-serif; font-size:47px; text-anchor:middle;" transform="rotate(0, 113.254, 175.285)" x="113.254" y="175.285">800</text>
</g>
<g clip-path="url(#clip920)">
<text style="fill:#000000; fill-opacity:1; font-family:Century Gothic,CenturyGothic,AppleGothic,sans-serif; font-size:65px; text-anchor:middle;" transform="rotate(-90, -7.51163, 680.648)" x="-7.51163" y="680.648">度数</text>
</g>
<g clip-path="url(#clip920)">
<text style="fill:#000000; fill-opacity:1; font-family:Century Gothic,CenturyGothic,AppleGothic,sans-serif; font-size:81px; text-anchor:middle;" transform="rotate(0, 888.41, 72)" x="888.41" y="72">Setting : E, Method : EV</text>
</g>
<path clip-path="url(#clip922)" d="M297.144 1273.23 L297.144 1273.23 L533.65 1273.23 L533.65 1273.23 L297.144 1273.23 L297.144 1273.23  Z" fill="#009af9" fill-rule="evenodd" fill-opacity="1"/>
<polyline clip-path="url(#clip922)" style="stroke:#000000; stroke-linecap:round; stroke-linejoin:round; stroke-width:4; stroke-opacity:1; fill:none" points="297.144,1273.23 297.144,1273.23 533.65,1273.23 297.144,1273.23 "/>
<path clip-path="url(#clip922)" d="M533.65 1256.49 L533.65 1273.23 L770.157 1273.23 L770.157 1256.49 L533.65 1256.49 L533.65 1256.49  Z" fill="#009af9" fill-rule="evenodd" fill-opacity="1"/>
<polyline clip-path="url(#clip922)" style="stroke:#000000; stroke-linecap:round; stroke-linejoin:round; stroke-width:4; stroke-opacity:1; fill:none" points="533.65,1256.49 533.65,1273.23 770.157,1273.23 770.157,1256.49 533.65,1256.49 "/>
<path clip-path="url(#clip922)" d="M770.157 1168.65 L770.157 1273.23 L1006.66 1273.23 L1006.66 1168.65 L770.157 1168.65 L770.157 1168.65  Z" fill="#009af9" fill-rule="evenodd" fill-opacity="1"/>
<polyline clip-path="url(#clip922)" style="stroke:#000000; stroke-linecap:round; stroke-linejoin:round; stroke-width:4; stroke-opacity:1; fill:none" points="770.157,1168.65 770.157,1273.23 1006.66,1273.23 1006.66,1168.65 770.157,1168.65 "/>
<path clip-path="url(#clip922)" d="M1006.66 608.144 L1006.66 1273.23 L1243.17 1273.23 L1243.17 608.144 L1006.66 608.144 L1006.66 608.144  Z" fill="#009af9" fill-rule="evenodd" fill-opacity="1"/>
<polyline clip-path="url(#clip922)" style="stroke:#000000; stroke-linecap:round; stroke-linejoin:round; stroke-width:4; stroke-opacity:1; fill:none" points="1006.66,608.144 1006.66,1273.23 1243.17,1273.23 1243.17,608.144 1006.66,608.144 "/>
<path clip-path="url(#clip922)" d="M1243.17 665.311 L1243.17 1273.23 L1479.68 1273.23 L1479.68 665.311 L1243.17 665.311 L1243.17 665.311  Z" fill="#009af9" fill-rule="evenodd" fill-opacity="1"/>
<polyline clip-path="url(#clip922)" style="stroke:#000000; stroke-linecap:round; stroke-linejoin:round; stroke-width:4; stroke-opacity:1; fill:none" points="1243.17,665.311 1243.17,1273.23 1479.68,1273.23 1479.68,665.311 1243.17,665.311 "/>
<circle clip-path="url(#clip922)" style="fill:#009af9; stroke:none; fill-opacity:0" cx="415.397" cy="1273.23" r="2"/>
<circle clip-path="url(#clip922)" style="fill:#009af9; stroke:none; fill-opacity:0" cx="651.904" cy="1256.49" r="2"/>
<circle clip-path="url(#clip922)" style="fill:#009af9; stroke:none; fill-opacity:0" cx="888.41" cy="1168.65" r="2"/>
<circle clip-path="url(#clip922)" style="fill:#009af9; stroke:none; fill-opacity:0" cx="1124.92" cy="608.144" r="2"/>
<circle clip-path="url(#clip922)" style="fill:#009af9; stroke:none; fill-opacity:0" cx="1361.42" cy="665.311" r="2"/>
<path clip-path="url(#clip920)" d="M297.144 136.185 L305.854 136.185 L316.878 165.583 L327.96 136.185 L336.669 136.185 L336.669 179.385 L330.969 179.385 L330.969 141.451 L319.829 171.08 L313.955 171.08 L302.815 141.451 L302.815 179.385 L297.144 179.385 L297.144 136.185 Z" fill="#000000" fill-rule="nonzero" fill-opacity="1" /><path clip-path="url(#clip920)" d="M375.761 161.85 L375.761 164.454 L351.282 164.454 Q351.629 169.952 354.58 172.845 Q357.561 175.71 362.856 175.71 Q365.923 175.71 368.787 174.958 Q371.681 174.205 374.516 172.701 L374.516 177.735 Q371.652 178.951 368.643 179.587 Q365.633 180.224 362.537 180.224 Q354.783 180.224 350.24 175.71 Q345.726 171.196 345.726 163.499 Q345.726 155.542 350.008 150.884 Q354.32 146.196 361.611 146.196 Q368.151 146.196 371.941 150.421 Q375.761 154.616 375.761 161.85 M370.437 160.288 Q370.379 155.918 367.977 153.314 Q365.604 150.71 361.669 150.71 Q357.213 150.71 354.522 153.227 Q351.86 155.745 351.455 160.316 L370.437 160.288 Z" fill="#000000" fill-rule="nonzero" fill-opacity="1" /><path clip-path="url(#clip920)" d="M399.227 163.094 Q392.774 163.094 390.286 164.57 Q387.798 166.046 387.798 169.605 Q387.798 172.44 389.649 174.118 Q391.53 175.768 394.742 175.768 Q399.169 175.768 401.831 172.643 Q404.522 169.489 404.522 164.281 L404.522 163.094 L399.227 163.094 M409.846 160.895 L409.846 179.385 L404.522 179.385 L404.522 174.466 Q402.699 177.417 399.979 178.835 Q397.259 180.224 393.324 180.224 Q388.347 180.224 385.396 177.446 Q382.474 174.639 382.474 169.952 Q382.474 164.483 386.119 161.705 Q389.794 158.928 397.057 158.928 L404.522 158.928 L404.522 158.407 Q404.522 154.732 402.092 152.735 Q399.69 150.71 395.321 150.71 Q392.543 150.71 389.91 151.376 Q387.277 152.041 384.846 153.372 L384.846 148.453 Q387.769 147.325 390.518 146.775 Q393.266 146.196 395.87 146.196 Q402.902 146.196 406.374 149.842 Q409.846 153.488 409.846 160.895 Z" fill="#000000" fill-rule="nonzero" fill-opacity="1" /><path clip-path="url(#clip920)" d="M447.751 159.825 L447.751 179.385 L442.427 179.385 L442.427 159.998 Q442.427 155.397 440.633 153.112 Q438.839 150.826 435.251 150.826 Q430.94 150.826 428.451 153.575 Q425.963 156.323 425.963 161.069 L425.963 179.385 L420.61 179.385 L420.61 146.977 L425.963 146.977 L425.963 152.012 Q427.873 149.09 430.448 147.643 Q433.052 146.196 436.437 146.196 Q442.022 146.196 444.886 149.668 Q447.751 153.112 447.751 159.825 Z" fill="#000000" fill-rule="nonzero" fill-opacity="1" /><path clip-path="url(#clip920)" d="M477.901 152.475 L514.996 152.475 L514.996 157.336 L477.901 157.336 L477.901 152.475 M477.901 164.281 L514.996 164.281 L514.996 169.2 L477.901 169.2 L477.901 164.281 Z" fill="#000000" fill-rule="nonzero" fill-opacity="1" /><path clip-path="url(#clip920)" d="M564.157 156.092 Q568.352 156.989 570.696 159.825 Q573.069 162.66 573.069 166.827 Q573.069 173.221 568.67 176.723 Q564.272 180.224 556.171 180.224 Q553.451 180.224 550.557 179.674 Q547.693 179.153 544.625 178.083 L544.625 172.44 Q547.056 173.858 549.95 174.581 Q552.843 175.305 555.997 175.305 Q561.495 175.305 564.359 173.135 Q567.253 170.965 567.253 166.827 Q567.253 163.007 564.562 160.866 Q561.9 158.696 557.125 158.696 L552.091 158.696 L552.091 153.893 L557.357 153.893 Q561.668 153.893 563.954 152.186 Q566.24 150.45 566.24 147.209 Q566.24 143.881 563.867 142.116 Q561.524 140.322 557.125 140.322 Q554.724 140.322 551.975 140.843 Q549.226 141.364 545.928 142.464 L545.928 137.255 Q549.255 136.329 552.149 135.866 Q555.071 135.403 557.646 135.403 Q564.301 135.403 568.179 138.442 Q572.056 141.451 572.056 146.601 Q572.056 150.189 570.001 152.678 Q567.947 155.137 564.157 156.092 Z" fill="#000000" fill-rule="nonzero" fill-opacity="1" /><path clip-path="url(#clip920)" d="M584.151 172.035 L590.256 172.035 L590.256 179.385 L584.151 179.385 L584.151 172.035 Z" fill="#000000" fill-rule="nonzero" fill-opacity="1" /><path clip-path="url(#clip920)" d="M620.696 156.092 Q624.891 156.989 627.235 159.825 Q629.608 162.66 629.608 166.827 Q629.608 173.221 625.21 176.723 Q620.811 180.224 612.71 180.224 Q609.99 180.224 607.096 179.674 Q604.232 179.153 601.165 178.083 L601.165 172.44 Q603.595 173.858 606.489 174.581 Q609.382 175.305 612.536 175.305 Q618.034 175.305 620.898 173.135 Q623.792 170.965 623.792 166.827 Q623.792 163.007 621.101 160.866 Q618.439 158.696 613.664 158.696 L608.63 158.696 L608.63 153.893 L613.896 153.893 Q618.207 153.893 620.493 152.186 Q622.779 150.45 622.779 147.209 Q622.779 143.881 620.406 142.116 Q618.063 140.322 613.664 140.322 Q611.263 140.322 608.514 140.843 Q605.765 141.364 602.467 142.464 L602.467 137.255 Q605.794 136.329 608.688 135.866 Q611.61 135.403 614.185 135.403 Q620.84 135.403 624.718 138.442 Q628.595 141.451 628.595 146.601 Q628.595 150.189 626.541 152.678 Q624.486 155.137 620.696 156.092 Z" fill="#000000" fill-rule="nonzero" fill-opacity="1" /><path clip-path="url(#clip920)" d="M658.398 156.092 Q662.594 156.989 664.937 159.825 Q667.31 162.66 667.31 166.827 Q667.31 173.221 662.912 176.723 Q658.514 180.224 650.412 180.224 Q647.692 180.224 644.799 179.674 Q641.934 179.153 638.867 178.083 L638.867 172.44 Q641.297 173.858 644.191 174.581 Q647.084 175.305 650.238 175.305 Q655.736 175.305 658.601 173.135 Q661.494 170.965 661.494 166.827 Q661.494 163.007 658.803 160.866 Q656.141 158.696 651.367 158.696 L646.332 158.696 L646.332 153.893 L651.598 153.893 Q655.91 153.893 658.195 152.186 Q660.481 150.45 660.481 147.209 Q660.481 143.881 658.109 142.116 Q655.765 140.322 651.367 140.322 Q648.965 140.322 646.216 140.843 Q643.468 141.364 640.169 142.464 L640.169 137.255 Q643.496 136.329 646.39 135.866 Q649.312 135.403 651.888 135.403 Q658.543 135.403 662.42 138.442 Q666.297 141.451 666.297 146.601 Q666.297 150.189 664.243 152.678 Q662.189 155.137 658.398 156.092 Z" fill="#000000" fill-rule="nonzero" fill-opacity="1" /><path clip-path="url(#clip920)" d="M676.916 136.185 L704.694 136.185 L704.694 138.673 L689.011 179.385 L682.906 179.385 L697.663 141.104 L676.916 141.104 L676.916 136.185 Z" fill="#000000" fill-rule="nonzero" fill-opacity="1" /><path clip-path="url(#clip920)" d="M302.989 210.703 L302.989 244.297 L310.049 244.297 Q318.99 244.297 323.128 240.246 Q327.294 236.195 327.294 227.456 Q327.294 218.776 323.128 214.754 Q318.99 210.703 310.049 210.703 L302.989 210.703 M297.144 205.9 L309.152 205.9 Q321.71 205.9 327.584 211.137 Q333.458 216.345 333.458 227.456 Q333.458 238.625 327.555 243.862 Q321.652 249.1 309.152 249.1 L297.144 249.1 L297.144 205.9 Z" fill="#000000" fill-rule="nonzero" fill-opacity="1" /><path clip-path="url(#clip920)" d="M342.543 216.692 L347.867 216.692 L347.867 249.1 L342.543 249.1 L342.543 216.692 M342.543 204.077 L347.867 204.077 L347.867 210.819 L342.543 210.819 L342.543 204.077 Z" fill="#000000" fill-rule="nonzero" fill-opacity="1" /><path clip-path="url(#clip920)" d="M379.667 217.647 L379.667 222.682 Q377.41 221.525 374.979 220.946 Q372.549 220.367 369.945 220.367 Q365.981 220.367 363.984 221.583 Q362.016 222.798 362.016 225.228 Q362.016 227.08 363.434 228.151 Q364.852 229.192 369.135 230.147 L370.957 230.552 Q376.629 231.768 379.001 233.996 Q381.403 236.195 381.403 240.159 Q381.403 244.673 377.815 247.306 Q374.256 249.939 368.006 249.939 Q365.402 249.939 362.566 249.418 Q359.76 248.926 356.635 247.913 L356.635 242.416 Q359.586 243.949 362.451 244.731 Q365.315 245.483 368.122 245.483 Q371.883 245.483 373.909 244.21 Q375.934 242.908 375.934 240.564 Q375.934 238.394 374.459 237.236 Q373.012 236.079 368.064 235.008 L366.212 234.574 Q361.264 233.533 359.065 231.391 Q356.866 229.221 356.866 225.46 Q356.866 220.888 360.107 218.4 Q363.348 215.911 369.308 215.911 Q372.259 215.911 374.864 216.345 Q377.468 216.779 379.667 217.647 Z" fill="#000000" fill-rule="nonzero" fill-opacity="1" /><path clip-path="url(#clip920)" d="M395.147 207.491 L395.147 216.692 L406.113 216.692 L406.113 220.83 L395.147 220.83 L395.147 238.423 Q395.147 242.387 396.218 243.515 Q397.317 244.644 400.645 244.644 L406.113 244.644 L406.113 249.1 L400.645 249.1 Q394.482 249.1 392.138 246.814 Q389.794 244.499 389.794 238.423 L389.794 220.83 L385.888 220.83 L385.888 216.692 L389.794 216.692 L389.794 207.491 L395.147 207.491 Z" fill="#000000" fill-rule="nonzero" fill-opacity="1" /><path clip-path="url(#clip920)" d="M432.647 222.19 L469.742 222.19 L469.742 227.051 L432.647 227.051 L432.647 222.19 M432.647 233.996 L469.742 233.996 L469.742 238.915 L432.647 238.915 L432.647 233.996 Z" fill="#000000" fill-rule="nonzero" fill-opacity="1" /><path clip-path="url(#clip920)" d="M513.694 209.748 Q509.18 209.748 506.894 214.204 Q504.637 218.631 504.637 227.543 Q504.637 236.426 506.894 240.882 Q509.18 245.309 513.694 245.309 Q518.237 245.309 520.494 240.882 Q522.78 236.426 522.78 227.543 Q522.78 218.631 520.494 214.204 Q518.237 209.748 513.694 209.748 M513.694 205.118 Q520.957 205.118 524.776 210.877 Q528.624 216.606 528.624 227.543 Q528.624 238.452 524.776 244.21 Q520.957 249.939 513.694 249.939 Q506.431 249.939 502.583 244.21 Q498.763 238.452 498.763 227.543 Q498.763 216.606 502.583 210.877 Q506.431 205.118 513.694 205.118 Z" fill="#000000" fill-rule="nonzero" fill-opacity="1" /><path clip-path="url(#clip920)" d="M538.896 241.75 L545.002 241.75 L545.002 249.1 L538.896 249.1 L538.896 241.75 Z" fill="#000000" fill-rule="nonzero" fill-opacity="1" /><path clip-path="url(#clip920)" d="M570.233 209.748 Q565.719 209.748 563.433 214.204 Q561.176 218.631 561.176 227.543 Q561.176 236.426 563.433 240.882 Q565.719 245.309 570.233 245.309 Q574.776 245.309 577.033 240.882 Q579.319 236.426 579.319 227.543 Q579.319 218.631 577.033 214.204 Q574.776 209.748 570.233 209.748 M570.233 205.118 Q577.496 205.118 581.315 210.877 Q585.163 216.606 585.163 227.543 Q585.163 238.452 581.315 244.21 Q577.496 249.939 570.233 249.939 Q562.97 249.939 559.122 244.21 Q555.302 238.452 555.302 227.543 Q555.302 216.606 559.122 210.877 Q562.97 205.118 570.233 205.118 Z" fill="#000000" fill-rule="nonzero" fill-opacity="1" /><path clip-path="url(#clip920)" d="M600.47 244.181 L620.869 244.181 L620.869 249.1 L593.439 249.1 L593.439 244.181 Q596.766 240.738 602.496 234.951 Q608.254 229.135 609.729 227.456 Q612.536 224.302 613.636 222.132 Q614.764 219.933 614.764 217.821 Q614.764 214.378 612.333 212.208 Q609.932 210.037 606.055 210.037 Q603.306 210.037 600.239 210.992 Q597.2 211.947 593.728 213.886 L593.728 207.983 Q597.258 206.565 600.325 205.842 Q603.393 205.118 605.939 205.118 Q612.652 205.118 616.645 208.475 Q620.638 211.831 620.638 217.445 Q620.638 220.107 619.625 222.508 Q618.641 224.881 616.008 228.122 Q615.285 228.961 611.408 232.983 Q607.53 236.976 600.47 244.181 Z" fill="#000000" fill-rule="nonzero" fill-opacity="1" /><path clip-path="url(#clip920)" d="M631.662 205.9 L659.44 205.9 L659.44 208.388 L643.757 249.1 L637.652 249.1 L652.408 210.819 L631.662 210.819 L631.662 205.9 Z" fill="#000000" fill-rule="nonzero" fill-opacity="1" /><path clip-path="url(#clip920)" d="M683.34 228.585 Q679.173 228.585 676.772 230.813 Q674.399 233.041 674.399 236.947 Q674.399 240.853 676.772 243.081 Q679.173 245.309 683.34 245.309 Q687.507 245.309 689.908 243.081 Q692.31 240.824 692.31 236.947 Q692.31 233.041 689.908 230.813 Q687.536 228.585 683.34 228.585 M677.495 226.096 Q673.734 225.17 671.621 222.595 Q669.538 220.02 669.538 216.316 Q669.538 211.137 673.213 208.128 Q676.916 205.118 683.34 205.118 Q689.793 205.118 693.467 208.128 Q697.142 211.137 697.142 216.316 Q697.142 220.02 695.03 222.595 Q692.946 225.17 689.214 226.096 Q693.438 227.08 695.782 229.945 Q698.155 232.809 698.155 236.947 Q698.155 243.226 694.306 246.582 Q690.487 249.939 683.34 249.939 Q676.193 249.939 672.345 246.582 Q668.525 243.226 668.525 236.947 Q668.525 232.809 670.898 229.945 Q673.271 227.08 677.495 226.096 M675.354 216.866 Q675.354 220.223 677.437 222.103 Q679.55 223.984 683.34 223.984 Q687.102 223.984 689.214 222.103 Q691.355 220.223 691.355 216.866 Q691.355 213.51 689.214 211.629 Q687.102 209.748 683.34 209.748 Q679.55 209.748 677.437 211.629 Q675.354 213.51 675.354 216.866 Z" fill="#000000" fill-rule="nonzero" fill-opacity="1" /><path clip-path="url(#clip920)" d="M721.766 225.17 Q717.831 225.17 715.516 227.861 Q713.23 230.552 713.23 235.24 Q713.23 239.898 715.516 242.618 Q717.831 245.309 721.766 245.309 Q725.701 245.309 727.987 242.618 Q730.302 239.898 730.302 235.24 Q730.302 230.552 727.987 227.861 Q725.701 225.17 721.766 225.17 M733.369 206.855 L733.369 212.179 Q731.17 211.137 728.913 210.587 Q726.685 210.037 724.486 210.037 Q718.699 210.037 715.632 213.944 Q712.593 217.85 712.159 225.749 Q713.866 223.232 716.442 221.901 Q719.017 220.541 722.113 220.541 Q728.623 220.541 732.385 224.505 Q736.175 228.44 736.175 235.24 Q736.175 241.895 732.24 245.917 Q728.305 249.939 721.766 249.939 Q714.272 249.939 710.307 244.21 Q706.343 238.452 706.343 227.543 Q706.343 217.3 711.204 211.224 Q716.066 205.118 724.254 205.118 Q726.453 205.118 728.681 205.553 Q730.938 205.987 733.369 206.855 Z" fill="#000000" fill-rule="nonzero" fill-opacity="1" /><path clip-path="url(#clip920)" d="M1824.06 1273.23 L3152.76 1273.23 L3152.76 88.0695 L1824.06 88.0695  Z" fill="#ffffff" fill-rule="evenodd" fill-opacity="1"/>
<defs>
  <clipPath id="clip923">
    <rect x="1824" y="88" width="1330" height="1186"/>
  </clipPath>
</defs>
<polyline clip-path="url(#clip923)" style="stroke:#000000; stroke-linecap:round; stroke-linejoin:round; stroke-width:2; stroke-opacity:0.1; fill:none" points="2015.4,1273.23 2015.4,88.0695 "/>
<polyline clip-path="url(#clip923)" style="stroke:#000000; stroke-linecap:round; stroke-linejoin:round; stroke-width:2; stroke-opacity:0.1; fill:none" points="2251.9,1273.23 2251.9,88.0695 "/>
<polyline clip-path="url(#clip923)" style="stroke:#000000; stroke-linecap:round; stroke-linejoin:round; stroke-width:2; stroke-opacity:0.1; fill:none" points="2488.41,1273.23 2488.41,88.0695 "/>
<polyline clip-path="url(#clip923)" style="stroke:#000000; stroke-linecap:round; stroke-linejoin:round; stroke-width:2; stroke-opacity:0.1; fill:none" points="2724.92,1273.23 2724.92,88.0695 "/>
<polyline clip-path="url(#clip923)" style="stroke:#000000; stroke-linecap:round; stroke-linejoin:round; stroke-width:2; stroke-opacity:0.1; fill:none" points="2961.42,1273.23 2961.42,88.0695 "/>
<polyline clip-path="url(#clip920)" style="stroke:#000000; stroke-linecap:round; stroke-linejoin:round; stroke-width:4; stroke-opacity:1; fill:none" points="1824.06,1273.23 3152.76,1273.23 "/>
<polyline clip-path="url(#clip920)" style="stroke:#000000; stroke-linecap:round; stroke-linejoin:round; stroke-width:4; stroke-opacity:1; fill:none" points="2015.4,1273.23 2015.4,1254.33 "/>
<polyline clip-path="url(#clip920)" style="stroke:#000000; stroke-linecap:round; stroke-linejoin:round; stroke-width:4; stroke-opacity:1; fill:none" points="2251.9,1273.23 2251.9,1254.33 "/>
<polyline clip-path="url(#clip920)" style="stroke:#000000; stroke-linecap:round; stroke-linejoin:round; stroke-width:4; stroke-opacity:1; fill:none" points="2488.41,1273.23 2488.41,1254.33 "/>
<polyline clip-path="url(#clip920)" style="stroke:#000000; stroke-linecap:round; stroke-linejoin:round; stroke-width:4; stroke-opacity:1; fill:none" points="2724.92,1273.23 2724.92,1254.33 "/>
<polyline clip-path="url(#clip920)" style="stroke:#000000; stroke-linecap:round; stroke-linejoin:round; stroke-width:4; stroke-opacity:1; fill:none" points="2961.42,1273.23 2961.42,1254.33 "/>
<g clip-path="url(#clip920)">
<text style="fill:#000000; fill-opacity:1; font-family:Century Gothic,CenturyGothic,AppleGothic,sans-serif; font-size:47px; text-anchor:middle;" transform="rotate(0, 2015.4, 1353.69)" x="2015.4" y="1353.69">0</text>
</g>
<g clip-path="url(#clip920)">
<text style="fill:#000000; fill-opacity:1; font-family:Century Gothic,CenturyGothic,AppleGothic,sans-serif; font-size:47px; text-anchor:middle;" transform="rotate(0, 2251.9, 1353.69)" x="2251.9" y="1353.69">1</text>
</g>
<g clip-path="url(#clip920)">
<text style="fill:#000000; fill-opacity:1; font-family:Century Gothic,CenturyGothic,AppleGothic,sans-serif; font-size:47px; text-anchor:middle;" transform="rotate(0, 2488.41, 1353.69)" x="2488.41" y="1353.69">2</text>
</g>
<g clip-path="url(#clip920)">
<text style="fill:#000000; fill-opacity:1; font-family:Century Gothic,CenturyGothic,AppleGothic,sans-serif; font-size:47px; text-anchor:middle;" transform="rotate(0, 2724.92, 1353.69)" x="2724.92" y="1353.69">3</text>
</g>
<g clip-path="url(#clip920)">
<text style="fill:#000000; fill-opacity:1; font-family:Century Gothic,CenturyGothic,AppleGothic,sans-serif; font-size:47px; text-anchor:middle;" transform="rotate(0, 2961.42, 1353.69)" x="2961.42" y="1353.69">4</text>
</g>
<g clip-path="url(#clip920)">
<text style="fill:#000000; fill-opacity:1; font-family:Century Gothic,CenturyGothic,AppleGothic,sans-serif; font-size:65px; text-anchor:middle;" transform="rotate(0, 2488.41, 1452.31)" x="2488.41" y="1452.31">中心推定の正解数</text>
</g>
<polyline clip-path="url(#clip923)" style="stroke:#000000; stroke-linecap:round; stroke-linejoin:round; stroke-width:2; stroke-opacity:0.1; fill:none" points="1824.06,1273.23 3152.76,1273.23 "/>
<polyline clip-path="url(#clip923)" style="stroke:#000000; stroke-linecap:round; stroke-linejoin:round; stroke-width:2; stroke-opacity:0.1; fill:none" points="1824.06,994.366 3152.76,994.366 "/>
<polyline clip-path="url(#clip923)" style="stroke:#000000; stroke-linecap:round; stroke-linejoin:round; stroke-width:2; stroke-opacity:0.1; fill:none" points="1824.06,715.505 3152.76,715.505 "/>
<polyline clip-path="url(#clip923)" style="stroke:#000000; stroke-linecap:round; stroke-linejoin:round; stroke-width:2; stroke-opacity:0.1; fill:none" points="1824.06,436.645 3152.76,436.645 "/>
<polyline clip-path="url(#clip923)" style="stroke:#000000; stroke-linecap:round; stroke-linejoin:round; stroke-width:2; stroke-opacity:0.1; fill:none" points="1824.06,157.785 3152.76,157.785 "/>
<polyline clip-path="url(#clip920)" style="stroke:#000000; stroke-linecap:round; stroke-linejoin:round; stroke-width:4; stroke-opacity:1; fill:none" points="1824.06,1273.23 1824.06,88.0695 "/>
<polyline clip-path="url(#clip920)" style="stroke:#000000; stroke-linecap:round; stroke-linejoin:round; stroke-width:4; stroke-opacity:1; fill:none" points="1824.06,1273.23 1842.96,1273.23 "/>
<polyline clip-path="url(#clip920)" style="stroke:#000000; stroke-linecap:round; stroke-linejoin:round; stroke-width:4; stroke-opacity:1; fill:none" points="1824.06,994.366 1842.96,994.366 "/>
<polyline clip-path="url(#clip920)" style="stroke:#000000; stroke-linecap:round; stroke-linejoin:round; stroke-width:4; stroke-opacity:1; fill:none" points="1824.06,715.505 1842.96,715.505 "/>
<polyline clip-path="url(#clip920)" style="stroke:#000000; stroke-linecap:round; stroke-linejoin:round; stroke-width:4; stroke-opacity:1; fill:none" points="1824.06,436.645 1842.96,436.645 "/>
<polyline clip-path="url(#clip920)" style="stroke:#000000; stroke-linecap:round; stroke-linejoin:round; stroke-width:4; stroke-opacity:1; fill:none" points="1824.06,157.785 1842.96,157.785 "/>
<g clip-path="url(#clip920)">
<text style="fill:#000000; fill-opacity:1; font-family:Century Gothic,CenturyGothic,AppleGothic,sans-serif; font-size:47px; text-anchor:middle;" transform="rotate(0, 1739.13, 1290.73)" x="1739.13" y="1290.73">0</text>
</g>
<g clip-path="url(#clip920)">
<text style="fill:#000000; fill-opacity:1; font-family:Century Gothic,CenturyGothic,AppleGothic,sans-serif; font-size:47px; text-anchor:middle;" transform="rotate(0, 1713.25, 1011.87)" x="1713.25" y="1011.87">200</text>
</g>
<g clip-path="url(#clip920)">
<text style="fill:#000000; fill-opacity:1; font-family:Century Gothic,CenturyGothic,AppleGothic,sans-serif; font-size:47px; text-anchor:middle;" transform="rotate(0, 1713.25, 733.005)" x="1713.25" y="733.005">400</text>
</g>
<g clip-path="url(#clip920)">
<text style="fill:#000000; fill-opacity:1; font-family:Century Gothic,CenturyGothic,AppleGothic,sans-serif; font-size:47px; text-anchor:middle;" transform="rotate(0, 1713.25, 454.145)" x="1713.25" y="454.145">600</text>
</g>
<g clip-path="url(#clip920)">
<text style="fill:#000000; fill-opacity:1; font-family:Century Gothic,CenturyGothic,AppleGothic,sans-serif; font-size:47px; text-anchor:middle;" transform="rotate(0, 1713.25, 175.285)" x="1713.25" y="175.285">800</text>
</g>
<g clip-path="url(#clip920)">
<text style="fill:#000000; fill-opacity:1; font-family:Century Gothic,CenturyGothic,AppleGothic,sans-serif; font-size:65px; text-anchor:middle;" transform="rotate(-90, 1592.49, 680.648)" x="1592.49" y="680.648">度数</text>
</g>
<g clip-path="url(#clip920)">
<text style="fill:#000000; fill-opacity:1; font-family:Century Gothic,CenturyGothic,AppleGothic,sans-serif; font-size:81px; text-anchor:middle;" transform="rotate(0, 2488.41, 72)" x="2488.41" y="72">Setting : E, Method : GM</text>
</g>
<path clip-path="url(#clip923)" d="M1897.14 1273.23 L1897.14 1273.23 L2133.65 1273.23 L2133.65 1273.23 L1897.14 1273.23 L1897.14 1273.23  Z" fill="#009af9" fill-rule="evenodd" fill-opacity="1"/>
<polyline clip-path="url(#clip923)" style="stroke:#000000; stroke-linecap:round; stroke-linejoin:round; stroke-width:4; stroke-opacity:1; fill:none" points="1897.14,1273.23 1897.14,1273.23 2133.65,1273.23 1897.14,1273.23 "/>
<path clip-path="url(#clip923)" d="M2133.65 1256.49 L2133.65 1273.23 L2370.16 1273.23 L2370.16 1256.49 L2133.65 1256.49 L2133.65 1256.49  Z" fill="#009af9" fill-rule="evenodd" fill-opacity="1"/>
<polyline clip-path="url(#clip923)" style="stroke:#000000; stroke-linecap:round; stroke-linejoin:round; stroke-width:4; stroke-opacity:1; fill:none" points="2133.65,1256.49 2133.65,1273.23 2370.16,1273.23 2370.16,1256.49 2133.65,1256.49 "/>
<path clip-path="url(#clip923)" d="M2370.16 1163.08 L2370.16 1273.23 L2606.66 1273.23 L2606.66 1163.08 L2370.16 1163.08 L2370.16 1163.08  Z" fill="#009af9" fill-rule="evenodd" fill-opacity="1"/>
<polyline clip-path="url(#clip923)" style="stroke:#000000; stroke-linecap:round; stroke-linejoin:round; stroke-width:4; stroke-opacity:1; fill:none" points="2370.16,1163.08 2370.16,1273.23 2606.66,1273.23 2606.66,1163.08 2370.16,1163.08 "/>
<path clip-path="url(#clip923)" d="M2606.66 620.693 L2606.66 1273.23 L2843.17 1273.23 L2843.17 620.693 L2606.66 620.693 L2606.66 620.693  Z" fill="#009af9" fill-rule="evenodd" fill-opacity="1"/>
<polyline clip-path="url(#clip923)" style="stroke:#000000; stroke-linecap:round; stroke-linejoin:round; stroke-width:4; stroke-opacity:1; fill:none" points="2606.66,620.693 2606.66,1273.23 2843.17,1273.23 2843.17,620.693 2606.66,620.693 "/>
<path clip-path="url(#clip923)" d="M2843.17 658.339 L2843.17 1273.23 L3079.68 1273.23 L3079.68 658.339 L2843.17 658.339 L2843.17 658.339  Z" fill="#009af9" fill-rule="evenodd" fill-opacity="1"/>
<polyline clip-path="url(#clip923)" style="stroke:#000000; stroke-linecap:round; stroke-linejoin:round; stroke-width:4; stroke-opacity:1; fill:none" points="2843.17,658.339 2843.17,1273.23 3079.68,1273.23 3079.68,658.339 2843.17,658.339 "/>
<circle clip-path="url(#clip923)" style="fill:#009af9; stroke:none; fill-opacity:0" cx="2015.4" cy="1273.23" r="2"/>
<circle clip-path="url(#clip923)" style="fill:#009af9; stroke:none; fill-opacity:0" cx="2251.9" cy="1256.49" r="2"/>
<circle clip-path="url(#clip923)" style="fill:#009af9; stroke:none; fill-opacity:0" cx="2488.41" cy="1163.08" r="2"/>
<circle clip-path="url(#clip923)" style="fill:#009af9; stroke:none; fill-opacity:0" cx="2724.92" cy="620.693" r="2"/>
<circle clip-path="url(#clip923)" style="fill:#009af9; stroke:none; fill-opacity:0" cx="2961.42" cy="658.339" r="2"/>
<path clip-path="url(#clip920)" d="M1897.14 136.185 L1905.85 136.185 L1916.88 165.583 L1927.96 136.185 L1936.67 136.185 L1936.67 179.385 L1930.97 179.385 L1930.97 141.451 L1919.83 171.08 L1913.96 171.08 L1902.82 141.451 L1902.82 179.385 L1897.14 179.385 L1897.14 136.185 Z" fill="#000000" fill-rule="nonzero" fill-opacity="1" /><path clip-path="url(#clip920)" d="M1975.76 161.85 L1975.76 164.454 L1951.28 164.454 Q1951.63 169.952 1954.58 172.845 Q1957.56 175.71 1962.86 175.71 Q1965.92 175.71 1968.79 174.958 Q1971.68 174.205 1974.52 172.701 L1974.52 177.735 Q1971.65 178.951 1968.64 179.587 Q1965.63 180.224 1962.54 180.224 Q1954.78 180.224 1950.24 175.71 Q1945.73 171.196 1945.73 163.499 Q1945.73 155.542 1950.01 150.884 Q1954.32 146.196 1961.61 146.196 Q1968.15 146.196 1971.94 150.421 Q1975.76 154.616 1975.76 161.85 M1970.44 160.288 Q1970.38 155.918 1967.98 153.314 Q1965.6 150.71 1961.67 150.71 Q1957.21 150.71 1954.52 153.227 Q1951.86 155.745 1951.46 160.316 L1970.44 160.288 Z" fill="#000000" fill-rule="nonzero" fill-opacity="1" /><path clip-path="url(#clip920)" d="M1999.23 163.094 Q1992.77 163.094 1990.29 164.57 Q1987.8 166.046 1987.8 169.605 Q1987.8 172.44 1989.65 174.118 Q1991.53 175.768 1994.74 175.768 Q1999.17 175.768 2001.83 172.643 Q2004.52 169.489 2004.52 164.281 L2004.52 163.094 L1999.23 163.094 M2009.85 160.895 L2009.85 179.385 L2004.52 179.385 L2004.52 174.466 Q2002.7 177.417 1999.98 178.835 Q1997.26 180.224 1993.32 180.224 Q1988.35 180.224 1985.4 177.446 Q1982.47 174.639 1982.47 169.952 Q1982.47 164.483 1986.12 161.705 Q1989.79 158.928 1997.06 158.928 L2004.52 158.928 L2004.52 158.407 Q2004.52 154.732 2002.09 152.735 Q1999.69 150.71 1995.32 150.71 Q1992.54 150.71 1989.91 151.376 Q1987.28 152.041 1984.85 153.372 L1984.85 148.453 Q1987.77 147.325 1990.52 146.775 Q1993.27 146.196 1995.87 146.196 Q2002.9 146.196 2006.37 149.842 Q2009.85 153.488 2009.85 160.895 Z" fill="#000000" fill-rule="nonzero" fill-opacity="1" /><path clip-path="url(#clip920)" d="M2047.75 159.825 L2047.75 179.385 L2042.43 179.385 L2042.43 159.998 Q2042.43 155.397 2040.63 153.112 Q2038.84 150.826 2035.25 150.826 Q2030.94 150.826 2028.45 153.575 Q2025.96 156.323 2025.96 161.069 L2025.96 179.385 L2020.61 179.385 L2020.61 146.977 L2025.96 146.977 L2025.96 152.012 Q2027.87 149.09 2030.45 147.643 Q2033.05 146.196 2036.44 146.196 Q2042.02 146.196 2044.89 149.668 Q2047.75 153.112 2047.75 159.825 Z" fill="#000000" fill-rule="nonzero" fill-opacity="1" /><path clip-path="url(#clip920)" d="M2077.9 152.475 L2115 152.475 L2115 157.336 L2077.9 157.336 L2077.9 152.475 M2077.9 164.281 L2115 164.281 L2115 169.2 L2077.9 169.2 L2077.9 164.281 Z" fill="#000000" fill-rule="nonzero" fill-opacity="1" /><path clip-path="url(#clip920)" d="M2164.16 156.092 Q2168.35 156.989 2170.7 159.825 Q2173.07 162.66 2173.07 166.827 Q2173.07 173.221 2168.67 176.723 Q2164.27 180.224 2156.17 180.224 Q2153.45 180.224 2150.56 179.674 Q2147.69 179.153 2144.63 178.083 L2144.63 172.44 Q2147.06 173.858 2149.95 174.581 Q2152.84 175.305 2156 175.305 Q2161.49 175.305 2164.36 173.135 Q2167.25 170.965 2167.25 166.827 Q2167.25 163.007 2164.56 160.866 Q2161.9 158.696 2157.13 158.696 L2152.09 158.696 L2152.09 153.893 L2157.36 153.893 Q2161.67 153.893 2163.95 152.186 Q2166.24 150.45 2166.24 147.209 Q2166.24 143.881 2163.87 142.116 Q2161.52 140.322 2157.13 140.322 Q2154.72 140.322 2151.97 140.843 Q2149.23 141.364 2145.93 142.464 L2145.93 137.255 Q2149.26 136.329 2152.15 135.866 Q2155.07 135.403 2157.65 135.403 Q2164.3 135.403 2168.18 138.442 Q2172.06 141.451 2172.06 146.601 Q2172.06 150.189 2170 152.678 Q2167.95 155.137 2164.16 156.092 Z" fill="#000000" fill-rule="nonzero" fill-opacity="1" /><path clip-path="url(#clip920)" d="M2184.15 172.035 L2190.26 172.035 L2190.26 179.385 L2184.15 179.385 L2184.15 172.035 Z" fill="#000000" fill-rule="nonzero" fill-opacity="1" /><path clip-path="url(#clip920)" d="M2220.7 156.092 Q2224.89 156.989 2227.23 159.825 Q2229.61 162.66 2229.61 166.827 Q2229.61 173.221 2225.21 176.723 Q2220.81 180.224 2212.71 180.224 Q2209.99 180.224 2207.1 179.674 Q2204.23 179.153 2201.16 178.083 L2201.16 172.44 Q2203.6 173.858 2206.49 174.581 Q2209.38 175.305 2212.54 175.305 Q2218.03 175.305 2220.9 173.135 Q2223.79 170.965 2223.79 166.827 Q2223.79 163.007 2221.1 160.866 Q2218.44 158.696 2213.66 158.696 L2208.63 158.696 L2208.63 153.893 L2213.9 153.893 Q2218.21 153.893 2220.49 152.186 Q2222.78 150.45 2222.78 147.209 Q2222.78 143.881 2220.41 142.116 Q2218.06 140.322 2213.66 140.322 Q2211.26 140.322 2208.51 140.843 Q2205.77 141.364 2202.47 142.464 L2202.47 137.255 Q2205.79 136.329 2208.69 135.866 Q2211.61 135.403 2214.19 135.403 Q2220.84 135.403 2224.72 138.442 Q2228.59 141.451 2228.59 146.601 Q2228.59 150.189 2226.54 152.678 Q2224.49 155.137 2220.7 156.092 Z" fill="#000000" fill-rule="nonzero" fill-opacity="1" /><path clip-path="url(#clip920)" d="M2258.4 156.092 Q2262.59 156.989 2264.94 159.825 Q2267.31 162.66 2267.31 166.827 Q2267.31 173.221 2262.91 176.723 Q2258.51 180.224 2250.41 180.224 Q2247.69 180.224 2244.8 179.674 Q2241.93 179.153 2238.87 178.083 L2238.87 172.44 Q2241.3 173.858 2244.19 174.581 Q2247.08 175.305 2250.24 175.305 Q2255.74 175.305 2258.6 173.135 Q2261.49 170.965 2261.49 166.827 Q2261.49 163.007 2258.8 160.866 Q2256.14 158.696 2251.37 158.696 L2246.33 158.696 L2246.33 153.893 L2251.6 153.893 Q2255.91 153.893 2258.2 152.186 Q2260.48 150.45 2260.48 147.209 Q2260.48 143.881 2258.11 142.116 Q2255.76 140.322 2251.37 140.322 Q2248.97 140.322 2246.22 140.843 Q2243.47 141.364 2240.17 142.464 L2240.17 137.255 Q2243.5 136.329 2246.39 135.866 Q2249.31 135.403 2251.89 135.403 Q2258.54 135.403 2262.42 138.442 Q2266.3 141.451 2266.3 146.601 Q2266.3 150.189 2264.24 152.678 Q2262.19 155.137 2258.4 156.092 Z" fill="#000000" fill-rule="nonzero" fill-opacity="1" /><path clip-path="url(#clip920)" d="M2290.89 158.87 Q2286.73 158.87 2284.32 161.098 Q2281.95 163.326 2281.95 167.232 Q2281.95 171.138 2284.32 173.366 Q2286.73 175.594 2290.89 175.594 Q2295.06 175.594 2297.46 173.366 Q2299.86 171.109 2299.86 167.232 Q2299.86 163.326 2297.46 161.098 Q2295.09 158.87 2290.89 158.87 M2285.05 156.381 Q2281.29 155.455 2279.17 152.88 Q2277.09 150.305 2277.09 146.601 Q2277.09 141.422 2280.76 138.413 Q2284.47 135.403 2290.89 135.403 Q2297.34 135.403 2301.02 138.413 Q2304.69 141.422 2304.69 146.601 Q2304.69 150.305 2302.58 152.88 Q2300.5 155.455 2296.77 156.381 Q2300.99 157.365 2303.33 160.23 Q2305.71 163.094 2305.71 167.232 Q2305.71 173.511 2301.86 176.867 Q2298.04 180.224 2290.89 180.224 Q2283.75 180.224 2279.9 176.867 Q2276.08 173.511 2276.08 167.232 Q2276.08 163.094 2278.45 160.23 Q2280.82 157.365 2285.05 156.381 M2282.91 147.151 Q2282.91 150.507 2284.99 152.388 Q2287.1 154.269 2290.89 154.269 Q2294.65 154.269 2296.77 152.388 Q2298.91 150.507 2298.91 147.151 Q2298.91 143.795 2296.77 141.914 Q2294.65 140.033 2290.89 140.033 Q2287.1 140.033 2284.99 141.914 Q2282.91 143.795 2282.91 147.151 Z" fill="#000000" fill-rule="nonzero" fill-opacity="1" /><path clip-path="url(#clip920)" d="M1902.99 210.703 L1902.99 244.297 L1910.05 244.297 Q1918.99 244.297 1923.13 240.246 Q1927.29 236.195 1927.29 227.456 Q1927.29 218.776 1923.13 214.754 Q1918.99 210.703 1910.05 210.703 L1902.99 210.703 M1897.14 205.9 L1909.15 205.9 Q1921.71 205.9 1927.58 211.137 Q1933.46 216.345 1933.46 227.456 Q1933.46 238.625 1927.55 243.862 Q1921.65 249.1 1909.15 249.1 L1897.14 249.1 L1897.14 205.9 Z" fill="#000000" fill-rule="nonzero" fill-opacity="1" /><path clip-path="url(#clip920)" d="M1942.54 216.692 L1947.87 216.692 L1947.87 249.1 L1942.54 249.1 L1942.54 216.692 M1942.54 204.077 L1947.87 204.077 L1947.87 210.819 L1942.54 210.819 L1942.54 204.077 Z" fill="#000000" fill-rule="nonzero" fill-opacity="1" /><path clip-path="url(#clip920)" d="M1979.67 217.647 L1979.67 222.682 Q1977.41 221.525 1974.98 220.946 Q1972.55 220.367 1969.94 220.367 Q1965.98 220.367 1963.98 221.583 Q1962.02 222.798 1962.02 225.228 Q1962.02 227.08 1963.43 228.151 Q1964.85 229.192 1969.13 230.147 L1970.96 230.552 Q1976.63 231.768 1979 233.996 Q1981.4 236.195 1981.4 240.159 Q1981.4 244.673 1977.82 247.306 Q1974.26 249.939 1968.01 249.939 Q1965.4 249.939 1962.57 249.418 Q1959.76 248.926 1956.63 247.913 L1956.63 242.416 Q1959.59 243.949 1962.45 244.731 Q1965.32 245.483 1968.12 245.483 Q1971.88 245.483 1973.91 244.21 Q1975.93 242.908 1975.93 240.564 Q1975.93 238.394 1974.46 237.236 Q1973.01 236.079 1968.06 235.008 L1966.21 234.574 Q1961.26 233.533 1959.07 231.391 Q1956.87 229.221 1956.87 225.46 Q1956.87 220.888 1960.11 218.4 Q1963.35 215.911 1969.31 215.911 Q1972.26 215.911 1974.86 216.345 Q1977.47 216.779 1979.67 217.647 Z" fill="#000000" fill-rule="nonzero" fill-opacity="1" /><path clip-path="url(#clip920)" d="M1995.15 207.491 L1995.15 216.692 L2006.11 216.692 L2006.11 220.83 L1995.15 220.83 L1995.15 238.423 Q1995.15 242.387 1996.22 243.515 Q1997.32 244.644 2000.64 244.644 L2006.11 244.644 L2006.11 249.1 L2000.64 249.1 Q1994.48 249.1 1992.14 246.814 Q1989.79 244.499 1989.79 238.423 L1989.79 220.83 L1985.89 220.83 L1985.89 216.692 L1989.79 216.692 L1989.79 207.491 L1995.15 207.491 Z" fill="#000000" fill-rule="nonzero" fill-opacity="1" /><path clip-path="url(#clip920)" d="M2032.65 222.19 L2069.74 222.19 L2069.74 227.051 L2032.65 227.051 L2032.65 222.19 M2032.65 233.996 L2069.74 233.996 L2069.74 238.915 L2032.65 238.915 L2032.65 233.996 Z" fill="#000000" fill-rule="nonzero" fill-opacity="1" /><path clip-path="url(#clip920)" d="M2113.69 209.748 Q2109.18 209.748 2106.89 214.204 Q2104.64 218.631 2104.64 227.543 Q2104.64 236.426 2106.89 240.882 Q2109.18 245.309 2113.69 245.309 Q2118.24 245.309 2120.49 240.882 Q2122.78 236.426 2122.78 227.543 Q2122.78 218.631 2120.49 214.204 Q2118.24 209.748 2113.69 209.748 M2113.69 205.118 Q2120.96 205.118 2124.78 210.877 Q2128.62 216.606 2128.62 227.543 Q2128.62 238.452 2124.78 244.21 Q2120.96 249.939 2113.69 249.939 Q2106.43 249.939 2102.58 244.21 Q2098.76 238.452 2098.76 227.543 Q2098.76 216.606 2102.58 210.877 Q2106.43 205.118 2113.69 205.118 Z" fill="#000000" fill-rule="nonzero" fill-opacity="1" /><path clip-path="url(#clip920)" d="M2138.9 241.75 L2145 241.75 L2145 249.1 L2138.9 249.1 L2138.9 241.75 Z" fill="#000000" fill-rule="nonzero" fill-opacity="1" /><path clip-path="url(#clip920)" d="M2170.23 209.748 Q2165.72 209.748 2163.43 214.204 Q2161.18 218.631 2161.18 227.543 Q2161.18 236.426 2163.43 240.882 Q2165.72 245.309 2170.23 245.309 Q2174.78 245.309 2177.03 240.882 Q2179.32 236.426 2179.32 227.543 Q2179.32 218.631 2177.03 214.204 Q2174.78 209.748 2170.23 209.748 M2170.23 205.118 Q2177.5 205.118 2181.32 210.877 Q2185.16 216.606 2185.16 227.543 Q2185.16 238.452 2181.32 244.21 Q2177.5 249.939 2170.23 249.939 Q2162.97 249.939 2159.12 244.21 Q2155.3 238.452 2155.3 227.543 Q2155.3 216.606 2159.12 210.877 Q2162.97 205.118 2170.23 205.118 Z" fill="#000000" fill-rule="nonzero" fill-opacity="1" /><path clip-path="url(#clip920)" d="M2200.47 244.181 L2220.87 244.181 L2220.87 249.1 L2193.44 249.1 L2193.44 244.181 Q2196.77 240.738 2202.5 234.951 Q2208.25 229.135 2209.73 227.456 Q2212.54 224.302 2213.64 222.132 Q2214.76 219.933 2214.76 217.821 Q2214.76 214.378 2212.33 212.208 Q2209.93 210.037 2206.05 210.037 Q2203.31 210.037 2200.24 210.992 Q2197.2 211.947 2193.73 213.886 L2193.73 207.983 Q2197.26 206.565 2200.33 205.842 Q2203.39 205.118 2205.94 205.118 Q2212.65 205.118 2216.64 208.475 Q2220.64 211.831 2220.64 217.445 Q2220.64 220.107 2219.63 222.508 Q2218.64 224.881 2216.01 228.122 Q2215.28 228.961 2211.41 232.983 Q2207.53 236.976 2200.47 244.181 Z" fill="#000000" fill-rule="nonzero" fill-opacity="1" /><path clip-path="url(#clip920)" d="M2245.64 228.585 Q2241.47 228.585 2239.07 230.813 Q2236.7 233.041 2236.7 236.947 Q2236.7 240.853 2239.07 243.081 Q2241.47 245.309 2245.64 245.309 Q2249.8 245.309 2252.21 243.081 Q2254.61 240.824 2254.61 236.947 Q2254.61 233.041 2252.21 230.813 Q2249.83 228.585 2245.64 228.585 M2239.79 226.096 Q2236.03 225.17 2233.92 222.595 Q2231.84 220.02 2231.84 216.316 Q2231.84 211.137 2235.51 208.128 Q2239.21 205.118 2245.64 205.118 Q2252.09 205.118 2255.76 208.128 Q2259.44 211.137 2259.44 216.316 Q2259.44 220.02 2257.33 222.595 Q2255.24 225.17 2251.51 226.096 Q2255.74 227.08 2258.08 229.945 Q2260.45 232.809 2260.45 236.947 Q2260.45 243.226 2256.6 246.582 Q2252.78 249.939 2245.64 249.939 Q2238.49 249.939 2234.64 246.582 Q2230.82 243.226 2230.82 236.947 Q2230.82 232.809 2233.2 229.945 Q2235.57 227.08 2239.79 226.096 M2237.65 216.866 Q2237.65 220.223 2239.73 222.103 Q2241.85 223.984 2245.64 223.984 Q2249.4 223.984 2251.51 222.103 Q2253.65 220.223 2253.65 216.866 Q2253.65 213.51 2251.51 211.629 Q2249.4 209.748 2245.64 209.748 Q2241.85 209.748 2239.73 211.629 Q2237.65 213.51 2237.65 216.866 Z" fill="#000000" fill-rule="nonzero" fill-opacity="1" /><path clip-path="url(#clip920)" d="M2271.85 244.181 L2281.4 244.181 L2281.4 211.224 L2271.01 213.307 L2271.01 207.983 L2281.34 205.9 L2287.19 205.9 L2287.19 244.181 L2296.74 244.181 L2296.74 249.1 L2271.85 249.1 L2271.85 244.181 Z" fill="#000000" fill-rule="nonzero" fill-opacity="1" /><path clip-path="url(#clip920)" d="M2326.25 225.807 Q2330.45 226.704 2332.79 229.54 Q2335.16 232.375 2335.16 236.542 Q2335.16 242.937 2330.76 246.438 Q2326.37 249.939 2318.26 249.939 Q2315.54 249.939 2312.65 249.389 Q2309.79 248.868 2306.72 247.798 L2306.72 242.155 Q2309.15 243.573 2312.04 244.297 Q2314.94 245.02 2318.09 245.02 Q2323.59 245.02 2326.45 242.85 Q2329.35 240.68 2329.35 236.542 Q2329.35 232.723 2326.66 230.581 Q2323.99 228.411 2319.22 228.411 L2314.18 228.411 L2314.18 223.608 L2319.45 223.608 Q2323.76 223.608 2326.05 221.901 Q2328.33 220.165 2328.33 216.924 Q2328.33 213.596 2325.96 211.831 Q2323.62 210.037 2319.22 210.037 Q2316.82 210.037 2314.07 210.558 Q2311.32 211.079 2308.02 212.179 L2308.02 206.97 Q2311.35 206.044 2314.24 205.581 Q2317.17 205.118 2319.74 205.118 Q2326.4 205.118 2330.27 208.157 Q2334.15 211.166 2334.15 216.316 Q2334.15 219.904 2332.1 222.393 Q2330.04 224.852 2326.25 225.807 Z" fill="#000000" fill-rule="nonzero" fill-opacity="1" /><path clip-path="url(#clip920)" d="M3424.06 1273.23 L4752.76 1273.23 L4752.76 88.0695 L3424.06 88.0695  Z" fill="#ffffff" fill-rule="evenodd" fill-opacity="1"/>
<defs>
  <clipPath id="clip924">
    <rect x="3424" y="88" width="1330" height="1186"/>
  </clipPath>
</defs>
<polyline clip-path="url(#clip924)" style="stroke:#000000; stroke-linecap:round; stroke-linejoin:round; stroke-width:2; stroke-opacity:0.1; fill:none" points="3615.4,1273.23 3615.4,88.0695 "/>
<polyline clip-path="url(#clip924)" style="stroke:#000000; stroke-linecap:round; stroke-linejoin:round; stroke-width:2; stroke-opacity:0.1; fill:none" points="3851.9,1273.23 3851.9,88.0695 "/>
<polyline clip-path="url(#clip924)" style="stroke:#000000; stroke-linecap:round; stroke-linejoin:round; stroke-width:2; stroke-opacity:0.1; fill:none" points="4088.41,1273.23 4088.41,88.0695 "/>
<polyline clip-path="url(#clip924)" style="stroke:#000000; stroke-linecap:round; stroke-linejoin:round; stroke-width:2; stroke-opacity:0.1; fill:none" points="4324.92,1273.23 4324.92,88.0695 "/>
<polyline clip-path="url(#clip924)" style="stroke:#000000; stroke-linecap:round; stroke-linejoin:round; stroke-width:2; stroke-opacity:0.1; fill:none" points="4561.42,1273.23 4561.42,88.0695 "/>
<polyline clip-path="url(#clip920)" style="stroke:#000000; stroke-linecap:round; stroke-linejoin:round; stroke-width:4; stroke-opacity:1; fill:none" points="3424.06,1273.23 4752.76,1273.23 "/>
<polyline clip-path="url(#clip920)" style="stroke:#000000; stroke-linecap:round; stroke-linejoin:round; stroke-width:4; stroke-opacity:1; fill:none" points="3615.4,1273.23 3615.4,1254.33 "/>
<polyline clip-path="url(#clip920)" style="stroke:#000000; stroke-linecap:round; stroke-linejoin:round; stroke-width:4; stroke-opacity:1; fill:none" points="3851.9,1273.23 3851.9,1254.33 "/>
<polyline clip-path="url(#clip920)" style="stroke:#000000; stroke-linecap:round; stroke-linejoin:round; stroke-width:4; stroke-opacity:1; fill:none" points="4088.41,1273.23 4088.41,1254.33 "/>
<polyline clip-path="url(#clip920)" style="stroke:#000000; stroke-linecap:round; stroke-linejoin:round; stroke-width:4; stroke-opacity:1; fill:none" points="4324.92,1273.23 4324.92,1254.33 "/>
<polyline clip-path="url(#clip920)" style="stroke:#000000; stroke-linecap:round; stroke-linejoin:round; stroke-width:4; stroke-opacity:1; fill:none" points="4561.42,1273.23 4561.42,1254.33 "/>
<g clip-path="url(#clip920)">
<text style="fill:#000000; fill-opacity:1; font-family:Century Gothic,CenturyGothic,AppleGothic,sans-serif; font-size:47px; text-anchor:middle;" transform="rotate(0, 3615.4, 1353.69)" x="3615.4" y="1353.69">0</text>
</g>
<g clip-path="url(#clip920)">
<text style="fill:#000000; fill-opacity:1; font-family:Century Gothic,CenturyGothic,AppleGothic,sans-serif; font-size:47px; text-anchor:middle;" transform="rotate(0, 3851.9, 1353.69)" x="3851.9" y="1353.69">1</text>
</g>
<g clip-path="url(#clip920)">
<text style="fill:#000000; fill-opacity:1; font-family:Century Gothic,CenturyGothic,AppleGothic,sans-serif; font-size:47px; text-anchor:middle;" transform="rotate(0, 4088.41, 1353.69)" x="4088.41" y="1353.69">2</text>
</g>
<g clip-path="url(#clip920)">
<text style="fill:#000000; fill-opacity:1; font-family:Century Gothic,CenturyGothic,AppleGothic,sans-serif; font-size:47px; text-anchor:middle;" transform="rotate(0, 4324.92, 1353.69)" x="4324.92" y="1353.69">3</text>
</g>
<g clip-path="url(#clip920)">
<text style="fill:#000000; fill-opacity:1; font-family:Century Gothic,CenturyGothic,AppleGothic,sans-serif; font-size:47px; text-anchor:middle;" transform="rotate(0, 4561.42, 1353.69)" x="4561.42" y="1353.69">4</text>
</g>
<g clip-path="url(#clip920)">
<text style="fill:#000000; fill-opacity:1; font-family:Century Gothic,CenturyGothic,AppleGothic,sans-serif; font-size:65px; text-anchor:middle;" transform="rotate(0, 4088.41, 1452.31)" x="4088.41" y="1452.31">中心推定の正解数</text>
</g>
<polyline clip-path="url(#clip924)" style="stroke:#000000; stroke-linecap:round; stroke-linejoin:round; stroke-width:2; stroke-opacity:0.1; fill:none" points="3424.06,1273.23 4752.76,1273.23 "/>
<polyline clip-path="url(#clip924)" style="stroke:#000000; stroke-linecap:round; stroke-linejoin:round; stroke-width:2; stroke-opacity:0.1; fill:none" points="3424.06,994.366 4752.76,994.366 "/>
<polyline clip-path="url(#clip924)" style="stroke:#000000; stroke-linecap:round; stroke-linejoin:round; stroke-width:2; stroke-opacity:0.1; fill:none" points="3424.06,715.505 4752.76,715.505 "/>
<polyline clip-path="url(#clip924)" style="stroke:#000000; stroke-linecap:round; stroke-linejoin:round; stroke-width:2; stroke-opacity:0.1; fill:none" points="3424.06,436.645 4752.76,436.645 "/>
<polyline clip-path="url(#clip924)" style="stroke:#000000; stroke-linecap:round; stroke-linejoin:round; stroke-width:2; stroke-opacity:0.1; fill:none" points="3424.06,157.785 4752.76,157.785 "/>
<polyline clip-path="url(#clip920)" style="stroke:#000000; stroke-linecap:round; stroke-linejoin:round; stroke-width:4; stroke-opacity:1; fill:none" points="3424.06,1273.23 3424.06,88.0695 "/>
<polyline clip-path="url(#clip920)" style="stroke:#000000; stroke-linecap:round; stroke-linejoin:round; stroke-width:4; stroke-opacity:1; fill:none" points="3424.06,1273.23 3442.96,1273.23 "/>
<polyline clip-path="url(#clip920)" style="stroke:#000000; stroke-linecap:round; stroke-linejoin:round; stroke-width:4; stroke-opacity:1; fill:none" points="3424.06,994.366 3442.96,994.366 "/>
<polyline clip-path="url(#clip920)" style="stroke:#000000; stroke-linecap:round; stroke-linejoin:round; stroke-width:4; stroke-opacity:1; fill:none" points="3424.06,715.505 3442.96,715.505 "/>
<polyline clip-path="url(#clip920)" style="stroke:#000000; stroke-linecap:round; stroke-linejoin:round; stroke-width:4; stroke-opacity:1; fill:none" points="3424.06,436.645 3442.96,436.645 "/>
<polyline clip-path="url(#clip920)" style="stroke:#000000; stroke-linecap:round; stroke-linejoin:round; stroke-width:4; stroke-opacity:1; fill:none" points="3424.06,157.785 3442.96,157.785 "/>
<g clip-path="url(#clip920)">
<text style="fill:#000000; fill-opacity:1; font-family:Century Gothic,CenturyGothic,AppleGothic,sans-serif; font-size:47px; text-anchor:middle;" transform="rotate(0, 3339.13, 1290.73)" x="3339.13" y="1290.73">0</text>
</g>
<g clip-path="url(#clip920)">
<text style="fill:#000000; fill-opacity:1; font-family:Century Gothic,CenturyGothic,AppleGothic,sans-serif; font-size:47px; text-anchor:middle;" transform="rotate(0, 3313.25, 1011.87)" x="3313.25" y="1011.87">200</text>
</g>
<g clip-path="url(#clip920)">
<text style="fill:#000000; fill-opacity:1; font-family:Century Gothic,CenturyGothic,AppleGothic,sans-serif; font-size:47px; text-anchor:middle;" transform="rotate(0, 3313.25, 733.005)" x="3313.25" y="733.005">400</text>
</g>
<g clip-path="url(#clip920)">
<text style="fill:#000000; fill-opacity:1; font-family:Century Gothic,CenturyGothic,AppleGothic,sans-serif; font-size:47px; text-anchor:middle;" transform="rotate(0, 3313.25, 454.145)" x="3313.25" y="454.145">600</text>
</g>
<g clip-path="url(#clip920)">
<text style="fill:#000000; fill-opacity:1; font-family:Century Gothic,CenturyGothic,AppleGothic,sans-serif; font-size:47px; text-anchor:middle;" transform="rotate(0, 3313.25, 175.285)" x="3313.25" y="175.285">800</text>
</g>
<g clip-path="url(#clip920)">
<text style="fill:#000000; fill-opacity:1; font-family:Century Gothic,CenturyGothic,AppleGothic,sans-serif; font-size:65px; text-anchor:middle;" transform="rotate(-90, 3192.49, 680.648)" x="3192.49" y="680.648">度数</text>
</g>
<g clip-path="url(#clip920)">
<text style="fill:#000000; fill-opacity:1; font-family:Century Gothic,CenturyGothic,AppleGothic,sans-serif; font-size:81px; text-anchor:middle;" transform="rotate(0, 4088.41, 72)" x="4088.41" y="72">Setting : E, Method : LM</text>
</g>
<path clip-path="url(#clip924)" d="M3497.14 1273.23 L3497.14 1273.23 L3733.65 1273.23 L3733.65 1273.23 L3497.14 1273.23 L3497.14 1273.23  Z" fill="#009af9" fill-rule="evenodd" fill-opacity="1"/>
<polyline clip-path="url(#clip924)" style="stroke:#000000; stroke-linecap:round; stroke-linejoin:round; stroke-width:4; stroke-opacity:1; fill:none" points="3497.14,1273.23 3497.14,1273.23 3733.65,1273.23 3497.14,1273.23 "/>
<path clip-path="url(#clip924)" d="M3733.65 1082.21 L3733.65 1273.23 L3970.16 1273.23 L3970.16 1082.21 L3733.65 1082.21 L3733.65 1082.21  Z" fill="#009af9" fill-rule="evenodd" fill-opacity="1"/>
<polyline clip-path="url(#clip924)" style="stroke:#000000; stroke-linecap:round; stroke-linejoin:round; stroke-width:4; stroke-opacity:1; fill:none" points="3733.65,1082.21 3733.65,1273.23 3970.16,1273.23 3970.16,1082.21 3733.65,1082.21 "/>
<path clip-path="url(#clip924)" d="M3970.16 946.96 L3970.16 1273.23 L4206.66 1273.23 L4206.66 946.96 L3970.16 946.96 L3970.16 946.96  Z" fill="#009af9" fill-rule="evenodd" fill-opacity="1"/>
<polyline clip-path="url(#clip924)" style="stroke:#000000; stroke-linecap:round; stroke-linejoin:round; stroke-width:4; stroke-opacity:1; fill:none" points="3970.16,946.96 3970.16,1273.23 4206.66,1273.23 4206.66,946.96 3970.16,946.96 "/>
<path clip-path="url(#clip924)" d="M4206.66 810.318 L4206.66 1273.23 L4443.17 1273.23 L4443.17 810.318 L4206.66 810.318 L4206.66 810.318  Z" fill="#009af9" fill-rule="evenodd" fill-opacity="1"/>
<polyline clip-path="url(#clip924)" style="stroke:#000000; stroke-linecap:round; stroke-linejoin:round; stroke-width:4; stroke-opacity:1; fill:none" points="4206.66,810.318 4206.66,1273.23 4443.17,1273.23 4443.17,810.318 4206.66,810.318 "/>
<path clip-path="url(#clip924)" d="M4443.17 859.119 L4443.17 1273.23 L4679.68 1273.23 L4679.68 859.119 L4443.17 859.119 L4443.17 859.119  Z" fill="#009af9" fill-rule="evenodd" fill-opacity="1"/>
<polyline clip-path="url(#clip924)" style="stroke:#000000; stroke-linecap:round; stroke-linejoin:round; stroke-width:4; stroke-opacity:1; fill:none" points="4443.17,859.119 4443.17,1273.23 4679.68,1273.23 4679.68,859.119 4443.17,859.119 "/>
<circle clip-path="url(#clip924)" style="fill:#009af9; stroke:none; fill-opacity:0" cx="3615.4" cy="1273.23" r="2"/>
<circle clip-path="url(#clip924)" style="fill:#009af9; stroke:none; fill-opacity:0" cx="3851.9" cy="1082.21" r="2"/>
<circle clip-path="url(#clip924)" style="fill:#009af9; stroke:none; fill-opacity:0" cx="4088.41" cy="946.96" r="2"/>
<circle clip-path="url(#clip924)" style="fill:#009af9; stroke:none; fill-opacity:0" cx="4324.92" cy="810.318" r="2"/>
<circle clip-path="url(#clip924)" style="fill:#009af9; stroke:none; fill-opacity:0" cx="4561.42" cy="859.119" r="2"/>
<path clip-path="url(#clip920)" d="M3497.14 136.185 L3505.85 136.185 L3516.88 165.583 L3527.96 136.185 L3536.67 136.185 L3536.67 179.385 L3530.97 179.385 L3530.97 141.451 L3519.83 171.08 L3513.96 171.08 L3502.82 141.451 L3502.82 179.385 L3497.14 179.385 L3497.14 136.185 Z" fill="#000000" fill-rule="nonzero" fill-opacity="1" /><path clip-path="url(#clip920)" d="M3575.76 161.85 L3575.76 164.454 L3551.28 164.454 Q3551.63 169.952 3554.58 172.845 Q3557.56 175.71 3562.86 175.71 Q3565.92 175.71 3568.79 174.958 Q3571.68 174.205 3574.52 172.701 L3574.52 177.735 Q3571.65 178.951 3568.64 179.587 Q3565.63 180.224 3562.54 180.224 Q3554.78 180.224 3550.24 175.71 Q3545.73 171.196 3545.73 163.499 Q3545.73 155.542 3550.01 150.884 Q3554.32 146.196 3561.61 146.196 Q3568.15 146.196 3571.94 150.421 Q3575.76 154.616 3575.76 161.85 M3570.44 160.288 Q3570.38 155.918 3567.98 153.314 Q3565.6 150.71 3561.67 150.71 Q3557.21 150.71 3554.52 153.227 Q3551.86 155.745 3551.46 160.316 L3570.44 160.288 Z" fill="#000000" fill-rule="nonzero" fill-opacity="1" /><path clip-path="url(#clip920)" d="M3599.23 163.094 Q3592.77 163.094 3590.29 164.57 Q3587.8 166.046 3587.8 169.605 Q3587.8 172.44 3589.65 174.118 Q3591.53 175.768 3594.74 175.768 Q3599.17 175.768 3601.83 172.643 Q3604.52 169.489 3604.52 164.281 L3604.52 163.094 L3599.23 163.094 M3609.85 160.895 L3609.85 179.385 L3604.52 179.385 L3604.52 174.466 Q3602.7 177.417 3599.98 178.835 Q3597.26 180.224 3593.32 180.224 Q3588.35 180.224 3585.4 177.446 Q3582.47 174.639 3582.47 169.952 Q3582.47 164.483 3586.12 161.705 Q3589.79 158.928 3597.06 158.928 L3604.52 158.928 L3604.52 158.407 Q3604.52 154.732 3602.09 152.735 Q3599.69 150.71 3595.32 150.71 Q3592.54 150.71 3589.91 151.376 Q3587.28 152.041 3584.85 153.372 L3584.85 148.453 Q3587.77 147.325 3590.52 146.775 Q3593.27 146.196 3595.87 146.196 Q3602.9 146.196 3606.37 149.842 Q3609.85 153.488 3609.85 160.895 Z" fill="#000000" fill-rule="nonzero" fill-opacity="1" /><path clip-path="url(#clip920)" d="M3647.75 159.825 L3647.75 179.385 L3642.43 179.385 L3642.43 159.998 Q3642.43 155.397 3640.63 153.112 Q3638.84 150.826 3635.25 150.826 Q3630.94 150.826 3628.45 153.575 Q3625.96 156.323 3625.96 161.069 L3625.96 179.385 L3620.61 179.385 L3620.61 146.977 L3625.96 146.977 L3625.96 152.012 Q3627.87 149.09 3630.45 147.643 Q3633.05 146.196 3636.44 146.196 Q3642.02 146.196 3644.89 149.668 Q3647.75 153.112 3647.75 159.825 Z" fill="#000000" fill-rule="nonzero" fill-opacity="1" /><path clip-path="url(#clip920)" d="M3677.9 152.475 L3715 152.475 L3715 157.336 L3677.9 157.336 L3677.9 152.475 M3677.9 164.281 L3715 164.281 L3715 169.2 L3677.9 169.2 L3677.9 164.281 Z" fill="#000000" fill-rule="nonzero" fill-opacity="1" /><path clip-path="url(#clip920)" d="M3751.48 174.466 L3771.88 174.466 L3771.88 179.385 L3744.45 179.385 L3744.45 174.466 Q3747.78 171.022 3753.51 165.235 Q3759.27 159.419 3760.74 157.741 Q3763.55 154.587 3764.65 152.417 Q3765.78 150.218 3765.78 148.106 Q3765.78 144.663 3763.35 142.492 Q3760.94 140.322 3757.07 140.322 Q3754.32 140.322 3751.25 141.277 Q3748.21 142.232 3744.74 144.171 L3744.74 138.268 Q3748.27 136.85 3751.34 136.127 Q3754.41 135.403 3756.95 135.403 Q3763.66 135.403 3767.66 138.76 Q3771.65 142.116 3771.65 147.73 Q3771.65 150.392 3770.64 152.793 Q3769.65 155.166 3767.02 158.407 Q3766.3 159.246 3762.42 163.268 Q3758.54 167.261 3751.48 174.466 Z" fill="#000000" fill-rule="nonzero" fill-opacity="1" /><path clip-path="url(#clip920)" d="M3784.15 172.035 L3790.26 172.035 L3790.26 179.385 L3784.15 179.385 L3784.15 172.035 Z" fill="#000000" fill-rule="nonzero" fill-opacity="1" /><path clip-path="url(#clip920)" d="M3801.51 136.185 L3829.29 136.185 L3829.29 138.673 L3813.61 179.385 L3807.5 179.385 L3822.26 141.104 L3801.51 141.104 L3801.51 136.185 Z" fill="#000000" fill-rule="nonzero" fill-opacity="1" /><path clip-path="url(#clip920)" d="M3853.19 158.87 Q3849.02 158.87 3846.62 161.098 Q3844.25 163.326 3844.25 167.232 Q3844.25 171.138 3846.62 173.366 Q3849.02 175.594 3853.19 175.594 Q3857.36 175.594 3859.76 173.366 Q3862.16 171.109 3862.16 167.232 Q3862.16 163.326 3859.76 161.098 Q3857.39 158.87 3853.19 158.87 M3847.34 156.381 Q3843.58 155.455 3841.47 152.88 Q3839.39 150.305 3839.39 146.601 Q3839.39 141.422 3843.06 138.413 Q3846.77 135.403 3853.19 135.403 Q3859.64 135.403 3863.32 138.413 Q3866.99 141.422 3866.99 146.601 Q3866.99 150.305 3864.88 152.88 Q3862.8 155.455 3859.06 156.381 Q3863.29 157.365 3865.63 160.23 Q3868 163.094 3868 167.232 Q3868 173.511 3864.16 176.867 Q3860.34 180.224 3853.19 180.224 Q3846.04 180.224 3842.19 176.867 Q3838.37 173.511 3838.37 167.232 Q3838.37 163.094 3840.75 160.23 Q3843.12 157.365 3847.34 156.381 M3845.2 147.151 Q3845.2 150.507 3847.29 152.388 Q3849.4 154.269 3853.19 154.269 Q3856.95 154.269 3859.06 152.388 Q3861.2 150.507 3861.2 147.151 Q3861.2 143.795 3859.06 141.914 Q3856.95 140.033 3853.19 140.033 Q3849.4 140.033 3847.29 141.914 Q3845.2 143.795 3845.2 147.151 Z" fill="#000000" fill-rule="nonzero" fill-opacity="1" /><path clip-path="url(#clip920)" d="M3878.57 178.488 L3878.57 173.164 Q3880.76 174.205 3883.02 174.755 Q3885.28 175.305 3887.45 175.305 Q3893.24 175.305 3896.27 171.427 Q3899.34 167.521 3899.78 159.593 Q3898.1 162.081 3895.52 163.412 Q3892.95 164.744 3889.82 164.744 Q3883.34 164.744 3879.55 160.837 Q3875.79 156.902 3875.79 150.102 Q3875.79 143.447 3879.72 139.425 Q3883.66 135.403 3890.2 135.403 Q3897.69 135.403 3901.63 141.161 Q3905.59 146.891 3905.59 157.828 Q3905.59 168.042 3900.73 174.147 Q3895.9 180.224 3887.71 180.224 Q3885.51 180.224 3883.25 179.79 Q3881 179.356 3878.57 178.488 M3890.2 160.172 Q3894.13 160.172 3896.42 157.481 Q3898.73 154.79 3898.73 150.102 Q3898.73 145.444 3896.42 142.753 Q3894.13 140.033 3890.2 140.033 Q3886.26 140.033 3883.95 142.753 Q3881.66 145.444 3881.66 150.102 Q3881.66 154.79 3883.95 157.481 Q3886.26 160.172 3890.2 160.172 Z" fill="#000000" fill-rule="nonzero" fill-opacity="1" /><path clip-path="url(#clip920)" d="M3502.99 210.703 L3502.99 244.297 L3510.05 244.297 Q3518.99 244.297 3523.13 240.246 Q3527.29 236.195 3527.29 227.456 Q3527.29 218.776 3523.13 214.754 Q3518.99 210.703 3510.05 210.703 L3502.99 210.703 M3497.14 205.9 L3509.15 205.9 Q3521.71 205.9 3527.58 211.137 Q3533.46 216.345 3533.46 227.456 Q3533.46 238.625 3527.55 243.862 Q3521.65 249.1 3509.15 249.1 L3497.14 249.1 L3497.14 205.9 Z" fill="#000000" fill-rule="nonzero" fill-opacity="1" /><path clip-path="url(#clip920)" d="M3542.54 216.692 L3547.87 216.692 L3547.87 249.1 L3542.54 249.1 L3542.54 216.692 M3542.54 204.077 L3547.87 204.077 L3547.87 210.819 L3542.54 210.819 L3542.54 204.077 Z" fill="#000000" fill-rule="nonzero" fill-opacity="1" /><path clip-path="url(#clip920)" d="M3579.67 217.647 L3579.67 222.682 Q3577.41 221.525 3574.98 220.946 Q3572.55 220.367 3569.94 220.367 Q3565.98 220.367 3563.98 221.583 Q3562.02 222.798 3562.02 225.228 Q3562.02 227.08 3563.43 228.151 Q3564.85 229.192 3569.13 230.147 L3570.96 230.552 Q3576.63 231.768 3579 233.996 Q3581.4 236.195 3581.4 240.159 Q3581.4 244.673 3577.82 247.306 Q3574.26 249.939 3568.01 249.939 Q3565.4 249.939 3562.57 249.418 Q3559.76 248.926 3556.63 247.913 L3556.63 242.416 Q3559.59 243.949 3562.45 244.731 Q3565.32 245.483 3568.12 245.483 Q3571.88 245.483 3573.91 244.21 Q3575.93 242.908 3575.93 240.564 Q3575.93 238.394 3574.46 237.236 Q3573.01 236.079 3568.06 235.008 L3566.21 234.574 Q3561.26 233.533 3559.07 231.391 Q3556.87 229.221 3556.87 225.46 Q3556.87 220.888 3560.11 218.4 Q3563.35 215.911 3569.31 215.911 Q3572.26 215.911 3574.86 216.345 Q3577.47 216.779 3579.67 217.647 Z" fill="#000000" fill-rule="nonzero" fill-opacity="1" /><path clip-path="url(#clip920)" d="M3595.15 207.491 L3595.15 216.692 L3606.11 216.692 L3606.11 220.83 L3595.15 220.83 L3595.15 238.423 Q3595.15 242.387 3596.22 243.515 Q3597.32 244.644 3600.64 244.644 L3606.11 244.644 L3606.11 249.1 L3600.64 249.1 Q3594.48 249.1 3592.14 246.814 Q3589.79 244.499 3589.79 238.423 L3589.79 220.83 L3585.89 220.83 L3585.89 216.692 L3589.79 216.692 L3589.79 207.491 L3595.15 207.491 Z" fill="#000000" fill-rule="nonzero" fill-opacity="1" /><path clip-path="url(#clip920)" d="M3632.65 222.19 L3669.74 222.19 L3669.74 227.051 L3632.65 227.051 L3632.65 222.19 M3632.65 233.996 L3669.74 233.996 L3669.74 238.915 L3632.65 238.915 L3632.65 233.996 Z" fill="#000000" fill-rule="nonzero" fill-opacity="1" /><path clip-path="url(#clip920)" d="M3713.69 209.748 Q3709.18 209.748 3706.89 214.204 Q3704.64 218.631 3704.64 227.543 Q3704.64 236.426 3706.89 240.882 Q3709.18 245.309 3713.69 245.309 Q3718.24 245.309 3720.49 240.882 Q3722.78 236.426 3722.78 227.543 Q3722.78 218.631 3720.49 214.204 Q3718.24 209.748 3713.69 209.748 M3713.69 205.118 Q3720.96 205.118 3724.78 210.877 Q3728.62 216.606 3728.62 227.543 Q3728.62 238.452 3724.78 244.21 Q3720.96 249.939 3713.69 249.939 Q3706.43 249.939 3702.58 244.21 Q3698.76 238.452 3698.76 227.543 Q3698.76 216.606 3702.58 210.877 Q3706.43 205.118 3713.69 205.118 Z" fill="#000000" fill-rule="nonzero" fill-opacity="1" /><path clip-path="url(#clip920)" d="M3738.9 241.75 L3745 241.75 L3745 249.1 L3738.9 249.1 L3738.9 241.75 Z" fill="#000000" fill-rule="nonzero" fill-opacity="1" /><path clip-path="url(#clip920)" d="M3770.23 209.748 Q3765.72 209.748 3763.43 214.204 Q3761.18 218.631 3761.18 227.543 Q3761.18 236.426 3763.43 240.882 Q3765.72 245.309 3770.23 245.309 Q3774.78 245.309 3777.03 240.882 Q3779.32 236.426 3779.32 227.543 Q3779.32 218.631 3777.03 214.204 Q3774.78 209.748 3770.23 209.748 M3770.23 205.118 Q3777.5 205.118 3781.32 210.877 Q3785.16 216.606 3785.16 227.543 Q3785.16 238.452 3781.32 244.21 Q3777.5 249.939 3770.23 249.939 Q3762.97 249.939 3759.12 244.21 Q3755.3 238.452 3755.3 227.543 Q3755.3 216.606 3759.12 210.877 Q3762.97 205.118 3770.23 205.118 Z" fill="#000000" fill-rule="nonzero" fill-opacity="1" /><path clip-path="url(#clip920)" d="M3813.14 225.807 Q3817.34 226.704 3819.68 229.54 Q3822.06 232.375 3822.06 236.542 Q3822.06 242.937 3817.66 246.438 Q3813.26 249.939 3805.16 249.939 Q3802.44 249.939 3799.54 249.389 Q3796.68 248.868 3793.61 247.798 L3793.61 242.155 Q3796.04 243.573 3798.94 244.297 Q3801.83 245.02 3804.98 245.02 Q3810.48 245.02 3813.35 242.85 Q3816.24 240.68 3816.24 236.542 Q3816.24 232.723 3813.55 230.581 Q3810.89 228.411 3806.11 228.411 L3801.08 228.411 L3801.08 223.608 L3806.34 223.608 Q3810.66 223.608 3812.94 221.901 Q3815.23 220.165 3815.23 216.924 Q3815.23 213.596 3812.85 211.831 Q3810.51 210.037 3806.11 210.037 Q3803.71 210.037 3800.96 210.558 Q3798.21 211.079 3794.91 212.179 L3794.91 206.97 Q3798.24 206.044 3801.14 205.581 Q3804.06 205.118 3806.63 205.118 Q3813.29 205.118 3817.17 208.157 Q3821.04 211.166 3821.04 216.316 Q3821.04 219.904 3818.99 222.393 Q3816.93 224.852 3813.14 225.807 Z" fill="#000000" fill-rule="nonzero" fill-opacity="1" /><path clip-path="url(#clip920)" d="M3845.64 228.585 Q3841.47 228.585 3839.07 230.813 Q3836.7 233.041 3836.7 236.947 Q3836.7 240.853 3839.07 243.081 Q3841.47 245.309 3845.64 245.309 Q3849.8 245.309 3852.21 243.081 Q3854.61 240.824 3854.61 236.947 Q3854.61 233.041 3852.21 230.813 Q3849.83 228.585 3845.64 228.585 M3839.79 226.096 Q3836.03 225.17 3833.92 222.595 Q3831.84 220.02 3831.84 216.316 Q3831.84 211.137 3835.51 208.128 Q3839.21 205.118 3845.64 205.118 Q3852.09 205.118 3855.76 208.128 Q3859.44 211.137 3859.44 216.316 Q3859.44 220.02 3857.33 222.595 Q3855.24 225.17 3851.51 226.096 Q3855.74 227.08 3858.08 229.945 Q3860.45 232.809 3860.45 236.947 Q3860.45 243.226 3856.6 246.582 Q3852.78 249.939 3845.64 249.939 Q3838.49 249.939 3834.64 246.582 Q3830.82 243.226 3830.82 236.947 Q3830.82 232.809 3833.2 229.945 Q3835.57 227.08 3839.79 226.096 M3837.65 216.866 Q3837.65 220.223 3839.73 222.103 Q3841.85 223.984 3845.64 223.984 Q3849.4 223.984 3851.51 222.103 Q3853.65 220.223 3853.65 216.866 Q3853.65 213.51 3851.51 211.629 Q3849.4 209.748 3845.64 209.748 Q3841.85 209.748 3839.73 211.629 Q3837.65 213.51 3837.65 216.866 Z" fill="#000000" fill-rule="nonzero" fill-opacity="1" /><path clip-path="url(#clip920)" d="M3871.01 248.203 L3871.01 242.879 Q3873.21 243.92 3875.47 244.47 Q3877.73 245.02 3879.9 245.02 Q3885.68 245.02 3888.72 241.143 Q3891.79 237.236 3892.22 229.308 Q3890.54 231.797 3887.97 233.128 Q3885.39 234.459 3882.27 234.459 Q3875.79 234.459 3872 230.552 Q3868.24 226.617 3868.24 219.817 Q3868.24 213.162 3872.17 209.14 Q3876.11 205.118 3882.65 205.118 Q3890.14 205.118 3894.07 210.877 Q3898.04 216.606 3898.04 227.543 Q3898.04 237.757 3893.18 243.862 Q3888.35 249.939 3880.16 249.939 Q3877.96 249.939 3875.7 249.505 Q3873.44 249.071 3871.01 248.203 M3882.65 229.887 Q3886.58 229.887 3888.87 227.196 Q3891.18 224.505 3891.18 219.817 Q3891.18 215.159 3888.87 212.468 Q3886.58 209.748 3882.65 209.748 Q3878.71 209.748 3876.4 212.468 Q3874.11 215.159 3874.11 219.817 Q3874.11 224.505 3876.4 227.196 Q3878.71 229.887 3882.65 229.887 Z" fill="#000000" fill-rule="nonzero" fill-opacity="1" /><path clip-path="url(#clip920)" d="M3908.6 205.9 L3931.55 205.9 L3931.55 210.819 L3913.95 210.819 L3913.95 221.409 Q3915.23 220.975 3916.5 220.772 Q3917.77 220.541 3919.05 220.541 Q3926.28 220.541 3930.5 224.505 Q3934.73 228.469 3934.73 235.24 Q3934.73 242.213 3930.39 246.09 Q3926.05 249.939 3918.15 249.939 Q3915.43 249.939 3912.59 249.476 Q3909.79 249.013 3906.78 248.087 L3906.78 242.213 Q3909.38 243.631 3912.16 244.325 Q3914.94 245.02 3918.03 245.02 Q3923.04 245.02 3925.96 242.387 Q3928.88 239.754 3928.88 235.24 Q3928.88 230.726 3925.96 228.093 Q3923.04 225.46 3918.03 225.46 Q3915.69 225.46 3913.35 225.981 Q3911.03 226.501 3908.6 227.601 L3908.6 205.9 Z" fill="#000000" fill-rule="nonzero" fill-opacity="1" /></svg>
